<?xml version="1.0" encoding="utf-8" standalone="no"?>
<!DOCTYPE svg PUBLIC "-//W3C//DTD SVG 1.1//EN"
  "http://www.w3.org/Graphics/SVG/1.1/DTD/svg11.dtd">
<svg xmlns:xlink="http://www.w3.org/1999/xlink" width="724.633125pt" height="212.126563pt" viewBox="0 0 724.633125 212.126563" xmlns="http://www.w3.org/2000/svg" version="1.1">
 <metadata>
  <rdf:RDF xmlns:dc="http://purl.org/dc/elements/1.1/" xmlns:cc="http://creativecommons.org/ns#" xmlns:rdf="http://www.w3.org/1999/02/22-rdf-syntax-ns#">
   <cc:Work>
    <dc:type rdf:resource="http://purl.org/dc/dcmitype/StillImage"/>
    <dc:date>2025-12-23T16:51:07.598690</dc:date>
    <dc:format>image/svg+xml</dc:format>
    <dc:creator>
     <cc:Agent>
      <dc:title>Matplotlib v3.7.5, https://matplotlib.org/</dc:title>
     </cc:Agent>
    </dc:creator>
   </cc:Work>
  </rdf:RDF>
 </metadata>
 <defs>
  <style type="text/css">*{stroke-linejoin: round; stroke-linecap: butt}</style>
 </defs>
 <g id="figure_1">
  <g id="patch_1">
   <path d="M 0 212.126563 
L 724.633125 212.126563 
L 724.633125 0 
L 0 0 
L 0 212.126563 
z
" style="fill: none"/>
  </g>
  <g id="axes_1">
   <g id="patch_2">
    <path d="M 47.833125 173.52 
L 239.147411 173.52 
L 239.147411 7.2 
L 47.833125 7.2 
L 47.833125 173.52 
z
" style="fill: none"/>
   </g>
   <g id="PolyCollection_1">
    <defs>
     <path id="maae993f851" d="M 95.917924 -44.996642 
L 95.405469 -44.996642 
L 95.408507 -46.287568 
L 95.420705 -47.578493 
L 95.438287 -48.869418 
L 95.456122 -50.160343 
L 95.468594 -51.451269 
L 95.470571 -52.742194 
L 95.458273 -54.033119 
L 95.429917 -55.324044 
L 95.386046 -56.61497 
L 95.329495 -57.905895 
L 95.264997 -59.19682 
L 95.198466 -60.487745 
L 95.136069 -61.778671 
L 95.083248 -63.069596 
L 95.043878 -64.360521 
L 95.019743 -65.651446 
L 95.010395 -66.942372 
L 95.013384 -68.233297 
L 95.024732 -69.524222 
L 95.039531 -70.815147 
L 95.052501 -72.106073 
L 95.058471 -73.396998 
L 95.052757 -74.687923 
L 95.031479 -75.978848 
L 94.991858 -77.269773 
L 94.932513 -78.560699 
L 94.85371 -79.851624 
L 94.757468 -81.142549 
L 94.647366 -82.433474 
L 94.527934 -83.7244 
L 94.403598 -85.015325 
L 94.277335 -86.30625 
L 94.149299 -87.597175 
L 94.0158 -88.888101 
L 93.868896 -90.179026 
L 93.696734 -91.469951 
L 93.484545 -92.760876 
L 93.216073 -94.051802 
L 92.875212 -95.342727 
L 92.447708 -96.633652 
L 91.922876 -97.924577 
L 91.295315 -99.215503 
L 90.566428 -100.506428 
L 89.745412 -101.797353 
L 88.84921 -103.088278 
L 87.901059 -104.379204 
L 86.927649 -105.670129 
L 85.955447 -106.961054 
L 85.007236 -108.251979 
L 84.100019 -109.542905 
L 83.24513 -110.83383 
L 82.450557 -112.124755 
L 81.72462 -113.41568 
L 81.079437 -114.706605 
L 80.53248 -115.997531 
L 80.105057 -117.288456 
L 79.817537 -118.579381 
L 79.682329 -119.870306 
L 79.696475 -121.161232 
L 79.836003 -122.452157 
L 80.053741 -123.743082 
L 80.281416 -125.034007 
L 80.435693 -126.324933 
L 80.426965 -127.615858 
L 80.169208 -128.906783 
L 79.589338 -130.197708 
L 78.634998 -131.488634 
L 77.280344 -132.779559 
L 75.529927 -134.070484 
L 73.420943 -135.361409 
L 71.023956 -136.652335 
L 68.441819 -137.94326 
L 65.806254 -139.234185 
L 63.271494 -140.52511 
L 61.004708 -141.816036 
L 59.173398 -143.106961 
L 57.930552 -144.397886 
L 57.398839 -145.688811 
L 57.655702 -146.979736 
L 58.721604 -148.270662 
L 60.553928 -149.561587 
L 63.04865 -150.852512 
L 66.050755 -152.143437 
L 69.372523 -153.434363 
L 72.8167 -154.725288 
L 76.200093 -156.016213 
L 79.372831 -157.307138 
L 82.229792 -158.598064 
L 84.712952 -159.888989 
L 86.805944 -161.179914 
L 88.523903 -162.470839 
L 89.902148 -163.761765 
L 90.986538 -165.05269 
L 91.82676 -166.343615 
L 92.472346 -167.63454 
L 92.970298 -168.925466 
L 93.363164 -170.216391 
L 93.686995 -171.507316 
L 93.969384 -172.798241 
L 97.354008 -172.798241 
L 97.354008 -172.798241 
L 97.636398 -171.507316 
L 97.960229 -170.216391 
L 98.353095 -168.925466 
L 98.851047 -167.63454 
L 99.496633 -166.343615 
L 100.336855 -165.05269 
L 101.421245 -163.761765 
L 102.79949 -162.470839 
L 104.517449 -161.179914 
L 106.610441 -159.888989 
L 109.0936 -158.598064 
L 111.950561 -157.307138 
L 115.1233 -156.016213 
L 118.506693 -154.725288 
L 121.95087 -153.434363 
L 125.272638 -152.143437 
L 128.274743 -150.852512 
L 130.769464 -149.561587 
L 132.601789 -148.270662 
L 133.667691 -146.979736 
L 133.924554 -145.688811 
L 133.392841 -144.397886 
L 132.149995 -143.106961 
L 130.318685 -141.816036 
L 128.051899 -140.52511 
L 125.517139 -139.234185 
L 122.881574 -137.94326 
L 120.299437 -136.652335 
L 117.90245 -135.361409 
L 115.793466 -134.070484 
L 114.043049 -132.779559 
L 112.688395 -131.488634 
L 111.734055 -130.197708 
L 111.154185 -128.906783 
L 110.896428 -127.615858 
L 110.8877 -126.324933 
L 111.041977 -125.034007 
L 111.269652 -123.743082 
L 111.48739 -122.452157 
L 111.626917 -121.161232 
L 111.641064 -119.870306 
L 111.505856 -118.579381 
L 111.218336 -117.288456 
L 110.790913 -115.997531 
L 110.243956 -114.706605 
L 109.598773 -113.41568 
L 108.872836 -112.124755 
L 108.078263 -110.83383 
L 107.223374 -109.542905 
L 106.316157 -108.251979 
L 105.367945 -106.961054 
L 104.395744 -105.670129 
L 103.422334 -104.379204 
L 102.474183 -103.088278 
L 101.57798 -101.797353 
L 100.756965 -100.506428 
L 100.028078 -99.215503 
L 99.400516 -97.924577 
L 98.875685 -96.633652 
L 98.448181 -95.342727 
L 98.10732 -94.051802 
L 97.838848 -92.760876 
L 97.626659 -91.469951 
L 97.454497 -90.179026 
L 97.307593 -88.888101 
L 97.174094 -87.597175 
L 97.046058 -86.30625 
L 96.919795 -85.015325 
L 96.795459 -83.7244 
L 96.676026 -82.433474 
L 96.565925 -81.142549 
L 96.469683 -79.851624 
L 96.39088 -78.560699 
L 96.331535 -77.269773 
L 96.291914 -75.978848 
L 96.270636 -74.687923 
L 96.264922 -73.396998 
L 96.270892 -72.106073 
L 96.283862 -70.815147 
L 96.29866 -69.524222 
L 96.310009 -68.233297 
L 96.312998 -66.942372 
L 96.30365 -65.651446 
L 96.279515 -64.360521 
L 96.240145 -63.069596 
L 96.187324 -61.778671 
L 96.124927 -60.487745 
L 96.058396 -59.19682 
L 95.993898 -57.905895 
L 95.937347 -56.61497 
L 95.893476 -55.324044 
L 95.86512 -54.033119 
L 95.852822 -52.742194 
L 95.854799 -51.451269 
L 95.867271 -50.160343 
L 95.885106 -48.869418 
L 95.902688 -47.578493 
L 95.914886 -46.287568 
L 95.917924 -44.996642 
z
" style="stroke: #303030; stroke-width: 1.25"/>
    </defs>
    <g clip-path="url(#pda2a761c23)">
     <use xlink:href="#maae993f851" x="0" y="212.126563" style="fill: #c08089; stroke: #303030; stroke-width: 1.25"/>
    </g>
   </g>
   <g id="PolyCollection_2">
    <defs>
     <path id="mc702c65467" d="M 193.925319 -124.434016 
L 188.71236 -124.434016 
L 188.535879 -124.770483 
L 188.368824 -125.10695 
L 188.21317 -125.443418 
L 188.070544 -125.779885 
L 187.942174 -126.116352 
L 187.828846 -126.45282 
L 187.73088 -126.789287 
L 187.648119 -127.125754 
L 187.579932 -127.462222 
L 187.525234 -127.798689 
L 187.482518 -128.135156 
L 187.449903 -128.471624 
L 187.425195 -128.808091 
L 187.40596 -129.144558 
L 187.389603 -129.481025 
L 187.373454 -129.817493 
L 187.354851 -130.15396 
L 187.33122 -130.490427 
L 187.300135 -130.826895 
L 187.259375 -131.163362 
L 187.206943 -131.499829 
L 187.14108 -131.836297 
L 187.060245 -132.172764 
L 186.963087 -132.509231 
L 186.848399 -132.845699 
L 186.715066 -133.182166 
L 186.562016 -133.518633 
L 186.388176 -133.855101 
L 186.192438 -134.191568 
L 185.973638 -134.528035 
L 185.730547 -134.864502 
L 185.461868 -135.20097 
L 185.166241 -135.537437 
L 184.84224 -135.873904 
L 184.488371 -136.210372 
L 184.10305 -136.546839 
L 183.684573 -136.883306 
L 183.23108 -137.219774 
L 182.740501 -137.556241 
L 182.210513 -137.892708 
L 181.638511 -138.229176 
L 181.021593 -138.565643 
L 180.356583 -138.90211 
L 179.640104 -139.238577 
L 178.868691 -139.575045 
L 178.038967 -139.911512 
L 177.147867 -140.247979 
L 176.192907 -140.584447 
L 175.172492 -140.920914 
L 174.086234 -141.257381 
L 172.935279 -141.593849 
L 171.722591 -141.930316 
L 170.453203 -142.266783 
L 169.134383 -142.603251 
L 167.775709 -142.939718 
L 166.389033 -143.276185 
L 164.988329 -143.612653 
L 163.589417 -143.94912 
L 162.209572 -144.285587 
L 160.867042 -144.622054 
L 159.580481 -144.958522 
L 158.368349 -145.294989 
L 157.248285 -145.631456 
L 156.236522 -145.967924 
L 155.347346 -146.304391 
L 154.592656 -146.640858 
L 153.981635 -146.977326 
L 153.520558 -147.313793 
L 153.212737 -147.65026 
L 153.058616 -147.986728 
L 153.055982 -148.323195 
L 153.200297 -148.659662 
L 153.4851 -148.996129 
L 153.902458 -149.332597 
L 154.443431 -149.669064 
L 155.098517 -150.005531 
L 155.85803 -150.341999 
L 156.71242 -150.678466 
L 157.652487 -151.014933 
L 158.669503 -151.351401 
L 159.755238 -151.687868 
L 160.901915 -152.024335 
L 162.10209 -152.360803 
L 163.348513 -152.69727 
L 164.633974 -153.033737 
L 165.951158 -153.370204 
L 167.292553 -153.706672 
L 168.65039 -154.043139 
L 170.016651 -154.379606 
L 171.383131 -154.716074 
L 172.741541 -155.052541 
L 174.083659 -155.389008 
L 175.401484 -155.725476 
L 176.687411 -156.061943 
L 177.934382 -156.39841 
L 179.136018 -156.734878 
L 180.286725 -157.071345 
L 181.381758 -157.407812 
L 182.417257 -157.74428 
L 200.220422 -157.74428 
L 200.220422 -157.74428 
L 201.255921 -157.407812 
L 202.350953 -157.071345 
L 203.50166 -156.734878 
L 204.703297 -156.39841 
L 205.950268 -156.061943 
L 207.236195 -155.725476 
L 208.55402 -155.389008 
L 209.896137 -155.052541 
L 211.254548 -154.716074 
L 212.621028 -154.379606 
L 213.987289 -154.043139 
L 215.345126 -153.706672 
L 216.68652 -153.370204 
L 218.003705 -153.033737 
L 219.289165 -152.69727 
L 220.535589 -152.360803 
L 221.735764 -152.024335 
L 222.88244 -151.687868 
L 223.968176 -151.351401 
L 224.985191 -151.014933 
L 225.925258 -150.678466 
L 226.779649 -150.341999 
L 227.539162 -150.005531 
L 228.194247 -149.669064 
L 228.735221 -149.332597 
L 229.152579 -148.996129 
L 229.437381 -148.659662 
L 229.581696 -148.323195 
L 229.579063 -147.986728 
L 229.424942 -147.65026 
L 229.117121 -147.313793 
L 228.656043 -146.977326 
L 228.045023 -146.640858 
L 227.290333 -146.304391 
L 226.401157 -145.967924 
L 225.389393 -145.631456 
L 224.26933 -145.294989 
L 223.057197 -144.958522 
L 221.770637 -144.622054 
L 220.428107 -144.285587 
L 219.048262 -143.94912 
L 217.649349 -143.612653 
L 216.248645 -143.276185 
L 214.861969 -142.939718 
L 213.503295 -142.603251 
L 212.184475 -142.266783 
L 210.915088 -141.930316 
L 209.7024 -141.593849 
L 208.551444 -141.257381 
L 207.465187 -140.920914 
L 206.444771 -140.584447 
L 205.489811 -140.247979 
L 204.598711 -139.911512 
L 203.768988 -139.575045 
L 202.997575 -139.238577 
L 202.281096 -138.90211 
L 201.616086 -138.565643 
L 200.999167 -138.229176 
L 200.427165 -137.892708 
L 199.897178 -137.556241 
L 199.406598 -137.219774 
L 198.953105 -136.883306 
L 198.534629 -136.546839 
L 198.149308 -136.210372 
L 197.795438 -135.873904 
L 197.471438 -135.537437 
L 197.17581 -135.20097 
L 196.907132 -134.864502 
L 196.664041 -134.528035 
L 196.445241 -134.191568 
L 196.249503 -133.855101 
L 196.075663 -133.518633 
L 195.922612 -133.182166 
L 195.789279 -132.845699 
L 195.674591 -132.509231 
L 195.577434 -132.172764 
L 195.496599 -131.836297 
L 195.430735 -131.499829 
L 195.378304 -131.163362 
L 195.337543 -130.826895 
L 195.306459 -130.490427 
L 195.282827 -130.15396 
L 195.264225 -129.817493 
L 195.248075 -129.481025 
L 195.231718 -129.144558 
L 195.212484 -128.808091 
L 195.187776 -128.471624 
L 195.155161 -128.135156 
L 195.112445 -127.798689 
L 195.057747 -127.462222 
L 194.98956 -127.125754 
L 194.906798 -126.789287 
L 194.808832 -126.45282 
L 194.695504 -126.116352 
L 194.567134 -125.779885 
L 194.424509 -125.443418 
L 194.268855 -125.10695 
L 194.1018 -124.770483 
L 193.925319 -124.434016 
z
" style="stroke: #303030; stroke-width: 1.25"/>
    </defs>
    <g clip-path="url(#pda2a761c23)">
     <use xlink:href="#mc702c65467" x="0" y="212.126563" style="fill: #2f7499; stroke: #303030; stroke-width: 1.25"/>
    </g>
   </g>
   <g id="matplotlib.axis_1">
    <g id="xtick_1">
     <g id="line2d_1">
      <defs>
       <path id="m5101f8a04f" d="M 0 0 
L 0 3.5 
" style="stroke: #000000; stroke-width: 0.8"/>
      </defs>
      <g>
       <use xlink:href="#m5101f8a04f" x="95.661696" y="173.52" style="stroke: #000000; stroke-width: 0.8"/>
      </g>
     </g>
     <g id="text_1">
      <!-- PLP -->
      <g transform="translate(86.210915 187.677813) scale(0.1 -0.1)">
       <defs>
        <path id="ArialMT-50" d="M 494 0 
L 494 4581 
L 2222 4581 
Q 2678 4581 2919 4538 
Q 3256 4481 3484 4323 
Q 3713 4166 3852 3881 
Q 3991 3597 3991 3256 
Q 3991 2672 3619 2267 
Q 3247 1863 2275 1863 
L 1100 1863 
L 1100 0 
L 494 0 
z
M 1100 2403 
L 2284 2403 
Q 2872 2403 3119 2622 
Q 3366 2841 3366 3238 
Q 3366 3525 3220 3729 
Q 3075 3934 2838 4000 
Q 2684 4041 2272 4041 
L 1100 4041 
L 1100 2403 
z
" transform="scale(0.015625)"/>
        <path id="ArialMT-4c" d="M 469 0 
L 469 4581 
L 1075 4581 
L 1075 541 
L 3331 541 
L 3331 0 
L 469 0 
z
" transform="scale(0.015625)"/>
       </defs>
       <use xlink:href="#ArialMT-50"/>
       <use xlink:href="#ArialMT-4c" x="66.699219"/>
       <use xlink:href="#ArialMT-50" x="122.314453"/>
      </g>
     </g>
    </g>
    <g id="xtick_2">
     <g id="line2d_2">
      <g>
       <use xlink:href="#m5101f8a04f" x="191.318839" y="173.52" style="stroke: #000000; stroke-width: 0.8"/>
      </g>
     </g>
     <g id="text_2">
      <!-- BLB -->
      <g transform="translate(181.868058 187.677813) scale(0.1 -0.1)">
       <defs>
        <path id="ArialMT-42" d="M 469 0 
L 469 4581 
L 2188 4581 
Q 2713 4581 3030 4442 
Q 3347 4303 3526 4014 
Q 3706 3725 3706 3409 
Q 3706 3116 3547 2856 
Q 3388 2597 3066 2438 
Q 3481 2316 3704 2022 
Q 3928 1728 3928 1328 
Q 3928 1006 3792 729 
Q 3656 453 3456 303 
Q 3256 153 2954 76 
Q 2653 0 2216 0 
L 469 0 
z
M 1075 2656 
L 2066 2656 
Q 2469 2656 2644 2709 
Q 2875 2778 2992 2937 
Q 3109 3097 3109 3338 
Q 3109 3566 3000 3739 
Q 2891 3913 2687 3977 
Q 2484 4041 1991 4041 
L 1075 4041 
L 1075 2656 
z
M 1075 541 
L 2216 541 
Q 2509 541 2628 563 
Q 2838 600 2978 687 
Q 3119 775 3209 942 
Q 3300 1109 3300 1328 
Q 3300 1584 3169 1773 
Q 3038 1963 2805 2039 
Q 2572 2116 2134 2116 
L 1075 2116 
L 1075 541 
z
" transform="scale(0.015625)"/>
       </defs>
       <use xlink:href="#ArialMT-42"/>
       <use xlink:href="#ArialMT-4c" x="66.699219"/>
       <use xlink:href="#ArialMT-42" x="122.314453"/>
      </g>
     </g>
    </g>
    <g id="text_3">
     <!-- ClinVar Category -->
     <g transform="translate(98.24933 202.400938) scale(0.12 -0.12)">
      <defs>
       <path id="ArialMT-43" d="M 3763 1606 
L 4369 1453 
Q 4178 706 3683 314 
Q 3188 -78 2472 -78 
Q 1731 -78 1267 223 
Q 803 525 561 1097 
Q 319 1669 319 2325 
Q 319 3041 592 3573 
Q 866 4106 1370 4382 
Q 1875 4659 2481 4659 
Q 3169 4659 3637 4309 
Q 4106 3959 4291 3325 
L 3694 3184 
Q 3534 3684 3231 3912 
Q 2928 4141 2469 4141 
Q 1941 4141 1586 3887 
Q 1231 3634 1087 3207 
Q 944 2781 944 2328 
Q 944 1744 1114 1308 
Q 1284 872 1643 656 
Q 2003 441 2422 441 
Q 2931 441 3284 734 
Q 3638 1028 3763 1606 
z
" transform="scale(0.015625)"/>
       <path id="ArialMT-6c" d="M 409 0 
L 409 4581 
L 972 4581 
L 972 0 
L 409 0 
z
" transform="scale(0.015625)"/>
       <path id="ArialMT-69" d="M 425 3934 
L 425 4581 
L 988 4581 
L 988 3934 
L 425 3934 
z
M 425 0 
L 425 3319 
L 988 3319 
L 988 0 
L 425 0 
z
" transform="scale(0.015625)"/>
       <path id="ArialMT-6e" d="M 422 0 
L 422 3319 
L 928 3319 
L 928 2847 
Q 1294 3394 1984 3394 
Q 2284 3394 2536 3286 
Q 2788 3178 2913 3003 
Q 3038 2828 3088 2588 
Q 3119 2431 3119 2041 
L 3119 0 
L 2556 0 
L 2556 2019 
Q 2556 2363 2490 2533 
Q 2425 2703 2258 2804 
Q 2091 2906 1866 2906 
Q 1506 2906 1245 2678 
Q 984 2450 984 1813 
L 984 0 
L 422 0 
z
" transform="scale(0.015625)"/>
       <path id="ArialMT-56" d="M 1803 0 
L 28 4581 
L 684 4581 
L 1875 1253 
Q 2019 853 2116 503 
Q 2222 878 2363 1253 
L 3600 4581 
L 4219 4581 
L 2425 0 
L 1803 0 
z
" transform="scale(0.015625)"/>
       <path id="ArialMT-61" d="M 2588 409 
Q 2275 144 1986 34 
Q 1697 -75 1366 -75 
Q 819 -75 525 192 
Q 231 459 231 875 
Q 231 1119 342 1320 
Q 453 1522 633 1644 
Q 813 1766 1038 1828 
Q 1203 1872 1538 1913 
Q 2219 1994 2541 2106 
Q 2544 2222 2544 2253 
Q 2544 2597 2384 2738 
Q 2169 2928 1744 2928 
Q 1347 2928 1158 2789 
Q 969 2650 878 2297 
L 328 2372 
Q 403 2725 575 2942 
Q 747 3159 1072 3276 
Q 1397 3394 1825 3394 
Q 2250 3394 2515 3294 
Q 2781 3194 2906 3042 
Q 3031 2891 3081 2659 
Q 3109 2516 3109 2141 
L 3109 1391 
Q 3109 606 3145 398 
Q 3181 191 3288 0 
L 2700 0 
Q 2613 175 2588 409 
z
M 2541 1666 
Q 2234 1541 1622 1453 
Q 1275 1403 1131 1340 
Q 988 1278 909 1158 
Q 831 1038 831 891 
Q 831 666 1001 516 
Q 1172 366 1500 366 
Q 1825 366 2078 508 
Q 2331 650 2450 897 
Q 2541 1088 2541 1459 
L 2541 1666 
z
" transform="scale(0.015625)"/>
       <path id="ArialMT-72" d="M 416 0 
L 416 3319 
L 922 3319 
L 922 2816 
Q 1116 3169 1280 3281 
Q 1444 3394 1641 3394 
Q 1925 3394 2219 3213 
L 2025 2691 
Q 1819 2813 1613 2813 
Q 1428 2813 1281 2702 
Q 1134 2591 1072 2394 
Q 978 2094 978 1738 
L 978 0 
L 416 0 
z
" transform="scale(0.015625)"/>
       <path id="ArialMT-20" transform="scale(0.015625)"/>
       <path id="ArialMT-74" d="M 1650 503 
L 1731 6 
Q 1494 -44 1306 -44 
Q 1000 -44 831 53 
Q 663 150 594 308 
Q 525 466 525 972 
L 525 2881 
L 113 2881 
L 113 3319 
L 525 3319 
L 525 4141 
L 1084 4478 
L 1084 3319 
L 1650 3319 
L 1650 2881 
L 1084 2881 
L 1084 941 
Q 1084 700 1114 631 
Q 1144 563 1211 522 
Q 1278 481 1403 481 
Q 1497 481 1650 503 
z
" transform="scale(0.015625)"/>
       <path id="ArialMT-65" d="M 2694 1069 
L 3275 997 
Q 3138 488 2766 206 
Q 2394 -75 1816 -75 
Q 1088 -75 661 373 
Q 234 822 234 1631 
Q 234 2469 665 2931 
Q 1097 3394 1784 3394 
Q 2450 3394 2872 2941 
Q 3294 2488 3294 1666 
Q 3294 1616 3291 1516 
L 816 1516 
Q 847 969 1125 678 
Q 1403 388 1819 388 
Q 2128 388 2347 550 
Q 2566 713 2694 1069 
z
M 847 1978 
L 2700 1978 
Q 2663 2397 2488 2606 
Q 2219 2931 1791 2931 
Q 1403 2931 1139 2672 
Q 875 2413 847 1978 
z
" transform="scale(0.015625)"/>
       <path id="ArialMT-67" d="M 319 -275 
L 866 -356 
Q 900 -609 1056 -725 
Q 1266 -881 1628 -881 
Q 2019 -881 2231 -725 
Q 2444 -569 2519 -288 
Q 2563 -116 2559 434 
Q 2191 0 1641 0 
Q 956 0 581 494 
Q 206 988 206 1678 
Q 206 2153 378 2554 
Q 550 2956 876 3175 
Q 1203 3394 1644 3394 
Q 2231 3394 2613 2919 
L 2613 3319 
L 3131 3319 
L 3131 450 
Q 3131 -325 2973 -648 
Q 2816 -972 2473 -1159 
Q 2131 -1347 1631 -1347 
Q 1038 -1347 672 -1080 
Q 306 -813 319 -275 
z
M 784 1719 
Q 784 1066 1043 766 
Q 1303 466 1694 466 
Q 2081 466 2343 764 
Q 2606 1063 2606 1700 
Q 2606 2309 2336 2618 
Q 2066 2928 1684 2928 
Q 1309 2928 1046 2623 
Q 784 2319 784 1719 
z
" transform="scale(0.015625)"/>
       <path id="ArialMT-6f" d="M 213 1659 
Q 213 2581 725 3025 
Q 1153 3394 1769 3394 
Q 2453 3394 2887 2945 
Q 3322 2497 3322 1706 
Q 3322 1066 3130 698 
Q 2938 331 2570 128 
Q 2203 -75 1769 -75 
Q 1072 -75 642 372 
Q 213 819 213 1659 
z
M 791 1659 
Q 791 1022 1069 705 
Q 1347 388 1769 388 
Q 2188 388 2466 706 
Q 2744 1025 2744 1678 
Q 2744 2294 2464 2611 
Q 2184 2928 1769 2928 
Q 1347 2928 1069 2612 
Q 791 2297 791 1659 
z
" transform="scale(0.015625)"/>
       <path id="ArialMT-79" d="M 397 -1278 
L 334 -750 
Q 519 -800 656 -800 
Q 844 -800 956 -737 
Q 1069 -675 1141 -563 
Q 1194 -478 1313 -144 
Q 1328 -97 1363 -6 
L 103 3319 
L 709 3319 
L 1400 1397 
Q 1534 1031 1641 628 
Q 1738 1016 1872 1384 
L 2581 3319 
L 3144 3319 
L 1881 -56 
Q 1678 -603 1566 -809 
Q 1416 -1088 1222 -1217 
Q 1028 -1347 759 -1347 
Q 597 -1347 397 -1278 
z
" transform="scale(0.015625)"/>
      </defs>
      <use xlink:href="#ArialMT-43"/>
      <use xlink:href="#ArialMT-6c" x="72.216797"/>
      <use xlink:href="#ArialMT-69" x="94.433594"/>
      <use xlink:href="#ArialMT-6e" x="116.650391"/>
      <use xlink:href="#ArialMT-56" x="172.265625"/>
      <use xlink:href="#ArialMT-61" x="231.589844"/>
      <use xlink:href="#ArialMT-72" x="287.205078"/>
      <use xlink:href="#ArialMT-20" x="320.505859"/>
      <use xlink:href="#ArialMT-43" x="348.289062"/>
      <use xlink:href="#ArialMT-61" x="420.505859"/>
      <use xlink:href="#ArialMT-74" x="476.121094"/>
      <use xlink:href="#ArialMT-65" x="503.904297"/>
      <use xlink:href="#ArialMT-67" x="559.519531"/>
      <use xlink:href="#ArialMT-6f" x="615.134766"/>
      <use xlink:href="#ArialMT-72" x="670.75"/>
      <use xlink:href="#ArialMT-79" x="704.050781"/>
     </g>
    </g>
   </g>
   <g id="matplotlib.axis_2">
    <g id="ytick_1">
     <g id="line2d_3">
      <defs>
       <path id="m5577428c53" d="M 0 0 
L -3.5 0 
" style="stroke: #000000; stroke-width: 0.8"/>
      </defs>
      <g>
       <use xlink:href="#m5577428c53" x="47.833125" y="150.847695" style="stroke: #000000; stroke-width: 0.8"/>
      </g>
     </g>
     <g id="text_4">
      <!-- −15 -->
      <g transform="translate(22.174375 154.784492) scale(0.11 -0.11)">
       <defs>
        <path id="ArialMT-2212" d="M 3381 1997 
L 356 1997 
L 356 2522 
L 3381 2522 
L 3381 1997 
z
" transform="scale(0.015625)"/>
        <path id="ArialMT-31" d="M 2384 0 
L 1822 0 
L 1822 3584 
Q 1619 3391 1289 3197 
Q 959 3003 697 2906 
L 697 3450 
Q 1169 3672 1522 3987 
Q 1875 4303 2022 4600 
L 2384 4600 
L 2384 0 
z
" transform="scale(0.015625)"/>
        <path id="ArialMT-35" d="M 266 1200 
L 856 1250 
Q 922 819 1161 601 
Q 1400 384 1738 384 
Q 2144 384 2425 690 
Q 2706 997 2706 1503 
Q 2706 1984 2436 2262 
Q 2166 2541 1728 2541 
Q 1456 2541 1237 2417 
Q 1019 2294 894 2097 
L 366 2166 
L 809 4519 
L 3088 4519 
L 3088 3981 
L 1259 3981 
L 1013 2750 
Q 1425 3038 1878 3038 
Q 2478 3038 2890 2622 
Q 3303 2206 3303 1553 
Q 3303 931 2941 478 
Q 2500 -78 1738 -78 
Q 1113 -78 717 272 
Q 322 622 266 1200 
z
" transform="scale(0.015625)"/>
       </defs>
       <use xlink:href="#ArialMT-2212"/>
       <use xlink:href="#ArialMT-31" x="58.398438"/>
       <use xlink:href="#ArialMT-35" x="114.013672"/>
      </g>
     </g>
    </g>
    <g id="ytick_2">
     <g id="line2d_4">
      <g>
       <use xlink:href="#m5577428c53" x="47.833125" y="121.800315" style="stroke: #000000; stroke-width: 0.8"/>
      </g>
     </g>
     <g id="text_5">
      <!-- −10 -->
      <g transform="translate(22.174375 125.737112) scale(0.11 -0.11)">
       <defs>
        <path id="ArialMT-30" d="M 266 2259 
Q 266 3072 433 3567 
Q 600 4063 929 4331 
Q 1259 4600 1759 4600 
Q 2128 4600 2406 4451 
Q 2684 4303 2865 4023 
Q 3047 3744 3150 3342 
Q 3253 2941 3253 2259 
Q 3253 1453 3087 958 
Q 2922 463 2592 192 
Q 2263 -78 1759 -78 
Q 1097 -78 719 397 
Q 266 969 266 2259 
z
M 844 2259 
Q 844 1131 1108 757 
Q 1372 384 1759 384 
Q 2147 384 2411 759 
Q 2675 1134 2675 2259 
Q 2675 3391 2411 3762 
Q 2147 4134 1753 4134 
Q 1366 4134 1134 3806 
Q 844 3388 844 2259 
z
" transform="scale(0.015625)"/>
       </defs>
       <use xlink:href="#ArialMT-2212"/>
       <use xlink:href="#ArialMT-31" x="58.398438"/>
       <use xlink:href="#ArialMT-30" x="114.013672"/>
      </g>
     </g>
    </g>
    <g id="ytick_3">
     <g id="line2d_5">
      <g>
       <use xlink:href="#m5577428c53" x="47.833125" y="92.752935" style="stroke: #000000; stroke-width: 0.8"/>
      </g>
     </g>
     <g id="text_6">
      <!-- −5 -->
      <g transform="translate(28.291406 96.689732) scale(0.11 -0.11)">
       <use xlink:href="#ArialMT-2212"/>
       <use xlink:href="#ArialMT-35" x="58.398438"/>
      </g>
     </g>
    </g>
    <g id="ytick_4">
     <g id="line2d_6">
      <g>
       <use xlink:href="#m5577428c53" x="47.833125" y="63.705555" style="stroke: #000000; stroke-width: 0.8"/>
      </g>
     </g>
     <g id="text_7">
      <!-- 0 -->
      <g transform="translate(34.716094 67.642352) scale(0.11 -0.11)">
       <use xlink:href="#ArialMT-30"/>
      </g>
     </g>
    </g>
    <g id="ytick_5">
     <g id="line2d_7">
      <g>
       <use xlink:href="#m5577428c53" x="47.833125" y="34.658175" style="stroke: #000000; stroke-width: 0.8"/>
      </g>
     </g>
     <g id="text_8">
      <!-- 5 -->
      <g transform="translate(34.716094 38.594972) scale(0.11 -0.11)">
       <use xlink:href="#ArialMT-35"/>
      </g>
     </g>
    </g>
    <g id="text_9">
     <!-- Abundance Z-Score -->
     <g transform="translate(15.789375 143.720625) rotate(-90) scale(0.12 -0.12)">
      <defs>
       <path id="ArialMT-41" d="M -9 0 
L 1750 4581 
L 2403 4581 
L 4278 0 
L 3588 0 
L 3053 1388 
L 1138 1388 
L 634 0 
L -9 0 
z
M 1313 1881 
L 2866 1881 
L 2388 3150 
Q 2169 3728 2063 4100 
Q 1975 3659 1816 3225 
L 1313 1881 
z
" transform="scale(0.015625)"/>
       <path id="ArialMT-62" d="M 941 0 
L 419 0 
L 419 4581 
L 981 4581 
L 981 2947 
Q 1338 3394 1891 3394 
Q 2197 3394 2470 3270 
Q 2744 3147 2920 2923 
Q 3097 2700 3197 2384 
Q 3297 2069 3297 1709 
Q 3297 856 2875 390 
Q 2453 -75 1863 -75 
Q 1275 -75 941 416 
L 941 0 
z
M 934 1684 
Q 934 1088 1097 822 
Q 1363 388 1816 388 
Q 2184 388 2453 708 
Q 2722 1028 2722 1663 
Q 2722 2313 2464 2622 
Q 2206 2931 1841 2931 
Q 1472 2931 1203 2611 
Q 934 2291 934 1684 
z
" transform="scale(0.015625)"/>
       <path id="ArialMT-75" d="M 2597 0 
L 2597 488 
Q 2209 -75 1544 -75 
Q 1250 -75 995 37 
Q 741 150 617 320 
Q 494 491 444 738 
Q 409 903 409 1263 
L 409 3319 
L 972 3319 
L 972 1478 
Q 972 1038 1006 884 
Q 1059 663 1231 536 
Q 1403 409 1656 409 
Q 1909 409 2131 539 
Q 2353 669 2445 892 
Q 2538 1116 2538 1541 
L 2538 3319 
L 3100 3319 
L 3100 0 
L 2597 0 
z
" transform="scale(0.015625)"/>
       <path id="ArialMT-64" d="M 2575 0 
L 2575 419 
Q 2259 -75 1647 -75 
Q 1250 -75 917 144 
Q 584 363 401 755 
Q 219 1147 219 1656 
Q 219 2153 384 2558 
Q 550 2963 881 3178 
Q 1213 3394 1622 3394 
Q 1922 3394 2156 3267 
Q 2391 3141 2538 2938 
L 2538 4581 
L 3097 4581 
L 3097 0 
L 2575 0 
z
M 797 1656 
Q 797 1019 1065 703 
Q 1334 388 1700 388 
Q 2069 388 2326 689 
Q 2584 991 2584 1609 
Q 2584 2291 2321 2609 
Q 2059 2928 1675 2928 
Q 1300 2928 1048 2622 
Q 797 2316 797 1656 
z
" transform="scale(0.015625)"/>
       <path id="ArialMT-63" d="M 2588 1216 
L 3141 1144 
Q 3050 572 2676 248 
Q 2303 -75 1759 -75 
Q 1078 -75 664 370 
Q 250 816 250 1647 
Q 250 2184 428 2587 
Q 606 2991 970 3192 
Q 1334 3394 1763 3394 
Q 2303 3394 2647 3120 
Q 2991 2847 3088 2344 
L 2541 2259 
Q 2463 2594 2264 2762 
Q 2066 2931 1784 2931 
Q 1359 2931 1093 2626 
Q 828 2322 828 1663 
Q 828 994 1084 691 
Q 1341 388 1753 388 
Q 2084 388 2306 591 
Q 2528 794 2588 1216 
z
" transform="scale(0.015625)"/>
       <path id="ArialMT-5a" d="M 128 0 
L 128 563 
L 2475 3497 
Q 2725 3809 2950 4041 
L 394 4041 
L 394 4581 
L 3675 4581 
L 3675 4041 
L 1103 863 
L 825 541 
L 3750 541 
L 3750 0 
L 128 0 
z
" transform="scale(0.015625)"/>
       <path id="ArialMT-2d" d="M 203 1375 
L 203 1941 
L 1931 1941 
L 1931 1375 
L 203 1375 
z
" transform="scale(0.015625)"/>
       <path id="ArialMT-53" d="M 288 1472 
L 859 1522 
Q 900 1178 1048 958 
Q 1197 738 1509 602 
Q 1822 466 2213 466 
Q 2559 466 2825 569 
Q 3091 672 3220 851 
Q 3350 1031 3350 1244 
Q 3350 1459 3225 1620 
Q 3100 1781 2813 1891 
Q 2628 1963 1997 2114 
Q 1366 2266 1113 2400 
Q 784 2572 623 2826 
Q 463 3081 463 3397 
Q 463 3744 659 4045 
Q 856 4347 1234 4503 
Q 1613 4659 2075 4659 
Q 2584 4659 2973 4495 
Q 3363 4331 3572 4012 
Q 3781 3694 3797 3291 
L 3216 3247 
Q 3169 3681 2898 3903 
Q 2628 4125 2100 4125 
Q 1550 4125 1298 3923 
Q 1047 3722 1047 3438 
Q 1047 3191 1225 3031 
Q 1400 2872 2139 2705 
Q 2878 2538 3153 2413 
Q 3553 2228 3743 1945 
Q 3934 1663 3934 1294 
Q 3934 928 3725 604 
Q 3516 281 3123 101 
Q 2731 -78 2241 -78 
Q 1619 -78 1198 103 
Q 778 284 539 648 
Q 300 1013 288 1472 
z
" transform="scale(0.015625)"/>
      </defs>
      <use xlink:href="#ArialMT-41"/>
      <use xlink:href="#ArialMT-62" x="66.699219"/>
      <use xlink:href="#ArialMT-75" x="122.314453"/>
      <use xlink:href="#ArialMT-6e" x="177.929688"/>
      <use xlink:href="#ArialMT-64" x="233.544922"/>
      <use xlink:href="#ArialMT-61" x="289.160156"/>
      <use xlink:href="#ArialMT-6e" x="344.775391"/>
      <use xlink:href="#ArialMT-63" x="400.390625"/>
      <use xlink:href="#ArialMT-65" x="450.390625"/>
      <use xlink:href="#ArialMT-20" x="506.005859"/>
      <use xlink:href="#ArialMT-5a" x="533.789062"/>
      <use xlink:href="#ArialMT-2d" x="594.873047"/>
      <use xlink:href="#ArialMT-53" x="628.173828"/>
      <use xlink:href="#ArialMT-63" x="694.873047"/>
      <use xlink:href="#ArialMT-6f" x="744.873047"/>
      <use xlink:href="#ArialMT-72" x="800.488281"/>
      <use xlink:href="#ArialMT-65" x="833.789062"/>
     </g>
    </g>
   </g>
   <g id="line2d_8">
    <path d="M 95.661696 126.668259 
L 95.661696 39.328321 
" clip-path="url(#pda2a761c23)" style="fill: none; stroke: #303030; stroke-width: 1.875; stroke-linecap: square"/>
   </g>
   <g id="line2d_9">
    <path d="M 95.661696 90.132259 
L 95.661696 63.701267 
" clip-path="url(#pda2a761c23)" style="fill: none; stroke: #303030; stroke-width: 5.625; stroke-linecap: square"/>
   </g>
   <g id="line2d_10">
    <path d="M 95.661696 70.971193 
" clip-path="url(#pda2a761c23)" style="fill: none; stroke: #303030; stroke-width: 1.5; stroke-linecap: square"/>
    <defs>
     <path id="m54145f23cc" d="M 2.34375 0 
L -2.34375 -0 
" style="stroke: #ffffff; stroke-width: 1.125"/>
    </defs>
    <g clip-path="url(#pda2a761c23)">
     <use xlink:href="#m54145f23cc" x="95.661696" y="70.971193" style="fill: #ffffff; stroke: #ffffff; stroke-width: 1.125"/>
    </g>
   </g>
   <g id="line2d_11">
    <path d="M 191.318839 75.147821 
L 191.318839 54.382283 
" clip-path="url(#pda2a761c23)" style="fill: none; stroke: #303030; stroke-width: 1.875; stroke-linecap: square"/>
   </g>
   <g id="line2d_12">
    <path d="M 191.318839 67.850427 
L 191.318839 61.099634 
" clip-path="url(#pda2a761c23)" style="fill: none; stroke: #303030; stroke-width: 5.625; stroke-linecap: square"/>
   </g>
   <g id="line2d_13">
    <path d="M 191.318839 64.51957 
" clip-path="url(#pda2a761c23)" style="fill: none; stroke: #303030; stroke-width: 1.5; stroke-linecap: square"/>
    <g clip-path="url(#pda2a761c23)">
     <use xlink:href="#m54145f23cc" x="191.318839" y="64.51957" style="fill: #ffffff; stroke: #ffffff; stroke-width: 1.125"/>
    </g>
   </g>
   <g id="line2d_14">
    <path d="M 95.661696 32.299233 
L 95.661696 29.487598 
L 191.318839 29.487598 
L 191.318839 32.299233 
" style="fill: none; stroke: #333333; stroke-width: 1.5; stroke-linecap: square"/>
   </g>
   <g id="patch_3">
    <path d="M 47.833125 173.52 
L 47.833125 7.2 
" style="fill: none; stroke: #000000; stroke-width: 0.8; stroke-linejoin: miter; stroke-linecap: square"/>
   </g>
   <g id="patch_4">
    <path d="M 239.147411 173.52 
L 239.147411 7.2 
" style="fill: none; stroke: #000000; stroke-width: 0.8; stroke-linejoin: miter; stroke-linecap: square"/>
   </g>
   <g id="patch_5">
    <path d="M 47.833125 173.52 
L 239.147411 173.52 
" style="fill: none; stroke: #000000; stroke-width: 0.8; stroke-linejoin: miter; stroke-linecap: square"/>
   </g>
   <g id="patch_6">
    <path d="M 47.833125 7.2 
L 239.147411 7.2 
" style="fill: none; stroke: #000000; stroke-width: 0.8; stroke-linejoin: miter; stroke-linecap: square"/>
   </g>
   <g id="text_10">
    <!-- M.W.W. p = 1.237e-07 -->
    <g transform="translate(83.962768 19.102598) scale(0.12 -0.12)">
     <defs>
      <path id="ArialMT-4d" d="M 475 0 
L 475 4581 
L 1388 4581 
L 2472 1338 
Q 2622 884 2691 659 
Q 2769 909 2934 1394 
L 4031 4581 
L 4847 4581 
L 4847 0 
L 4263 0 
L 4263 3834 
L 2931 0 
L 2384 0 
L 1059 3900 
L 1059 0 
L 475 0 
z
" transform="scale(0.015625)"/>
      <path id="ArialMT-2e" d="M 581 0 
L 581 641 
L 1222 641 
L 1222 0 
L 581 0 
z
" transform="scale(0.015625)"/>
      <path id="ArialMT-57" d="M 1294 0 
L 78 4581 
L 700 4581 
L 1397 1578 
Q 1509 1106 1591 641 
Q 1766 1375 1797 1488 
L 2669 4581 
L 3400 4581 
L 4056 2263 
Q 4303 1400 4413 641 
Q 4500 1075 4641 1638 
L 5359 4581 
L 5969 4581 
L 4713 0 
L 4128 0 
L 3163 3491 
Q 3041 3928 3019 4028 
Q 2947 3713 2884 3491 
L 1913 0 
L 1294 0 
z
" transform="scale(0.015625)"/>
      <path id="ArialMT-70" d="M 422 -1272 
L 422 3319 
L 934 3319 
L 934 2888 
Q 1116 3141 1344 3267 
Q 1572 3394 1897 3394 
Q 2322 3394 2647 3175 
Q 2972 2956 3137 2557 
Q 3303 2159 3303 1684 
Q 3303 1175 3120 767 
Q 2938 359 2589 142 
Q 2241 -75 1856 -75 
Q 1575 -75 1351 44 
Q 1128 163 984 344 
L 984 -1272 
L 422 -1272 
z
M 931 1641 
Q 931 1000 1190 694 
Q 1450 388 1819 388 
Q 2194 388 2461 705 
Q 2728 1022 2728 1688 
Q 2728 2322 2467 2637 
Q 2206 2953 1844 2953 
Q 1484 2953 1207 2617 
Q 931 2281 931 1641 
z
" transform="scale(0.015625)"/>
      <path id="ArialMT-3d" d="M 3381 2694 
L 356 2694 
L 356 3219 
L 3381 3219 
L 3381 2694 
z
M 3381 1303 
L 356 1303 
L 356 1828 
L 3381 1828 
L 3381 1303 
z
" transform="scale(0.015625)"/>
      <path id="ArialMT-32" d="M 3222 541 
L 3222 0 
L 194 0 
Q 188 203 259 391 
Q 375 700 629 1000 
Q 884 1300 1366 1694 
Q 2113 2306 2375 2664 
Q 2638 3022 2638 3341 
Q 2638 3675 2398 3904 
Q 2159 4134 1775 4134 
Q 1369 4134 1125 3890 
Q 881 3647 878 3216 
L 300 3275 
Q 359 3922 746 4261 
Q 1134 4600 1788 4600 
Q 2447 4600 2831 4234 
Q 3216 3869 3216 3328 
Q 3216 3053 3103 2787 
Q 2991 2522 2730 2228 
Q 2469 1934 1863 1422 
Q 1356 997 1212 845 
Q 1069 694 975 541 
L 3222 541 
z
" transform="scale(0.015625)"/>
      <path id="ArialMT-33" d="M 269 1209 
L 831 1284 
Q 928 806 1161 595 
Q 1394 384 1728 384 
Q 2125 384 2398 659 
Q 2672 934 2672 1341 
Q 2672 1728 2419 1979 
Q 2166 2231 1775 2231 
Q 1616 2231 1378 2169 
L 1441 2663 
Q 1497 2656 1531 2656 
Q 1891 2656 2178 2843 
Q 2466 3031 2466 3422 
Q 2466 3731 2256 3934 
Q 2047 4138 1716 4138 
Q 1388 4138 1169 3931 
Q 950 3725 888 3313 
L 325 3413 
Q 428 3978 793 4289 
Q 1159 4600 1703 4600 
Q 2078 4600 2393 4439 
Q 2709 4278 2876 4000 
Q 3044 3722 3044 3409 
Q 3044 3113 2884 2869 
Q 2725 2625 2413 2481 
Q 2819 2388 3044 2092 
Q 3269 1797 3269 1353 
Q 3269 753 2831 336 
Q 2394 -81 1725 -81 
Q 1122 -81 723 278 
Q 325 638 269 1209 
z
" transform="scale(0.015625)"/>
      <path id="ArialMT-37" d="M 303 3981 
L 303 4522 
L 3269 4522 
L 3269 4084 
Q 2831 3619 2401 2847 
Q 1972 2075 1738 1259 
Q 1569 684 1522 0 
L 944 0 
Q 953 541 1156 1306 
Q 1359 2072 1739 2783 
Q 2119 3494 2547 3981 
L 303 3981 
z
" transform="scale(0.015625)"/>
     </defs>
     <use xlink:href="#ArialMT-4d"/>
     <use xlink:href="#ArialMT-2e" x="83.300781"/>
     <use xlink:href="#ArialMT-57" x="111.083984"/>
     <use xlink:href="#ArialMT-2e" x="199.96875"/>
     <use xlink:href="#ArialMT-57" x="227.751953"/>
     <use xlink:href="#ArialMT-2e" x="316.636719"/>
     <use xlink:href="#ArialMT-20" x="344.419922"/>
     <use xlink:href="#ArialMT-70" x="372.203125"/>
     <use xlink:href="#ArialMT-20" x="427.818359"/>
     <use xlink:href="#ArialMT-3d" x="455.601562"/>
     <use xlink:href="#ArialMT-20" x="514"/>
     <use xlink:href="#ArialMT-31" x="541.783203"/>
     <use xlink:href="#ArialMT-2e" x="597.398438"/>
     <use xlink:href="#ArialMT-32" x="625.181641"/>
     <use xlink:href="#ArialMT-33" x="680.796875"/>
     <use xlink:href="#ArialMT-37" x="736.412109"/>
     <use xlink:href="#ArialMT-65" x="792.027344"/>
     <use xlink:href="#ArialMT-2d" x="847.642578"/>
     <use xlink:href="#ArialMT-30" x="880.943359"/>
     <use xlink:href="#ArialMT-37" x="936.558594"/>
    </g>
   </g>
  </g>
  <g id="axes_2">
   <g id="patch_7">
    <path d="M 286.975982 173.52 
L 478.290268 173.52 
L 478.290268 7.2 
L 286.975982 7.2 
L 286.975982 173.52 
z
" style="fill: none"/>
   </g>
   <g id="PolyCollection_3">
    <defs>
     <path id="m1cea901ab2" d="M 337.964606 -51.579979 
L 331.644501 -51.579979 
L 331.180912 -52.804406 
L 330.687595 -54.028833 
L 330.168727 -55.25326 
L 329.629094 -56.477687 
L 329.073833 -57.702114 
L 328.508091 -58.92654 
L 327.93665 -60.150967 
L 327.363524 -61.375394 
L 326.791582 -62.599821 
L 326.222234 -63.824248 
L 325.655233 -65.048675 
L 325.088637 -66.273102 
L 324.518959 -67.497529 
L 323.941517 -68.721956 
L 323.350979 -69.946383 
L 322.742046 -71.170809 
L 322.110224 -72.395236 
L 321.452587 -73.619663 
L 320.768441 -74.84409 
L 320.059797 -76.068517 
L 319.331571 -77.292944 
L 318.591477 -78.517371 
L 317.849583 -79.741798 
L 317.117575 -80.966225 
L 316.407779 -82.190651 
L 315.732048 -83.415078 
L 315.100616 -84.639505 
L 314.521056 -85.863932 
L 313.997434 -87.088359 
L 313.529771 -88.312786 
L 313.113856 -89.537213 
L 312.741453 -90.76164 
L 312.400871 -91.986067 
L 312.077866 -93.210493 
L 311.756775 -94.43492 
L 311.421796 -95.659347 
L 311.058292 -96.883774 
L 310.653997 -98.108201 
L 310.200047 -99.332628 
L 309.691717 -100.557055 
L 309.128844 -101.781482 
L 308.515886 -103.005909 
L 307.861637 -104.230335 
L 307.178641 -105.454762 
L 306.482339 -106.679189 
L 305.790057 -107.903616 
L 305.119886 -109.128043 
L 304.489558 -110.35247 
L 303.915374 -111.576897 
L 303.411258 -112.801324 
L 302.987983 -114.025751 
L 302.652591 -115.250177 
L 302.408038 -116.474604 
L 302.25306 -117.699031 
L 302.182253 -118.923458 
L 302.186365 -120.147885 
L 302.252756 -121.372312 
L 302.366033 -122.596739 
L 302.508792 -123.821166 
L 302.662475 -125.045593 
L 302.808271 -126.270019 
L 302.928046 -127.494446 
L 303.005248 -128.718873 
L 303.025743 -129.9433 
L 302.978542 -131.167727 
L 302.856365 -132.392154 
L 302.656008 -133.616581 
L 302.378474 -134.841008 
L 302.028852 -136.065435 
L 301.615942 -137.289861 
L 301.151642 -138.514288 
L 300.650142 -139.738715 
L 300.126991 -140.963142 
L 299.598115 -142.187569 
L 299.078887 -143.411996 
L 298.583332 -144.636423 
L 298.123575 -145.86085 
L 297.709563 -147.085277 
L 297.349123 -148.309704 
L 297.048332 -149.53413 
L 296.812148 -150.758557 
L 296.645237 -151.982984 
L 296.55286 -153.207411 
L 296.541696 -154.431838 
L 296.62048 -155.656265 
L 296.800318 -156.880692 
L 297.094622 -158.105119 
L 297.51859 -159.329546 
L 298.088278 -160.553972 
L 298.819296 -161.778399 
L 299.725263 -163.002826 
L 300.816166 -164.227253 
L 302.096792 -165.45168 
L 303.565428 -166.676107 
L 305.212966 -167.900534 
L 307.022559 -169.124961 
L 308.969879 -170.349388 
L 311.023994 -171.573814 
L 313.148794 -172.798241 
L 356.460313 -172.798241 
L 356.460313 -172.798241 
L 358.585113 -171.573814 
L 360.639228 -170.349388 
L 362.586549 -169.124961 
L 364.396142 -167.900534 
L 366.043679 -166.676107 
L 367.512315 -165.45168 
L 368.792941 -164.227253 
L 369.883844 -163.002826 
L 370.789811 -161.778399 
L 371.520829 -160.553972 
L 372.090517 -159.329546 
L 372.514486 -158.105119 
L 372.808789 -156.880692 
L 372.988627 -155.656265 
L 373.067411 -154.431838 
L 373.056247 -153.207411 
L 372.96387 -151.982984 
L 372.79696 -150.758557 
L 372.560776 -149.53413 
L 372.259984 -148.309704 
L 371.899544 -147.085277 
L 371.485532 -145.86085 
L 371.025775 -144.636423 
L 370.53022 -143.411996 
L 370.010992 -142.187569 
L 369.482116 -140.963142 
L 368.958965 -139.738715 
L 368.457465 -138.514288 
L 367.993165 -137.289861 
L 367.580255 -136.065435 
L 367.230633 -134.841008 
L 366.953099 -133.616581 
L 366.752742 -132.392154 
L 366.630565 -131.167727 
L 366.583364 -129.9433 
L 366.603859 -128.718873 
L 366.681061 -127.494446 
L 366.800836 -126.270019 
L 366.946632 -125.045593 
L 367.100315 -123.821166 
L 367.243074 -122.596739 
L 367.356351 -121.372312 
L 367.422743 -120.147885 
L 367.426854 -118.923458 
L 367.356047 -117.699031 
L 367.201069 -116.474604 
L 366.956516 -115.250177 
L 366.621124 -114.025751 
L 366.197849 -112.801324 
L 365.693734 -111.576897 
L 365.119549 -110.35247 
L 364.489221 -109.128043 
L 363.81905 -107.903616 
L 363.126768 -106.679189 
L 362.430466 -105.454762 
L 361.74747 -104.230335 
L 361.093221 -103.005909 
L 360.480263 -101.781482 
L 359.91739 -100.557055 
L 359.40906 -99.332628 
L 358.95511 -98.108201 
L 358.550816 -96.883774 
L 358.187311 -95.659347 
L 357.852332 -94.43492 
L 357.531242 -93.210493 
L 357.208236 -91.986067 
L 356.867654 -90.76164 
L 356.495251 -89.537213 
L 356.079336 -88.312786 
L 355.611673 -87.088359 
L 355.088051 -85.863932 
L 354.508491 -84.639505 
L 353.877059 -83.415078 
L 353.201328 -82.190651 
L 352.491532 -80.966225 
L 351.759524 -79.741798 
L 351.01763 -78.517371 
L 350.277536 -77.292944 
L 349.54931 -76.068517 
L 348.840666 -74.84409 
L 348.15652 -73.619663 
L 347.498884 -72.395236 
L 346.867062 -71.170809 
L 346.258128 -69.946383 
L 345.66759 -68.721956 
L 345.090148 -67.497529 
L 344.52047 -66.273102 
L 343.953874 -65.048675 
L 343.386873 -63.824248 
L 342.817525 -62.599821 
L 342.245583 -61.375394 
L 341.672457 -60.150967 
L 341.101016 -58.92654 
L 340.535274 -57.702114 
L 339.980013 -56.477687 
L 339.440381 -55.25326 
L 338.921512 -54.028833 
L 338.428195 -52.804406 
L 337.964606 -51.579979 
z
" style="stroke: #303030; stroke-width: 1.25"/>
    </defs>
    <g clip-path="url(#pa53f2af56a)">
     <use xlink:href="#m1cea901ab2" x="0" y="212.126563" style="fill: #c08089; stroke: #303030; stroke-width: 1.25"/>
    </g>
   </g>
   <g id="PolyCollection_4">
    <defs>
     <path id="me2c041f7d8" d="M 441.175413 -44.996642 
L 419.74798 -44.996642 
L 418.675095 -46.280873 
L 417.54968 -47.565103 
L 416.375077 -48.849333 
L 415.155345 -50.133564 
L 413.895298 -51.417794 
L 412.600523 -52.702024 
L 411.277385 -53.986255 
L 409.933025 -55.270485 
L 408.575328 -56.554715 
L 407.212868 -57.838946 
L 405.854828 -59.123176 
L 404.510892 -60.407406 
L 403.191111 -61.691637 
L 401.905741 -62.975867 
L 400.665071 -64.260097 
L 399.479221 -65.544328 
L 398.357951 -66.828558 
L 397.310454 -68.112788 
L 396.34517 -69.397019 
L 395.46961 -70.681249 
L 394.690201 -71.965479 
L 394.012167 -73.24971 
L 393.439437 -74.53394 
L 392.974596 -75.81817 
L 392.618865 -77.102401 
L 392.372129 -78.386631 
L 392.232986 -79.670861 
L 392.198839 -80.955092 
L 392.266008 -82.239322 
L 392.429856 -83.523552 
L 392.68494 -84.807783 
L 393.025159 -86.092013 
L 393.443905 -87.376243 
L 393.934213 -88.660473 
L 394.488896 -89.944704 
L 395.100673 -91.228934 
L 395.762275 -92.513164 
L 396.466538 -93.797395 
L 397.20648 -95.081625 
L 397.975358 -96.365855 
L 398.766709 -97.650086 
L 399.574379 -98.934316 
L 400.392538 -100.218546 
L 401.215685 -101.502777 
L 402.038639 -102.787007 
L 402.856531 -104.071237 
L 403.66478 -105.355468 
L 404.459068 -106.639698 
L 405.23531 -107.923928 
L 405.989621 -109.208159 
L 406.718273 -110.492389 
L 407.417664 -111.776619 
L 408.084272 -113.06085 
L 408.714623 -114.34508 
L 409.305259 -115.62931 
L 409.852722 -116.913541 
L 410.353541 -118.197771 
L 410.804249 -119.482001 
L 411.201412 -120.766232 
L 411.541689 -122.050462 
L 411.821915 -123.334692 
L 412.039215 -124.618923 
L 412.191148 -125.903153 
L 412.275865 -127.187383 
L 412.292295 -128.471614 
L 412.240332 -129.755844 
L 412.121031 -131.040074 
L 411.936777 -132.324305 
L 411.691444 -133.608535 
L 411.390499 -134.892765 
L 411.041066 -136.176995 
L 410.65192 -137.461226 
L 410.23341 -138.745456 
L 409.797313 -140.029686 
L 409.356605 -141.313917 
L 408.925163 -142.598147 
L 408.517409 -143.882377 
L 408.1479 -145.166608 
L 407.830893 -146.450838 
L 407.579893 -147.735068 
L 407.407213 -149.019299 
L 407.323571 -150.303529 
L 407.337731 -151.587759 
L 407.456218 -152.87199 
L 407.683113 -154.15622 
L 408.019942 -155.44045 
L 408.465656 -156.724681 
L 409.016715 -158.008911 
L 409.667242 -159.293141 
L 410.409275 -160.577372 
L 411.233061 -161.861602 
L 412.127413 -163.145832 
L 413.080085 -164.430063 
L 414.07816 -165.714293 
L 415.108435 -166.998523 
L 416.157786 -168.282754 
L 417.213495 -169.566984 
L 418.26354 -170.851214 
L 419.296833 -172.135445 
L 441.62656 -172.135445 
L 441.62656 -172.135445 
L 442.659853 -170.851214 
L 443.709897 -169.566984 
L 444.765606 -168.282754 
L 445.814958 -166.998523 
L 446.845233 -165.714293 
L 447.843308 -164.430063 
L 448.79598 -163.145832 
L 449.690332 -161.861602 
L 450.514118 -160.577372 
L 451.256151 -159.293141 
L 451.906678 -158.008911 
L 452.457737 -156.724681 
L 452.903451 -155.44045 
L 453.24028 -154.15622 
L 453.467175 -152.87199 
L 453.585662 -151.587759 
L 453.599822 -150.303529 
L 453.51618 -149.019299 
L 453.3435 -147.735068 
L 453.0925 -146.450838 
L 452.775493 -145.166608 
L 452.405984 -143.882377 
L 451.99823 -142.598147 
L 451.566788 -141.313917 
L 451.12608 -140.029686 
L 450.689983 -138.745456 
L 450.271473 -137.461226 
L 449.882327 -136.176995 
L 449.532894 -134.892765 
L 449.231949 -133.608535 
L 448.986616 -132.324305 
L 448.802362 -131.040074 
L 448.683061 -129.755844 
L 448.631098 -128.471614 
L 448.647528 -127.187383 
L 448.732245 -125.903153 
L 448.884178 -124.618923 
L 449.101478 -123.334692 
L 449.381704 -122.050462 
L 449.72198 -120.766232 
L 450.119144 -119.482001 
L 450.569852 -118.197771 
L 451.070671 -116.913541 
L 451.618134 -115.62931 
L 452.20877 -114.34508 
L 452.839121 -113.06085 
L 453.505728 -111.776619 
L 454.205119 -110.492389 
L 454.933772 -109.208159 
L 455.688083 -107.923928 
L 456.464325 -106.639698 
L 457.258613 -105.355468 
L 458.066862 -104.071237 
L 458.884754 -102.787007 
L 459.707708 -101.502777 
L 460.530855 -100.218546 
L 461.349014 -98.934316 
L 462.156684 -97.650086 
L 462.948035 -96.365855 
L 463.716913 -95.081625 
L 464.456855 -93.797395 
L 465.161118 -92.513164 
L 465.82272 -91.228934 
L 466.434497 -89.944704 
L 466.98918 -88.660473 
L 467.479488 -87.376243 
L 467.898234 -86.092013 
L 468.238452 -84.807783 
L 468.493537 -83.523552 
L 468.657385 -82.239322 
L 468.724554 -80.955092 
L 468.690407 -79.670861 
L 468.551264 -78.386631 
L 468.304528 -77.102401 
L 467.948797 -75.81817 
L 467.483956 -74.53394 
L 466.911226 -73.24971 
L 466.233192 -71.965479 
L 465.453783 -70.681249 
L 464.578222 -69.397019 
L 463.612939 -68.112788 
L 462.565442 -66.828558 
L 461.444172 -65.544328 
L 460.258322 -64.260097 
L 459.017651 -62.975867 
L 457.732282 -61.691637 
L 456.412501 -60.407406 
L 455.068565 -59.123176 
L 453.710525 -57.838946 
L 452.348065 -56.554715 
L 450.990368 -55.270485 
L 449.646008 -53.986255 
L 448.32287 -52.702024 
L 447.028094 -51.417794 
L 445.768048 -50.133564 
L 444.548316 -48.849333 
L 443.373712 -47.565103 
L 442.248298 -46.280873 
L 441.175413 -44.996642 
z
" style="stroke: #303030; stroke-width: 1.25"/>
    </defs>
    <g clip-path="url(#pa53f2af56a)">
     <use xlink:href="#me2c041f7d8" x="0" y="212.126563" style="fill: #2f7499; stroke: #303030; stroke-width: 1.25"/>
    </g>
   </g>
   <g id="matplotlib.axis_3">
    <g id="xtick_3">
     <g id="line2d_15">
      <g>
       <use xlink:href="#m5101f8a04f" x="334.804554" y="173.52" style="stroke: #000000; stroke-width: 0.8"/>
      </g>
     </g>
     <g id="text_11">
      <!-- PLP -->
      <g transform="translate(325.353772 187.677813) scale(0.1 -0.1)">
       <use xlink:href="#ArialMT-50"/>
       <use xlink:href="#ArialMT-4c" x="66.699219"/>
       <use xlink:href="#ArialMT-50" x="122.314453"/>
      </g>
     </g>
    </g>
    <g id="xtick_4">
     <g id="line2d_16">
      <g>
       <use xlink:href="#m5101f8a04f" x="430.461696" y="173.52" style="stroke: #000000; stroke-width: 0.8"/>
      </g>
     </g>
     <g id="text_12">
      <!-- BLB -->
      <g transform="translate(421.010915 187.677813) scale(0.1 -0.1)">
       <use xlink:href="#ArialMT-42"/>
       <use xlink:href="#ArialMT-4c" x="66.699219"/>
       <use xlink:href="#ArialMT-42" x="122.314453"/>
      </g>
     </g>
    </g>
    <g id="text_13">
     <!-- ClinVar Category -->
     <g transform="translate(337.392188 202.400938) scale(0.12 -0.12)">
      <use xlink:href="#ArialMT-43"/>
      <use xlink:href="#ArialMT-6c" x="72.216797"/>
      <use xlink:href="#ArialMT-69" x="94.433594"/>
      <use xlink:href="#ArialMT-6e" x="116.650391"/>
      <use xlink:href="#ArialMT-56" x="172.265625"/>
      <use xlink:href="#ArialMT-61" x="231.589844"/>
      <use xlink:href="#ArialMT-72" x="287.205078"/>
      <use xlink:href="#ArialMT-20" x="320.505859"/>
      <use xlink:href="#ArialMT-43" x="348.289062"/>
      <use xlink:href="#ArialMT-61" x="420.505859"/>
      <use xlink:href="#ArialMT-74" x="476.121094"/>
      <use xlink:href="#ArialMT-65" x="503.904297"/>
      <use xlink:href="#ArialMT-67" x="559.519531"/>
      <use xlink:href="#ArialMT-6f" x="615.134766"/>
      <use xlink:href="#ArialMT-72" x="670.75"/>
      <use xlink:href="#ArialMT-79" x="704.050781"/>
     </g>
    </g>
   </g>
   <g id="matplotlib.axis_4">
    <g id="ytick_6">
     <g id="line2d_17">
      <g>
       <use xlink:href="#m5577428c53" x="286.975982" y="167.369647" style="stroke: #000000; stroke-width: 0.8"/>
      </g>
     </g>
     <g id="text_14">
      <!-- 0.5 -->
      <g transform="translate(264.685982 171.306444) scale(0.11 -0.11)">
       <use xlink:href="#ArialMT-30"/>
       <use xlink:href="#ArialMT-2e" x="55.615234"/>
       <use xlink:href="#ArialMT-35" x="83.398438"/>
      </g>
     </g>
    </g>
    <g id="ytick_7">
     <g id="line2d_18">
      <g>
       <use xlink:href="#m5577428c53" x="286.975982" y="141.73923" style="stroke: #000000; stroke-width: 0.8"/>
      </g>
     </g>
     <g id="text_15">
      <!-- 0.6 -->
      <g transform="translate(264.685982 145.676027) scale(0.11 -0.11)">
       <defs>
        <path id="ArialMT-36" d="M 3184 3459 
L 2625 3416 
Q 2550 3747 2413 3897 
Q 2184 4138 1850 4138 
Q 1581 4138 1378 3988 
Q 1113 3794 959 3422 
Q 806 3050 800 2363 
Q 1003 2672 1297 2822 
Q 1591 2972 1913 2972 
Q 2475 2972 2870 2558 
Q 3266 2144 3266 1488 
Q 3266 1056 3080 686 
Q 2894 316 2569 119 
Q 2244 -78 1831 -78 
Q 1128 -78 684 439 
Q 241 956 241 2144 
Q 241 3472 731 4075 
Q 1159 4600 1884 4600 
Q 2425 4600 2770 4297 
Q 3116 3994 3184 3459 
z
M 888 1484 
Q 888 1194 1011 928 
Q 1134 663 1356 523 
Q 1578 384 1822 384 
Q 2178 384 2434 671 
Q 2691 959 2691 1453 
Q 2691 1928 2437 2201 
Q 2184 2475 1800 2475 
Q 1419 2475 1153 2201 
Q 888 1928 888 1484 
z
" transform="scale(0.015625)"/>
       </defs>
       <use xlink:href="#ArialMT-30"/>
       <use xlink:href="#ArialMT-2e" x="55.615234"/>
       <use xlink:href="#ArialMT-36" x="83.398438"/>
      </g>
     </g>
    </g>
    <g id="ytick_8">
     <g id="line2d_19">
      <g>
       <use xlink:href="#m5577428c53" x="286.975982" y="116.108813" style="stroke: #000000; stroke-width: 0.8"/>
      </g>
     </g>
     <g id="text_16">
      <!-- 0.7 -->
      <g transform="translate(264.685982 120.04561) scale(0.11 -0.11)">
       <use xlink:href="#ArialMT-30"/>
       <use xlink:href="#ArialMT-2e" x="55.615234"/>
       <use xlink:href="#ArialMT-37" x="83.398438"/>
      </g>
     </g>
    </g>
    <g id="ytick_9">
     <g id="line2d_20">
      <g>
       <use xlink:href="#m5577428c53" x="286.975982" y="90.478396" style="stroke: #000000; stroke-width: 0.8"/>
      </g>
     </g>
     <g id="text_17">
      <!-- 0.8 -->
      <g transform="translate(264.685982 94.415193) scale(0.11 -0.11)">
       <defs>
        <path id="ArialMT-38" d="M 1131 2484 
Q 781 2613 612 2850 
Q 444 3088 444 3419 
Q 444 3919 803 4259 
Q 1163 4600 1759 4600 
Q 2359 4600 2725 4251 
Q 3091 3903 3091 3403 
Q 3091 3084 2923 2848 
Q 2756 2613 2416 2484 
Q 2838 2347 3058 2040 
Q 3278 1734 3278 1309 
Q 3278 722 2862 322 
Q 2447 -78 1769 -78 
Q 1091 -78 675 323 
Q 259 725 259 1325 
Q 259 1772 486 2073 
Q 713 2375 1131 2484 
z
M 1019 3438 
Q 1019 3113 1228 2906 
Q 1438 2700 1772 2700 
Q 2097 2700 2305 2904 
Q 2513 3109 2513 3406 
Q 2513 3716 2298 3927 
Q 2084 4138 1766 4138 
Q 1444 4138 1231 3931 
Q 1019 3725 1019 3438 
z
M 838 1322 
Q 838 1081 952 856 
Q 1066 631 1291 507 
Q 1516 384 1775 384 
Q 2178 384 2440 643 
Q 2703 903 2703 1303 
Q 2703 1709 2433 1975 
Q 2163 2241 1756 2241 
Q 1359 2241 1098 1978 
Q 838 1716 838 1322 
z
" transform="scale(0.015625)"/>
       </defs>
       <use xlink:href="#ArialMT-30"/>
       <use xlink:href="#ArialMT-2e" x="55.615234"/>
       <use xlink:href="#ArialMT-38" x="83.398438"/>
      </g>
     </g>
    </g>
    <g id="ytick_10">
     <g id="line2d_21">
      <g>
       <use xlink:href="#m5577428c53" x="286.975982" y="64.847979" style="stroke: #000000; stroke-width: 0.8"/>
      </g>
     </g>
     <g id="text_18">
      <!-- 0.9 -->
      <g transform="translate(264.685982 68.784776) scale(0.11 -0.11)">
       <defs>
        <path id="ArialMT-39" d="M 350 1059 
L 891 1109 
Q 959 728 1153 556 
Q 1347 384 1650 384 
Q 1909 384 2104 503 
Q 2300 622 2425 820 
Q 2550 1019 2634 1356 
Q 2719 1694 2719 2044 
Q 2719 2081 2716 2156 
Q 2547 1888 2255 1720 
Q 1963 1553 1622 1553 
Q 1053 1553 659 1965 
Q 266 2378 266 3053 
Q 266 3750 677 4175 
Q 1088 4600 1706 4600 
Q 2153 4600 2523 4359 
Q 2894 4119 3086 3673 
Q 3278 3228 3278 2384 
Q 3278 1506 3087 986 
Q 2897 466 2520 194 
Q 2144 -78 1638 -78 
Q 1100 -78 759 220 
Q 419 519 350 1059 
z
M 2653 3081 
Q 2653 3566 2395 3850 
Q 2138 4134 1775 4134 
Q 1400 4134 1122 3828 
Q 844 3522 844 3034 
Q 844 2597 1108 2323 
Q 1372 2050 1759 2050 
Q 2150 2050 2401 2323 
Q 2653 2597 2653 3081 
z
" transform="scale(0.015625)"/>
       </defs>
       <use xlink:href="#ArialMT-30"/>
       <use xlink:href="#ArialMT-2e" x="55.615234"/>
       <use xlink:href="#ArialMT-39" x="83.398438"/>
      </g>
     </g>
    </g>
    <g id="ytick_11">
     <g id="line2d_22">
      <g>
       <use xlink:href="#m5577428c53" x="286.975982" y="39.217562" style="stroke: #000000; stroke-width: 0.8"/>
      </g>
     </g>
     <g id="text_19">
      <!-- 1.0 -->
      <g transform="translate(264.685982 43.154358) scale(0.11 -0.11)">
       <use xlink:href="#ArialMT-31"/>
       <use xlink:href="#ArialMT-2e" x="55.615234"/>
       <use xlink:href="#ArialMT-30" x="83.398438"/>
      </g>
     </g>
    </g>
    <g id="ytick_12">
     <g id="line2d_23">
      <g>
       <use xlink:href="#m5577428c53" x="286.975982" y="13.587145" style="stroke: #000000; stroke-width: 0.8"/>
      </g>
     </g>
     <g id="text_20">
      <!-- 1.1 -->
      <g transform="translate(264.685982 17.523941) scale(0.11 -0.11)">
       <use xlink:href="#ArialMT-31"/>
       <use xlink:href="#ArialMT-2e" x="55.615234"/>
       <use xlink:href="#ArialMT-31" x="83.398438"/>
      </g>
     </g>
    </g>
    <g id="text_21">
     <!-- Imaging Phenotype Score -->
     <g transform="translate(258.160357 159.399375) rotate(-90) scale(0.12 -0.12)">
      <defs>
       <path id="ArialMT-49" d="M 597 0 
L 597 4581 
L 1203 4581 
L 1203 0 
L 597 0 
z
" transform="scale(0.015625)"/>
       <path id="ArialMT-6d" d="M 422 0 
L 422 3319 
L 925 3319 
L 925 2853 
Q 1081 3097 1340 3245 
Q 1600 3394 1931 3394 
Q 2300 3394 2536 3241 
Q 2772 3088 2869 2813 
Q 3263 3394 3894 3394 
Q 4388 3394 4653 3120 
Q 4919 2847 4919 2278 
L 4919 0 
L 4359 0 
L 4359 2091 
Q 4359 2428 4304 2576 
Q 4250 2725 4106 2815 
Q 3963 2906 3769 2906 
Q 3419 2906 3187 2673 
Q 2956 2441 2956 1928 
L 2956 0 
L 2394 0 
L 2394 2156 
Q 2394 2531 2256 2718 
Q 2119 2906 1806 2906 
Q 1569 2906 1367 2781 
Q 1166 2656 1075 2415 
Q 984 2175 984 1722 
L 984 0 
L 422 0 
z
" transform="scale(0.015625)"/>
       <path id="ArialMT-68" d="M 422 0 
L 422 4581 
L 984 4581 
L 984 2938 
Q 1378 3394 1978 3394 
Q 2347 3394 2619 3248 
Q 2891 3103 3008 2847 
Q 3125 2591 3125 2103 
L 3125 0 
L 2563 0 
L 2563 2103 
Q 2563 2525 2380 2717 
Q 2197 2909 1863 2909 
Q 1613 2909 1392 2779 
Q 1172 2650 1078 2428 
Q 984 2206 984 1816 
L 984 0 
L 422 0 
z
" transform="scale(0.015625)"/>
      </defs>
      <use xlink:href="#ArialMT-49"/>
      <use xlink:href="#ArialMT-6d" x="27.783203"/>
      <use xlink:href="#ArialMT-61" x="111.083984"/>
      <use xlink:href="#ArialMT-67" x="166.699219"/>
      <use xlink:href="#ArialMT-69" x="222.314453"/>
      <use xlink:href="#ArialMT-6e" x="244.53125"/>
      <use xlink:href="#ArialMT-67" x="300.146484"/>
      <use xlink:href="#ArialMT-20" x="355.761719"/>
      <use xlink:href="#ArialMT-50" x="383.544922"/>
      <use xlink:href="#ArialMT-68" x="450.244141"/>
      <use xlink:href="#ArialMT-65" x="505.859375"/>
      <use xlink:href="#ArialMT-6e" x="561.474609"/>
      <use xlink:href="#ArialMT-6f" x="617.089844"/>
      <use xlink:href="#ArialMT-74" x="672.705078"/>
      <use xlink:href="#ArialMT-79" x="700.488281"/>
      <use xlink:href="#ArialMT-70" x="750.488281"/>
      <use xlink:href="#ArialMT-65" x="806.103516"/>
      <use xlink:href="#ArialMT-20" x="861.71875"/>
      <use xlink:href="#ArialMT-53" x="889.501953"/>
      <use xlink:href="#ArialMT-63" x="956.201172"/>
      <use xlink:href="#ArialMT-6f" x="1006.201172"/>
      <use xlink:href="#ArialMT-72" x="1061.816406"/>
      <use xlink:href="#ArialMT-65" x="1095.117188"/>
     </g>
    </g>
   </g>
   <g id="line2d_24">
    <path d="M 334.804554 160.546583 
L 334.804554 39.328321 
" clip-path="url(#pa53f2af56a)" style="fill: none; stroke: #303030; stroke-width: 1.875; stroke-linecap: square"/>
   </g>
   <g id="line2d_25">
    <path d="M 334.804554 106.805508 
L 334.804554 59.39601 
" clip-path="url(#pa53f2af56a)" style="fill: none; stroke: #303030; stroke-width: 5.625; stroke-linecap: square"/>
   </g>
   <g id="line2d_26">
    <path d="M 334.804554 82.097 
" clip-path="url(#pa53f2af56a)" style="fill: none; stroke: #303030; stroke-width: 1.5; stroke-linecap: square"/>
    <g clip-path="url(#pa53f2af56a)">
     <use xlink:href="#m54145f23cc" x="334.804554" y="82.097" style="fill: #ffffff; stroke: #ffffff; stroke-width: 1.125"/>
    </g>
   </g>
   <g id="line2d_27">
    <path d="M 430.461696 167.12992 
L 430.461696 39.991118 
" clip-path="url(#pa53f2af56a)" style="fill: none; stroke: #303030; stroke-width: 1.875; stroke-linecap: square"/>
   </g>
   <g id="line2d_28">
    <path d="M 430.461696 135.120479 
L 430.461696 76.625803 
" clip-path="url(#pa53f2af56a)" style="fill: none; stroke: #303030; stroke-width: 5.625; stroke-linecap: square"/>
   </g>
   <g id="line2d_29">
    <path d="M 430.461696 117.379137 
" clip-path="url(#pa53f2af56a)" style="fill: none; stroke: #303030; stroke-width: 1.5; stroke-linecap: square"/>
    <g clip-path="url(#pa53f2af56a)">
     <use xlink:href="#m54145f23cc" x="430.461696" y="117.379137" style="fill: #ffffff; stroke: #ffffff; stroke-width: 1.125"/>
    </g>
   </g>
   <g id="line2d_30">
    <path d="M 334.804554 32.299233 
L 334.804554 29.487598 
L 430.461696 29.487598 
L 430.461696 32.299233 
" style="fill: none; stroke: #333333; stroke-width: 1.5; stroke-linecap: square"/>
   </g>
   <g id="patch_8">
    <path d="M 286.975982 173.52 
L 286.975982 7.2 
" style="fill: none; stroke: #000000; stroke-width: 0.8; stroke-linejoin: miter; stroke-linecap: square"/>
   </g>
   <g id="patch_9">
    <path d="M 478.290268 173.52 
L 478.290268 7.2 
" style="fill: none; stroke: #000000; stroke-width: 0.8; stroke-linejoin: miter; stroke-linecap: square"/>
   </g>
   <g id="patch_10">
    <path d="M 286.975982 173.52 
L 478.290268 173.52 
" style="fill: none; stroke: #000000; stroke-width: 0.8; stroke-linejoin: miter; stroke-linecap: square"/>
   </g>
   <g id="patch_11">
    <path d="M 286.975982 7.2 
L 478.290268 7.2 
" style="fill: none; stroke: #000000; stroke-width: 0.8; stroke-linejoin: miter; stroke-linecap: square"/>
   </g>
   <g id="text_22">
    <!-- M.W.W. p = 3.509e-10 -->
    <g transform="translate(323.105625 19.102598) scale(0.12 -0.12)">
     <use xlink:href="#ArialMT-4d"/>
     <use xlink:href="#ArialMT-2e" x="83.300781"/>
     <use xlink:href="#ArialMT-57" x="111.083984"/>
     <use xlink:href="#ArialMT-2e" x="199.96875"/>
     <use xlink:href="#ArialMT-57" x="227.751953"/>
     <use xlink:href="#ArialMT-2e" x="316.636719"/>
     <use xlink:href="#ArialMT-20" x="344.419922"/>
     <use xlink:href="#ArialMT-70" x="372.203125"/>
     <use xlink:href="#ArialMT-20" x="427.818359"/>
     <use xlink:href="#ArialMT-3d" x="455.601562"/>
     <use xlink:href="#ArialMT-20" x="514"/>
     <use xlink:href="#ArialMT-33" x="541.783203"/>
     <use xlink:href="#ArialMT-2e" x="597.398438"/>
     <use xlink:href="#ArialMT-35" x="625.181641"/>
     <use xlink:href="#ArialMT-30" x="680.796875"/>
     <use xlink:href="#ArialMT-39" x="736.412109"/>
     <use xlink:href="#ArialMT-65" x="792.027344"/>
     <use xlink:href="#ArialMT-2d" x="847.642578"/>
     <use xlink:href="#ArialMT-31" x="880.943359"/>
     <use xlink:href="#ArialMT-30" x="936.558594"/>
    </g>
   </g>
  </g>
  <g id="axes_3">
   <g id="patch_12">
    <path d="M 526.118839 173.52 
L 717.433125 173.52 
L 717.433125 7.2 
L 526.118839 7.2 
L 526.118839 173.52 
z
" style="fill: none"/>
   </g>
   <g id="PolyCollection_5">
    <defs>
     <path id="m6d00503362" d="M 584.226963 -44.996642 
L 563.667858 -44.996642 
L 562.406905 -46.287568 
L 561.078638 -47.578493 
L 559.688897 -48.869418 
L 558.244356 -50.160343 
L 556.752649 -51.451269 
L 555.222522 -52.742194 
L 553.664021 -54.033119 
L 552.088635 -55.324044 
L 550.509375 -56.61497 
L 548.940737 -57.905895 
L 547.398506 -59.19682 
L 545.899398 -60.487745 
L 544.460521 -61.778671 
L 543.098696 -63.069596 
L 541.829674 -64.360521 
L 540.667325 -65.651446 
L 539.622872 -66.942372 
L 538.704265 -68.233297 
L 537.915752 -69.524222 
L 537.257735 -70.815147 
L 536.726922 -72.106073 
L 536.31678 -73.396998 
L 536.018268 -74.687923 
L 535.820761 -75.978848 
L 535.713086 -77.269773 
L 535.684554 -78.560699 
L 535.725868 -79.851624 
L 535.829815 -81.142549 
L 535.991653 -82.433474 
L 536.209159 -83.7244 
L 536.482336 -85.015325 
L 536.812818 -86.30625 
L 537.203052 -87.597175 
L 537.655369 -88.888101 
L 538.171061 -90.179026 
L 538.749581 -91.469951 
L 539.387965 -92.760876 
L 540.080553 -94.051802 
L 540.81903 -95.342727 
L 541.592789 -96.633652 
L 542.389556 -97.924577 
L 543.1962 -99.215503 
L 543.999625 -100.506428 
L 544.787644 -101.797353 
L 545.549721 -103.088278 
L 546.277516 -104.379204 
L 546.965172 -105.670129 
L 547.609335 -106.961054 
L 548.208921 -108.251979 
L 548.764685 -109.542905 
L 549.278656 -110.83383 
L 549.753534 -112.124755 
L 550.19212 -113.41568 
L 550.596864 -114.706605 
L 550.969589 -115.997531 
L 551.3114 -117.288456 
L 551.62281 -118.579381 
L 551.904028 -119.870306 
L 552.155382 -121.161232 
L 552.377791 -122.452157 
L 552.573231 -123.743082 
L 552.745107 -125.034007 
L 552.898479 -126.324933 
L 553.04009 -127.615858 
L 553.178186 -128.906783 
L 553.322109 -130.197708 
L 553.481729 -131.488634 
L 553.666728 -132.779559 
L 553.885845 -134.070484 
L 554.14613 -135.361409 
L 554.452316 -136.652335 
L 554.806368 -137.94326 
L 555.207268 -139.234185 
L 555.651076 -140.52511 
L 556.13126 -141.816036 
L 556.639279 -143.106961 
L 557.165356 -144.397886 
L 557.699366 -145.688811 
L 558.231755 -146.979736 
L 558.754383 -148.270662 
L 559.261219 -149.561587 
L 559.748809 -150.852512 
L 560.216482 -152.143437 
L 560.666272 -153.434363 
L 561.102586 -154.725288 
L 561.531647 -156.016213 
L 561.960789 -157.307138 
L 562.397674 -158.598064 
L 562.849513 -159.888989 
L 563.322368 -161.179914 
L 563.82059 -162.470839 
L 564.346432 -163.761765 
L 564.899872 -165.05269 
L 565.478625 -166.343615 
L 566.078338 -167.63454 
L 566.692936 -168.925466 
L 567.315066 -170.216391 
L 567.936597 -171.507316 
L 568.549138 -172.798241 
L 579.345684 -172.798241 
L 579.345684 -172.798241 
L 579.958225 -171.507316 
L 580.579756 -170.216391 
L 581.201885 -168.925466 
L 581.816484 -167.63454 
L 582.416197 -166.343615 
L 582.994949 -165.05269 
L 583.548389 -163.761765 
L 584.074232 -162.470839 
L 584.572453 -161.179914 
L 585.045309 -159.888989 
L 585.497148 -158.598064 
L 585.934032 -157.307138 
L 586.363174 -156.016213 
L 586.792235 -154.725288 
L 587.22855 -153.434363 
L 587.67834 -152.143437 
L 588.146012 -150.852512 
L 588.633602 -149.561587 
L 589.140438 -148.270662 
L 589.663067 -146.979736 
L 590.195455 -145.688811 
L 590.729466 -144.397886 
L 591.255542 -143.106961 
L 591.763561 -141.816036 
L 592.243745 -140.52511 
L 592.687553 -139.234185 
L 593.088453 -137.94326 
L 593.442505 -136.652335 
L 593.748691 -135.361409 
L 594.008976 -134.070484 
L 594.228093 -132.779559 
L 594.413093 -131.488634 
L 594.572712 -130.197708 
L 594.716636 -128.906783 
L 594.854731 -127.615858 
L 594.996343 -126.324933 
L 595.149715 -125.034007 
L 595.321591 -123.743082 
L 595.517031 -122.452157 
L 595.73944 -121.161232 
L 595.990794 -119.870306 
L 596.272012 -118.579381 
L 596.583421 -117.288456 
L 596.925232 -115.997531 
L 597.297957 -114.706605 
L 597.702702 -113.41568 
L 598.141287 -112.124755 
L 598.616165 -110.83383 
L 599.130136 -109.542905 
L 599.6859 -108.251979 
L 600.285486 -106.961054 
L 600.929649 -105.670129 
L 601.617306 -104.379204 
L 602.345101 -103.088278 
L 603.107178 -101.797353 
L 603.895197 -100.506428 
L 604.698622 -99.215503 
L 605.505265 -97.924577 
L 606.302032 -96.633652 
L 607.075792 -95.342727 
L 607.814269 -94.051802 
L 608.506856 -92.760876 
L 609.14524 -91.469951 
L 609.72376 -90.179026 
L 610.239453 -88.888101 
L 610.69177 -87.597175 
L 611.082003 -86.30625 
L 611.412485 -85.015325 
L 611.685663 -83.7244 
L 611.903169 -82.433474 
L 612.065007 -81.142549 
L 612.168954 -79.851624 
L 612.210268 -78.560699 
L 612.181736 -77.269773 
L 612.074061 -75.978848 
L 611.876553 -74.687923 
L 611.578041 -73.396998 
L 611.167899 -72.106073 
L 610.637086 -70.815147 
L 609.97907 -69.524222 
L 609.190557 -68.233297 
L 608.271949 -66.942372 
L 607.227497 -65.651446 
L 606.065147 -64.360521 
L 604.796125 -63.069596 
L 603.4343 -61.778671 
L 601.995423 -60.487745 
L 600.496316 -59.19682 
L 598.954085 -57.905895 
L 597.385446 -56.61497 
L 595.806186 -55.324044 
L 594.2308 -54.033119 
L 592.672299 -52.742194 
L 591.142173 -51.451269 
L 589.650465 -50.160343 
L 588.205925 -48.869418 
L 586.816183 -47.578493 
L 585.487916 -46.287568 
L 584.226963 -44.996642 
z
" style="stroke: #303030; stroke-width: 1.25"/>
    </defs>
    <g clip-path="url(#pa9797b60f3)">
     <use xlink:href="#m6d00503362" x="0" y="212.126563" style="fill: #c08089; stroke: #303030; stroke-width: 1.25"/>
    </g>
   </g>
   <g id="PolyCollection_6">
    <defs>
     <path id="m1f1424d758" d="M 683.380319 -47.583082 
L 655.828788 -47.583082 
L 654.767608 -48.515268 
L 653.668817 -49.447453 
L 652.535129 -50.379639 
L 651.369883 -51.311825 
L 650.177096 -52.244011 
L 648.961521 -53.176196 
L 647.728664 -54.108382 
L 646.484799 -55.040568 
L 645.236941 -55.972753 
L 643.992798 -56.904939 
L 642.760687 -57.837125 
L 641.549424 -58.769311 
L 640.368177 -59.701496 
L 639.226295 -60.633682 
L 638.133121 -61.565868 
L 637.097784 -62.498054 
L 636.128984 -63.430239 
L 635.234782 -64.362425 
L 634.422396 -65.294611 
L 633.698018 -66.226796 
L 633.066661 -67.158982 
L 632.532031 -68.091168 
L 632.09645 -69.023354 
L 631.760816 -69.955539 
L 631.524611 -70.887725 
L 631.385954 -71.819911 
L 631.341696 -72.752096 
L 631.387556 -73.684282 
L 631.518278 -74.616468 
L 631.727826 -75.548654 
L 632.00958 -76.480839 
L 632.356543 -77.413025 
L 632.761541 -78.345211 
L 633.217407 -79.277396 
L 633.71715 -80.209582 
L 634.254094 -81.141768 
L 634.821985 -82.073954 
L 635.415068 -83.006139 
L 636.028139 -83.938325 
L 636.656556 -84.870511 
L 637.296235 -85.802697 
L 637.943624 -86.734882 
L 638.595667 -87.667068 
L 639.24975 -88.599254 
L 639.903661 -89.531439 
L 640.555539 -90.463625 
L 641.203841 -91.395811 
L 641.847311 -92.327997 
L 642.484963 -93.260182 
L 643.11607 -94.192368 
L 643.740165 -95.124554 
L 644.357041 -96.056739 
L 644.966753 -96.988925 
L 645.569619 -97.921111 
L 646.166211 -98.853297 
L 646.757336 -99.785482 
L 647.344008 -100.717668 
L 647.927402 -101.649854 
L 648.508797 -102.58204 
L 649.089517 -103.514225 
L 649.670847 -104.446411 
L 650.253962 -105.378597 
L 650.839846 -106.310782 
L 651.429222 -107.242968 
L 652.022486 -108.175154 
L 652.619661 -109.10734 
L 653.220362 -110.039525 
L 653.823784 -110.971711 
L 654.428709 -111.903897 
L 655.033531 -112.836082 
L 655.636303 -113.768268 
L 656.234792 -114.700454 
L 656.826558 -115.63264 
L 657.409031 -116.564825 
L 657.979601 -117.497011 
L 658.535702 -118.429197 
L 659.074896 -119.361382 
L 659.594951 -120.293568 
L 660.093909 -121.225754 
L 660.570143 -122.15794 
L 661.022395 -123.090125 
L 661.449813 -124.022311 
L 661.851962 -124.954497 
L 662.228828 -125.886683 
L 662.580806 -126.818868 
L 662.90868 -127.751054 
L 663.21359 -128.68324 
L 663.496991 -129.615425 
L 663.760603 -130.547611 
L 664.006358 -131.479797 
L 664.236343 -132.411983 
L 664.452736 -133.344168 
L 664.657744 -134.276354 
L 664.853545 -135.20854 
L 665.042224 -136.140725 
L 665.225724 -137.072911 
L 665.405791 -138.005097 
L 665.583937 -138.937283 
L 665.761405 -139.869468 
L 673.447702 -139.869468 
L 673.447702 -139.869468 
L 673.62517 -138.937283 
L 673.803317 -138.005097 
L 673.983384 -137.072911 
L 674.166883 -136.140725 
L 674.355562 -135.20854 
L 674.551363 -134.276354 
L 674.756371 -133.344168 
L 674.972764 -132.411983 
L 675.202749 -131.479797 
L 675.448504 -130.547611 
L 675.712116 -129.615425 
L 675.995517 -128.68324 
L 676.300427 -127.751054 
L 676.628301 -126.818868 
L 676.980279 -125.886683 
L 677.357145 -124.954497 
L 677.759294 -124.022311 
L 678.186712 -123.090125 
L 678.638965 -122.15794 
L 679.115198 -121.225754 
L 679.614156 -120.293568 
L 680.134211 -119.361382 
L 680.673405 -118.429197 
L 681.229506 -117.497011 
L 681.800076 -116.564825 
L 682.38255 -115.63264 
L 682.974315 -114.700454 
L 683.572805 -113.768268 
L 684.175576 -112.836082 
L 684.780398 -111.903897 
L 685.385323 -110.971711 
L 685.988745 -110.039525 
L 686.589446 -109.10734 
L 687.186621 -108.175154 
L 687.779885 -107.242968 
L 688.369261 -106.310782 
L 688.955145 -105.378597 
L 689.53826 -104.446411 
L 690.11959 -103.514225 
L 690.70031 -102.58204 
L 691.281706 -101.649854 
L 691.865099 -100.717668 
L 692.451771 -99.785482 
L 693.042896 -98.853297 
L 693.639488 -97.921111 
L 694.242355 -96.988925 
L 694.852066 -96.056739 
L 695.468942 -95.124554 
L 696.093037 -94.192368 
L 696.724144 -93.260182 
L 697.361796 -92.327997 
L 698.005266 -91.395811 
L 698.653568 -90.463625 
L 699.305446 -89.531439 
L 699.959357 -88.599254 
L 700.61344 -87.667068 
L 701.265483 -86.734882 
L 701.912873 -85.802697 
L 702.552551 -84.870511 
L 703.180968 -83.938325 
L 703.794039 -83.006139 
L 704.387123 -82.073954 
L 704.955013 -81.141768 
L 705.491957 -80.209582 
L 705.991701 -79.277396 
L 706.447566 -78.345211 
L 706.852564 -77.413025 
L 707.199527 -76.480839 
L 707.481281 -75.548654 
L 707.690829 -74.616468 
L 707.821552 -73.684282 
L 707.867411 -72.752096 
L 707.823153 -71.819911 
L 707.684497 -70.887725 
L 707.448291 -69.955539 
L 707.112657 -69.023354 
L 706.677076 -68.091168 
L 706.142446 -67.158982 
L 705.511089 -66.226796 
L 704.786712 -65.294611 
L 703.974325 -64.362425 
L 703.080123 -63.430239 
L 702.111323 -62.498054 
L 701.075986 -61.565868 
L 699.982812 -60.633682 
L 698.84093 -59.701496 
L 697.659683 -58.769311 
L 696.44842 -57.837125 
L 695.21631 -56.904939 
L 693.972166 -55.972753 
L 692.724308 -55.040568 
L 691.480443 -54.108382 
L 690.247586 -53.176196 
L 689.032011 -52.244011 
L 687.839225 -51.311825 
L 686.673978 -50.379639 
L 685.54029 -49.447453 
L 684.441499 -48.515268 
L 683.380319 -47.583082 
z
" style="stroke: #303030; stroke-width: 1.25"/>
    </defs>
    <g clip-path="url(#pa9797b60f3)">
     <use xlink:href="#m1f1424d758" x="0" y="212.126563" style="fill: #2f7499; stroke: #303030; stroke-width: 1.25"/>
    </g>
   </g>
   <g id="matplotlib.axis_5">
    <g id="xtick_5">
     <g id="line2d_31">
      <g>
       <use xlink:href="#m5101f8a04f" x="573.947411" y="173.52" style="stroke: #000000; stroke-width: 0.8"/>
      </g>
     </g>
     <g id="text_23">
      <!-- PLP -->
      <g transform="translate(564.496629 187.677813) scale(0.1 -0.1)">
       <use xlink:href="#ArialMT-50"/>
       <use xlink:href="#ArialMT-4c" x="66.699219"/>
       <use xlink:href="#ArialMT-50" x="122.314453"/>
      </g>
     </g>
    </g>
    <g id="xtick_6">
     <g id="line2d_32">
      <g>
       <use xlink:href="#m5101f8a04f" x="669.604554" y="173.52" style="stroke: #000000; stroke-width: 0.8"/>
      </g>
     </g>
     <g id="text_24">
      <!-- BLB -->
      <g transform="translate(660.153772 187.677813) scale(0.1 -0.1)">
       <use xlink:href="#ArialMT-42"/>
       <use xlink:href="#ArialMT-4c" x="66.699219"/>
       <use xlink:href="#ArialMT-42" x="122.314453"/>
      </g>
     </g>
    </g>
    <g id="text_25">
     <!-- ClinVar Category -->
     <g transform="translate(576.535045 202.400938) scale(0.12 -0.12)">
      <use xlink:href="#ArialMT-43"/>
      <use xlink:href="#ArialMT-6c" x="72.216797"/>
      <use xlink:href="#ArialMT-69" x="94.433594"/>
      <use xlink:href="#ArialMT-6e" x="116.650391"/>
      <use xlink:href="#ArialMT-56" x="172.265625"/>
      <use xlink:href="#ArialMT-61" x="231.589844"/>
      <use xlink:href="#ArialMT-72" x="287.205078"/>
      <use xlink:href="#ArialMT-20" x="320.505859"/>
      <use xlink:href="#ArialMT-43" x="348.289062"/>
      <use xlink:href="#ArialMT-61" x="420.505859"/>
      <use xlink:href="#ArialMT-74" x="476.121094"/>
      <use xlink:href="#ArialMT-65" x="503.904297"/>
      <use xlink:href="#ArialMT-67" x="559.519531"/>
      <use xlink:href="#ArialMT-6f" x="615.134766"/>
      <use xlink:href="#ArialMT-72" x="670.75"/>
      <use xlink:href="#ArialMT-79" x="704.050781"/>
     </g>
    </g>
   </g>
   <g id="matplotlib.axis_6">
    <g id="ytick_13">
     <g id="line2d_33">
      <g>
       <use xlink:href="#m5577428c53" x="526.118839" y="167.23097" style="stroke: #000000; stroke-width: 0.8"/>
      </g>
     </g>
     <g id="text_26">
      <!-- 0.0 -->
      <g transform="translate(503.828839 171.167767) scale(0.11 -0.11)">
       <use xlink:href="#ArialMT-30"/>
       <use xlink:href="#ArialMT-2e" x="55.615234"/>
       <use xlink:href="#ArialMT-30" x="83.398438"/>
      </g>
     </g>
    </g>
    <g id="ytick_14">
     <g id="line2d_34">
      <g>
       <use xlink:href="#m5577428c53" x="526.118839" y="141.65044" style="stroke: #000000; stroke-width: 0.8"/>
      </g>
     </g>
     <g id="text_27">
      <!-- 0.2 -->
      <g transform="translate(503.828839 145.587237) scale(0.11 -0.11)">
       <use xlink:href="#ArialMT-30"/>
       <use xlink:href="#ArialMT-2e" x="55.615234"/>
       <use xlink:href="#ArialMT-32" x="83.398438"/>
      </g>
     </g>
    </g>
    <g id="ytick_15">
     <g id="line2d_35">
      <g>
       <use xlink:href="#m5577428c53" x="526.118839" y="116.069911" style="stroke: #000000; stroke-width: 0.8"/>
      </g>
     </g>
     <g id="text_28">
      <!-- 0.4 -->
      <g transform="translate(503.828839 120.006707) scale(0.11 -0.11)">
       <defs>
        <path id="ArialMT-34" d="M 2069 0 
L 2069 1097 
L 81 1097 
L 81 1613 
L 2172 4581 
L 2631 4581 
L 2631 1613 
L 3250 1613 
L 3250 1097 
L 2631 1097 
L 2631 0 
L 2069 0 
z
M 2069 1613 
L 2069 3678 
L 634 1613 
L 2069 1613 
z
" transform="scale(0.015625)"/>
       </defs>
       <use xlink:href="#ArialMT-30"/>
       <use xlink:href="#ArialMT-2e" x="55.615234"/>
       <use xlink:href="#ArialMT-34" x="83.398438"/>
      </g>
     </g>
    </g>
    <g id="ytick_16">
     <g id="line2d_36">
      <g>
       <use xlink:href="#m5577428c53" x="526.118839" y="90.489381" style="stroke: #000000; stroke-width: 0.8"/>
      </g>
     </g>
     <g id="text_29">
      <!-- 0.6 -->
      <g transform="translate(503.828839 94.426178) scale(0.11 -0.11)">
       <use xlink:href="#ArialMT-30"/>
       <use xlink:href="#ArialMT-2e" x="55.615234"/>
       <use xlink:href="#ArialMT-36" x="83.398438"/>
      </g>
     </g>
    </g>
    <g id="ytick_17">
     <g id="line2d_37">
      <g>
       <use xlink:href="#m5577428c53" x="526.118839" y="64.908851" style="stroke: #000000; stroke-width: 0.8"/>
      </g>
     </g>
     <g id="text_30">
      <!-- 0.8 -->
      <g transform="translate(503.828839 68.845648) scale(0.11 -0.11)">
       <use xlink:href="#ArialMT-30"/>
       <use xlink:href="#ArialMT-2e" x="55.615234"/>
       <use xlink:href="#ArialMT-38" x="83.398438"/>
      </g>
     </g>
    </g>
    <g id="ytick_18">
     <g id="line2d_38">
      <g>
       <use xlink:href="#m5577428c53" x="526.118839" y="39.328321" style="stroke: #000000; stroke-width: 0.8"/>
      </g>
     </g>
     <g id="text_31">
      <!-- 1.0 -->
      <g transform="translate(503.828839 43.265118) scale(0.11 -0.11)">
       <use xlink:href="#ArialMT-31"/>
       <use xlink:href="#ArialMT-2e" x="55.615234"/>
       <use xlink:href="#ArialMT-30" x="83.398438"/>
      </g>
     </g>
    </g>
    <g id="ytick_19">
     <g id="line2d_39">
      <g>
       <use xlink:href="#m5577428c53" x="526.118839" y="13.747791" style="stroke: #000000; stroke-width: 0.8"/>
      </g>
     </g>
     <g id="text_32">
      <!-- 1.2 -->
      <g transform="translate(503.828839 17.684588) scale(0.11 -0.11)">
       <use xlink:href="#ArialMT-31"/>
       <use xlink:href="#ArialMT-2e" x="55.615234"/>
       <use xlink:href="#ArialMT-32" x="83.398438"/>
      </g>
     </g>
    </g>
    <g id="text_33">
     <!-- PPI Perturbation Score -->
     <g transform="translate(497.443839 151.722188) rotate(-90) scale(0.12 -0.12)">
      <use xlink:href="#ArialMT-50"/>
      <use xlink:href="#ArialMT-50" x="66.699219"/>
      <use xlink:href="#ArialMT-49" x="133.398438"/>
      <use xlink:href="#ArialMT-20" x="161.181641"/>
      <use xlink:href="#ArialMT-50" x="188.964844"/>
      <use xlink:href="#ArialMT-65" x="255.664062"/>
      <use xlink:href="#ArialMT-72" x="311.279297"/>
      <use xlink:href="#ArialMT-74" x="344.580078"/>
      <use xlink:href="#ArialMT-75" x="372.363281"/>
      <use xlink:href="#ArialMT-72" x="427.978516"/>
      <use xlink:href="#ArialMT-62" x="461.279297"/>
      <use xlink:href="#ArialMT-61" x="516.894531"/>
      <use xlink:href="#ArialMT-74" x="572.509766"/>
      <use xlink:href="#ArialMT-69" x="600.292969"/>
      <use xlink:href="#ArialMT-6f" x="622.509766"/>
      <use xlink:href="#ArialMT-6e" x="678.125"/>
      <use xlink:href="#ArialMT-20" x="733.740234"/>
      <use xlink:href="#ArialMT-53" x="761.523438"/>
      <use xlink:href="#ArialMT-63" x="828.222656"/>
      <use xlink:href="#ArialMT-6f" x="878.222656"/>
      <use xlink:href="#ArialMT-72" x="933.837891"/>
      <use xlink:href="#ArialMT-65" x="967.138672"/>
     </g>
    </g>
   </g>
   <g id="line2d_40">
    <path d="M 573.947411 167.12992 
L 573.947411 39.328321 
" clip-path="url(#pa9797b60f3)" style="fill: none; stroke: #303030; stroke-width: 1.875; stroke-linecap: square"/>
   </g>
   <g id="line2d_41">
    <path d="M 573.947411 139.525759 
L 573.947411 89.356293 
" clip-path="url(#pa9797b60f3)" style="fill: none; stroke: #303030; stroke-width: 5.625; stroke-linecap: square"/>
   </g>
   <g id="line2d_42">
    <path d="M 573.947411 119.562137 
" clip-path="url(#pa9797b60f3)" style="fill: none; stroke: #303030; stroke-width: 1.5; stroke-linecap: square"/>
    <g clip-path="url(#pa9797b60f3)">
     <use xlink:href="#m54145f23cc" x="573.947411" y="119.562137" style="fill: #ffffff; stroke: #ffffff; stroke-width: 1.125"/>
    </g>
   </g>
   <g id="line2d_43">
    <path d="M 669.604554 164.54348 
L 669.604554 87.39989 
" clip-path="url(#pa9797b60f3)" style="fill: none; stroke: #303030; stroke-width: 1.875; stroke-linecap: square"/>
   </g>
   <g id="line2d_44">
    <path d="M 669.604554 145.076185 
L 669.604554 118.199873 
" clip-path="url(#pa9797b60f3)" style="fill: none; stroke: #303030; stroke-width: 5.625; stroke-linecap: square"/>
   </g>
   <g id="line2d_45">
    <path d="M 669.604554 136.674511 
" clip-path="url(#pa9797b60f3)" style="fill: none; stroke: #303030; stroke-width: 1.5; stroke-linecap: square"/>
    <g clip-path="url(#pa9797b60f3)">
     <use xlink:href="#m54145f23cc" x="669.604554" y="136.674511" style="fill: #ffffff; stroke: #ffffff; stroke-width: 1.125"/>
    </g>
   </g>
   <g id="line2d_46">
    <path d="M 573.947411 32.299233 
L 573.947411 29.487598 
L 669.604554 29.487598 
L 669.604554 32.299233 
" style="fill: none; stroke: #333333; stroke-width: 1.5; stroke-linecap: square"/>
   </g>
   <g id="patch_13">
    <path d="M 526.118839 173.52 
L 526.118839 7.2 
" style="fill: none; stroke: #000000; stroke-width: 0.8; stroke-linejoin: miter; stroke-linecap: square"/>
   </g>
   <g id="patch_14">
    <path d="M 717.433125 173.52 
L 717.433125 7.2 
" style="fill: none; stroke: #000000; stroke-width: 0.8; stroke-linejoin: miter; stroke-linecap: square"/>
   </g>
   <g id="patch_15">
    <path d="M 526.118839 173.52 
L 717.433125 173.52 
" style="fill: none; stroke: #000000; stroke-width: 0.8; stroke-linejoin: miter; stroke-linecap: square"/>
   </g>
   <g id="patch_16">
    <path d="M 526.118839 7.2 
L 717.433125 7.2 
" style="fill: none; stroke: #000000; stroke-width: 0.8; stroke-linejoin: miter; stroke-linecap: square"/>
   </g>
   <g id="text_34">
    <!-- M.W.W. p = 7.605e-03 -->
    <g transform="translate(562.248482 19.102598) scale(0.12 -0.12)">
     <use xlink:href="#ArialMT-4d"/>
     <use xlink:href="#ArialMT-2e" x="83.300781"/>
     <use xlink:href="#ArialMT-57" x="111.083984"/>
     <use xlink:href="#ArialMT-2e" x="199.96875"/>
     <use xlink:href="#ArialMT-57" x="227.751953"/>
     <use xlink:href="#ArialMT-2e" x="316.636719"/>
     <use xlink:href="#ArialMT-20" x="344.419922"/>
     <use xlink:href="#ArialMT-70" x="372.203125"/>
     <use xlink:href="#ArialMT-20" x="427.818359"/>
     <use xlink:href="#ArialMT-3d" x="455.601562"/>
     <use xlink:href="#ArialMT-20" x="514"/>
     <use xlink:href="#ArialMT-37" x="541.783203"/>
     <use xlink:href="#ArialMT-2e" x="597.398438"/>
     <use xlink:href="#ArialMT-36" x="625.181641"/>
     <use xlink:href="#ArialMT-30" x="680.796875"/>
     <use xlink:href="#ArialMT-35" x="736.412109"/>
     <use xlink:href="#ArialMT-65" x="792.027344"/>
     <use xlink:href="#ArialMT-2d" x="847.642578"/>
     <use xlink:href="#ArialMT-30" x="880.943359"/>
     <use xlink:href="#ArialMT-33" x="936.558594"/>
    </g>
   </g>
  </g>
 </g>
 <defs>
  <clipPath id="pda2a761c23">
   <rect x="47.833125" y="7.2" width="191.314286" height="166.32"/>
  </clipPath>
  <clipPath id="pa53f2af56a">
   <rect x="286.975982" y="7.2" width="191.314286" height="166.32"/>
  </clipPath>
  <clipPath id="pa9797b60f3">
   <rect x="526.118839" y="7.2" width="191.314286" height="166.32"/>
  </clipPath>
 </defs>
</svg>
