<?xml version="1.0" encoding="utf-8" standalone="no"?>
<!DOCTYPE svg PUBLIC "-//W3C//DTD SVG 1.1//EN"
  "http://www.w3.org/Graphics/SVG/1.1/DTD/svg11.dtd">
<svg xmlns:xlink="http://www.w3.org/1999/xlink" width="724.633125pt" height="245.496139pt" viewBox="0 0 724.633125 245.496139" xmlns="http://www.w3.org/2000/svg" version="1.1">
 <metadata>
  <rdf:RDF xmlns:dc="http://purl.org/dc/elements/1.1/" xmlns:cc="http://creativecommons.org/ns#" xmlns:rdf="http://www.w3.org/1999/02/22-rdf-syntax-ns#">
   <cc:Work>
    <dc:type rdf:resource="http://purl.org/dc/dcmitype/StillImage"/>
    <dc:date>2026-01-29T11:48:09.797876</dc:date>
    <dc:format>image/svg+xml</dc:format>
    <dc:creator>
     <cc:Agent>
      <dc:title>Matplotlib v3.9.4, https://matplotlib.org/</dc:title>
     </cc:Agent>
    </dc:creator>
   </cc:Work>
  </rdf:RDF>
 </metadata>
 <defs>
  <style type="text/css">*{stroke-linejoin: round; stroke-linecap: butt}</style>
 </defs>
 <g id="figure_1">
  <g id="patch_1">
   <path d="M 0 245.496139 
L 724.633125 245.496139 
L 724.633125 0 
L 0 0 
L 0 245.496139 
z
" style="fill: none"/>
  </g>
  <g id="axes_1">
   <g id="patch_2">
    <path d="M 47.833125 206.889577 
L 239.147411 206.889577 
L 239.147411 40.569577 
L 47.833125 40.569577 
L 47.833125 206.889577 
z
" style="fill: none"/>
   </g>
   <g id="PolyCollection_1">
    <defs>
     <path id="m73b30dccff" d="M 95.919663 -44.996642 
L 95.40373 -44.996642 
L 95.406639 -46.287568 
L 95.418632 -47.578493 
L 95.435946 -48.869418 
L 95.453473 -50.160343 
L 95.465624 -51.451269 
L 95.467287 -52.742194 
L 95.454701 -54.033119 
L 95.426093 -55.324044 
L 95.382008 -56.61497 
L 95.325277 -57.905895 
L 95.260619 -59.19682 
L 95.193929 -60.487745 
L 95.131354 -61.778671 
L 95.078316 -63.069596 
L 95.038686 -64.360521 
L 95.014256 -65.651446 
L 95.004592 -66.942372 
L 95.00726 -68.233297 
L 95.018296 -69.524222 
L 95.032786 -70.815147 
L 95.045437 -72.106073 
L 95.051057 -73.396998 
L 95.044941 -74.687923 
L 95.023192 -75.978848 
L 94.98303 -77.269773 
L 94.92308 -78.560699 
L 94.843622 -79.851624 
L 94.746681 -81.142549 
L 94.635823 -82.433474 
L 94.515539 -83.7244 
L 94.390198 -85.015325 
L 94.262717 -86.30625 
L 94.133228 -87.597175 
L 93.998085 -88.888101 
L 93.849504 -90.179026 
L 93.675948 -91.469951 
L 93.463151 -92.760876 
L 93.195581 -94.051802 
L 92.858074 -95.342727 
L 92.437475 -96.633652 
L 91.924222 -97.924577 
L 91.313832 -99.215503 
L 90.608158 -100.506428 
L 89.816144 -101.797353 
L 88.9537 -103.088278 
L 88.042408 -104.379204 
L 87.107066 -105.670129 
L 86.172509 -106.961054 
L 85.260554 -108.251979 
L 84.388005 -109.542905 
L 83.566428 -110.83383 
L 82.803829 -112.124755 
L 82.107631 -113.41568 
L 81.48775 -114.706605 
L 80.958351 -115.997531 
L 80.537153 -117.288456 
L 80.241852 -118.579381 
L 80.084209 -119.870306 
L 80.063202 -121.161232 
L 80.159095 -122.452157 
L 80.330201 -123.743082 
L 80.513475 -125.034007 
L 80.629157 -126.324933 
L 80.588713 -127.615858 
L 80.304682 -128.906783 
L 79.700834 -130.197708 
L 78.721251 -131.488634 
L 77.337471 -132.779559 
L 75.553358 -134.070484 
L 73.407701 -135.361409 
L 70.974577 -136.652335 
L 68.361415 -137.94326 
L 65.704468 -139.234185 
L 63.161478 -140.52511 
L 60.901465 -141.816036 
L 59.091955 -143.106961 
L 57.884389 -144.397886 
L 57.398839 -145.688811 
L 57.709671 -146.979736 
L 58.834195 -148.270662 
L 60.726705 -149.561587 
L 63.28002 -150.852512 
L 66.335691 -152.143437 
L 69.702207 -153.434363 
L 73.178419 -154.725288 
L 76.577746 -156.016213 
L 79.748253 -157.307138 
L 82.584789 -158.598064 
L 85.031632 -159.888989 
L 87.07678 -161.179914 
L 88.740972 -162.470839 
L 90.065295 -163.761765 
L 91.100485 -165.05269 
L 91.89951 -166.343615 
L 92.513346 -167.63454 
L 92.988804 -168.925466 
L 93.367103 -170.216391 
L 93.682427 -171.507316 
L 93.960476 -172.798241 
L 97.362916 -172.798241 
L 97.362916 -172.798241 
L 97.640966 -171.507316 
L 97.95629 -170.216391 
L 98.334589 -168.925466 
L 98.810047 -167.63454 
L 99.423883 -166.343615 
L 100.222908 -165.05269 
L 101.258097 -163.761765 
L 102.58242 -162.470839 
L 104.246613 -161.179914 
L 106.291761 -159.888989 
L 108.738604 -158.598064 
L 111.57514 -157.307138 
L 114.745647 -156.016213 
L 118.144974 -154.725288 
L 121.621186 -153.434363 
L 124.987702 -152.143437 
L 128.043373 -150.852512 
L 130.596688 -149.561587 
L 132.489197 -148.270662 
L 133.613722 -146.979736 
L 133.924554 -145.688811 
L 133.439004 -144.397886 
L 132.231438 -143.106961 
L 130.421928 -141.816036 
L 128.161914 -140.52511 
L 125.618925 -139.234185 
L 122.961978 -137.94326 
L 120.348815 -136.652335 
L 117.915692 -135.361409 
L 115.770035 -134.070484 
L 113.985922 -132.779559 
L 112.602142 -131.488634 
L 111.622559 -130.197708 
L 111.018711 -128.906783 
L 110.73468 -127.615858 
L 110.694235 -126.324933 
L 110.809918 -125.034007 
L 110.993192 -123.743082 
L 111.164298 -122.452157 
L 111.260191 -121.161232 
L 111.239184 -119.870306 
L 111.081541 -118.579381 
L 110.78624 -117.288456 
L 110.365041 -115.997531 
L 109.835643 -114.706605 
L 109.215761 -113.41568 
L 108.519564 -112.124755 
L 107.756965 -110.83383 
L 106.935388 -109.542905 
L 106.062838 -108.251979 
L 105.150884 -106.961054 
L 104.216327 -105.670129 
L 103.280985 -104.379204 
L 102.369693 -103.088278 
L 101.507249 -101.797353 
L 100.715235 -100.506428 
L 100.009561 -99.215503 
L 99.399171 -97.924577 
L 98.885918 -96.633652 
L 98.465319 -95.342727 
L 98.127812 -94.051802 
L 97.860242 -92.760876 
L 97.647445 -91.469951 
L 97.473888 -90.179026 
L 97.325308 -88.888101 
L 97.190165 -87.597175 
L 97.060676 -86.30625 
L 96.933195 -85.015325 
L 96.807854 -83.7244 
L 96.68757 -82.433474 
L 96.576712 -81.142549 
L 96.479771 -79.851624 
L 96.400313 -78.560699 
L 96.340363 -77.269773 
L 96.3002 -75.978848 
L 96.278452 -74.687923 
L 96.272336 -73.396998 
L 96.277956 -72.106073 
L 96.290607 -70.815147 
L 96.305097 -69.524222 
L 96.316133 -68.233297 
L 96.318801 -66.942372 
L 96.309137 -65.651446 
L 96.284707 -64.360521 
L 96.245077 -63.069596 
L 96.192039 -61.778671 
L 96.129464 -60.487745 
L 96.062774 -59.19682 
L 95.998116 -57.905895 
L 95.941385 -56.61497 
L 95.8973 -55.324044 
L 95.868692 -54.033119 
L 95.856106 -52.742194 
L 95.857769 -51.451269 
L 95.86992 -50.160343 
L 95.887447 -48.869418 
L 95.904761 -47.578493 
L 95.916753 -46.287568 
L 95.919663 -44.996642 
z
" style="stroke: #303030; stroke-width: 1.25"/>
    </defs>
    <g clip-path="url(#p5e7a011ce0)">
     <use xlink:href="#m73b30dccff" x="0" y="245.496139" style="fill: #c08089; stroke: #303030; stroke-width: 1.25"/>
    </g>
   </g>
   <g id="PolyCollection_2">
    <defs>
     <path id="m033f52a784" d="M 194.04912 -124.434016 
L 188.588558 -124.434016 
L 188.405917 -124.770483 
L 188.232865 -125.10695 
L 188.071411 -125.443418 
L 187.923218 -125.779885 
L 187.789557 -126.116352 
L 187.671264 -126.45282 
L 187.568717 -126.789287 
L 187.481835 -127.125754 
L 187.410081 -127.462222 
L 187.352491 -127.798689 
L 187.307713 -128.135156 
L 187.274066 -128.471624 
L 187.249602 -128.808091 
L 187.23219 -129.144558 
L 187.219593 -129.481025 
L 187.209556 -129.817493 
L 187.19988 -130.15396 
L 187.18849 -130.490427 
L 187.173479 -130.826895 
L 187.153134 -131.163362 
L 187.12593 -131.499829 
L 187.090507 -131.836297 
L 187.045605 -132.172764 
L 186.989996 -132.509231 
L 186.922392 -132.845699 
L 186.841356 -133.182166 
L 186.745216 -133.518633 
L 186.631998 -133.855101 
L 186.499381 -134.191568 
L 186.344688 -134.528035 
L 186.164899 -134.864502 
L 185.956703 -135.20097 
L 185.716567 -135.537437 
L 185.440831 -135.873904 
L 185.125801 -136.210372 
L 184.767842 -136.546839 
L 184.363467 -136.883306 
L 183.909396 -137.219774 
L 183.402603 -137.556241 
L 182.840344 -137.892708 
L 182.220158 -138.229176 
L 181.539878 -138.565643 
L 180.79763 -138.90211 
L 179.991855 -139.238577 
L 179.12135 -139.575045 
L 178.185353 -139.911512 
L 177.183656 -140.247979 
L 176.116763 -140.584447 
L 174.986083 -140.920914 
L 173.794145 -141.257381 
L 172.54482 -141.593849 
L 171.243527 -141.930316 
L 169.897409 -142.266783 
L 168.515443 -142.603251 
L 167.108484 -142.939718 
L 165.689194 -143.276185 
L 164.271887 -143.612653 
L 162.872254 -143.94912 
L 161.506994 -144.285587 
L 160.193357 -144.622054 
L 158.948628 -144.958522 
L 157.789574 -145.294989 
L 156.731888 -145.631456 
L 155.789674 -145.967924 
L 154.974979 -146.304391 
L 154.297434 -146.640858 
L 153.763993 -146.977326 
L 153.378809 -147.313793 
L 153.143241 -147.65026 
L 153.055982 -147.986728 
L 153.113315 -148.323195 
L 153.309452 -148.659662 
L 153.636955 -148.996129 
L 154.087181 -149.332597 
L 154.650743 -149.669064 
L 155.317946 -150.005531 
L 156.079157 -150.341999 
L 156.925114 -150.678466 
L 157.847134 -151.014933 
L 158.837222 -151.351401 
L 159.888097 -151.687868 
L 160.993116 -152.024335 
L 162.14615 -152.360803 
L 163.341401 -152.69727 
L 164.57321 -153.033737 
L 165.835874 -153.370204 
L 167.123479 -153.706672 
L 168.429793 -154.043139 
L 169.748212 -154.379606 
L 171.071756 -154.716074 
L 172.393138 -155.052541 
L 173.704869 -155.389008 
L 174.999402 -155.725476 
L 176.2693 -156.061943 
L 177.507401 -156.39841 
L 178.706981 -156.734878 
L 179.861898 -157.071345 
L 180.966705 -157.407812 
L 182.016736 -157.74428 
L 200.620942 -157.74428 
L 200.620942 -157.74428 
L 201.670973 -157.407812 
L 202.77578 -157.071345 
L 203.930697 -156.734878 
L 205.130278 -156.39841 
L 206.368378 -156.061943 
L 207.638276 -155.725476 
L 208.93281 -155.389008 
L 210.244541 -155.052541 
L 211.565923 -154.716074 
L 212.889467 -154.379606 
L 214.207885 -154.043139 
L 215.5142 -153.706672 
L 216.801805 -153.370204 
L 218.064468 -153.033737 
L 219.296278 -152.69727 
L 220.491529 -152.360803 
L 221.644562 -152.024335 
L 222.749582 -151.687868 
L 223.800456 -151.351401 
L 224.790545 -151.014933 
L 225.712564 -150.678466 
L 226.558521 -150.341999 
L 227.319733 -150.005531 
L 227.986935 -149.669064 
L 228.550498 -149.332597 
L 229.000724 -148.996129 
L 229.328226 -148.659662 
L 229.524364 -148.323195 
L 229.581696 -147.986728 
L 229.494438 -147.65026 
L 229.258869 -147.313793 
L 228.873686 -146.977326 
L 228.340245 -146.640858 
L 227.662699 -146.304391 
L 226.848005 -145.967924 
L 225.90579 -145.631456 
L 224.848105 -145.294989 
L 223.68905 -144.958522 
L 222.444321 -144.622054 
L 221.130685 -144.285587 
L 219.765425 -143.94912 
L 218.365792 -143.612653 
L 216.948485 -143.276185 
L 215.529195 -142.939718 
L 214.122235 -142.603251 
L 212.74027 -142.266783 
L 211.394151 -141.930316 
L 210.092858 -141.593849 
L 208.843533 -141.257381 
L 207.651596 -140.920914 
L 206.520916 -140.584447 
L 205.454023 -140.247979 
L 204.452325 -139.911512 
L 203.516328 -139.575045 
L 202.645824 -139.238577 
L 201.840048 -138.90211 
L 201.0978 -138.565643 
L 200.417521 -138.229176 
L 199.797335 -137.892708 
L 199.235075 -137.556241 
L 198.728283 -137.219774 
L 198.274212 -136.883306 
L 197.869837 -136.546839 
L 197.511878 -136.210372 
L 197.196847 -135.873904 
L 196.921111 -135.537437 
L 196.680976 -135.20097 
L 196.472779 -134.864502 
L 196.29299 -134.528035 
L 196.138297 -134.191568 
L 196.005681 -133.855101 
L 195.892463 -133.518633 
L 195.796322 -133.182166 
L 195.715286 -132.845699 
L 195.647683 -132.509231 
L 195.592073 -132.172764 
L 195.547172 -131.836297 
L 195.511748 -131.499829 
L 195.484545 -131.163362 
L 195.464199 -130.826895 
L 195.449188 -130.490427 
L 195.437798 -130.15396 
L 195.428123 -129.817493 
L 195.418086 -129.481025 
L 195.405489 -129.144558 
L 195.388077 -128.808091 
L 195.363613 -128.471624 
L 195.329965 -128.135156 
L 195.285188 -127.798689 
L 195.227597 -127.462222 
L 195.155843 -127.125754 
L 195.068961 -126.789287 
L 194.966415 -126.45282 
L 194.848121 -126.116352 
L 194.71446 -125.779885 
L 194.566268 -125.443418 
L 194.404813 -125.10695 
L 194.231762 -124.770483 
L 194.04912 -124.434016 
z
" style="stroke: #303030; stroke-width: 1.25"/>
    </defs>
    <g clip-path="url(#p5e7a011ce0)">
     <use xlink:href="#m033f52a784" x="0" y="245.496139" style="fill: #2f7499; stroke: #303030; stroke-width: 1.25"/>
    </g>
   </g>
   <g id="matplotlib.axis_1">
    <g id="xtick_1">
     <g id="line2d_1">
      <defs>
       <path id="m1348265273" d="M 0 0 
L 0 3.5 
" style="stroke: #000000; stroke-width: 0.8"/>
      </defs>
      <g>
       <use xlink:href="#m1348265273" x="95.661696" y="206.889577" style="stroke: #000000; stroke-width: 0.8"/>
      </g>
     </g>
     <g id="text_1">
      <text style="font: 10px 'Arial'; text-anchor: middle" x="95.661696" y="221.047389" transform="rotate(-0 95.661696 221.047389)">PLP</text>
     </g>
    </g>
    <g id="xtick_2">
     <g id="line2d_2">
      <g>
       <use xlink:href="#m1348265273" x="191.318839" y="206.889577" style="stroke: #000000; stroke-width: 0.8"/>
      </g>
     </g>
     <g id="text_2">
      <text style="font: 10px 'Arial'; text-anchor: middle" x="191.318839" y="221.047389" transform="rotate(-0 191.318839 221.047389)">BLB</text>
     </g>
    </g>
   </g>
   <g id="matplotlib.axis_2">
    <g id="ytick_1">
     <g id="line2d_3">
      <defs>
       <path id="m16d54d74e1" d="M 0 0 
L -3.5 0 
" style="stroke: #000000; stroke-width: 0.8"/>
      </defs>
      <g>
       <use xlink:href="#m16d54d74e1" x="47.833125" y="183.657489" style="stroke: #000000; stroke-width: 0.8"/>
      </g>
     </g>
     <g id="text_3">
      <text style="font: 11px 'Arial'; text-anchor: end" x="40.833125" y="187.594285" transform="rotate(-0 40.833125 187.594285)">−15</text>
     </g>
    </g>
    <g id="ytick_2">
     <g id="line2d_4">
      <g>
       <use xlink:href="#m16d54d74e1" x="47.833125" y="154.626306" style="stroke: #000000; stroke-width: 0.8"/>
      </g>
     </g>
     <g id="text_4">
      <text style="font: 11px 'Arial'; text-anchor: end" x="40.833125" y="158.563103" transform="rotate(-0 40.833125 158.563103)">−10</text>
     </g>
    </g>
    <g id="ytick_3">
     <g id="line2d_5">
      <g>
       <use xlink:href="#m16d54d74e1" x="47.833125" y="125.595123" style="stroke: #000000; stroke-width: 0.8"/>
      </g>
     </g>
     <g id="text_5">
      <text style="font: 11px 'Arial'; text-anchor: end" x="40.833125" y="129.53192" transform="rotate(-0 40.833125 129.53192)">−5</text>
     </g>
    </g>
    <g id="ytick_4">
     <g id="line2d_6">
      <g>
       <use xlink:href="#m16d54d74e1" x="47.833125" y="96.56394" style="stroke: #000000; stroke-width: 0.8"/>
      </g>
     </g>
     <g id="text_6">
      <text style="font: 11px 'Arial'; text-anchor: end" x="40.833125" y="100.500737" transform="rotate(-0 40.833125 100.500737)">0</text>
     </g>
    </g>
    <g id="ytick_5">
     <g id="line2d_7">
      <g>
       <use xlink:href="#m16d54d74e1" x="47.833125" y="67.532758" style="stroke: #000000; stroke-width: 0.8"/>
      </g>
     </g>
     <g id="text_7">
      <text style="font: 11px 'Arial'; text-anchor: end" x="40.833125" y="71.469555" transform="rotate(-0 40.833125 71.469555)">5</text>
     </g>
    </g>
    <g id="text_8">
     <text style="font: 12px 'Arial'; text-anchor: middle" x="15.789375" y="123.729577" transform="rotate(-90 15.789375 123.729577)">Abundance Score</text>
    </g>
   </g>
   <g id="line2d_8">
    <path d="M 95.661696 160.037836 
L 95.661696 72.697898 
" clip-path="url(#p5e7a011ce0)" style="fill: none; stroke: #303030; stroke-width: 1.875; stroke-linecap: square"/>
   </g>
   <g id="line2d_9">
    <path d="M 95.661696 123.378877 
L 95.661696 97.071229 
" clip-path="url(#p5e7a011ce0)" style="fill: none; stroke: #303030; stroke-width: 5.625; stroke-linecap: square"/>
   </g>
   <g id="line2d_10">
    <path d="M 95.661696 104.306096 
" clip-path="url(#p5e7a011ce0)" style="fill: none; stroke: #303030; stroke-width: 1.5; stroke-linecap: square"/>
    <defs>
     <path id="ma94eab0a32" d="M 2.34375 0 
L -2.34375 -0 
" style="stroke: #ffffff; stroke-width: 1.125"/>
    </defs>
    <g clip-path="url(#p5e7a011ce0)">
     <use xlink:href="#ma94eab0a32" x="95.661696" y="104.306096" style="fill: #ffffff; stroke: #ffffff; stroke-width: 1.125"/>
    </g>
   </g>
   <g id="line2d_11">
    <path d="M 191.318839 108.517398 
L 191.318839 87.75186 
" clip-path="url(#p5e7a011ce0)" style="fill: none; stroke: #303030; stroke-width: 1.875; stroke-linecap: square"/>
   </g>
   <g id="line2d_12">
    <path d="M 191.318839 101.118165 
L 191.318839 94.545299 
" clip-path="url(#p5e7a011ce0)" style="fill: none; stroke: #303030; stroke-width: 5.625; stroke-linecap: square"/>
   </g>
   <g id="line2d_13">
    <path d="M 191.318839 98.012937 
" clip-path="url(#p5e7a011ce0)" style="fill: none; stroke: #303030; stroke-width: 1.5; stroke-linecap: square"/>
    <g clip-path="url(#p5e7a011ce0)">
     <use xlink:href="#ma94eab0a32" x="191.318839" y="98.012937" style="fill: #ffffff; stroke: #ffffff; stroke-width: 1.125"/>
    </g>
   </g>
   <g id="line2d_14">
    <path d="M 95.661696 65.66881 
L 95.661696 62.857175 
L 191.318839 62.857175 
L 191.318839 65.66881 
" style="fill: none; stroke: #333333; stroke-width: 1.5; stroke-linecap: square"/>
   </g>
   <g id="patch_3">
    <path d="M 47.833125 206.889577 
L 47.833125 40.569577 
" style="fill: none; stroke: #000000; stroke-width: 0.8; stroke-linejoin: miter; stroke-linecap: square"/>
   </g>
   <g id="patch_4">
    <path d="M 47.833125 206.889577 
L 239.147411 206.889577 
" style="fill: none; stroke: #000000; stroke-width: 0.8; stroke-linejoin: miter; stroke-linecap: square"/>
   </g>
   <g id="text_9">
    <!-- p=2×10$^{-7}$ -->
    <g transform="translate(116.670268 52.457175)">
     <text>
      <tspan style="font: 12px 'Arial'" x="0 6.673828 13.681641 20.355469 27.363281 34.037109" y="-0.28125">p=2×10</tspan>
      <tspan style="font: 8.4px 'DejaVu Sans'" x="40.825781 47.864062" y="-4.875">−7</tspan>
     </text>
    </g>
   </g>
  </g>
  <g id="axes_2">
   <g id="patch_5">
    <path d="M 286.975982 206.889577 
L 478.290268 206.889577 
L 478.290268 40.569577 
L 286.975982 40.569577 
L 286.975982 206.889577 
z
" style="fill: none"/>
   </g>
   <g id="PolyCollection_3">
    <defs>
     <path id="mc4604684c3" d="M 349.295981 -38.712824 
L 320.313126 -38.712824 
L 318.884043 -40.07033 
L 317.442724 -41.427836 
L 315.999998 -42.785341 
L 314.565186 -44.142847 
L 313.145983 -45.500353 
L 311.748547 -46.857859 
L 310.377774 -48.215364 
L 309.037726 -49.57287 
L 307.732144 -50.930376 
L 306.464982 -52.287881 
L 305.240878 -53.645387 
L 304.0655 -55.002893 
L 302.945714 -56.360398 
L 301.889536 -57.717904 
L 300.905877 -59.07541 
L 300.004095 -60.432916 
L 299.193411 -61.790421 
L 298.482255 -63.147927 
L 297.877625 -64.505433 
L 297.384532 -65.862938 
L 297.005597 -67.220444 
L 296.740865 -68.57795 
L 296.587831 -69.935455 
L 296.541696 -71.292961 
L 296.595807 -72.650467 
L 296.742218 -74.007973 
L 296.972319 -75.365478 
L 297.277434 -76.722984 
L 297.649338 -78.08049 
L 298.08062 -79.437995 
L 298.564877 -80.795501 
L 299.096725 -82.153007 
L 299.671647 -83.510513 
L 300.285721 -84.868018 
L 300.935286 -86.225524 
L 301.616602 -87.58303 
L 302.325565 -88.940535 
L 303.057517 -90.298041 
L 303.807175 -91.655547 
L 304.56869 -93.013052 
L 305.335814 -94.370558 
L 306.102147 -95.728064 
L 306.861427 -97.08557 
L 307.607808 -98.443075 
L 308.336108 -99.800581 
L 309.041975 -101.158087 
L 309.721972 -102.515592 
L 310.373577 -103.873098 
L 310.995107 -105.230604 
L 311.585588 -106.588109 
L 312.144606 -107.945615 
L 312.672149 -109.303121 
L 313.168481 -110.660627 
L 313.634039 -112.018132 
L 314.069372 -113.375638 
L 314.475109 -114.733144 
L 314.851934 -116.090649 
L 315.200572 -117.448155 
L 315.521753 -118.805661 
L 315.816151 -120.163167 
L 316.084312 -121.520672 
L 316.326567 -122.878178 
L 316.542955 -124.235684 
L 316.733201 -125.593189 
L 316.896745 -126.950695 
L 317.032887 -128.308201 
L 317.141012 -129.665706 
L 317.220939 -131.023212 
L 317.273328 -132.380718 
L 317.300134 -133.738224 
L 317.305027 -135.095729 
L 317.293731 -136.453235 
L 317.274204 -137.810741 
L 317.256609 -139.168246 
L 317.253054 -140.525752 
L 317.277068 -141.883258 
L 317.342869 -143.240763 
L 317.46446 -144.598269 
L 317.654638 -145.955775 
L 317.924015 -147.313281 
L 318.280158 -148.670786 
L 318.726922 -150.028292 
L 319.264075 -151.385798 
L 319.88723 -152.743303 
L 320.588107 -154.100809 
L 321.355091 -155.458315 
L 322.174025 -156.815821 
L 323.029152 -158.173326 
L 323.904116 -159.530832 
L 324.782926 -160.888338 
L 325.650795 -162.245843 
L 326.494803 -163.603349 
L 327.304332 -164.960855 
L 328.071279 -166.31836 
L 328.79005 -167.675866 
L 329.457381 -169.033372 
L 330.072024 -170.390878 
L 330.634358 -171.748383 
L 331.145973 -173.105889 
L 338.463134 -173.105889 
L 338.463134 -173.105889 
L 338.974749 -171.748383 
L 339.537083 -170.390878 
L 340.151726 -169.033372 
L 340.819057 -167.675866 
L 341.537828 -166.31836 
L 342.304775 -164.960855 
L 343.114304 -163.603349 
L 343.958312 -162.245843 
L 344.826181 -160.888338 
L 345.704991 -159.530832 
L 346.579955 -158.173326 
L 347.435082 -156.815821 
L 348.254016 -155.458315 
L 349.021 -154.100809 
L 349.721877 -152.743303 
L 350.345032 -151.385798 
L 350.882185 -150.028292 
L 351.328949 -148.670786 
L 351.685092 -147.313281 
L 351.954469 -145.955775 
L 352.144647 -144.598269 
L 352.266238 -143.240763 
L 352.332039 -141.883258 
L 352.356053 -140.525752 
L 352.352498 -139.168246 
L 352.334904 -137.810741 
L 352.315376 -136.453235 
L 352.30408 -135.095729 
L 352.308973 -133.738224 
L 352.335779 -132.380718 
L 352.388168 -131.023212 
L 352.468095 -129.665706 
L 352.576221 -128.308201 
L 352.712362 -126.950695 
L 352.875907 -125.593189 
L 353.066152 -124.235684 
L 353.28254 -122.878178 
L 353.524795 -121.520672 
L 353.792956 -120.163167 
L 354.087355 -118.805661 
L 354.408535 -117.448155 
L 354.757173 -116.090649 
L 355.133999 -114.733144 
L 355.539735 -113.375638 
L 355.975069 -112.018132 
L 356.440627 -110.660627 
L 356.936958 -109.303121 
L 357.464502 -107.945615 
L 358.023519 -106.588109 
L 358.614 -105.230604 
L 359.23553 -103.873098 
L 359.887135 -102.515592 
L 360.567132 -101.158087 
L 361.272999 -99.800581 
L 362.001299 -98.443075 
L 362.747681 -97.08557 
L 363.50696 -95.728064 
L 364.273293 -94.370558 
L 365.040417 -93.013052 
L 365.801932 -91.655547 
L 366.55159 -90.298041 
L 367.283542 -88.940535 
L 367.992505 -87.58303 
L 368.673821 -86.225524 
L 369.323386 -84.868018 
L 369.93746 -83.510513 
L 370.512382 -82.153007 
L 371.04423 -80.795501 
L 371.528487 -79.437995 
L 371.959769 -78.08049 
L 372.331673 -76.722984 
L 372.636788 -75.365478 
L 372.866889 -74.007973 
L 373.0133 -72.650467 
L 373.067411 -71.292961 
L 373.021276 -69.935455 
L 372.868242 -68.57795 
L 372.60351 -67.220444 
L 372.224575 -65.862938 
L 371.731482 -64.505433 
L 371.126852 -63.147927 
L 370.415697 -61.790421 
L 369.605012 -60.432916 
L 368.70323 -59.07541 
L 367.719571 -57.717904 
L 366.663393 -56.360398 
L 365.543607 -55.002893 
L 364.368229 -53.645387 
L 363.144125 -52.287881 
L 361.876963 -50.930376 
L 360.571382 -49.57287 
L 359.231334 -48.215364 
L 357.86056 -46.857859 
L 356.463124 -45.500353 
L 355.043921 -44.142847 
L 353.609109 -42.785341 
L 352.166383 -41.427836 
L 350.725065 -40.07033 
L 349.295981 -38.712824 
z
" style="stroke: #303030; stroke-width: 1.25"/>
    </defs>
    <g clip-path="url(#p2f62169440)">
     <use xlink:href="#mc4604684c3" x="0" y="245.496139" style="fill: #c08089; stroke: #303030; stroke-width: 1.25"/>
    </g>
   </g>
   <g id="PolyCollection_4">
    <defs>
     <path id="mbedb221c1a" d="M 446.151945 -41.432661 
L 414.771447 -41.432661 
L 413.603891 -42.537048 
L 412.41754 -43.641435 
L 411.218132 -44.745822 
L 410.011631 -45.850208 
L 408.804167 -46.954595 
L 407.601973 -48.058982 
L 406.411321 -49.163369 
L 405.23844 -50.267755 
L 404.089449 -51.372142 
L 402.970274 -52.476529 
L 401.886576 -53.580916 
L 400.843672 -54.685302 
L 399.846472 -55.789689 
L 398.899423 -56.894076 
L 398.006459 -57.998463 
L 397.170977 -59.102849 
L 396.395825 -60.207236 
L 395.683303 -61.311623 
L 395.035189 -62.41601 
L 394.452775 -63.520396 
L 393.936923 -64.624783 
L 393.488117 -65.72917 
L 393.106536 -66.833557 
L 392.79211 -67.937943 
L 392.54458 -69.04233 
L 392.363547 -70.146717 
L 392.248501 -71.251104 
L 392.198839 -72.35549 
L 392.213863 -73.459877 
L 392.292758 -74.564264 
L 392.434561 -75.668651 
L 392.638116 -76.773037 
L 392.902019 -77.877424 
L 393.224567 -78.981811 
L 393.603713 -80.086198 
L 394.037028 -81.190584 
L 394.52168 -82.294971 
L 395.054439 -83.399358 
L 395.631691 -84.503744 
L 396.249491 -85.608131 
L 396.903624 -86.712518 
L 397.589692 -87.816905 
L 398.303214 -88.921291 
L 399.039731 -90.025678 
L 399.794917 -91.130065 
L 400.564685 -92.234452 
L 401.345278 -93.338838 
L 402.133353 -94.443225 
L 402.926034 -95.547612 
L 403.720948 -96.651999 
L 404.516238 -97.756385 
L 405.310546 -98.860772 
L 406.102978 -99.965159 
L 406.893044 -101.069546 
L 407.680589 -102.173932 
L 408.465708 -103.278319 
L 409.248658 -104.382706 
L 410.029761 -105.487093 
L 410.809322 -106.591479 
L 411.587545 -107.695866 
L 412.36446 -108.800253 
L 413.139866 -109.90464 
L 413.913285 -111.009026 
L 414.68393 -112.113413 
L 415.45069 -113.2178 
L 416.212127 -114.322187 
L 416.966484 -115.426573 
L 417.711708 -116.53096 
L 418.445484 -117.635347 
L 419.165271 -118.739734 
L 419.868353 -119.84412 
L 420.551893 -120.948507 
L 421.212994 -122.052894 
L 421.848762 -123.157281 
L 422.456374 -124.261667 
L 423.033149 -125.366054 
L 423.576617 -126.470441 
L 424.084592 -127.574828 
L 424.555237 -128.679214 
L 424.987132 -129.783601 
L 425.379327 -130.887988 
L 425.731395 -131.992374 
L 426.043464 -133.096761 
L 426.316248 -134.201148 
L 426.551049 -135.305535 
L 426.749751 -136.409921 
L 426.914792 -137.514308 
L 427.049119 -138.618695 
L 427.156122 -139.723082 
L 427.239555 -140.827468 
L 427.303441 -141.931855 
L 427.351961 -143.036242 
L 427.389347 -144.140629 
L 427.419759 -145.245015 
L 427.447174 -146.349402 
L 427.475272 -147.453789 
L 427.507345 -148.558176 
L 427.54621 -149.662562 
L 427.594148 -150.766949 
L 433.329245 -150.766949 
L 433.329245 -150.766949 
L 433.377183 -149.662562 
L 433.416048 -148.558176 
L 433.448121 -147.453789 
L 433.476219 -146.349402 
L 433.503633 -145.245015 
L 433.534046 -144.140629 
L 433.571432 -143.036242 
L 433.619952 -141.931855 
L 433.683837 -140.827468 
L 433.767271 -139.723082 
L 433.874274 -138.618695 
L 434.008601 -137.514308 
L 434.173642 -136.409921 
L 434.372344 -135.305535 
L 434.607145 -134.201148 
L 434.879928 -133.096761 
L 435.191998 -131.992374 
L 435.544065 -130.887988 
L 435.936261 -129.783601 
L 436.368156 -128.679214 
L 436.838801 -127.574828 
L 437.346776 -126.470441 
L 437.890244 -125.366054 
L 438.467019 -124.261667 
L 439.074631 -123.157281 
L 439.710399 -122.052894 
L 440.3715 -120.948507 
L 441.05504 -119.84412 
L 441.758122 -118.739734 
L 442.477909 -117.635347 
L 443.211685 -116.53096 
L 443.956909 -115.426573 
L 444.711266 -114.322187 
L 445.472702 -113.2178 
L 446.239462 -112.113413 
L 447.010108 -111.009026 
L 447.783526 -109.90464 
L 448.558933 -108.800253 
L 449.335848 -107.695866 
L 450.114071 -106.591479 
L 450.893632 -105.487093 
L 451.674735 -104.382706 
L 452.457685 -103.278319 
L 453.242804 -102.173932 
L 454.030349 -101.069546 
L 454.820415 -99.965159 
L 455.612847 -98.860772 
L 456.407155 -97.756385 
L 457.202445 -96.651999 
L 457.997359 -95.547612 
L 458.79004 -94.443225 
L 459.578114 -93.338838 
L 460.358708 -92.234452 
L 461.128476 -91.130065 
L 461.883662 -90.025678 
L 462.620179 -88.921291 
L 463.333701 -87.816905 
L 464.019769 -86.712518 
L 464.673902 -85.608131 
L 465.291702 -84.503744 
L 465.868954 -83.399358 
L 466.401712 -82.294971 
L 466.886365 -81.190584 
L 467.31968 -80.086198 
L 467.698826 -78.981811 
L 468.021374 -77.877424 
L 468.285277 -76.773037 
L 468.488832 -75.668651 
L 468.630635 -74.564264 
L 468.70953 -73.459877 
L 468.724554 -72.35549 
L 468.674892 -71.251104 
L 468.559846 -70.146717 
L 468.378813 -69.04233 
L 468.131283 -67.937943 
L 467.816857 -66.833557 
L 467.435275 -65.72917 
L 466.98647 -64.624783 
L 466.470618 -63.520396 
L 465.888204 -62.41601 
L 465.24009 -61.311623 
L 464.527567 -60.207236 
L 463.752415 -59.102849 
L 462.916934 -57.998463 
L 462.02397 -56.894076 
L 461.076921 -55.789689 
L 460.079721 -54.685302 
L 459.036817 -53.580916 
L 457.953119 -52.476529 
L 456.833944 -51.372142 
L 455.684953 -50.267755 
L 454.512072 -49.163369 
L 453.321419 -48.058982 
L 452.119226 -46.954595 
L 450.911762 -45.850208 
L 449.705261 -44.745822 
L 448.505853 -43.641435 
L 447.319502 -42.537048 
L 446.151945 -41.432661 
z
" style="stroke: #303030; stroke-width: 1.25"/>
    </defs>
    <g clip-path="url(#p2f62169440)">
     <use xlink:href="#mbedb221c1a" x="0" y="245.496139" style="fill: #2f7499; stroke: #303030; stroke-width: 1.25"/>
    </g>
   </g>
   <g id="matplotlib.axis_3">
    <g id="xtick_3">
     <g id="line2d_15">
      <g>
       <use xlink:href="#m1348265273" x="334.804554" y="206.889577" style="stroke: #000000; stroke-width: 0.8"/>
      </g>
     </g>
     <g id="text_10">
      <text style="font: 10px 'Arial'; text-anchor: middle" x="334.804554" y="221.047389" transform="rotate(-0 334.804554 221.047389)">PLP</text>
     </g>
    </g>
    <g id="xtick_4">
     <g id="line2d_16">
      <g>
       <use xlink:href="#m1348265273" x="430.461696" y="206.889577" style="stroke: #000000; stroke-width: 0.8"/>
      </g>
     </g>
     <g id="text_11">
      <text style="font: 10px 'Arial'; text-anchor: middle" x="430.461696" y="221.047389" transform="rotate(-0 430.461696 221.047389)">BLB</text>
     </g>
    </g>
    <g id="text_12">
     <text style="font: 12px 'Arial'; text-anchor: middle" x="382.633125" y="235.770514" transform="rotate(-0 382.633125 235.770514)">Clinical Significance</text>
    </g>
   </g>
   <g id="matplotlib.axis_4">
    <g id="ytick_6">
     <g id="line2d_17">
      <g>
       <use xlink:href="#m16d54d74e1" x="286.975982" y="206.889577" style="stroke: #000000; stroke-width: 0.8"/>
      </g>
     </g>
     <g id="text_13">
      <text style="font: 11px 'Arial'; text-anchor: end" x="279.975982" y="210.826374" transform="rotate(-0 279.975982 210.826374)">0.0</text>
     </g>
    </g>
    <g id="ytick_7">
     <g id="line2d_18">
      <g>
       <use xlink:href="#m16d54d74e1" x="286.975982" y="173.625577" style="stroke: #000000; stroke-width: 0.8"/>
      </g>
     </g>
     <g id="text_14">
      <text style="font: 11px 'Arial'; text-anchor: end" x="279.975982" y="177.562374" transform="rotate(-0 279.975982 177.562374)">0.2</text>
     </g>
    </g>
    <g id="ytick_8">
     <g id="line2d_19">
      <g>
       <use xlink:href="#m16d54d74e1" x="286.975982" y="140.361577" style="stroke: #000000; stroke-width: 0.8"/>
      </g>
     </g>
     <g id="text_15">
      <text style="font: 11px 'Arial'; text-anchor: end" x="279.975982" y="144.298374" transform="rotate(-0 279.975982 144.298374)">0.4</text>
     </g>
    </g>
    <g id="ytick_9">
     <g id="line2d_20">
      <g>
       <use xlink:href="#m16d54d74e1" x="286.975982" y="107.097577" style="stroke: #000000; stroke-width: 0.8"/>
      </g>
     </g>
     <g id="text_16">
      <text style="font: 11px 'Arial'; text-anchor: end" x="279.975982" y="111.034374" transform="rotate(-0 279.975982 111.034374)">0.6</text>
     </g>
    </g>
    <g id="ytick_10">
     <g id="line2d_21">
      <g>
       <use xlink:href="#m16d54d74e1" x="286.975982" y="73.833577" style="stroke: #000000; stroke-width: 0.8"/>
      </g>
     </g>
     <g id="text_17">
      <text style="font: 11px 'Arial'; text-anchor: end" x="279.975982" y="77.770374" transform="rotate(-0 279.975982 77.770374)">0.8</text>
     </g>
    </g>
    <g id="ytick_11">
     <g id="line2d_22">
      <g>
       <use xlink:href="#m16d54d74e1" x="286.975982" y="40.569577" style="stroke: #000000; stroke-width: 0.8"/>
      </g>
     </g>
     <g id="text_18">
      <text style="font: 11px 'Arial'; text-anchor: end" x="279.975982" y="44.506374" transform="rotate(-0 279.975982 44.506374)">1.0</text>
     </g>
    </g>
    <g id="text_19">
     <text style="font: 12px 'Arial'; text-anchor: middle" x="258.300982" y="123.729577" transform="rotate(-90 258.300982 123.729577)">PPI Perturbation Score</text>
    </g>
   </g>
   <g id="line2d_23">
    <path d="M 334.804554 206.783315 
L 334.804554 72.39025 
" clip-path="url(#p2f62169440)" style="fill: none; stroke: #303030; stroke-width: 1.875; stroke-linecap: square"/>
   </g>
   <g id="line2d_24">
    <path d="M 334.804554 179.935233 
L 334.804554 128.552324 
" clip-path="url(#p2f62169440)" style="fill: none; stroke: #303030; stroke-width: 5.625; stroke-linecap: square"/>
   </g>
   <g id="line2d_25">
    <path d="M 334.804554 159.994085 
" clip-path="url(#p2f62169440)" style="fill: none; stroke: #303030; stroke-width: 1.5; stroke-linecap: square"/>
    <g clip-path="url(#p2f62169440)">
     <use xlink:href="#ma94eab0a32" x="334.804554" y="159.994085" style="fill: #ffffff; stroke: #ffffff; stroke-width: 1.125"/>
    </g>
   </g>
   <g id="line2d_26">
    <path d="M 430.461696 204.063478 
L 430.461696 122.941147 
" clip-path="url(#p2f62169440)" style="fill: none; stroke: #303030; stroke-width: 1.875; stroke-linecap: square"/>
   </g>
   <g id="line2d_27">
    <path d="M 430.461696 183.524488 
L 430.461696 151.664081 
" clip-path="url(#p2f62169440)" style="fill: none; stroke: #303030; stroke-width: 5.625; stroke-linecap: square"/>
   </g>
   <g id="line2d_28">
    <path d="M 430.461696 167.281609 
" clip-path="url(#p2f62169440)" style="fill: none; stroke: #303030; stroke-width: 1.5; stroke-linecap: square"/>
    <g clip-path="url(#p2f62169440)">
     <use xlink:href="#ma94eab0a32" x="430.461696" y="167.281609" style="fill: #ffffff; stroke: #ffffff; stroke-width: 1.125"/>
    </g>
   </g>
   <g id="line2d_29">
    <path d="M 334.804554 64.998632 
L 334.804554 62.041984 
L 430.461696 62.041984 
L 430.461696 64.998632 
" style="fill: none; stroke: #333333; stroke-width: 1.5; stroke-linecap: square"/>
   </g>
   <g id="patch_6">
    <path d="M 286.975982 206.889577 
L 286.975982 40.569577 
" style="fill: none; stroke: #000000; stroke-width: 0.8; stroke-linejoin: miter; stroke-linecap: square"/>
   </g>
   <g id="patch_7">
    <path d="M 286.975982 206.889577 
L 478.290268 206.889577 
" style="fill: none; stroke: #000000; stroke-width: 0.8; stroke-linejoin: miter; stroke-linecap: square"/>
   </g>
   <g id="text_20">
    <text style="font: 12px 'Arial'; text-anchor: middle" x="382.633125" y="51.656984" transform="rotate(-0 382.633125 51.656984)">p=0.04</text>
   </g>
  </g>
  <g id="axes_3">
   <g id="patch_8">
    <path d="M 526.118839 206.889577 
L 717.433125 206.889577 
L 717.433125 40.569577 
L 526.118839 40.569577 
L 526.118839 206.889577 
z
" style="fill: none"/>
   </g>
   <g id="PolyCollection_5">
    <defs>
     <path id="m0c4533159c" d="M 577.145575 -54.672828 
L 570.749247 -54.672828 
L 570.280036 -56.189157 
L 569.780754 -57.705486 
L 569.255642 -59.221815 
L 568.709569 -60.738144 
L 568.147766 -62.254473 
L 567.575488 -63.770802 
L 566.997639 -65.287131 
L 566.418366 -66.80346 
L 565.840685 -68.319789 
L 565.266163 -69.836118 
L 564.694728 -71.352447 
L 564.124628 -72.868776 
L 563.552583 -74.385105 
L 562.974136 -75.901434 
L 562.384194 -77.417763 
L 561.777703 -78.934092 
L 561.150413 -80.450421 
L 560.499616 -81.96675 
L 559.824791 -83.483079 
L 559.128048 -84.999408 
L 558.414298 -86.515737 
L 557.691121 -88.032066 
L 556.9683 -89.548395 
L 556.257076 -91.064724 
L 555.569175 -92.581053 
L 554.915721 -94.097382 
L 554.306136 -95.613711 
L 553.747152 -97.13004 
L 553.242037 -98.646369 
L 552.790129 -100.162698 
L 552.386722 -101.679027 
L 552.023324 -103.195356 
L 551.68826 -104.711685 
L 551.367578 -106.228014 
L 551.04616 -107.744343 
L 550.708949 -109.260672 
L 550.342175 -110.777001 
L 549.934479 -112.29333 
L 549.477846 -113.809659 
L 548.968268 -115.325988 
L 548.406094 -116.842317 
L 547.796054 -118.358646 
L 547.146963 -119.874975 
L 546.471139 -121.391304 
L 545.783597 -122.907633 
L 545.10108 -124.423962 
L 544.441001 -125.940291 
L 543.820371 -127.45662 
L 543.254778 -128.972949 
L 542.757476 -130.489278 
L 542.338633 -132.005607 
L 542.004766 -133.521936 
L 541.758389 -135.038265 
L 541.597881 -136.554594 
L 541.51757 -138.070923 
L 541.508026 -139.587251 
L 541.556541 -141.10358 
L 541.647762 -142.619909 
L 541.764462 -144.136238 
L 541.888392 -145.652567 
L 542.001188 -147.168896 
L 542.085293 -148.685225 
L 542.124837 -150.201554 
L 542.106452 -151.717883 
L 542.019959 -153.234212 
L 541.8589 -154.750541 
L 541.620873 -156.26687 
L 541.30764 -157.783199 
L 540.924999 -159.299528 
L 540.482406 -160.815857 
L 539.992383 -162.332186 
L 539.469737 -163.848515 
L 538.930658 -165.364844 
L 538.391779 -166.881173 
L 537.869272 -168.397502 
L 537.37808 -169.913831 
L 536.931366 -171.43016 
L 536.540219 -172.946489 
L 536.213672 -174.462818 
L 535.95899 -175.979147 
L 535.782209 -177.495476 
L 535.688828 -179.011805 
L 535.684554 -180.528134 
L 535.775975 -182.044463 
L 535.971059 -183.560792 
L 536.27936 -185.077121 
L 536.711883 -186.59345 
L 537.280576 -188.109779 
L 537.997467 -189.626108 
L 538.873523 -191.142437 
L 539.917337 -192.658766 
L 541.13378 -194.175095 
L 542.522768 -195.691424 
L 544.078295 -197.207753 
L 545.787858 -198.724082 
L 547.632362 -200.240411 
L 549.586552 -201.75674 
L 551.61994 -203.273069 
L 553.698195 -204.789398 
L 594.196626 -204.789398 
L 594.196626 -204.789398 
L 596.274881 -203.273069 
L 598.30827 -201.75674 
L 600.262459 -200.240411 
L 602.106964 -198.724082 
L 603.816527 -197.207753 
L 605.372053 -195.691424 
L 606.761041 -194.175095 
L 607.977484 -192.658766 
L 609.021299 -191.142437 
L 609.897355 -189.626108 
L 610.614245 -188.109779 
L 611.182938 -186.59345 
L 611.615462 -185.077121 
L 611.923763 -183.560792 
L 612.118846 -182.044463 
L 612.210268 -180.528134 
L 612.205993 -179.011805 
L 612.112612 -177.495476 
L 611.935831 -175.979147 
L 611.681149 -174.462818 
L 611.354602 -172.946489 
L 610.963456 -171.43016 
L 610.516741 -169.913831 
L 610.02555 -168.397502 
L 609.503042 -166.881173 
L 608.964163 -165.364844 
L 608.425085 -163.848515 
L 607.902438 -162.332186 
L 607.412415 -160.815857 
L 606.969822 -159.299528 
L 606.587181 -157.783199 
L 606.273949 -156.26687 
L 606.035922 -154.750541 
L 605.874863 -153.234212 
L 605.78837 -151.717883 
L 605.769984 -150.201554 
L 605.809529 -148.685225 
L 605.893633 -147.168896 
L 606.006429 -145.652567 
L 606.130359 -144.136238 
L 606.247059 -142.619909 
L 606.338281 -141.10358 
L 606.386795 -139.587251 
L 606.377251 -138.070923 
L 606.29694 -136.554594 
L 606.136432 -135.038265 
L 605.890055 -133.521936 
L 605.556189 -132.005607 
L 605.137346 -130.489278 
L 604.640044 -128.972949 
L 604.07445 -127.45662 
L 603.45382 -125.940291 
L 602.793741 -124.423962 
L 602.111224 -122.907633 
L 601.423682 -121.391304 
L 600.747858 -119.874975 
L 600.098767 -118.358646 
L 599.488728 -116.842317 
L 598.926554 -115.325988 
L 598.416976 -113.809659 
L 597.960343 -112.29333 
L 597.552646 -110.777001 
L 597.185872 -109.260672 
L 596.848661 -107.744343 
L 596.527244 -106.228014 
L 596.206562 -104.711685 
L 595.871498 -103.195356 
L 595.508099 -101.679027 
L 595.104693 -100.162698 
L 594.652785 -98.646369 
L 594.147669 -97.13004 
L 593.588685 -95.613711 
L 592.9791 -94.097382 
L 592.325647 -92.581053 
L 591.637746 -91.064724 
L 590.926521 -89.548395 
L 590.2037 -88.032066 
L 589.480523 -86.515737 
L 588.766774 -84.999408 
L 588.07003 -83.483079 
L 587.395205 -81.96675 
L 586.744408 -80.450421 
L 586.117118 -78.934092 
L 585.510628 -77.417763 
L 584.920685 -75.901434 
L 584.342239 -74.385105 
L 583.770193 -72.868776 
L 583.200094 -71.352447 
L 582.628659 -69.836118 
L 582.054137 -68.319789 
L 581.476455 -66.80346 
L 580.897182 -65.287131 
L 580.319333 -63.770802 
L 579.747056 -62.254473 
L 579.185252 -60.738144 
L 578.63918 -59.221815 
L 578.114068 -57.705486 
L 577.614786 -56.189157 
L 577.145575 -54.672828 
z
" style="stroke: #303030; stroke-width: 1.25"/>
    </defs>
    <g clip-path="url(#pdaf49b7f12)">
     <use xlink:href="#m0c4533159c" x="0" y="245.496139" style="fill: #c08089; stroke: #303030; stroke-width: 1.25"/>
    </g>
   </g>
   <g id="PolyCollection_6">
    <defs>
     <path id="m7a7524a6f7" d="M 680.477061 -46.520031 
L 658.732046 -46.520031 
L 657.663788 -48.11042 
L 656.545652 -49.70081 
L 655.381049 -51.291199 
L 654.17402 -52.881589 
L 652.929265 -54.471978 
L 651.652148 -56.062368 
L 650.348705 -57.652757 
L 649.025639 -59.243147 
L 647.690294 -60.833536 
L 646.350624 -62.423926 
L 645.015126 -64.014315 
L 643.692764 -65.604705 
L 642.392865 -67.195094 
L 641.124998 -68.785484 
L 639.89883 -70.375873 
L 638.723973 -71.966263 
L 637.609812 -73.556652 
L 636.565338 -75.147042 
L 635.598973 -76.737431 
L 634.718405 -78.327821 
L 633.930437 -79.91821 
L 633.24085 -81.5086 
L 632.654289 -83.098989 
L 632.17418 -84.689379 
L 631.80267 -86.279768 
L 631.540603 -87.870158 
L 631.387519 -89.460547 
L 631.341696 -91.050937 
L 631.400206 -92.641326 
L 631.559004 -94.231716 
L 631.813039 -95.822105 
L 632.156383 -97.412495 
L 632.582366 -99.002884 
L 633.083726 -100.593274 
L 633.652763 -102.183663 
L 634.281488 -103.774053 
L 634.961768 -105.364442 
L 635.685465 -106.954832 
L 636.444562 -108.545221 
L 637.231271 -110.135611 
L 638.038128 -111.726 
L 638.858071 -113.31639 
L 639.684496 -114.906779 
L 640.51129 -116.497169 
L 641.332854 -118.087558 
L 642.1441 -119.677948 
L 642.940427 -121.268337 
L 643.717692 -122.858727 
L 644.472156 -124.449116 
L 645.200423 -126.039506 
L 645.89937 -127.629895 
L 646.566076 -129.220285 
L 647.197744 -130.810674 
L 647.79163 -132.401064 
L 648.344989 -133.991453 
L 648.855022 -135.581843 
L 649.318853 -137.172232 
L 649.733529 -138.762622 
L 650.096038 -140.353011 
L 650.403377 -141.943401 
L 650.652631 -143.53379 
L 650.841101 -145.12418 
L 650.966451 -146.714569 
L 651.026887 -148.304959 
L 651.021346 -149.895348 
L 650.949703 -151.485738 
L 650.812964 -153.076127 
L 650.613458 -154.666517 
L 650.354986 -156.256906 
L 650.042939 -157.847296 
L 649.684354 -159.437685 
L 649.287917 -161.028075 
L 648.863878 -162.618464 
L 648.423909 -164.208854 
L 647.98087 -165.799243 
L 647.548518 -167.389633 
L 647.14115 -168.980022 
L 646.773194 -170.570412 
L 646.45878 -172.160801 
L 646.211296 -173.751191 
L 646.042951 -175.34158 
L 645.964372 -176.93197 
L 645.984258 -178.522359 
L 646.109089 -180.112749 
L 646.342927 -181.703138 
L 646.687302 -183.293528 
L 647.141193 -184.883917 
L 647.701098 -186.474307 
L 648.361195 -188.064696 
L 649.113574 -189.655086 
L 649.948535 -191.245475 
L 650.854933 -192.835865 
L 651.820545 -194.426254 
L 652.83246 -196.016644 
L 653.877455 -197.607033 
L 654.942361 -199.197423 
L 656.014387 -200.787812 
L 657.081417 -202.378202 
L 658.132247 -203.968591 
L 681.07686 -203.968591 
L 681.07686 -203.968591 
L 682.12769 -202.378202 
L 683.19472 -200.787812 
L 684.266746 -199.197423 
L 685.331652 -197.607033 
L 686.376647 -196.016644 
L 687.388562 -194.426254 
L 688.354175 -192.835865 
L 689.260572 -191.245475 
L 690.095534 -189.655086 
L 690.847912 -188.064696 
L 691.508009 -186.474307 
L 692.067914 -184.883917 
L 692.521805 -183.293528 
L 692.866181 -181.703138 
L 693.100019 -180.112749 
L 693.224849 -178.522359 
L 693.244735 -176.93197 
L 693.166156 -175.34158 
L 692.997811 -173.751191 
L 692.750327 -172.160801 
L 692.435913 -170.570412 
L 692.067957 -168.980022 
L 691.660589 -167.389633 
L 691.228237 -165.799243 
L 690.785199 -164.208854 
L 690.345229 -162.618464 
L 689.92119 -161.028075 
L 689.524753 -159.437685 
L 689.166168 -157.847296 
L 688.854121 -156.256906 
L 688.595649 -154.666517 
L 688.396143 -153.076127 
L 688.259404 -151.485738 
L 688.187761 -149.895348 
L 688.18222 -148.304959 
L 688.242656 -146.714569 
L 688.368006 -145.12418 
L 688.556476 -143.53379 
L 688.80573 -141.943401 
L 689.113069 -140.353011 
L 689.475579 -138.762622 
L 689.890254 -137.172232 
L 690.354085 -135.581843 
L 690.864118 -133.991453 
L 691.417477 -132.401064 
L 692.011364 -130.810674 
L 692.643031 -129.220285 
L 693.309737 -127.629895 
L 694.008685 -126.039506 
L 694.736951 -124.449116 
L 695.491415 -122.858727 
L 696.26868 -121.268337 
L 697.065008 -119.677948 
L 697.876253 -118.087558 
L 698.697817 -116.497169 
L 699.524611 -114.906779 
L 700.351036 -113.31639 
L 701.170979 -111.726 
L 701.977837 -110.135611 
L 702.764545 -108.545221 
L 703.523642 -106.954832 
L 704.247339 -105.364442 
L 704.927619 -103.774053 
L 705.556344 -102.183663 
L 706.125381 -100.593274 
L 706.626741 -99.002884 
L 707.052724 -97.412495 
L 707.396068 -95.822105 
L 707.650104 -94.231716 
L 707.808901 -92.641326 
L 707.867411 -91.050937 
L 707.821588 -89.460547 
L 707.668504 -87.870158 
L 707.406437 -86.279768 
L 707.034927 -84.689379 
L 706.554818 -83.098989 
L 705.968257 -81.5086 
L 705.27867 -79.91821 
L 704.490702 -78.327821 
L 703.610135 -76.737431 
L 702.643769 -75.147042 
L 701.599295 -73.556652 
L 700.485135 -71.966263 
L 699.310277 -70.375873 
L 698.084109 -68.785484 
L 696.816242 -67.195094 
L 695.516343 -65.604705 
L 694.193981 -64.014315 
L 692.858483 -62.423926 
L 691.518813 -60.833536 
L 690.183468 -59.243147 
L 688.860402 -57.652757 
L 687.556959 -56.062368 
L 686.279842 -54.471978 
L 685.035087 -52.881589 
L 683.828059 -51.291199 
L 682.663455 -49.70081 
L 681.54532 -48.11042 
L 680.477061 -46.520031 
z
" style="stroke: #303030; stroke-width: 1.25"/>
    </defs>
    <g clip-path="url(#pdaf49b7f12)">
     <use xlink:href="#m7a7524a6f7" x="0" y="245.496139" style="fill: #2f7499; stroke: #303030; stroke-width: 1.25"/>
    </g>
   </g>
   <g id="matplotlib.axis_5">
    <g id="xtick_5">
     <g id="line2d_30">
      <g>
       <use xlink:href="#m1348265273" x="573.947411" y="206.889577" style="stroke: #000000; stroke-width: 0.8"/>
      </g>
     </g>
     <g id="text_21">
      <text style="font: 10px 'Arial'; text-anchor: middle" x="573.947411" y="221.047389" transform="rotate(-0 573.947411 221.047389)">PLP</text>
     </g>
    </g>
    <g id="xtick_6">
     <g id="line2d_31">
      <g>
       <use xlink:href="#m1348265273" x="669.604554" y="206.889577" style="stroke: #000000; stroke-width: 0.8"/>
      </g>
     </g>
     <g id="text_22">
      <text style="font: 10px 'Arial'; text-anchor: middle" x="669.604554" y="221.047389" transform="rotate(-0 669.604554 221.047389)">BLB</text>
     </g>
    </g>
   </g>
   <g id="matplotlib.axis_6">
    <g id="ytick_12">
     <g id="line2d_32">
      <g>
       <use xlink:href="#m16d54d74e1" x="526.118839" y="199.272986" style="stroke: #000000; stroke-width: 0.8"/>
      </g>
     </g>
     <g id="text_23">
      <text style="font: 11px 'Arial'; text-anchor: end" x="519.118839" y="203.209783" transform="rotate(-0 519.118839 203.209783)">0.5</text>
     </g>
    </g>
    <g id="ytick_13">
     <g id="line2d_33">
      <g>
       <use xlink:href="#m16d54d74e1" x="526.118839" y="167.532304" style="stroke: #000000; stroke-width: 0.8"/>
      </g>
     </g>
     <g id="text_24">
      <text style="font: 11px 'Arial'; text-anchor: end" x="519.118839" y="171.469101" transform="rotate(-0 519.118839 171.469101)">0.6</text>
     </g>
    </g>
    <g id="ytick_14">
     <g id="line2d_34">
      <g>
       <use xlink:href="#m16d54d74e1" x="526.118839" y="135.791622" style="stroke: #000000; stroke-width: 0.8"/>
      </g>
     </g>
     <g id="text_25">
      <text style="font: 11px 'Arial'; text-anchor: end" x="519.118839" y="139.728419" transform="rotate(-0 519.118839 139.728419)">0.7</text>
     </g>
    </g>
    <g id="ytick_15">
     <g id="line2d_35">
      <g>
       <use xlink:href="#m16d54d74e1" x="526.118839" y="104.05094" style="stroke: #000000; stroke-width: 0.8"/>
      </g>
     </g>
     <g id="text_26">
      <text style="font: 11px 'Arial'; text-anchor: end" x="519.118839" y="107.987737" transform="rotate(-0 519.118839 107.987737)">0.8</text>
     </g>
    </g>
    <g id="ytick_16">
     <g id="line2d_36">
      <g>
       <use xlink:href="#m16d54d74e1" x="526.118839" y="72.310259" style="stroke: #000000; stroke-width: 0.8"/>
      </g>
     </g>
     <g id="text_27">
      <text style="font: 11px 'Arial'; text-anchor: end" x="519.118839" y="76.247055" transform="rotate(-0 519.118839 76.247055)">0.9</text>
     </g>
    </g>
    <g id="ytick_17">
     <g id="line2d_37">
      <g>
       <use xlink:href="#m16d54d74e1" x="526.118839" y="40.569577" style="stroke: #000000; stroke-width: 0.8"/>
      </g>
     </g>
     <g id="text_28">
      <text style="font: 11px 'Arial'; text-anchor: end" x="519.118839" y="44.506374" transform="rotate(-0 519.118839 44.506374)">1.0</text>
     </g>
    </g>
    <g id="text_29">
     <text style="font: 12px 'Arial'; text-anchor: middle" x="497.303214" y="123.729577" transform="rotate(-90 497.303214 123.729577)">Imaging Phenotype Score</text>
    </g>
   </g>
   <g id="line2d_38">
    <path d="M 573.947411 190.823311 
L 573.947411 40.706741 
" clip-path="url(#pdaf49b7f12)" style="fill: none; stroke: #303030; stroke-width: 1.875; stroke-linecap: square"/>
   </g>
   <g id="line2d_39">
    <path d="M 573.947411 124.536929 
L 573.947411 65.90004 
" clip-path="url(#pdaf49b7f12)" style="fill: none; stroke: #303030; stroke-width: 5.625; stroke-linecap: square"/>
   </g>
   <g id="line2d_40">
    <path d="M 573.947411 94.616601 
" clip-path="url(#pdaf49b7f12)" style="fill: none; stroke: #303030; stroke-width: 1.5; stroke-linecap: square"/>
    <g clip-path="url(#pdaf49b7f12)">
     <use xlink:href="#ma94eab0a32" x="573.947411" y="94.616601" style="fill: #ffffff; stroke: #ffffff; stroke-width: 1.125"/>
    </g>
   </g>
   <g id="line2d_41">
    <path d="M 669.604554 198.976108 
L 669.604554 41.527548 
" clip-path="url(#pdaf49b7f12)" style="fill: none; stroke: #303030; stroke-width: 1.875; stroke-linecap: square"/>
   </g>
   <g id="line2d_42">
    <path d="M 669.604554 158.99577 
L 669.604554 84.46005 
" clip-path="url(#pdaf49b7f12)" style="fill: none; stroke: #303030; stroke-width: 5.625; stroke-linecap: square"/>
   </g>
   <g id="line2d_43">
    <path d="M 669.604554 137.364791 
" clip-path="url(#pdaf49b7f12)" style="fill: none; stroke: #303030; stroke-width: 1.5; stroke-linecap: square"/>
    <g clip-path="url(#pdaf49b7f12)">
     <use xlink:href="#ma94eab0a32" x="669.604554" y="137.364791" style="fill: #ffffff; stroke: #ffffff; stroke-width: 1.125"/>
    </g>
   </g>
   <g id="line2d_44">
    <path d="M 573.947411 32.001926 
L 573.947411 28.52 
L 669.604554 28.52 
L 669.604554 32.001926 
" style="fill: none; stroke: #333333; stroke-width: 1.5; stroke-linecap: square"/>
   </g>
   <g id="patch_9">
    <path d="M 526.118839 206.889577 
L 526.118839 40.569577 
" style="fill: none; stroke: #000000; stroke-width: 0.8; stroke-linejoin: miter; stroke-linecap: square"/>
   </g>
   <g id="patch_10">
    <path d="M 526.118839 206.889577 
L 717.433125 206.889577 
" style="fill: none; stroke: #000000; stroke-width: 0.8; stroke-linejoin: miter; stroke-linecap: square"/>
   </g>
   <g id="text_30">
    <!-- p=9×10$^{-10}$ -->
    <g transform="translate(592.315982 18.12)">
     <text>
      <tspan style="font: 12px 'Arial'" x="0 6.673828 13.681641 20.355469 27.363281 34.037109" y="-0.171875">p=9×10</tspan>
      <tspan style="font: 8.4px 'DejaVu Sans'" x="40.825781 47.864062 53.208398" y="-4.765625">−10</tspan>
     </text>
    </g>
   </g>
  </g>
 </g>
 <defs>
  <clipPath id="p5e7a011ce0">
   <rect x="47.833125" y="40.569577" width="191.314286" height="166.32"/>
  </clipPath>
  <clipPath id="p2f62169440">
   <rect x="286.975982" y="40.569577" width="191.314286" height="166.32"/>
  </clipPath>
  <clipPath id="pdaf49b7f12">
   <rect x="526.118839" y="40.569577" width="191.314286" height="166.32"/>
  </clipPath>
 </defs>
</svg>
