<?xml version="1.0" encoding="utf-8" standalone="no"?>
<!DOCTYPE svg PUBLIC "-//W3C//DTD SVG 1.1//EN"
  "http://www.w3.org/Graphics/SVG/1.1/DTD/svg11.dtd">
<svg xmlns:xlink="http://www.w3.org/1999/xlink" width="724.633125pt" height="214.195029pt" viewBox="0 0 724.633125 214.195029" xmlns="http://www.w3.org/2000/svg" version="1.1">
 <metadata>
  <rdf:RDF xmlns:dc="http://purl.org/dc/elements/1.1/" xmlns:cc="http://creativecommons.org/ns#" xmlns:rdf="http://www.w3.org/1999/02/22-rdf-syntax-ns#">
   <cc:Work>
    <dc:type rdf:resource="http://purl.org/dc/dcmitype/StillImage"/>
    <dc:date>2026-01-07T16:29:51.680970</dc:date>
    <dc:format>image/svg+xml</dc:format>
    <dc:creator>
     <cc:Agent>
      <dc:title>Matplotlib v3.7.5, https://matplotlib.org/</dc:title>
     </cc:Agent>
    </dc:creator>
   </cc:Work>
  </rdf:RDF>
 </metadata>
 <defs>
  <style type="text/css">*{stroke-linejoin: round; stroke-linecap: butt}</style>
 </defs>
 <g id="figure_1">
  <g id="patch_1">
   <path d="M 0 214.195029 
L 724.633125 214.195029 
L 724.633125 0 
L 0 0 
L 0 214.195029 
z
" style="fill: none"/>
  </g>
  <g id="axes_1">
   <g id="patch_2">
    <path d="M 47.833125 175.588467 
L 239.147411 175.588467 
L 239.147411 9.268467 
L 47.833125 9.268467 
L 47.833125 175.588467 
z
" style="fill: none"/>
   </g>
   <g id="PolyCollection_1">
    <defs>
     <path id="m69322df827" d="M 95.917924 -44.996642 
L 95.405469 -44.996642 
L 95.408507 -46.287568 
L 95.420705 -47.578493 
L 95.438287 -48.869418 
L 95.456122 -50.160343 
L 95.468594 -51.451269 
L 95.470571 -52.742194 
L 95.458273 -54.033119 
L 95.429917 -55.324044 
L 95.386046 -56.61497 
L 95.329495 -57.905895 
L 95.264997 -59.19682 
L 95.198466 -60.487745 
L 95.136069 -61.778671 
L 95.083248 -63.069596 
L 95.043878 -64.360521 
L 95.019743 -65.651446 
L 95.010395 -66.942372 
L 95.013384 -68.233297 
L 95.024732 -69.524222 
L 95.039531 -70.815147 
L 95.052501 -72.106073 
L 95.058471 -73.396998 
L 95.052757 -74.687923 
L 95.031479 -75.978848 
L 94.991858 -77.269773 
L 94.932513 -78.560699 
L 94.85371 -79.851624 
L 94.757468 -81.142549 
L 94.647366 -82.433474 
L 94.527934 -83.7244 
L 94.403598 -85.015325 
L 94.277335 -86.30625 
L 94.149299 -87.597175 
L 94.0158 -88.888101 
L 93.868896 -90.179026 
L 93.696734 -91.469951 
L 93.484545 -92.760876 
L 93.216073 -94.051802 
L 92.875212 -95.342727 
L 92.447708 -96.633652 
L 91.922876 -97.924577 
L 91.295315 -99.215503 
L 90.566428 -100.506428 
L 89.745412 -101.797353 
L 88.84921 -103.088278 
L 87.901059 -104.379204 
L 86.927649 -105.670129 
L 85.955447 -106.961054 
L 85.007236 -108.251979 
L 84.100019 -109.542905 
L 83.24513 -110.83383 
L 82.450557 -112.124755 
L 81.72462 -113.41568 
L 81.079437 -114.706605 
L 80.53248 -115.997531 
L 80.105057 -117.288456 
L 79.817537 -118.579381 
L 79.682329 -119.870306 
L 79.696475 -121.161232 
L 79.836003 -122.452157 
L 80.053741 -123.743082 
L 80.281416 -125.034007 
L 80.435693 -126.324933 
L 80.426965 -127.615858 
L 80.169208 -128.906783 
L 79.589338 -130.197708 
L 78.634998 -131.488634 
L 77.280344 -132.779559 
L 75.529927 -134.070484 
L 73.420943 -135.361409 
L 71.023956 -136.652335 
L 68.441819 -137.94326 
L 65.806254 -139.234185 
L 63.271494 -140.52511 
L 61.004708 -141.816036 
L 59.173398 -143.106961 
L 57.930552 -144.397886 
L 57.398839 -145.688811 
L 57.655702 -146.979736 
L 58.721604 -148.270662 
L 60.553928 -149.561587 
L 63.04865 -150.852512 
L 66.050755 -152.143437 
L 69.372523 -153.434363 
L 72.8167 -154.725288 
L 76.200093 -156.016213 
L 79.372831 -157.307138 
L 82.229792 -158.598064 
L 84.712952 -159.888989 
L 86.805944 -161.179914 
L 88.523903 -162.470839 
L 89.902148 -163.761765 
L 90.986538 -165.05269 
L 91.82676 -166.343615 
L 92.472346 -167.63454 
L 92.970298 -168.925466 
L 93.363164 -170.216391 
L 93.686995 -171.507316 
L 93.969384 -172.798241 
L 97.354008 -172.798241 
L 97.354008 -172.798241 
L 97.636398 -171.507316 
L 97.960229 -170.216391 
L 98.353095 -168.925466 
L 98.851047 -167.63454 
L 99.496633 -166.343615 
L 100.336855 -165.05269 
L 101.421245 -163.761765 
L 102.79949 -162.470839 
L 104.517449 -161.179914 
L 106.610441 -159.888989 
L 109.0936 -158.598064 
L 111.950561 -157.307138 
L 115.1233 -156.016213 
L 118.506693 -154.725288 
L 121.95087 -153.434363 
L 125.272638 -152.143437 
L 128.274743 -150.852512 
L 130.769464 -149.561587 
L 132.601789 -148.270662 
L 133.667691 -146.979736 
L 133.924554 -145.688811 
L 133.392841 -144.397886 
L 132.149995 -143.106961 
L 130.318685 -141.816036 
L 128.051899 -140.52511 
L 125.517139 -139.234185 
L 122.881574 -137.94326 
L 120.299437 -136.652335 
L 117.90245 -135.361409 
L 115.793466 -134.070484 
L 114.043049 -132.779559 
L 112.688395 -131.488634 
L 111.734055 -130.197708 
L 111.154185 -128.906783 
L 110.896428 -127.615858 
L 110.8877 -126.324933 
L 111.041977 -125.034007 
L 111.269652 -123.743082 
L 111.48739 -122.452157 
L 111.626917 -121.161232 
L 111.641064 -119.870306 
L 111.505856 -118.579381 
L 111.218336 -117.288456 
L 110.790913 -115.997531 
L 110.243956 -114.706605 
L 109.598773 -113.41568 
L 108.872836 -112.124755 
L 108.078263 -110.83383 
L 107.223374 -109.542905 
L 106.316157 -108.251979 
L 105.367945 -106.961054 
L 104.395744 -105.670129 
L 103.422334 -104.379204 
L 102.474183 -103.088278 
L 101.57798 -101.797353 
L 100.756965 -100.506428 
L 100.028078 -99.215503 
L 99.400516 -97.924577 
L 98.875685 -96.633652 
L 98.448181 -95.342727 
L 98.10732 -94.051802 
L 97.838848 -92.760876 
L 97.626659 -91.469951 
L 97.454497 -90.179026 
L 97.307593 -88.888101 
L 97.174094 -87.597175 
L 97.046058 -86.30625 
L 96.919795 -85.015325 
L 96.795459 -83.7244 
L 96.676026 -82.433474 
L 96.565925 -81.142549 
L 96.469683 -79.851624 
L 96.39088 -78.560699 
L 96.331535 -77.269773 
L 96.291914 -75.978848 
L 96.270636 -74.687923 
L 96.264922 -73.396998 
L 96.270892 -72.106073 
L 96.283862 -70.815147 
L 96.29866 -69.524222 
L 96.310009 -68.233297 
L 96.312998 -66.942372 
L 96.30365 -65.651446 
L 96.279515 -64.360521 
L 96.240145 -63.069596 
L 96.187324 -61.778671 
L 96.124927 -60.487745 
L 96.058396 -59.19682 
L 95.993898 -57.905895 
L 95.937347 -56.61497 
L 95.893476 -55.324044 
L 95.86512 -54.033119 
L 95.852822 -52.742194 
L 95.854799 -51.451269 
L 95.867271 -50.160343 
L 95.885106 -48.869418 
L 95.902688 -47.578493 
L 95.914886 -46.287568 
L 95.917924 -44.996642 
z
" style="stroke: #303030; stroke-width: 1.25"/>
    </defs>
    <g clip-path="url(#pd360831ae0)">
     <use xlink:href="#m69322df827" x="0" y="214.195029" style="fill: #c08089; stroke: #303030; stroke-width: 1.25"/>
    </g>
   </g>
   <g id="PolyCollection_2">
    <defs>
     <path id="m97c18a8fe6" d="M 193.925319 -124.434016 
L 188.71236 -124.434016 
L 188.535879 -124.770483 
L 188.368824 -125.10695 
L 188.21317 -125.443418 
L 188.070544 -125.779885 
L 187.942174 -126.116352 
L 187.828846 -126.45282 
L 187.73088 -126.789287 
L 187.648119 -127.125754 
L 187.579932 -127.462222 
L 187.525234 -127.798689 
L 187.482518 -128.135156 
L 187.449903 -128.471624 
L 187.425195 -128.808091 
L 187.40596 -129.144558 
L 187.389603 -129.481025 
L 187.373454 -129.817493 
L 187.354851 -130.15396 
L 187.33122 -130.490427 
L 187.300135 -130.826895 
L 187.259375 -131.163362 
L 187.206943 -131.499829 
L 187.14108 -131.836297 
L 187.060245 -132.172764 
L 186.963087 -132.509231 
L 186.848399 -132.845699 
L 186.715066 -133.182166 
L 186.562016 -133.518633 
L 186.388176 -133.855101 
L 186.192438 -134.191568 
L 185.973638 -134.528035 
L 185.730547 -134.864502 
L 185.461868 -135.20097 
L 185.166241 -135.537437 
L 184.84224 -135.873904 
L 184.488371 -136.210372 
L 184.10305 -136.546839 
L 183.684573 -136.883306 
L 183.23108 -137.219774 
L 182.740501 -137.556241 
L 182.210513 -137.892708 
L 181.638511 -138.229176 
L 181.021593 -138.565643 
L 180.356583 -138.90211 
L 179.640104 -139.238577 
L 178.868691 -139.575045 
L 178.038967 -139.911512 
L 177.147867 -140.247979 
L 176.192907 -140.584447 
L 175.172492 -140.920914 
L 174.086234 -141.257381 
L 172.935279 -141.593849 
L 171.722591 -141.930316 
L 170.453203 -142.266783 
L 169.134383 -142.603251 
L 167.775709 -142.939718 
L 166.389033 -143.276185 
L 164.988329 -143.612653 
L 163.589417 -143.94912 
L 162.209572 -144.285587 
L 160.867042 -144.622054 
L 159.580481 -144.958522 
L 158.368349 -145.294989 
L 157.248285 -145.631456 
L 156.236522 -145.967924 
L 155.347346 -146.304391 
L 154.592656 -146.640858 
L 153.981635 -146.977326 
L 153.520558 -147.313793 
L 153.212737 -147.65026 
L 153.058616 -147.986728 
L 153.055982 -148.323195 
L 153.200297 -148.659662 
L 153.4851 -148.996129 
L 153.902458 -149.332597 
L 154.443431 -149.669064 
L 155.098517 -150.005531 
L 155.85803 -150.341999 
L 156.71242 -150.678466 
L 157.652487 -151.014933 
L 158.669503 -151.351401 
L 159.755238 -151.687868 
L 160.901915 -152.024335 
L 162.10209 -152.360803 
L 163.348513 -152.69727 
L 164.633974 -153.033737 
L 165.951158 -153.370204 
L 167.292553 -153.706672 
L 168.65039 -154.043139 
L 170.016651 -154.379606 
L 171.383131 -154.716074 
L 172.741541 -155.052541 
L 174.083659 -155.389008 
L 175.401484 -155.725476 
L 176.687411 -156.061943 
L 177.934382 -156.39841 
L 179.136018 -156.734878 
L 180.286725 -157.071345 
L 181.381758 -157.407812 
L 182.417257 -157.74428 
L 200.220422 -157.74428 
L 200.220422 -157.74428 
L 201.255921 -157.407812 
L 202.350953 -157.071345 
L 203.50166 -156.734878 
L 204.703297 -156.39841 
L 205.950268 -156.061943 
L 207.236195 -155.725476 
L 208.55402 -155.389008 
L 209.896137 -155.052541 
L 211.254548 -154.716074 
L 212.621028 -154.379606 
L 213.987289 -154.043139 
L 215.345126 -153.706672 
L 216.68652 -153.370204 
L 218.003705 -153.033737 
L 219.289165 -152.69727 
L 220.535589 -152.360803 
L 221.735764 -152.024335 
L 222.88244 -151.687868 
L 223.968176 -151.351401 
L 224.985191 -151.014933 
L 225.925258 -150.678466 
L 226.779649 -150.341999 
L 227.539162 -150.005531 
L 228.194247 -149.669064 
L 228.735221 -149.332597 
L 229.152579 -148.996129 
L 229.437381 -148.659662 
L 229.581696 -148.323195 
L 229.579063 -147.986728 
L 229.424942 -147.65026 
L 229.117121 -147.313793 
L 228.656043 -146.977326 
L 228.045023 -146.640858 
L 227.290333 -146.304391 
L 226.401157 -145.967924 
L 225.389393 -145.631456 
L 224.26933 -145.294989 
L 223.057197 -144.958522 
L 221.770637 -144.622054 
L 220.428107 -144.285587 
L 219.048262 -143.94912 
L 217.649349 -143.612653 
L 216.248645 -143.276185 
L 214.861969 -142.939718 
L 213.503295 -142.603251 
L 212.184475 -142.266783 
L 210.915088 -141.930316 
L 209.7024 -141.593849 
L 208.551444 -141.257381 
L 207.465187 -140.920914 
L 206.444771 -140.584447 
L 205.489811 -140.247979 
L 204.598711 -139.911512 
L 203.768988 -139.575045 
L 202.997575 -139.238577 
L 202.281096 -138.90211 
L 201.616086 -138.565643 
L 200.999167 -138.229176 
L 200.427165 -137.892708 
L 199.897178 -137.556241 
L 199.406598 -137.219774 
L 198.953105 -136.883306 
L 198.534629 -136.546839 
L 198.149308 -136.210372 
L 197.795438 -135.873904 
L 197.471438 -135.537437 
L 197.17581 -135.20097 
L 196.907132 -134.864502 
L 196.664041 -134.528035 
L 196.445241 -134.191568 
L 196.249503 -133.855101 
L 196.075663 -133.518633 
L 195.922612 -133.182166 
L 195.789279 -132.845699 
L 195.674591 -132.509231 
L 195.577434 -132.172764 
L 195.496599 -131.836297 
L 195.430735 -131.499829 
L 195.378304 -131.163362 
L 195.337543 -130.826895 
L 195.306459 -130.490427 
L 195.282827 -130.15396 
L 195.264225 -129.817493 
L 195.248075 -129.481025 
L 195.231718 -129.144558 
L 195.212484 -128.808091 
L 195.187776 -128.471624 
L 195.155161 -128.135156 
L 195.112445 -127.798689 
L 195.057747 -127.462222 
L 194.98956 -127.125754 
L 194.906798 -126.789287 
L 194.808832 -126.45282 
L 194.695504 -126.116352 
L 194.567134 -125.779885 
L 194.424509 -125.443418 
L 194.268855 -125.10695 
L 194.1018 -124.770483 
L 193.925319 -124.434016 
z
" style="stroke: #303030; stroke-width: 1.25"/>
    </defs>
    <g clip-path="url(#pd360831ae0)">
     <use xlink:href="#m97c18a8fe6" x="0" y="214.195029" style="fill: #2f7499; stroke: #303030; stroke-width: 1.25"/>
    </g>
   </g>
   <g id="matplotlib.axis_1">
    <g id="xtick_1">
     <g id="line2d_1">
      <defs>
       <path id="m8399cc8e11" d="M 0 0 
L 0 3.5 
" style="stroke: #000000; stroke-width: 0.8"/>
      </defs>
      <g>
       <use xlink:href="#m8399cc8e11" x="95.661696" y="175.588467" style="stroke: #000000; stroke-width: 0.8"/>
      </g>
     </g>
     <g id="text_1">
      <text style="font: 10px 'Arial'; text-anchor: middle" x="95.661696" y="189.746279" transform="rotate(-0 95.661696 189.746279)">PLP</text>
     </g>
    </g>
    <g id="xtick_2">
     <g id="line2d_2">
      <g>
       <use xlink:href="#m8399cc8e11" x="191.318839" y="175.588467" style="stroke: #000000; stroke-width: 0.8"/>
      </g>
     </g>
     <g id="text_2">
      <text style="font: 10px 'Arial'; text-anchor: middle" x="191.318839" y="189.746279" transform="rotate(-0 191.318839 189.746279)">BLB</text>
     </g>
    </g>
    <g id="text_3">
     <text style="font: 12px 'Arial'; text-anchor: middle" x="143.490268" y="204.469404" transform="rotate(-0 143.490268 204.469404)">ClinVar Category</text>
    </g>
   </g>
   <g id="matplotlib.axis_2">
    <g id="ytick_1">
     <g id="line2d_3">
      <defs>
       <path id="m8e03ff30a5" d="M 0 0 
L -3.5 0 
" style="stroke: #000000; stroke-width: 0.8"/>
      </defs>
      <g>
       <use xlink:href="#m8e03ff30a5" x="47.833125" y="152.916162" style="stroke: #000000; stroke-width: 0.8"/>
      </g>
     </g>
     <g id="text_4">
      <text style="font: 11px 'Arial'; text-anchor: end" x="40.833125" y="156.852959" transform="rotate(-0 40.833125 156.852959)">−15</text>
     </g>
    </g>
    <g id="ytick_2">
     <g id="line2d_4">
      <g>
       <use xlink:href="#m8e03ff30a5" x="47.833125" y="123.868782" style="stroke: #000000; stroke-width: 0.8"/>
      </g>
     </g>
     <g id="text_5">
      <text style="font: 11px 'Arial'; text-anchor: end" x="40.833125" y="127.805579" transform="rotate(-0 40.833125 127.805579)">−10</text>
     </g>
    </g>
    <g id="ytick_3">
     <g id="line2d_5">
      <g>
       <use xlink:href="#m8e03ff30a5" x="47.833125" y="94.821402" style="stroke: #000000; stroke-width: 0.8"/>
      </g>
     </g>
     <g id="text_6">
      <text style="font: 11px 'Arial'; text-anchor: end" x="40.833125" y="98.758199" transform="rotate(-0 40.833125 98.758199)">−5</text>
     </g>
    </g>
    <g id="ytick_4">
     <g id="line2d_6">
      <g>
       <use xlink:href="#m8e03ff30a5" x="47.833125" y="65.774022" style="stroke: #000000; stroke-width: 0.8"/>
      </g>
     </g>
     <g id="text_7">
      <text style="font: 11px 'Arial'; text-anchor: end" x="40.833125" y="69.710819" transform="rotate(-0 40.833125 69.710819)">0</text>
     </g>
    </g>
    <g id="ytick_5">
     <g id="line2d_7">
      <g>
       <use xlink:href="#m8e03ff30a5" x="47.833125" y="36.726642" style="stroke: #000000; stroke-width: 0.8"/>
      </g>
     </g>
     <g id="text_8">
      <text style="font: 11px 'Arial'; text-anchor: end" x="40.833125" y="40.663438" transform="rotate(-0 40.833125 40.663438)">5</text>
     </g>
    </g>
    <g id="text_9">
     <text style="font: 12px 'Arial'; text-anchor: middle" x="15.789375" y="92.428467" transform="rotate(-90 15.789375 92.428467)">Abundance Z-Score</text>
    </g>
   </g>
   <g id="line2d_8">
    <path d="M 95.661696 128.736726 
L 95.661696 41.396788 
" clip-path="url(#pd360831ae0)" style="fill: none; stroke: #303030; stroke-width: 1.875; stroke-linecap: square"/>
   </g>
   <g id="line2d_9">
    <path d="M 95.661696 92.200726 
L 95.661696 65.769734 
" clip-path="url(#pd360831ae0)" style="fill: none; stroke: #303030; stroke-width: 5.625; stroke-linecap: square"/>
   </g>
   <g id="line2d_10">
    <path d="M 95.661696 73.03966 
" clip-path="url(#pd360831ae0)" style="fill: none; stroke: #303030; stroke-width: 1.5; stroke-linecap: square"/>
    <defs>
     <path id="md5bacf9f03" d="M 2.34375 0 
L -2.34375 -0 
" style="stroke: #ffffff; stroke-width: 1.125"/>
    </defs>
    <g clip-path="url(#pd360831ae0)">
     <use xlink:href="#md5bacf9f03" x="95.661696" y="73.03966" style="fill: #ffffff; stroke: #ffffff; stroke-width: 1.125"/>
    </g>
   </g>
   <g id="line2d_11">
    <path d="M 191.318839 77.216288 
L 191.318839 56.45075 
" clip-path="url(#pd360831ae0)" style="fill: none; stroke: #303030; stroke-width: 1.875; stroke-linecap: square"/>
   </g>
   <g id="line2d_12">
    <path d="M 191.318839 69.918894 
L 191.318839 63.1681 
" clip-path="url(#pd360831ae0)" style="fill: none; stroke: #303030; stroke-width: 5.625; stroke-linecap: square"/>
   </g>
   <g id="line2d_13">
    <path d="M 191.318839 66.588036 
" clip-path="url(#pd360831ae0)" style="fill: none; stroke: #303030; stroke-width: 1.5; stroke-linecap: square"/>
    <g clip-path="url(#pd360831ae0)">
     <use xlink:href="#md5bacf9f03" x="191.318839" y="66.588036" style="fill: #ffffff; stroke: #ffffff; stroke-width: 1.125"/>
    </g>
   </g>
   <g id="line2d_14">
    <path d="M 95.661696 34.3677 
L 95.661696 31.556065 
L 191.318839 31.556065 
L 191.318839 34.3677 
" style="fill: none; stroke: #333333; stroke-width: 1.5; stroke-linecap: square"/>
   </g>
   <g id="patch_3">
    <path d="M 47.833125 175.588467 
L 47.833125 9.268467 
" style="fill: none; stroke: #000000; stroke-width: 0.8; stroke-linejoin: miter; stroke-linecap: square"/>
   </g>
   <g id="patch_4">
    <path d="M 239.147411 175.588467 
L 239.147411 9.268467 
" style="fill: none; stroke: #000000; stroke-width: 0.8; stroke-linejoin: miter; stroke-linecap: square"/>
   </g>
   <g id="patch_5">
    <path d="M 47.833125 175.588467 
L 239.147411 175.588467 
" style="fill: none; stroke: #000000; stroke-width: 0.8; stroke-linejoin: miter; stroke-linecap: square"/>
   </g>
   <g id="patch_6">
    <path d="M 47.833125 9.268467 
L 239.147411 9.268467 
" style="fill: none; stroke: #000000; stroke-width: 0.8; stroke-linejoin: miter; stroke-linecap: square"/>
   </g>
   <g id="text_10">
    <text style="font: 12px 'Arial'; text-anchor: middle" x="143.490268" y="21.171065" transform="rotate(-0 143.490268 21.171065)">M.W.W. p = 1.237e-07</text>
   </g>
  </g>
  <g id="axes_2">
   <g id="patch_7">
    <path d="M 286.975982 175.588467 
L 478.290268 175.588467 
L 478.290268 9.268467 
L 286.975982 9.268467 
L 286.975982 175.588467 
z
" style="fill: none"/>
   </g>
   <g id="PolyCollection_3">
    <defs>
     <path id="m0ca208a6ac" d="M 337.964606 -51.579979 
L 331.644501 -51.579979 
L 331.180912 -52.804406 
L 330.687595 -54.028833 
L 330.168727 -55.25326 
L 329.629094 -56.477687 
L 329.073833 -57.702114 
L 328.508091 -58.92654 
L 327.93665 -60.150967 
L 327.363524 -61.375394 
L 326.791582 -62.599821 
L 326.222234 -63.824248 
L 325.655233 -65.048675 
L 325.088637 -66.273102 
L 324.518959 -67.497529 
L 323.941517 -68.721956 
L 323.350979 -69.946383 
L 322.742046 -71.170809 
L 322.110224 -72.395236 
L 321.452587 -73.619663 
L 320.768441 -74.84409 
L 320.059797 -76.068517 
L 319.331571 -77.292944 
L 318.591477 -78.517371 
L 317.849583 -79.741798 
L 317.117575 -80.966225 
L 316.407779 -82.190651 
L 315.732048 -83.415078 
L 315.100616 -84.639505 
L 314.521056 -85.863932 
L 313.997434 -87.088359 
L 313.529771 -88.312786 
L 313.113856 -89.537213 
L 312.741453 -90.76164 
L 312.400871 -91.986067 
L 312.077866 -93.210493 
L 311.756775 -94.43492 
L 311.421796 -95.659347 
L 311.058292 -96.883774 
L 310.653997 -98.108201 
L 310.200047 -99.332628 
L 309.691717 -100.557055 
L 309.128844 -101.781482 
L 308.515886 -103.005909 
L 307.861637 -104.230335 
L 307.178641 -105.454762 
L 306.482339 -106.679189 
L 305.790057 -107.903616 
L 305.119886 -109.128043 
L 304.489558 -110.35247 
L 303.915374 -111.576897 
L 303.411258 -112.801324 
L 302.987983 -114.025751 
L 302.652591 -115.250177 
L 302.408038 -116.474604 
L 302.25306 -117.699031 
L 302.182253 -118.923458 
L 302.186365 -120.147885 
L 302.252756 -121.372312 
L 302.366033 -122.596739 
L 302.508792 -123.821166 
L 302.662475 -125.045593 
L 302.808271 -126.270019 
L 302.928046 -127.494446 
L 303.005248 -128.718873 
L 303.025743 -129.9433 
L 302.978542 -131.167727 
L 302.856365 -132.392154 
L 302.656008 -133.616581 
L 302.378474 -134.841008 
L 302.028852 -136.065435 
L 301.615942 -137.289861 
L 301.151642 -138.514288 
L 300.650142 -139.738715 
L 300.126991 -140.963142 
L 299.598115 -142.187569 
L 299.078887 -143.411996 
L 298.583332 -144.636423 
L 298.123575 -145.86085 
L 297.709563 -147.085277 
L 297.349123 -148.309704 
L 297.048332 -149.53413 
L 296.812148 -150.758557 
L 296.645237 -151.982984 
L 296.55286 -153.207411 
L 296.541696 -154.431838 
L 296.62048 -155.656265 
L 296.800318 -156.880692 
L 297.094622 -158.105119 
L 297.51859 -159.329546 
L 298.088278 -160.553972 
L 298.819296 -161.778399 
L 299.725263 -163.002826 
L 300.816166 -164.227253 
L 302.096792 -165.45168 
L 303.565428 -166.676107 
L 305.212966 -167.900534 
L 307.022559 -169.124961 
L 308.969879 -170.349388 
L 311.023994 -171.573814 
L 313.148794 -172.798241 
L 356.460313 -172.798241 
L 356.460313 -172.798241 
L 358.585113 -171.573814 
L 360.639228 -170.349388 
L 362.586549 -169.124961 
L 364.396142 -167.900534 
L 366.043679 -166.676107 
L 367.512315 -165.45168 
L 368.792941 -164.227253 
L 369.883844 -163.002826 
L 370.789811 -161.778399 
L 371.520829 -160.553972 
L 372.090517 -159.329546 
L 372.514486 -158.105119 
L 372.808789 -156.880692 
L 372.988627 -155.656265 
L 373.067411 -154.431838 
L 373.056247 -153.207411 
L 372.96387 -151.982984 
L 372.79696 -150.758557 
L 372.560776 -149.53413 
L 372.259984 -148.309704 
L 371.899544 -147.085277 
L 371.485532 -145.86085 
L 371.025775 -144.636423 
L 370.53022 -143.411996 
L 370.010992 -142.187569 
L 369.482116 -140.963142 
L 368.958965 -139.738715 
L 368.457465 -138.514288 
L 367.993165 -137.289861 
L 367.580255 -136.065435 
L 367.230633 -134.841008 
L 366.953099 -133.616581 
L 366.752742 -132.392154 
L 366.630565 -131.167727 
L 366.583364 -129.9433 
L 366.603859 -128.718873 
L 366.681061 -127.494446 
L 366.800836 -126.270019 
L 366.946632 -125.045593 
L 367.100315 -123.821166 
L 367.243074 -122.596739 
L 367.356351 -121.372312 
L 367.422743 -120.147885 
L 367.426854 -118.923458 
L 367.356047 -117.699031 
L 367.201069 -116.474604 
L 366.956516 -115.250177 
L 366.621124 -114.025751 
L 366.197849 -112.801324 
L 365.693734 -111.576897 
L 365.119549 -110.35247 
L 364.489221 -109.128043 
L 363.81905 -107.903616 
L 363.126768 -106.679189 
L 362.430466 -105.454762 
L 361.74747 -104.230335 
L 361.093221 -103.005909 
L 360.480263 -101.781482 
L 359.91739 -100.557055 
L 359.40906 -99.332628 
L 358.95511 -98.108201 
L 358.550816 -96.883774 
L 358.187311 -95.659347 
L 357.852332 -94.43492 
L 357.531242 -93.210493 
L 357.208236 -91.986067 
L 356.867654 -90.76164 
L 356.495251 -89.537213 
L 356.079336 -88.312786 
L 355.611673 -87.088359 
L 355.088051 -85.863932 
L 354.508491 -84.639505 
L 353.877059 -83.415078 
L 353.201328 -82.190651 
L 352.491532 -80.966225 
L 351.759524 -79.741798 
L 351.01763 -78.517371 
L 350.277536 -77.292944 
L 349.54931 -76.068517 
L 348.840666 -74.84409 
L 348.15652 -73.619663 
L 347.498884 -72.395236 
L 346.867062 -71.170809 
L 346.258128 -69.946383 
L 345.66759 -68.721956 
L 345.090148 -67.497529 
L 344.52047 -66.273102 
L 343.953874 -65.048675 
L 343.386873 -63.824248 
L 342.817525 -62.599821 
L 342.245583 -61.375394 
L 341.672457 -60.150967 
L 341.101016 -58.92654 
L 340.535274 -57.702114 
L 339.980013 -56.477687 
L 339.440381 -55.25326 
L 338.921512 -54.028833 
L 338.428195 -52.804406 
L 337.964606 -51.579979 
z
" style="stroke: #303030; stroke-width: 1.25"/>
    </defs>
    <g clip-path="url(#p1c5a30ac56)">
     <use xlink:href="#m0ca208a6ac" x="0" y="214.195029" style="fill: #c08089; stroke: #303030; stroke-width: 1.25"/>
    </g>
   </g>
   <g id="PolyCollection_4">
    <defs>
     <path id="mb929cfaf54" d="M 441.175413 -44.996642 
L 419.74798 -44.996642 
L 418.675095 -46.280873 
L 417.54968 -47.565103 
L 416.375077 -48.849333 
L 415.155345 -50.133564 
L 413.895298 -51.417794 
L 412.600523 -52.702024 
L 411.277385 -53.986255 
L 409.933025 -55.270485 
L 408.575328 -56.554715 
L 407.212868 -57.838946 
L 405.854828 -59.123176 
L 404.510892 -60.407406 
L 403.191111 -61.691637 
L 401.905741 -62.975867 
L 400.665071 -64.260097 
L 399.479221 -65.544328 
L 398.357951 -66.828558 
L 397.310454 -68.112788 
L 396.34517 -69.397019 
L 395.46961 -70.681249 
L 394.690201 -71.965479 
L 394.012167 -73.24971 
L 393.439437 -74.53394 
L 392.974596 -75.81817 
L 392.618865 -77.102401 
L 392.372129 -78.386631 
L 392.232986 -79.670861 
L 392.198839 -80.955092 
L 392.266008 -82.239322 
L 392.429856 -83.523552 
L 392.68494 -84.807783 
L 393.025159 -86.092013 
L 393.443905 -87.376243 
L 393.934213 -88.660473 
L 394.488896 -89.944704 
L 395.100673 -91.228934 
L 395.762275 -92.513164 
L 396.466538 -93.797395 
L 397.20648 -95.081625 
L 397.975358 -96.365855 
L 398.766709 -97.650086 
L 399.574379 -98.934316 
L 400.392538 -100.218546 
L 401.215685 -101.502777 
L 402.038639 -102.787007 
L 402.856531 -104.071237 
L 403.66478 -105.355468 
L 404.459068 -106.639698 
L 405.23531 -107.923928 
L 405.989621 -109.208159 
L 406.718273 -110.492389 
L 407.417664 -111.776619 
L 408.084272 -113.06085 
L 408.714623 -114.34508 
L 409.305259 -115.62931 
L 409.852722 -116.913541 
L 410.353541 -118.197771 
L 410.804249 -119.482001 
L 411.201412 -120.766232 
L 411.541689 -122.050462 
L 411.821915 -123.334692 
L 412.039215 -124.618923 
L 412.191148 -125.903153 
L 412.275865 -127.187383 
L 412.292295 -128.471614 
L 412.240332 -129.755844 
L 412.121031 -131.040074 
L 411.936777 -132.324305 
L 411.691444 -133.608535 
L 411.390499 -134.892765 
L 411.041066 -136.176995 
L 410.65192 -137.461226 
L 410.23341 -138.745456 
L 409.797313 -140.029686 
L 409.356605 -141.313917 
L 408.925163 -142.598147 
L 408.517409 -143.882377 
L 408.1479 -145.166608 
L 407.830893 -146.450838 
L 407.579893 -147.735068 
L 407.407213 -149.019299 
L 407.323571 -150.303529 
L 407.337731 -151.587759 
L 407.456218 -152.87199 
L 407.683113 -154.15622 
L 408.019942 -155.44045 
L 408.465656 -156.724681 
L 409.016715 -158.008911 
L 409.667242 -159.293141 
L 410.409275 -160.577372 
L 411.233061 -161.861602 
L 412.127413 -163.145832 
L 413.080085 -164.430063 
L 414.07816 -165.714293 
L 415.108435 -166.998523 
L 416.157786 -168.282754 
L 417.213495 -169.566984 
L 418.26354 -170.851214 
L 419.296833 -172.135445 
L 441.62656 -172.135445 
L 441.62656 -172.135445 
L 442.659853 -170.851214 
L 443.709897 -169.566984 
L 444.765606 -168.282754 
L 445.814958 -166.998523 
L 446.845233 -165.714293 
L 447.843308 -164.430063 
L 448.79598 -163.145832 
L 449.690332 -161.861602 
L 450.514118 -160.577372 
L 451.256151 -159.293141 
L 451.906678 -158.008911 
L 452.457737 -156.724681 
L 452.903451 -155.44045 
L 453.24028 -154.15622 
L 453.467175 -152.87199 
L 453.585662 -151.587759 
L 453.599822 -150.303529 
L 453.51618 -149.019299 
L 453.3435 -147.735068 
L 453.0925 -146.450838 
L 452.775493 -145.166608 
L 452.405984 -143.882377 
L 451.99823 -142.598147 
L 451.566788 -141.313917 
L 451.12608 -140.029686 
L 450.689983 -138.745456 
L 450.271473 -137.461226 
L 449.882327 -136.176995 
L 449.532894 -134.892765 
L 449.231949 -133.608535 
L 448.986616 -132.324305 
L 448.802362 -131.040074 
L 448.683061 -129.755844 
L 448.631098 -128.471614 
L 448.647528 -127.187383 
L 448.732245 -125.903153 
L 448.884178 -124.618923 
L 449.101478 -123.334692 
L 449.381704 -122.050462 
L 449.72198 -120.766232 
L 450.119144 -119.482001 
L 450.569852 -118.197771 
L 451.070671 -116.913541 
L 451.618134 -115.62931 
L 452.20877 -114.34508 
L 452.839121 -113.06085 
L 453.505728 -111.776619 
L 454.205119 -110.492389 
L 454.933772 -109.208159 
L 455.688083 -107.923928 
L 456.464325 -106.639698 
L 457.258613 -105.355468 
L 458.066862 -104.071237 
L 458.884754 -102.787007 
L 459.707708 -101.502777 
L 460.530855 -100.218546 
L 461.349014 -98.934316 
L 462.156684 -97.650086 
L 462.948035 -96.365855 
L 463.716913 -95.081625 
L 464.456855 -93.797395 
L 465.161118 -92.513164 
L 465.82272 -91.228934 
L 466.434497 -89.944704 
L 466.98918 -88.660473 
L 467.479488 -87.376243 
L 467.898234 -86.092013 
L 468.238452 -84.807783 
L 468.493537 -83.523552 
L 468.657385 -82.239322 
L 468.724554 -80.955092 
L 468.690407 -79.670861 
L 468.551264 -78.386631 
L 468.304528 -77.102401 
L 467.948797 -75.81817 
L 467.483956 -74.53394 
L 466.911226 -73.24971 
L 466.233192 -71.965479 
L 465.453783 -70.681249 
L 464.578222 -69.397019 
L 463.612939 -68.112788 
L 462.565442 -66.828558 
L 461.444172 -65.544328 
L 460.258322 -64.260097 
L 459.017651 -62.975867 
L 457.732282 -61.691637 
L 456.412501 -60.407406 
L 455.068565 -59.123176 
L 453.710525 -57.838946 
L 452.348065 -56.554715 
L 450.990368 -55.270485 
L 449.646008 -53.986255 
L 448.32287 -52.702024 
L 447.028094 -51.417794 
L 445.768048 -50.133564 
L 444.548316 -48.849333 
L 443.373712 -47.565103 
L 442.248298 -46.280873 
L 441.175413 -44.996642 
z
" style="stroke: #303030; stroke-width: 1.25"/>
    </defs>
    <g clip-path="url(#p1c5a30ac56)">
     <use xlink:href="#mb929cfaf54" x="0" y="214.195029" style="fill: #2f7499; stroke: #303030; stroke-width: 1.25"/>
    </g>
   </g>
   <g id="matplotlib.axis_3">
    <g id="xtick_3">
     <g id="line2d_15">
      <g>
       <use xlink:href="#m8399cc8e11" x="334.804554" y="175.588467" style="stroke: #000000; stroke-width: 0.8"/>
      </g>
     </g>
     <g id="text_11">
      <text style="font: 10px 'Arial'; text-anchor: middle" x="334.804554" y="189.746279" transform="rotate(-0 334.804554 189.746279)">PLP</text>
     </g>
    </g>
    <g id="xtick_4">
     <g id="line2d_16">
      <g>
       <use xlink:href="#m8399cc8e11" x="430.461696" y="175.588467" style="stroke: #000000; stroke-width: 0.8"/>
      </g>
     </g>
     <g id="text_12">
      <text style="font: 10px 'Arial'; text-anchor: middle" x="430.461696" y="189.746279" transform="rotate(-0 430.461696 189.746279)">BLB</text>
     </g>
    </g>
    <g id="text_13">
     <text style="font: 12px 'Arial'; text-anchor: middle" x="382.633125" y="204.469404" transform="rotate(-0 382.633125 204.469404)">ClinVar Category</text>
    </g>
   </g>
   <g id="matplotlib.axis_4">
    <g id="ytick_6">
     <g id="line2d_17">
      <g>
       <use xlink:href="#m8e03ff30a5" x="286.975982" y="169.438114" style="stroke: #000000; stroke-width: 0.8"/>
      </g>
     </g>
     <g id="text_14">
      <text style="font: 11px 'Arial'; text-anchor: end" x="279.975982" y="173.374911" transform="rotate(-0 279.975982 173.374911)">0.5</text>
     </g>
    </g>
    <g id="ytick_7">
     <g id="line2d_18">
      <g>
       <use xlink:href="#m8e03ff30a5" x="286.975982" y="143.807697" style="stroke: #000000; stroke-width: 0.8"/>
      </g>
     </g>
     <g id="text_15">
      <text style="font: 11px 'Arial'; text-anchor: end" x="279.975982" y="147.744494" transform="rotate(-0 279.975982 147.744494)">0.6</text>
     </g>
    </g>
    <g id="ytick_8">
     <g id="line2d_19">
      <g>
       <use xlink:href="#m8e03ff30a5" x="286.975982" y="118.17728" style="stroke: #000000; stroke-width: 0.8"/>
      </g>
     </g>
     <g id="text_16">
      <text style="font: 11px 'Arial'; text-anchor: end" x="279.975982" y="122.114077" transform="rotate(-0 279.975982 122.114077)">0.7</text>
     </g>
    </g>
    <g id="ytick_9">
     <g id="line2d_20">
      <g>
       <use xlink:href="#m8e03ff30a5" x="286.975982" y="92.546863" style="stroke: #000000; stroke-width: 0.8"/>
      </g>
     </g>
     <g id="text_17">
      <text style="font: 11px 'Arial'; text-anchor: end" x="279.975982" y="96.48366" transform="rotate(-0 279.975982 96.48366)">0.8</text>
     </g>
    </g>
    <g id="ytick_10">
     <g id="line2d_21">
      <g>
       <use xlink:href="#m8e03ff30a5" x="286.975982" y="66.916446" style="stroke: #000000; stroke-width: 0.8"/>
      </g>
     </g>
     <g id="text_18">
      <text style="font: 11px 'Arial'; text-anchor: end" x="279.975982" y="70.853242" transform="rotate(-0 279.975982 70.853242)">0.9</text>
     </g>
    </g>
    <g id="ytick_11">
     <g id="line2d_22">
      <g>
       <use xlink:href="#m8e03ff30a5" x="286.975982" y="41.286028" style="stroke: #000000; stroke-width: 0.8"/>
      </g>
     </g>
     <g id="text_19">
      <text style="font: 11px 'Arial'; text-anchor: end" x="279.975982" y="45.222825" transform="rotate(-0 279.975982 45.222825)">1.0</text>
     </g>
    </g>
    <g id="ytick_12">
     <g id="line2d_23">
      <g>
       <use xlink:href="#m8e03ff30a5" x="286.975982" y="15.655611" style="stroke: #000000; stroke-width: 0.8"/>
      </g>
     </g>
     <g id="text_20">
      <text style="font: 11px 'Arial'; text-anchor: end" x="279.975982" y="19.592408" transform="rotate(-0 279.975982 19.592408)">1.1</text>
     </g>
    </g>
    <g id="text_21">
     <text style="font: 12px 'Arial'; text-anchor: middle" x="258.160357" y="92.428467" transform="rotate(-90 258.160357 92.428467)">Imaging Phenotype Score</text>
    </g>
   </g>
   <g id="line2d_24">
    <path d="M 334.804554 162.61505 
L 334.804554 41.396788 
" clip-path="url(#p1c5a30ac56)" style="fill: none; stroke: #303030; stroke-width: 1.875; stroke-linecap: square"/>
   </g>
   <g id="line2d_25">
    <path d="M 334.804554 108.873975 
L 334.804554 61.464477 
" clip-path="url(#p1c5a30ac56)" style="fill: none; stroke: #303030; stroke-width: 5.625; stroke-linecap: square"/>
   </g>
   <g id="line2d_26">
    <path d="M 334.804554 84.165467 
" clip-path="url(#p1c5a30ac56)" style="fill: none; stroke: #303030; stroke-width: 1.5; stroke-linecap: square"/>
    <g clip-path="url(#p1c5a30ac56)">
     <use xlink:href="#md5bacf9f03" x="334.804554" y="84.165467" style="fill: #ffffff; stroke: #ffffff; stroke-width: 1.125"/>
    </g>
   </g>
   <g id="line2d_27">
    <path d="M 430.461696 169.198387 
L 430.461696 42.059585 
" clip-path="url(#p1c5a30ac56)" style="fill: none; stroke: #303030; stroke-width: 1.875; stroke-linecap: square"/>
   </g>
   <g id="line2d_28">
    <path d="M 430.461696 137.188945 
L 430.461696 78.69427 
" clip-path="url(#p1c5a30ac56)" style="fill: none; stroke: #303030; stroke-width: 5.625; stroke-linecap: square"/>
   </g>
   <g id="line2d_29">
    <path d="M 430.461696 119.447604 
" clip-path="url(#p1c5a30ac56)" style="fill: none; stroke: #303030; stroke-width: 1.5; stroke-linecap: square"/>
    <g clip-path="url(#p1c5a30ac56)">
     <use xlink:href="#md5bacf9f03" x="430.461696" y="119.447604" style="fill: #ffffff; stroke: #ffffff; stroke-width: 1.125"/>
    </g>
   </g>
   <g id="line2d_30">
    <path d="M 334.804554 34.3677 
L 334.804554 31.556065 
L 430.461696 31.556065 
L 430.461696 34.3677 
" style="fill: none; stroke: #333333; stroke-width: 1.5; stroke-linecap: square"/>
   </g>
   <g id="patch_8">
    <path d="M 286.975982 175.588467 
L 286.975982 9.268467 
" style="fill: none; stroke: #000000; stroke-width: 0.8; stroke-linejoin: miter; stroke-linecap: square"/>
   </g>
   <g id="patch_9">
    <path d="M 478.290268 175.588467 
L 478.290268 9.268467 
" style="fill: none; stroke: #000000; stroke-width: 0.8; stroke-linejoin: miter; stroke-linecap: square"/>
   </g>
   <g id="patch_10">
    <path d="M 286.975982 175.588467 
L 478.290268 175.588467 
" style="fill: none; stroke: #000000; stroke-width: 0.8; stroke-linejoin: miter; stroke-linecap: square"/>
   </g>
   <g id="patch_11">
    <path d="M 286.975982 9.268467 
L 478.290268 9.268467 
" style="fill: none; stroke: #000000; stroke-width: 0.8; stroke-linejoin: miter; stroke-linecap: square"/>
   </g>
   <g id="text_22">
    <text style="font: 12px 'Arial'; text-anchor: middle" x="382.633125" y="21.171065" transform="rotate(-0 382.633125 21.171065)">M.W.W. p = 3.509e-10</text>
   </g>
  </g>
  <g id="axes_3">
   <g id="patch_12">
    <path d="M 526.118839 175.588467 
L 717.433125 175.588467 
L 717.433125 9.268467 
L 526.118839 9.268467 
L 526.118839 175.588467 
z
" style="fill: none"/>
   </g>
   <g id="PolyCollection_5">
    <defs>
     <path id="mc7255e95b9" d="M 588.340185 -44.996642 
L 559.554636 -44.996642 
L 558.102319 -46.287568 
L 556.636112 -47.578493 
L 555.167893 -48.869418 
L 553.708043 -50.160343 
L 552.265259 -51.451269 
L 550.84657 -52.742194 
L 549.457561 -54.033119 
L 548.102762 -55.324044 
L 546.786152 -56.61497 
L 545.5117 -57.905895 
L 544.283866 -59.19682 
L 543.107987 -60.487745 
L 541.990498 -61.778671 
L 540.938934 -63.069596 
L 539.961722 -64.360521 
L 539.067771 -65.651446 
L 538.265914 -66.942372 
L 537.564265 -68.233297 
L 536.969576 -69.524222 
L 536.486671 -70.815147 
L 536.118034 -72.106073 
L 535.863591 -73.396998 
L 535.720734 -74.687923 
L 535.684554 -75.978848 
L 535.748279 -77.269773 
L 535.903839 -78.560699 
L 536.142495 -79.851624 
L 536.455452 -81.142549 
L 536.834381 -82.433474 
L 537.271798 -83.7244 
L 537.761259 -85.015325 
L 538.297374 -86.30625 
L 538.875652 -87.597175 
L 539.492221 -88.888101 
L 540.143484 -90.179026 
L 540.825767 -91.469951 
L 541.53502 -92.760876 
L 542.26662 -94.051802 
L 543.015294 -95.342727 
L 543.775168 -96.633652 
L 544.539938 -97.924577 
L 545.303106 -99.215503 
L 546.058271 -100.506428 
L 546.799407 -101.797353 
L 547.521092 -103.088278 
L 548.21867 -104.379204 
L 548.888329 -105.670129 
L 549.527079 -106.961054 
L 550.132679 -108.251979 
L 550.703502 -109.542905 
L 551.238392 -110.83383 
L 551.736541 -112.124755 
L 552.197387 -113.41568 
L 552.620574 -114.706605 
L 553.005961 -115.997531 
L 553.353664 -117.288456 
L 553.664129 -118.579381 
L 553.938198 -119.870306 
L 554.177151 -121.161232 
L 554.382717 -122.452157 
L 554.557031 -123.743082 
L 554.702546 -125.034007 
L 554.821932 -126.324933 
L 554.917964 -127.615858 
L 554.993442 -128.906783 
L 555.051171 -130.197708 
L 555.094012 -131.488634 
L 555.125024 -132.779559 
L 555.14767 -134.070484 
L 555.166078 -135.361409 
L 555.185301 -136.652335 
L 555.21153 -137.94326 
L 555.252205 -139.234185 
L 555.315985 -140.52511 
L 555.412533 -141.816036 
L 555.552115 -143.106961 
L 555.745038 -144.397886 
L 556.000957 -145.688811 
L 556.328122 -146.979736 
L 556.732653 -148.270662 
L 557.21791 -149.561587 
L 557.784044 -150.852512 
L 558.427791 -152.143437 
L 559.142522 -153.434363 
L 559.918569 -154.725288 
L 560.743782 -156.016213 
L 561.60427 -157.307138 
L 562.485244 -158.598064 
L 563.371885 -159.888989 
L 564.250153 -161.179914 
L 565.107461 -162.470839 
L 565.933179 -163.761765 
L 566.718934 -165.05269 
L 567.4587 -166.343615 
L 568.148713 -167.63454 
L 568.78723 -168.925466 
L 569.374192 -170.216391 
L 569.910838 -171.507316 
L 570.399316 -172.798241 
L 577.495505 -172.798241 
L 577.495505 -172.798241 
L 577.983983 -171.507316 
L 578.52063 -170.216391 
L 579.107592 -168.925466 
L 579.746108 -167.63454 
L 580.436121 -166.343615 
L 581.175888 -165.05269 
L 581.961643 -163.761765 
L 582.787361 -162.470839 
L 583.644668 -161.179914 
L 584.522936 -159.888989 
L 585.409578 -158.598064 
L 586.290552 -157.307138 
L 587.151039 -156.016213 
L 587.976252 -154.725288 
L 588.752299 -153.434363 
L 589.467031 -152.143437 
L 590.110778 -150.852512 
L 590.676912 -149.561587 
L 591.162168 -148.270662 
L 591.566699 -146.979736 
L 591.893865 -145.688811 
L 592.149783 -144.397886 
L 592.342707 -143.106961 
L 592.482289 -141.816036 
L 592.578836 -140.52511 
L 592.642616 -139.234185 
L 592.683292 -137.94326 
L 592.70952 -136.652335 
L 592.728743 -135.361409 
L 592.747152 -134.070484 
L 592.769798 -132.779559 
L 592.800809 -131.488634 
L 592.843651 -130.197708 
L 592.901379 -128.906783 
L 592.976857 -127.615858 
L 593.072889 -126.324933 
L 593.192275 -125.034007 
L 593.337791 -123.743082 
L 593.512104 -122.452157 
L 593.717671 -121.161232 
L 593.956624 -119.870306 
L 594.230692 -118.579381 
L 594.541157 -117.288456 
L 594.88886 -115.997531 
L 595.274247 -114.706605 
L 595.697435 -113.41568 
L 596.15828 -112.124755 
L 596.656429 -110.83383 
L 597.19132 -109.542905 
L 597.762142 -108.251979 
L 598.367742 -106.961054 
L 599.006493 -105.670129 
L 599.676151 -104.379204 
L 600.37373 -103.088278 
L 601.095414 -101.797353 
L 601.83655 -100.506428 
L 602.591716 -99.215503 
L 603.354884 -97.924577 
L 604.119653 -96.633652 
L 604.879528 -95.342727 
L 605.628202 -94.051802 
L 606.359802 -92.760876 
L 607.069055 -91.469951 
L 607.751337 -90.179026 
L 608.4026 -88.888101 
L 609.019169 -87.597175 
L 609.597448 -86.30625 
L 610.133563 -85.015325 
L 610.623023 -83.7244 
L 611.06044 -82.433474 
L 611.439369 -81.142549 
L 611.752326 -79.851624 
L 611.990983 -78.560699 
L 612.146543 -77.269773 
L 612.210268 -75.978848 
L 612.174088 -74.687923 
L 612.03123 -73.396998 
L 611.776788 -72.106073 
L 611.40815 -70.815147 
L 610.925246 -69.524222 
L 610.330557 -68.233297 
L 609.628907 -66.942372 
L 608.82705 -65.651446 
L 607.933099 -64.360521 
L 606.955887 -63.069596 
L 605.904323 -61.778671 
L 604.786834 -60.487745 
L 603.610956 -59.19682 
L 602.383121 -57.905895 
L 601.108669 -56.61497 
L 599.79206 -55.324044 
L 598.437261 -54.033119 
L 597.048251 -52.742194 
L 595.629563 -51.451269 
L 594.186779 -50.160343 
L 592.726929 -48.869418 
L 591.258709 -47.578493 
L 589.792503 -46.287568 
L 588.340185 -44.996642 
z
" style="stroke: #303030; stroke-width: 1.25"/>
    </defs>
    <g clip-path="url(#p270eeee544)">
     <use xlink:href="#mc7255e95b9" x="0" y="214.195029" style="fill: #c08089; stroke: #303030; stroke-width: 1.25"/>
    </g>
   </g>
   <g id="PolyCollection_6">
    <defs>
     <path id="m6b491e0d60" d="M 685.071139 -47.583082 
L 654.137968 -47.583082 
L 653.053154 -48.547959 
L 651.951132 -49.512836 
L 650.836453 -50.477713 
L 649.713854 -51.44259 
L 648.588213 -52.407466 
L 647.464513 -53.372343 
L 646.347804 -54.33722 
L 645.243146 -55.302097 
L 644.155568 -56.266974 
L 643.090004 -57.231851 
L 642.051242 -58.196728 
L 641.043861 -59.161605 
L 640.072179 -60.126482 
L 639.140194 -61.091359 
L 638.25154 -62.056235 
L 637.409447 -63.021112 
L 636.616716 -63.985989 
L 635.875698 -64.950866 
L 635.188297 -65.915743 
L 634.555983 -66.88062 
L 633.979816 -67.845497 
L 633.460484 -68.810374 
L 632.998356 -69.775251 
L 632.593532 -70.740128 
L 632.245902 -71.705004 
L 631.955207 -72.669881 
L 631.721084 -73.634758 
L 631.543117 -74.599635 
L 631.420863 -75.564512 
L 631.353874 -76.529389 
L 631.341696 -77.494266 
L 631.383859 -78.459143 
L 631.479845 -79.42402 
L 631.629054 -80.388897 
L 631.830752 -81.353773 
L 632.084022 -82.31865 
L 632.387704 -83.283527 
L 632.740356 -84.248404 
L 633.140206 -85.213281 
L 633.585133 -86.178158 
L 634.072651 -87.143035 
L 634.599923 -88.107912 
L 635.163783 -89.072789 
L 635.760786 -90.037666 
L 636.387268 -91.002542 
L 637.039423 -91.967419 
L 637.71339 -92.932296 
L 638.40534 -93.897173 
L 639.111573 -94.86205 
L 639.8286 -95.826927 
L 640.553219 -96.791804 
L 641.282585 -97.756681 
L 642.01425 -98.721558 
L 642.746196 -99.686434 
L 643.476843 -100.651311 
L 644.205037 -101.616188 
L 644.930025 -102.581065 
L 645.651406 -103.545942 
L 646.369074 -104.510819 
L 647.083154 -105.475696 
L 647.793923 -106.440573 
L 648.501738 -107.40545 
L 649.206958 -108.370327 
L 649.909873 -109.335203 
L 650.610647 -110.30008 
L 651.309256 -111.264957 
L 652.005451 -112.229834 
L 652.698728 -113.194711 
L 653.388309 -114.159588 
L 654.073141 -115.124465 
L 654.751899 -116.089342 
L 655.423014 -117.054219 
L 656.084696 -118.019096 
L 656.734981 -118.983972 
L 657.371774 -119.948849 
L 657.992905 -120.913726 
L 658.59619 -121.878603 
L 659.179491 -122.84348 
L 659.74078 -123.808357 
L 660.278202 -124.773234 
L 660.790132 -125.738111 
L 661.275232 -126.702988 
L 661.7325 -127.667865 
L 662.161308 -128.632741 
L 662.56143 -129.597618 
L 662.93306 -130.562495 
L 663.276819 -131.527372 
L 663.59374 -132.492249 
L 663.885249 -133.457126 
L 664.153125 -134.422003 
L 664.39945 -135.38688 
L 664.62655 -136.351757 
L 664.836922 -137.316633 
L 665.03316 -138.28151 
L 665.217875 -139.246387 
L 665.393614 -140.211264 
L 665.562784 -141.176141 
L 665.727587 -142.141018 
L 665.889951 -143.105895 
L 673.319156 -143.105895 
L 673.319156 -143.105895 
L 673.481521 -142.141018 
L 673.646323 -141.176141 
L 673.815493 -140.211264 
L 673.991232 -139.246387 
L 674.175947 -138.28151 
L 674.372185 -137.316633 
L 674.582558 -136.351757 
L 674.809657 -135.38688 
L 675.055982 -134.422003 
L 675.323858 -133.457126 
L 675.615367 -132.492249 
L 675.932288 -131.527372 
L 676.276047 -130.562495 
L 676.647677 -129.597618 
L 677.047799 -128.632741 
L 677.476607 -127.667865 
L 677.933875 -126.702988 
L 678.418976 -125.738111 
L 678.930905 -124.773234 
L 679.468327 -123.808357 
L 680.029616 -122.84348 
L 680.612917 -121.878603 
L 681.216202 -120.913726 
L 681.837334 -119.948849 
L 682.474126 -118.983972 
L 683.124411 -118.019096 
L 683.786093 -117.054219 
L 684.457208 -116.089342 
L 685.135967 -115.124465 
L 685.820798 -114.159588 
L 686.510379 -113.194711 
L 687.203656 -112.229834 
L 687.899851 -111.264957 
L 688.59846 -110.30008 
L 689.299234 -109.335203 
L 690.00215 -108.370327 
L 690.707369 -107.40545 
L 691.415184 -106.440573 
L 692.125953 -105.475696 
L 692.840033 -104.510819 
L 693.557702 -103.545942 
L 694.279082 -102.581065 
L 695.00407 -101.616188 
L 695.732264 -100.651311 
L 696.462911 -99.686434 
L 697.194857 -98.721558 
L 697.926522 -97.756681 
L 698.655888 -96.791804 
L 699.380507 -95.826927 
L 700.097534 -94.86205 
L 700.803767 -93.897173 
L 701.495717 -92.932296 
L 702.169684 -91.967419 
L 702.821839 -91.002542 
L 703.448321 -90.037666 
L 704.045324 -89.072789 
L 704.609184 -88.107912 
L 705.136456 -87.143035 
L 705.623974 -86.178158 
L 706.068901 -85.213281 
L 706.468751 -84.248404 
L 706.821403 -83.283527 
L 707.125086 -82.31865 
L 707.378355 -81.353773 
L 707.580054 -80.388897 
L 707.729263 -79.42402 
L 707.825248 -78.459143 
L 707.867411 -77.494266 
L 707.855233 -76.529389 
L 707.788244 -75.564512 
L 707.66599 -74.599635 
L 707.488023 -73.634758 
L 707.2539 -72.669881 
L 706.963205 -71.705004 
L 706.615575 -70.740128 
L 706.210751 -69.775251 
L 705.748623 -68.810374 
L 705.229292 -67.845497 
L 704.653124 -66.88062 
L 704.02081 -65.915743 
L 703.333409 -64.950866 
L 702.592391 -63.985989 
L 701.79966 -63.021112 
L 700.957568 -62.056235 
L 700.068914 -61.091359 
L 699.136928 -60.126482 
L 698.165246 -59.161605 
L 697.157866 -58.196728 
L 696.119103 -57.231851 
L 695.053539 -56.266974 
L 693.965961 -55.302097 
L 692.861303 -54.33722 
L 691.744594 -53.372343 
L 690.620895 -52.407466 
L 689.495253 -51.44259 
L 688.372654 -50.477713 
L 687.257976 -49.512836 
L 686.155953 -48.547959 
L 685.071139 -47.583082 
z
" style="stroke: #303030; stroke-width: 1.25"/>
    </defs>
    <g clip-path="url(#p270eeee544)">
     <use xlink:href="#m6b491e0d60" x="0" y="214.195029" style="fill: #2f7499; stroke: #303030; stroke-width: 1.25"/>
    </g>
   </g>
   <g id="matplotlib.axis_5">
    <g id="xtick_5">
     <g id="line2d_31">
      <g>
       <use xlink:href="#m8399cc8e11" x="573.947411" y="175.588467" style="stroke: #000000; stroke-width: 0.8"/>
      </g>
     </g>
     <g id="text_23">
      <text style="font: 10px 'Arial'; text-anchor: middle" x="573.947411" y="189.746279" transform="rotate(-0 573.947411 189.746279)">PLP</text>
     </g>
    </g>
    <g id="xtick_6">
     <g id="line2d_32">
      <g>
       <use xlink:href="#m8399cc8e11" x="669.604554" y="175.588467" style="stroke: #000000; stroke-width: 0.8"/>
      </g>
     </g>
     <g id="text_24">
      <text style="font: 10px 'Arial'; text-anchor: middle" x="669.604554" y="189.746279" transform="rotate(-0 669.604554 189.746279)">BLB</text>
     </g>
    </g>
    <g id="text_25">
     <text style="font: 12px 'Arial'; text-anchor: middle" x="621.775982" y="204.469404" transform="rotate(-0 621.775982 204.469404)">ClinVar Category</text>
    </g>
   </g>
   <g id="matplotlib.axis_6">
    <g id="ytick_13">
     <g id="line2d_33">
      <g>
       <use xlink:href="#m8e03ff30a5" x="526.118839" y="169.299437" style="stroke: #000000; stroke-width: 0.8"/>
      </g>
     </g>
     <g id="text_26">
      <text style="font: 11px 'Arial'; text-anchor: end" x="519.118839" y="173.236234" transform="rotate(-0 519.118839 173.236234)">0.0</text>
     </g>
    </g>
    <g id="ytick_14">
     <g id="line2d_34">
      <g>
       <use xlink:href="#m8e03ff30a5" x="526.118839" y="137.666909" style="stroke: #000000; stroke-width: 0.8"/>
      </g>
     </g>
     <g id="text_27">
      <text style="font: 11px 'Arial'; text-anchor: end" x="519.118839" y="141.603706" transform="rotate(-0 519.118839 141.603706)">0.2</text>
     </g>
    </g>
    <g id="ytick_15">
     <g id="line2d_35">
      <g>
       <use xlink:href="#m8e03ff30a5" x="526.118839" y="106.034381" style="stroke: #000000; stroke-width: 0.8"/>
      </g>
     </g>
     <g id="text_28">
      <text style="font: 11px 'Arial'; text-anchor: end" x="519.118839" y="109.971178" transform="rotate(-0 519.118839 109.971178)">0.4</text>
     </g>
    </g>
    <g id="ytick_16">
     <g id="line2d_36">
      <g>
       <use xlink:href="#m8e03ff30a5" x="526.118839" y="74.401853" style="stroke: #000000; stroke-width: 0.8"/>
      </g>
     </g>
     <g id="text_29">
      <text style="font: 11px 'Arial'; text-anchor: end" x="519.118839" y="78.33865" transform="rotate(-0 519.118839 78.33865)">0.6</text>
     </g>
    </g>
    <g id="ytick_17">
     <g id="line2d_37">
      <g>
       <use xlink:href="#m8e03ff30a5" x="526.118839" y="42.769325" style="stroke: #000000; stroke-width: 0.8"/>
      </g>
     </g>
     <g id="text_30">
      <text style="font: 11px 'Arial'; text-anchor: end" x="519.118839" y="46.706122" transform="rotate(-0 519.118839 46.706122)">0.8</text>
     </g>
    </g>
    <g id="ytick_18">
     <g id="line2d_38">
      <g>
       <use xlink:href="#m8e03ff30a5" x="526.118839" y="11.136797" style="stroke: #000000; stroke-width: 0.8"/>
      </g>
     </g>
     <g id="text_31">
      <text style="font: 11px 'Arial'; text-anchor: end" x="519.118839" y="15.073594" transform="rotate(-0 519.118839 15.073594)">1.0</text>
     </g>
    </g>
    <g id="text_32">
     <text style="font: 12px 'Arial'; text-anchor: middle" x="497.443839" y="92.428467" transform="rotate(-90 497.443839 92.428467)">PPI Perturbation Score</text>
    </g>
   </g>
   <g id="line2d_39">
    <path d="M 573.947411 169.198387 
L 573.947411 41.396788 
" clip-path="url(#p270eeee544)" style="fill: none; stroke: #303030; stroke-width: 1.875; stroke-linecap: square"/>
   </g>
   <g id="line2d_40">
    <path d="M 573.947411 143.558617 
L 573.947411 92.417388 
" clip-path="url(#p270eeee544)" style="fill: none; stroke: #303030; stroke-width: 5.625; stroke-linecap: square"/>
   </g>
   <g id="line2d_41">
    <path d="M 573.947411 124.639772 
" clip-path="url(#p270eeee544)" style="fill: none; stroke: #303030; stroke-width: 1.5; stroke-linecap: square"/>
    <g clip-path="url(#p270eeee544)">
     <use xlink:href="#md5bacf9f03" x="573.947411" y="124.639772" style="fill: #ffffff; stroke: #ffffff; stroke-width: 1.125"/>
    </g>
   </g>
   <g id="line2d_42">
    <path d="M 669.604554 166.611947 
L 669.604554 89.468357 
" clip-path="url(#p270eeee544)" style="fill: none; stroke: #303030; stroke-width: 1.875; stroke-linecap: square"/>
   </g>
   <g id="line2d_43">
    <path d="M 669.604554 147.066272 
L 669.604554 116.782559 
" clip-path="url(#p270eeee544)" style="fill: none; stroke: #303030; stroke-width: 5.625; stroke-linecap: square"/>
   </g>
   <g id="line2d_44">
    <path d="M 669.604554 131.634089 
" clip-path="url(#p270eeee544)" style="fill: none; stroke: #303030; stroke-width: 1.5; stroke-linecap: square"/>
    <g clip-path="url(#p270eeee544)">
     <use xlink:href="#md5bacf9f03" x="669.604554" y="131.634089" style="fill: #ffffff; stroke: #ffffff; stroke-width: 1.125"/>
    </g>
   </g>
   <g id="line2d_45">
    <path d="M 573.947411 34.3677 
L 573.947411 31.556065 
L 669.604554 31.556065 
L 669.604554 34.3677 
" style="fill: none; stroke: #333333; stroke-width: 1.5; stroke-linecap: square"/>
   </g>
   <g id="patch_13">
    <path d="M 526.118839 175.588467 
L 526.118839 9.268467 
" style="fill: none; stroke: #000000; stroke-width: 0.8; stroke-linejoin: miter; stroke-linecap: square"/>
   </g>
   <g id="patch_14">
    <path d="M 717.433125 175.588467 
L 717.433125 9.268467 
" style="fill: none; stroke: #000000; stroke-width: 0.8; stroke-linejoin: miter; stroke-linecap: square"/>
   </g>
   <g id="patch_15">
    <path d="M 526.118839 175.588467 
L 717.433125 175.588467 
" style="fill: none; stroke: #000000; stroke-width: 0.8; stroke-linejoin: miter; stroke-linecap: square"/>
   </g>
   <g id="patch_16">
    <path d="M 526.118839 9.268467 
L 717.433125 9.268467 
" style="fill: none; stroke: #000000; stroke-width: 0.8; stroke-linejoin: miter; stroke-linecap: square"/>
   </g>
   <g id="text_33">
    <text style="font: 12px 'Arial'; text-anchor: middle" x="621.775982" y="21.171065" transform="rotate(-0 621.775982 21.171065)">M.W.W. p = 6.637e-02</text>
   </g>
  </g>
 </g>
 <defs>
  <clipPath id="pd360831ae0">
   <rect x="47.833125" y="9.268467" width="191.314286" height="166.32"/>
  </clipPath>
  <clipPath id="p1c5a30ac56">
   <rect x="286.975982" y="9.268467" width="191.314286" height="166.32"/>
  </clipPath>
  <clipPath id="p270eeee544">
   <rect x="526.118839" y="9.268467" width="191.314286" height="166.32"/>
  </clipPath>
 </defs>
</svg>
