<?xml version="1.0" encoding="utf-8" standalone="no"?>
<!DOCTYPE svg PUBLIC "-//W3C//DTD SVG 1.1//EN"
  "http://www.w3.org/Graphics/SVG/1.1/DTD/svg11.dtd">
<svg xmlns:xlink="http://www.w3.org/1999/xlink" width="724.633125pt" height="214.195029pt" viewBox="0 0 724.633125 214.195029" xmlns="http://www.w3.org/2000/svg" version="1.1">
 <metadata>
  <rdf:RDF xmlns:dc="http://purl.org/dc/elements/1.1/" xmlns:cc="http://creativecommons.org/ns#" xmlns:rdf="http://www.w3.org/1999/02/22-rdf-syntax-ns#">
   <cc:Work>
    <dc:type rdf:resource="http://purl.org/dc/dcmitype/StillImage"/>
    <dc:date>2026-01-13T02:38:38.639807</dc:date>
    <dc:format>image/svg+xml</dc:format>
    <dc:creator>
     <cc:Agent>
      <dc:title>Matplotlib v3.7.5, https://matplotlib.org/</dc:title>
     </cc:Agent>
    </dc:creator>
   </cc:Work>
  </rdf:RDF>
 </metadata>
 <defs>
  <style type="text/css">*{stroke-linejoin: round; stroke-linecap: butt}</style>
 </defs>
 <g id="figure_1">
  <g id="patch_1">
   <path d="M 0 214.195029 
L 724.633125 214.195029 
L 724.633125 0 
L 0 0 
L 0 214.195029 
z
" style="fill: none"/>
  </g>
  <g id="axes_1">
   <g id="patch_2">
    <path d="M 47.833125 175.588467 
L 239.147411 175.588467 
L 239.147411 9.268467 
L 47.833125 9.268467 
L 47.833125 175.588467 
z
" style="fill: none"/>
   </g>
   <g id="PolyCollection_1">
    <defs>
     <path id="m16d800be71" d="M 95.917924 -44.996642 
L 95.405469 -44.996642 
L 95.408507 -46.287568 
L 95.420705 -47.578493 
L 95.438287 -48.869418 
L 95.456122 -50.160343 
L 95.468594 -51.451269 
L 95.470571 -52.742194 
L 95.458273 -54.033119 
L 95.429917 -55.324044 
L 95.386046 -56.61497 
L 95.329495 -57.905895 
L 95.264997 -59.19682 
L 95.198466 -60.487745 
L 95.136069 -61.778671 
L 95.083248 -63.069596 
L 95.043878 -64.360521 
L 95.019743 -65.651446 
L 95.010395 -66.942372 
L 95.013384 -68.233297 
L 95.024732 -69.524222 
L 95.039531 -70.815147 
L 95.052501 -72.106073 
L 95.058471 -73.396998 
L 95.052757 -74.687923 
L 95.031479 -75.978848 
L 94.991858 -77.269773 
L 94.932513 -78.560699 
L 94.85371 -79.851624 
L 94.757468 -81.142549 
L 94.647366 -82.433474 
L 94.527934 -83.7244 
L 94.403598 -85.015325 
L 94.277335 -86.30625 
L 94.149299 -87.597175 
L 94.0158 -88.888101 
L 93.868896 -90.179026 
L 93.696734 -91.469951 
L 93.484545 -92.760876 
L 93.216073 -94.051802 
L 92.875212 -95.342727 
L 92.447708 -96.633652 
L 91.922876 -97.924577 
L 91.295315 -99.215503 
L 90.566428 -100.506428 
L 89.745412 -101.797353 
L 88.84921 -103.088278 
L 87.901059 -104.379204 
L 86.927649 -105.670129 
L 85.955447 -106.961054 
L 85.007236 -108.251979 
L 84.100019 -109.542905 
L 83.24513 -110.83383 
L 82.450557 -112.124755 
L 81.72462 -113.41568 
L 81.079437 -114.706605 
L 80.53248 -115.997531 
L 80.105057 -117.288456 
L 79.817537 -118.579381 
L 79.682329 -119.870306 
L 79.696475 -121.161232 
L 79.836003 -122.452157 
L 80.053741 -123.743082 
L 80.281416 -125.034007 
L 80.435693 -126.324933 
L 80.426965 -127.615858 
L 80.169208 -128.906783 
L 79.589338 -130.197708 
L 78.634998 -131.488634 
L 77.280344 -132.779559 
L 75.529927 -134.070484 
L 73.420943 -135.361409 
L 71.023956 -136.652335 
L 68.441819 -137.94326 
L 65.806254 -139.234185 
L 63.271494 -140.52511 
L 61.004708 -141.816036 
L 59.173398 -143.106961 
L 57.930552 -144.397886 
L 57.398839 -145.688811 
L 57.655702 -146.979736 
L 58.721604 -148.270662 
L 60.553928 -149.561587 
L 63.04865 -150.852512 
L 66.050755 -152.143437 
L 69.372523 -153.434363 
L 72.8167 -154.725288 
L 76.200093 -156.016213 
L 79.372831 -157.307138 
L 82.229792 -158.598064 
L 84.712952 -159.888989 
L 86.805944 -161.179914 
L 88.523903 -162.470839 
L 89.902148 -163.761765 
L 90.986538 -165.05269 
L 91.82676 -166.343615 
L 92.472346 -167.63454 
L 92.970298 -168.925466 
L 93.363164 -170.216391 
L 93.686995 -171.507316 
L 93.969384 -172.798241 
L 97.354008 -172.798241 
L 97.354008 -172.798241 
L 97.636398 -171.507316 
L 97.960229 -170.216391 
L 98.353095 -168.925466 
L 98.851047 -167.63454 
L 99.496633 -166.343615 
L 100.336855 -165.05269 
L 101.421245 -163.761765 
L 102.79949 -162.470839 
L 104.517449 -161.179914 
L 106.610441 -159.888989 
L 109.0936 -158.598064 
L 111.950561 -157.307138 
L 115.1233 -156.016213 
L 118.506693 -154.725288 
L 121.95087 -153.434363 
L 125.272638 -152.143437 
L 128.274743 -150.852512 
L 130.769464 -149.561587 
L 132.601789 -148.270662 
L 133.667691 -146.979736 
L 133.924554 -145.688811 
L 133.392841 -144.397886 
L 132.149995 -143.106961 
L 130.318685 -141.816036 
L 128.051899 -140.52511 
L 125.517139 -139.234185 
L 122.881574 -137.94326 
L 120.299437 -136.652335 
L 117.90245 -135.361409 
L 115.793466 -134.070484 
L 114.043049 -132.779559 
L 112.688395 -131.488634 
L 111.734055 -130.197708 
L 111.154185 -128.906783 
L 110.896428 -127.615858 
L 110.8877 -126.324933 
L 111.041977 -125.034007 
L 111.269652 -123.743082 
L 111.48739 -122.452157 
L 111.626917 -121.161232 
L 111.641064 -119.870306 
L 111.505856 -118.579381 
L 111.218336 -117.288456 
L 110.790913 -115.997531 
L 110.243956 -114.706605 
L 109.598773 -113.41568 
L 108.872836 -112.124755 
L 108.078263 -110.83383 
L 107.223374 -109.542905 
L 106.316157 -108.251979 
L 105.367945 -106.961054 
L 104.395744 -105.670129 
L 103.422334 -104.379204 
L 102.474183 -103.088278 
L 101.57798 -101.797353 
L 100.756965 -100.506428 
L 100.028078 -99.215503 
L 99.400516 -97.924577 
L 98.875685 -96.633652 
L 98.448181 -95.342727 
L 98.10732 -94.051802 
L 97.838848 -92.760876 
L 97.626659 -91.469951 
L 97.454497 -90.179026 
L 97.307593 -88.888101 
L 97.174094 -87.597175 
L 97.046058 -86.30625 
L 96.919795 -85.015325 
L 96.795459 -83.7244 
L 96.676026 -82.433474 
L 96.565925 -81.142549 
L 96.469683 -79.851624 
L 96.39088 -78.560699 
L 96.331535 -77.269773 
L 96.291914 -75.978848 
L 96.270636 -74.687923 
L 96.264922 -73.396998 
L 96.270892 -72.106073 
L 96.283862 -70.815147 
L 96.29866 -69.524222 
L 96.310009 -68.233297 
L 96.312998 -66.942372 
L 96.30365 -65.651446 
L 96.279515 -64.360521 
L 96.240145 -63.069596 
L 96.187324 -61.778671 
L 96.124927 -60.487745 
L 96.058396 -59.19682 
L 95.993898 -57.905895 
L 95.937347 -56.61497 
L 95.893476 -55.324044 
L 95.86512 -54.033119 
L 95.852822 -52.742194 
L 95.854799 -51.451269 
L 95.867271 -50.160343 
L 95.885106 -48.869418 
L 95.902688 -47.578493 
L 95.914886 -46.287568 
L 95.917924 -44.996642 
z
" style="stroke: #303030; stroke-width: 1.25"/>
    </defs>
    <g clip-path="url(#p1fd23b94da)">
     <use xlink:href="#m16d800be71" x="0" y="214.195029" style="fill: #c08089; stroke: #303030; stroke-width: 1.25"/>
    </g>
   </g>
   <g id="PolyCollection_2">
    <defs>
     <path id="me3c96dee63" d="M 193.925319 -124.434016 
L 188.71236 -124.434016 
L 188.535879 -124.770483 
L 188.368824 -125.10695 
L 188.21317 -125.443418 
L 188.070544 -125.779885 
L 187.942174 -126.116352 
L 187.828846 -126.45282 
L 187.73088 -126.789287 
L 187.648119 -127.125754 
L 187.579932 -127.462222 
L 187.525234 -127.798689 
L 187.482518 -128.135156 
L 187.449903 -128.471624 
L 187.425195 -128.808091 
L 187.40596 -129.144558 
L 187.389603 -129.481025 
L 187.373454 -129.817493 
L 187.354851 -130.15396 
L 187.33122 -130.490427 
L 187.300135 -130.826895 
L 187.259375 -131.163362 
L 187.206943 -131.499829 
L 187.14108 -131.836297 
L 187.060245 -132.172764 
L 186.963087 -132.509231 
L 186.848399 -132.845699 
L 186.715066 -133.182166 
L 186.562016 -133.518633 
L 186.388176 -133.855101 
L 186.192438 -134.191568 
L 185.973638 -134.528035 
L 185.730547 -134.864502 
L 185.461868 -135.20097 
L 185.166241 -135.537437 
L 184.84224 -135.873904 
L 184.488371 -136.210372 
L 184.10305 -136.546839 
L 183.684573 -136.883306 
L 183.23108 -137.219774 
L 182.740501 -137.556241 
L 182.210513 -137.892708 
L 181.638511 -138.229176 
L 181.021593 -138.565643 
L 180.356583 -138.90211 
L 179.640104 -139.238577 
L 178.868691 -139.575045 
L 178.038967 -139.911512 
L 177.147867 -140.247979 
L 176.192907 -140.584447 
L 175.172492 -140.920914 
L 174.086234 -141.257381 
L 172.935279 -141.593849 
L 171.722591 -141.930316 
L 170.453203 -142.266783 
L 169.134383 -142.603251 
L 167.775709 -142.939718 
L 166.389033 -143.276185 
L 164.988329 -143.612653 
L 163.589417 -143.94912 
L 162.209572 -144.285587 
L 160.867042 -144.622054 
L 159.580481 -144.958522 
L 158.368349 -145.294989 
L 157.248285 -145.631456 
L 156.236522 -145.967924 
L 155.347346 -146.304391 
L 154.592656 -146.640858 
L 153.981635 -146.977326 
L 153.520558 -147.313793 
L 153.212737 -147.65026 
L 153.058616 -147.986728 
L 153.055982 -148.323195 
L 153.200297 -148.659662 
L 153.4851 -148.996129 
L 153.902458 -149.332597 
L 154.443431 -149.669064 
L 155.098517 -150.005531 
L 155.85803 -150.341999 
L 156.71242 -150.678466 
L 157.652487 -151.014933 
L 158.669503 -151.351401 
L 159.755238 -151.687868 
L 160.901915 -152.024335 
L 162.10209 -152.360803 
L 163.348513 -152.69727 
L 164.633974 -153.033737 
L 165.951158 -153.370204 
L 167.292553 -153.706672 
L 168.65039 -154.043139 
L 170.016651 -154.379606 
L 171.383131 -154.716074 
L 172.741541 -155.052541 
L 174.083659 -155.389008 
L 175.401484 -155.725476 
L 176.687411 -156.061943 
L 177.934382 -156.39841 
L 179.136018 -156.734878 
L 180.286725 -157.071345 
L 181.381758 -157.407812 
L 182.417257 -157.74428 
L 200.220422 -157.74428 
L 200.220422 -157.74428 
L 201.255921 -157.407812 
L 202.350953 -157.071345 
L 203.50166 -156.734878 
L 204.703297 -156.39841 
L 205.950268 -156.061943 
L 207.236195 -155.725476 
L 208.55402 -155.389008 
L 209.896137 -155.052541 
L 211.254548 -154.716074 
L 212.621028 -154.379606 
L 213.987289 -154.043139 
L 215.345126 -153.706672 
L 216.68652 -153.370204 
L 218.003705 -153.033737 
L 219.289165 -152.69727 
L 220.535589 -152.360803 
L 221.735764 -152.024335 
L 222.88244 -151.687868 
L 223.968176 -151.351401 
L 224.985191 -151.014933 
L 225.925258 -150.678466 
L 226.779649 -150.341999 
L 227.539162 -150.005531 
L 228.194247 -149.669064 
L 228.735221 -149.332597 
L 229.152579 -148.996129 
L 229.437381 -148.659662 
L 229.581696 -148.323195 
L 229.579063 -147.986728 
L 229.424942 -147.65026 
L 229.117121 -147.313793 
L 228.656043 -146.977326 
L 228.045023 -146.640858 
L 227.290333 -146.304391 
L 226.401157 -145.967924 
L 225.389393 -145.631456 
L 224.26933 -145.294989 
L 223.057197 -144.958522 
L 221.770637 -144.622054 
L 220.428107 -144.285587 
L 219.048262 -143.94912 
L 217.649349 -143.612653 
L 216.248645 -143.276185 
L 214.861969 -142.939718 
L 213.503295 -142.603251 
L 212.184475 -142.266783 
L 210.915088 -141.930316 
L 209.7024 -141.593849 
L 208.551444 -141.257381 
L 207.465187 -140.920914 
L 206.444771 -140.584447 
L 205.489811 -140.247979 
L 204.598711 -139.911512 
L 203.768988 -139.575045 
L 202.997575 -139.238577 
L 202.281096 -138.90211 
L 201.616086 -138.565643 
L 200.999167 -138.229176 
L 200.427165 -137.892708 
L 199.897178 -137.556241 
L 199.406598 -137.219774 
L 198.953105 -136.883306 
L 198.534629 -136.546839 
L 198.149308 -136.210372 
L 197.795438 -135.873904 
L 197.471438 -135.537437 
L 197.17581 -135.20097 
L 196.907132 -134.864502 
L 196.664041 -134.528035 
L 196.445241 -134.191568 
L 196.249503 -133.855101 
L 196.075663 -133.518633 
L 195.922612 -133.182166 
L 195.789279 -132.845699 
L 195.674591 -132.509231 
L 195.577434 -132.172764 
L 195.496599 -131.836297 
L 195.430735 -131.499829 
L 195.378304 -131.163362 
L 195.337543 -130.826895 
L 195.306459 -130.490427 
L 195.282827 -130.15396 
L 195.264225 -129.817493 
L 195.248075 -129.481025 
L 195.231718 -129.144558 
L 195.212484 -128.808091 
L 195.187776 -128.471624 
L 195.155161 -128.135156 
L 195.112445 -127.798689 
L 195.057747 -127.462222 
L 194.98956 -127.125754 
L 194.906798 -126.789287 
L 194.808832 -126.45282 
L 194.695504 -126.116352 
L 194.567134 -125.779885 
L 194.424509 -125.443418 
L 194.268855 -125.10695 
L 194.1018 -124.770483 
L 193.925319 -124.434016 
z
" style="stroke: #303030; stroke-width: 1.25"/>
    </defs>
    <g clip-path="url(#p1fd23b94da)">
     <use xlink:href="#me3c96dee63" x="0" y="214.195029" style="fill: #2f7499; stroke: #303030; stroke-width: 1.25"/>
    </g>
   </g>
   <g id="matplotlib.axis_1">
    <g id="xtick_1">
     <g id="line2d_1">
      <defs>
       <path id="me3750a079a" d="M 0 0 
L 0 3.5 
" style="stroke: #000000; stroke-width: 0.8"/>
      </defs>
      <g>
       <use xlink:href="#me3750a079a" x="95.661696" y="175.588467" style="stroke: #000000; stroke-width: 0.8"/>
      </g>
     </g>
     <g id="text_1">
      <text style="font: 10px 'Arial'; text-anchor: middle" x="95.661696" y="189.746279" transform="rotate(-0 95.661696 189.746279)">PLP</text>
     </g>
    </g>
    <g id="xtick_2">
     <g id="line2d_2">
      <g>
       <use xlink:href="#me3750a079a" x="191.318839" y="175.588467" style="stroke: #000000; stroke-width: 0.8"/>
      </g>
     </g>
     <g id="text_2">
      <text style="font: 10px 'Arial'; text-anchor: middle" x="191.318839" y="189.746279" transform="rotate(-0 191.318839 189.746279)">BLB</text>
     </g>
    </g>
   </g>
   <g id="matplotlib.axis_2">
    <g id="ytick_1">
     <g id="line2d_3">
      <defs>
       <path id="m70714225d6" d="M 0 0 
L -3.5 0 
" style="stroke: #000000; stroke-width: 0.8"/>
      </defs>
      <g>
       <use xlink:href="#m70714225d6" x="47.833125" y="152.916162" style="stroke: #000000; stroke-width: 0.8"/>
      </g>
     </g>
     <g id="text_3">
      <text style="font: 11px 'Arial'; text-anchor: end" x="40.833125" y="156.852959" transform="rotate(-0 40.833125 156.852959)">−15</text>
     </g>
    </g>
    <g id="ytick_2">
     <g id="line2d_4">
      <g>
       <use xlink:href="#m70714225d6" x="47.833125" y="123.868782" style="stroke: #000000; stroke-width: 0.8"/>
      </g>
     </g>
     <g id="text_4">
      <text style="font: 11px 'Arial'; text-anchor: end" x="40.833125" y="127.805579" transform="rotate(-0 40.833125 127.805579)">−10</text>
     </g>
    </g>
    <g id="ytick_3">
     <g id="line2d_5">
      <g>
       <use xlink:href="#m70714225d6" x="47.833125" y="94.821402" style="stroke: #000000; stroke-width: 0.8"/>
      </g>
     </g>
     <g id="text_5">
      <text style="font: 11px 'Arial'; text-anchor: end" x="40.833125" y="98.758199" transform="rotate(-0 40.833125 98.758199)">−5</text>
     </g>
    </g>
    <g id="ytick_4">
     <g id="line2d_6">
      <g>
       <use xlink:href="#m70714225d6" x="47.833125" y="65.774022" style="stroke: #000000; stroke-width: 0.8"/>
      </g>
     </g>
     <g id="text_6">
      <text style="font: 11px 'Arial'; text-anchor: end" x="40.833125" y="69.710819" transform="rotate(-0 40.833125 69.710819)">0</text>
     </g>
    </g>
    <g id="ytick_5">
     <g id="line2d_7">
      <g>
       <use xlink:href="#m70714225d6" x="47.833125" y="36.726642" style="stroke: #000000; stroke-width: 0.8"/>
      </g>
     </g>
     <g id="text_7">
      <text style="font: 11px 'Arial'; text-anchor: end" x="40.833125" y="40.663438" transform="rotate(-0 40.833125 40.663438)">5</text>
     </g>
    </g>
    <g id="text_8">
     <text style="font: 12px 'Arial'; text-anchor: middle" x="15.789375" y="92.428467" transform="rotate(-90 15.789375 92.428467)">Abundance Score</text>
    </g>
   </g>
   <g id="line2d_8">
    <path d="M 95.661696 128.736726 
L 95.661696 41.396788 
" clip-path="url(#p1fd23b94da)" style="fill: none; stroke: #303030; stroke-width: 1.875; stroke-linecap: square"/>
   </g>
   <g id="line2d_9">
    <path d="M 95.661696 92.200726 
L 95.661696 65.769734 
" clip-path="url(#p1fd23b94da)" style="fill: none; stroke: #303030; stroke-width: 5.625; stroke-linecap: square"/>
   </g>
   <g id="line2d_10">
    <path d="M 95.661696 73.03966 
" clip-path="url(#p1fd23b94da)" style="fill: none; stroke: #303030; stroke-width: 1.5; stroke-linecap: square"/>
    <defs>
     <path id="mc5ac916204" d="M 2.34375 0 
L -2.34375 -0 
" style="stroke: #ffffff; stroke-width: 1.125"/>
    </defs>
    <g clip-path="url(#p1fd23b94da)">
     <use xlink:href="#mc5ac916204" x="95.661696" y="73.03966" style="fill: #ffffff; stroke: #ffffff; stroke-width: 1.125"/>
    </g>
   </g>
   <g id="line2d_11">
    <path d="M 191.318839 77.216288 
L 191.318839 56.45075 
" clip-path="url(#p1fd23b94da)" style="fill: none; stroke: #303030; stroke-width: 1.875; stroke-linecap: square"/>
   </g>
   <g id="line2d_12">
    <path d="M 191.318839 69.918894 
L 191.318839 63.1681 
" clip-path="url(#p1fd23b94da)" style="fill: none; stroke: #303030; stroke-width: 5.625; stroke-linecap: square"/>
   </g>
   <g id="line2d_13">
    <path d="M 191.318839 66.588036 
" clip-path="url(#p1fd23b94da)" style="fill: none; stroke: #303030; stroke-width: 1.5; stroke-linecap: square"/>
    <g clip-path="url(#p1fd23b94da)">
     <use xlink:href="#mc5ac916204" x="191.318839" y="66.588036" style="fill: #ffffff; stroke: #ffffff; stroke-width: 1.125"/>
    </g>
   </g>
   <g id="line2d_14">
    <path d="M 95.661696 34.3677 
L 95.661696 31.556065 
L 191.318839 31.556065 
L 191.318839 34.3677 
" style="fill: none; stroke: #333333; stroke-width: 1.5; stroke-linecap: square"/>
   </g>
   <g id="patch_3">
    <path d="M 47.833125 175.588467 
L 47.833125 9.268467 
" style="fill: none; stroke: #000000; stroke-width: 0.8; stroke-linejoin: miter; stroke-linecap: square"/>
   </g>
   <g id="patch_4">
    <path d="M 47.833125 175.588467 
L 239.147411 175.588467 
" style="fill: none; stroke: #000000; stroke-width: 0.8; stroke-linejoin: miter; stroke-linecap: square"/>
   </g>
   <g id="text_9">
    <text style="font: 12px 'Arial'; text-anchor: middle" x="143.490268" y="21.171065" transform="rotate(-0 143.490268 21.171065)">p = 6.183e-08</text>
   </g>
  </g>
  <g id="axes_2">
   <g id="patch_5">
    <path d="M 286.975982 175.588467 
L 478.290268 175.588467 
L 478.290268 9.268467 
L 286.975982 9.268467 
L 286.975982 175.588467 
z
" style="fill: none"/>
   </g>
   <g id="PolyCollection_3">
    <defs>
     <path id="m5ad8e4ed1b" d="M 349.197328 -44.996642 
L 320.411779 -44.996642 
L 318.959462 -46.287568 
L 317.493255 -47.578493 
L 316.025036 -48.869418 
L 314.565186 -50.160343 
L 313.122402 -51.451269 
L 311.703713 -52.742194 
L 310.314704 -54.033119 
L 308.959905 -55.324044 
L 307.643295 -56.61497 
L 306.368843 -57.905895 
L 305.141009 -59.19682 
L 303.96513 -60.487745 
L 302.847641 -61.778671 
L 301.796077 -63.069596 
L 300.818865 -64.360521 
L 299.924914 -65.651446 
L 299.123057 -66.942372 
L 298.421408 -68.233297 
L 297.826719 -69.524222 
L 297.343814 -70.815147 
L 296.975177 -72.106073 
L 296.720734 -73.396998 
L 296.577877 -74.687923 
L 296.541696 -75.978848 
L 296.605421 -77.269773 
L 296.760982 -78.560699 
L 296.999638 -79.851624 
L 297.312595 -81.142549 
L 297.691524 -82.433474 
L 298.128941 -83.7244 
L 298.618402 -85.015325 
L 299.154517 -86.30625 
L 299.732795 -87.597175 
L 300.349364 -88.888101 
L 301.000627 -90.179026 
L 301.68291 -91.469951 
L 302.392162 -92.760876 
L 303.123763 -94.051802 
L 303.872436 -95.342727 
L 304.632311 -96.633652 
L 305.39708 -97.924577 
L 306.160248 -99.215503 
L 306.915414 -100.506428 
L 307.65655 -101.797353 
L 308.378235 -103.088278 
L 309.075813 -104.379204 
L 309.745472 -105.670129 
L 310.384222 -106.961054 
L 310.989822 -108.251979 
L 311.560644 -109.542905 
L 312.095535 -110.83383 
L 312.593684 -112.124755 
L 313.054529 -113.41568 
L 313.477717 -114.706605 
L 313.863104 -115.997531 
L 314.210807 -117.288456 
L 314.521272 -118.579381 
L 314.79534 -119.870306 
L 315.034294 -121.161232 
L 315.23986 -122.452157 
L 315.414174 -123.743082 
L 315.559689 -125.034007 
L 315.679075 -126.324933 
L 315.775107 -127.615858 
L 315.850585 -128.906783 
L 315.908314 -130.197708 
L 315.951155 -131.488634 
L 315.982167 -132.779559 
L 316.004813 -134.070484 
L 316.023221 -135.361409 
L 316.042444 -136.652335 
L 316.068673 -137.94326 
L 316.109348 -139.234185 
L 316.173128 -140.52511 
L 316.269676 -141.816036 
L 316.409258 -143.106961 
L 316.602181 -144.397886 
L 316.8581 -145.688811 
L 317.185265 -146.979736 
L 317.589796 -148.270662 
L 318.075052 -149.561587 
L 318.641187 -150.852512 
L 319.284934 -152.143437 
L 319.999665 -153.434363 
L 320.775712 -154.725288 
L 321.600925 -156.016213 
L 322.461413 -157.307138 
L 323.342387 -158.598064 
L 324.229028 -159.888989 
L 325.107296 -161.179914 
L 325.964604 -162.470839 
L 326.790322 -163.761765 
L 327.576076 -165.05269 
L 328.315843 -166.343615 
L 329.005856 -167.63454 
L 329.644373 -168.925466 
L 330.231334 -170.216391 
L 330.767981 -171.507316 
L 331.256459 -172.798241 
L 338.352648 -172.798241 
L 338.352648 -172.798241 
L 338.841126 -171.507316 
L 339.377773 -170.216391 
L 339.964735 -168.925466 
L 340.603251 -167.63454 
L 341.293264 -166.343615 
L 342.033031 -165.05269 
L 342.818785 -163.761765 
L 343.644503 -162.470839 
L 344.501811 -161.179914 
L 345.380079 -159.888989 
L 346.266721 -158.598064 
L 347.147695 -157.307138 
L 348.008182 -156.016213 
L 348.833395 -154.725288 
L 349.609442 -153.434363 
L 350.324174 -152.143437 
L 350.96792 -150.852512 
L 351.534055 -149.561587 
L 352.019311 -148.270662 
L 352.423842 -146.979736 
L 352.751008 -145.688811 
L 353.006926 -144.397886 
L 353.19985 -143.106961 
L 353.339432 -141.816036 
L 353.435979 -140.52511 
L 353.499759 -139.234185 
L 353.540435 -137.94326 
L 353.566663 -136.652335 
L 353.585886 -135.361409 
L 353.604294 -134.070484 
L 353.626941 -132.779559 
L 353.657952 -131.488634 
L 353.700794 -130.197708 
L 353.758522 -128.906783 
L 353.834 -127.615858 
L 353.930032 -126.324933 
L 354.049418 -125.034007 
L 354.194934 -123.743082 
L 354.369247 -122.452157 
L 354.574814 -121.161232 
L 354.813767 -119.870306 
L 355.087835 -118.579381 
L 355.3983 -117.288456 
L 355.746003 -115.997531 
L 356.13139 -114.706605 
L 356.554578 -113.41568 
L 357.015423 -112.124755 
L 357.513572 -110.83383 
L 358.048463 -109.542905 
L 358.619285 -108.251979 
L 359.224885 -106.961054 
L 359.863636 -105.670129 
L 360.533294 -104.379204 
L 361.230873 -103.088278 
L 361.952557 -101.797353 
L 362.693693 -100.506428 
L 363.448859 -99.215503 
L 364.212027 -97.924577 
L 364.976796 -96.633652 
L 365.736671 -95.342727 
L 366.485344 -94.051802 
L 367.216945 -92.760876 
L 367.926198 -91.469951 
L 368.60848 -90.179026 
L 369.259743 -88.888101 
L 369.876312 -87.597175 
L 370.45459 -86.30625 
L 370.990706 -85.015325 
L 371.480166 -83.7244 
L 371.917583 -82.433474 
L 372.296512 -81.142549 
L 372.609469 -79.851624 
L 372.848126 -78.560699 
L 373.003686 -77.269773 
L 373.067411 -75.978848 
L 373.031231 -74.687923 
L 372.888373 -73.396998 
L 372.633931 -72.106073 
L 372.265293 -70.815147 
L 371.782389 -69.524222 
L 371.187699 -68.233297 
L 370.48605 -66.942372 
L 369.684193 -65.651446 
L 368.790242 -64.360521 
L 367.81303 -63.069596 
L 366.761466 -61.778671 
L 365.643977 -60.487745 
L 364.468098 -59.19682 
L 363.240264 -57.905895 
L 361.965812 -56.61497 
L 360.649202 -55.324044 
L 359.294403 -54.033119 
L 357.905394 -52.742194 
L 356.486705 -51.451269 
L 355.043922 -50.160343 
L 353.584072 -48.869418 
L 352.115852 -47.578493 
L 350.649646 -46.287568 
L 349.197328 -44.996642 
z
" style="stroke: #303030; stroke-width: 1.25"/>
    </defs>
    <g clip-path="url(#p77def3994a)">
     <use xlink:href="#m5ad8e4ed1b" x="0" y="214.195029" style="fill: #c08089; stroke: #303030; stroke-width: 1.25"/>
    </g>
   </g>
   <g id="PolyCollection_4">
    <defs>
     <path id="m57fe4edd87" d="M 445.928282 -47.583082 
L 414.995111 -47.583082 
L 413.910297 -48.547959 
L 412.808274 -49.512836 
L 411.693596 -50.477713 
L 410.570997 -51.44259 
L 409.445355 -52.407466 
L 408.321656 -53.372343 
L 407.204947 -54.33722 
L 406.100289 -55.302097 
L 405.012711 -56.266974 
L 403.947147 -57.231851 
L 402.908384 -58.196728 
L 401.901004 -59.161605 
L 400.929322 -60.126482 
L 399.997336 -61.091359 
L 399.108682 -62.056235 
L 398.26659 -63.021112 
L 397.473859 -63.985989 
L 396.732841 -64.950866 
L 396.04544 -65.915743 
L 395.413126 -66.88062 
L 394.836958 -67.845497 
L 394.317627 -68.810374 
L 393.855499 -69.775251 
L 393.450675 -70.740128 
L 393.103045 -71.705004 
L 392.81235 -72.669881 
L 392.578227 -73.634758 
L 392.40026 -74.599635 
L 392.278006 -75.564512 
L 392.211017 -76.529389 
L 392.198839 -77.494266 
L 392.241002 -78.459143 
L 392.336987 -79.42402 
L 392.486196 -80.388897 
L 392.687895 -81.353773 
L 392.941164 -82.31865 
L 393.244847 -83.283527 
L 393.597499 -84.248404 
L 393.997349 -85.213281 
L 394.442276 -86.178158 
L 394.929794 -87.143035 
L 395.457066 -88.107912 
L 396.020926 -89.072789 
L 396.617929 -90.037666 
L 397.244411 -91.002542 
L 397.896566 -91.967419 
L 398.570533 -92.932296 
L 399.262483 -93.897173 
L 399.968716 -94.86205 
L 400.685743 -95.826927 
L 401.410362 -96.791804 
L 402.139728 -97.756681 
L 402.871393 -98.721558 
L 403.603339 -99.686434 
L 404.333986 -100.651311 
L 405.06218 -101.616188 
L 405.787168 -102.581065 
L 406.508548 -103.545942 
L 407.226217 -104.510819 
L 407.940297 -105.475696 
L 408.651066 -106.440573 
L 409.358881 -107.40545 
L 410.0641 -108.370327 
L 410.767016 -109.335203 
L 411.46779 -110.30008 
L 412.166399 -111.264957 
L 412.862594 -112.229834 
L 413.555871 -113.194711 
L 414.245452 -114.159588 
L 414.930283 -115.124465 
L 415.609042 -116.089342 
L 416.280157 -117.054219 
L 416.941839 -118.019096 
L 417.592124 -118.983972 
L 418.228916 -119.948849 
L 418.850048 -120.913726 
L 419.453333 -121.878603 
L 420.036634 -122.84348 
L 420.597923 -123.808357 
L 421.135345 -124.773234 
L 421.647274 -125.738111 
L 422.132375 -126.702988 
L 422.589643 -127.667865 
L 423.018451 -128.632741 
L 423.418573 -129.597618 
L 423.790203 -130.562495 
L 424.133962 -131.527372 
L 424.450883 -132.492249 
L 424.742392 -133.457126 
L 425.010268 -134.422003 
L 425.256593 -135.38688 
L 425.483692 -136.351757 
L 425.694065 -137.316633 
L 425.890303 -138.28151 
L 426.075018 -139.246387 
L 426.250757 -140.211264 
L 426.419927 -141.176141 
L 426.584729 -142.141018 
L 426.747094 -143.105895 
L 434.176299 -143.105895 
L 434.176299 -143.105895 
L 434.338663 -142.141018 
L 434.503466 -141.176141 
L 434.672636 -140.211264 
L 434.848375 -139.246387 
L 435.03309 -138.28151 
L 435.229328 -137.316633 
L 435.4397 -136.351757 
L 435.6668 -135.38688 
L 435.913125 -134.422003 
L 436.181001 -133.457126 
L 436.47251 -132.492249 
L 436.789431 -131.527372 
L 437.13319 -130.562495 
L 437.50482 -129.597618 
L 437.904942 -128.632741 
L 438.33375 -127.667865 
L 438.791018 -126.702988 
L 439.276118 -125.738111 
L 439.788048 -124.773234 
L 440.32547 -123.808357 
L 440.886759 -122.84348 
L 441.47006 -121.878603 
L 442.073345 -120.913726 
L 442.694476 -119.948849 
L 443.331269 -118.983972 
L 443.981554 -118.019096 
L 444.643236 -117.054219 
L 445.314351 -116.089342 
L 445.993109 -115.124465 
L 446.677941 -114.159588 
L 447.367522 -113.194711 
L 448.060799 -112.229834 
L 448.756994 -111.264957 
L 449.455603 -110.30008 
L 450.156377 -109.335203 
L 450.859292 -108.370327 
L 451.564512 -107.40545 
L 452.272327 -106.440573 
L 452.983096 -105.475696 
L 453.697176 -104.510819 
L 454.414844 -103.545942 
L 455.136225 -102.581065 
L 455.861213 -101.616188 
L 456.589407 -100.651311 
L 457.320054 -99.686434 
L 458.052 -98.721558 
L 458.783665 -97.756681 
L 459.513031 -96.791804 
L 460.23765 -95.826927 
L 460.954677 -94.86205 
L 461.66091 -93.897173 
L 462.35286 -92.932296 
L 463.026827 -91.967419 
L 463.678982 -91.002542 
L 464.305464 -90.037666 
L 464.902467 -89.072789 
L 465.466327 -88.107912 
L 465.993599 -87.143035 
L 466.481117 -86.178158 
L 466.926044 -85.213281 
L 467.325894 -84.248404 
L 467.678546 -83.283527 
L 467.982228 -82.31865 
L 468.235498 -81.353773 
L 468.437196 -80.388897 
L 468.586405 -79.42402 
L 468.682391 -78.459143 
L 468.724554 -77.494266 
L 468.712376 -76.529389 
L 468.645387 -75.564512 
L 468.523133 -74.599635 
L 468.345166 -73.634758 
L 468.111043 -72.669881 
L 467.820348 -71.705004 
L 467.472718 -70.740128 
L 467.067894 -69.775251 
L 466.605766 -68.810374 
L 466.086434 -67.845497 
L 465.510267 -66.88062 
L 464.877953 -65.915743 
L 464.190552 -64.950866 
L 463.449534 -63.985989 
L 462.656803 -63.021112 
L 461.81471 -62.056235 
L 460.926056 -61.091359 
L 459.994071 -60.126482 
L 459.022389 -59.161605 
L 458.015008 -58.196728 
L 456.976246 -57.231851 
L 455.910682 -56.266974 
L 454.823104 -55.302097 
L 453.718446 -54.33722 
L 452.601737 -53.372343 
L 451.478037 -52.407466 
L 450.352396 -51.44259 
L 449.229797 -50.477713 
L 448.115118 -49.512836 
L 447.013096 -48.547959 
L 445.928282 -47.583082 
z
" style="stroke: #303030; stroke-width: 1.25"/>
    </defs>
    <g clip-path="url(#p77def3994a)">
     <use xlink:href="#m57fe4edd87" x="0" y="214.195029" style="fill: #2f7499; stroke: #303030; stroke-width: 1.25"/>
    </g>
   </g>
   <g id="matplotlib.axis_3">
    <g id="xtick_3">
     <g id="line2d_15">
      <g>
       <use xlink:href="#me3750a079a" x="334.804554" y="175.588467" style="stroke: #000000; stroke-width: 0.8"/>
      </g>
     </g>
     <g id="text_10">
      <text style="font: 10px 'Arial'; text-anchor: middle" x="334.804554" y="189.746279" transform="rotate(-0 334.804554 189.746279)">PLP</text>
     </g>
    </g>
    <g id="xtick_4">
     <g id="line2d_16">
      <g>
       <use xlink:href="#me3750a079a" x="430.461696" y="175.588467" style="stroke: #000000; stroke-width: 0.8"/>
      </g>
     </g>
     <g id="text_11">
      <text style="font: 10px 'Arial'; text-anchor: middle" x="430.461696" y="189.746279" transform="rotate(-0 430.461696 189.746279)">BLB</text>
     </g>
    </g>
    <g id="text_12">
     <text style="font: 12px 'Arial'; text-anchor: middle" x="382.633125" y="204.469404" transform="rotate(-0 382.633125 204.469404)">Clinical Significance</text>
    </g>
   </g>
   <g id="matplotlib.axis_4">
    <g id="ytick_6">
     <g id="line2d_17">
      <g>
       <use xlink:href="#m70714225d6" x="286.975982" y="169.299437" style="stroke: #000000; stroke-width: 0.8"/>
      </g>
     </g>
     <g id="text_13">
      <text style="font: 11px 'Arial'; text-anchor: end" x="279.975982" y="173.236234" transform="rotate(-0 279.975982 173.236234)">0.0</text>
     </g>
    </g>
    <g id="ytick_7">
     <g id="line2d_18">
      <g>
       <use xlink:href="#m70714225d6" x="286.975982" y="137.666909" style="stroke: #000000; stroke-width: 0.8"/>
      </g>
     </g>
     <g id="text_14">
      <text style="font: 11px 'Arial'; text-anchor: end" x="279.975982" y="141.603706" transform="rotate(-0 279.975982 141.603706)">0.2</text>
     </g>
    </g>
    <g id="ytick_8">
     <g id="line2d_19">
      <g>
       <use xlink:href="#m70714225d6" x="286.975982" y="106.034381" style="stroke: #000000; stroke-width: 0.8"/>
      </g>
     </g>
     <g id="text_15">
      <text style="font: 11px 'Arial'; text-anchor: end" x="279.975982" y="109.971178" transform="rotate(-0 279.975982 109.971178)">0.4</text>
     </g>
    </g>
    <g id="ytick_9">
     <g id="line2d_20">
      <g>
       <use xlink:href="#m70714225d6" x="286.975982" y="74.401853" style="stroke: #000000; stroke-width: 0.8"/>
      </g>
     </g>
     <g id="text_16">
      <text style="font: 11px 'Arial'; text-anchor: end" x="279.975982" y="78.33865" transform="rotate(-0 279.975982 78.33865)">0.6</text>
     </g>
    </g>
    <g id="ytick_10">
     <g id="line2d_21">
      <g>
       <use xlink:href="#m70714225d6" x="286.975982" y="42.769325" style="stroke: #000000; stroke-width: 0.8"/>
      </g>
     </g>
     <g id="text_17">
      <text style="font: 11px 'Arial'; text-anchor: end" x="279.975982" y="46.706122" transform="rotate(-0 279.975982 46.706122)">0.8</text>
     </g>
    </g>
    <g id="ytick_11">
     <g id="line2d_22">
      <g>
       <use xlink:href="#m70714225d6" x="286.975982" y="11.136797" style="stroke: #000000; stroke-width: 0.8"/>
      </g>
     </g>
     <g id="text_18">
      <text style="font: 11px 'Arial'; text-anchor: end" x="279.975982" y="15.073594" transform="rotate(-0 279.975982 15.073594)">1.0</text>
     </g>
    </g>
    <g id="text_19">
     <text style="font: 12px 'Arial'; text-anchor: middle" x="258.300982" y="92.428467" transform="rotate(-90 258.300982 92.428467)">PPI Perturbation Score</text>
    </g>
   </g>
   <g id="line2d_23">
    <path d="M 334.804554 169.198387 
L 334.804554 41.396788 
" clip-path="url(#p77def3994a)" style="fill: none; stroke: #303030; stroke-width: 1.875; stroke-linecap: square"/>
   </g>
   <g id="line2d_24">
    <path d="M 334.804554 143.558617 
L 334.804554 92.417388 
" clip-path="url(#p77def3994a)" style="fill: none; stroke: #303030; stroke-width: 5.625; stroke-linecap: square"/>
   </g>
   <g id="line2d_25">
    <path d="M 334.804554 124.639772 
" clip-path="url(#p77def3994a)" style="fill: none; stroke: #303030; stroke-width: 1.5; stroke-linecap: square"/>
    <g clip-path="url(#p77def3994a)">
     <use xlink:href="#mc5ac916204" x="334.804554" y="124.639772" style="fill: #ffffff; stroke: #ffffff; stroke-width: 1.125"/>
    </g>
   </g>
   <g id="line2d_26">
    <path d="M 430.461696 166.611947 
L 430.461696 89.468357 
" clip-path="url(#p77def3994a)" style="fill: none; stroke: #303030; stroke-width: 1.875; stroke-linecap: square"/>
   </g>
   <g id="line2d_27">
    <path d="M 430.461696 147.066272 
L 430.461696 116.782559 
" clip-path="url(#p77def3994a)" style="fill: none; stroke: #303030; stroke-width: 5.625; stroke-linecap: square"/>
   </g>
   <g id="line2d_28">
    <path d="M 430.461696 131.634089 
" clip-path="url(#p77def3994a)" style="fill: none; stroke: #303030; stroke-width: 1.5; stroke-linecap: square"/>
    <g clip-path="url(#p77def3994a)">
     <use xlink:href="#mc5ac916204" x="430.461696" y="131.634089" style="fill: #ffffff; stroke: #ffffff; stroke-width: 1.125"/>
    </g>
   </g>
   <g id="line2d_29">
    <path d="M 334.804554 34.3677 
L 334.804554 31.556065 
L 430.461696 31.556065 
L 430.461696 34.3677 
" style="fill: none; stroke: #333333; stroke-width: 1.5; stroke-linecap: square"/>
   </g>
   <g id="patch_6">
    <path d="M 286.975982 175.588467 
L 286.975982 9.268467 
" style="fill: none; stroke: #000000; stroke-width: 0.8; stroke-linejoin: miter; stroke-linecap: square"/>
   </g>
   <g id="patch_7">
    <path d="M 286.975982 175.588467 
L 478.290268 175.588467 
" style="fill: none; stroke: #000000; stroke-width: 0.8; stroke-linejoin: miter; stroke-linecap: square"/>
   </g>
   <g id="text_20">
    <text style="font: 12px 'Arial'; text-anchor: middle" x="382.633125" y="21.171065" transform="rotate(-0 382.633125 21.171065)">p = 3.318e-02</text>
   </g>
  </g>
  <g id="axes_3">
   <g id="patch_8">
    <path d="M 526.118839 175.588467 
L 717.433125 175.588467 
L 717.433125 9.268467 
L 526.118839 9.268467 
L 526.118839 175.588467 
z
" style="fill: none"/>
   </g>
   <g id="PolyCollection_5">
    <defs>
     <path id="m4a07778189" d="M 577.107463 -51.579979 
L 570.787358 -51.579979 
L 570.323769 -52.804406 
L 569.830453 -54.028833 
L 569.311584 -55.25326 
L 568.771951 -56.477687 
L 568.21669 -57.702114 
L 567.650948 -58.92654 
L 567.079507 -60.150967 
L 566.506381 -61.375394 
L 565.934439 -62.599821 
L 565.365091 -63.824248 
L 564.79809 -65.048675 
L 564.231494 -66.273102 
L 563.661816 -67.497529 
L 563.084374 -68.721956 
L 562.493836 -69.946383 
L 561.884903 -71.170809 
L 561.253081 -72.395236 
L 560.595444 -73.619663 
L 559.911299 -74.84409 
L 559.202654 -76.068517 
L 558.474428 -77.292944 
L 557.734334 -78.517371 
L 556.99244 -79.741798 
L 556.260432 -80.966225 
L 555.550637 -82.190651 
L 554.874905 -83.415078 
L 554.243473 -84.639505 
L 553.663913 -85.863932 
L 553.140291 -87.088359 
L 552.672628 -88.312786 
L 552.256713 -89.537213 
L 551.88431 -90.76164 
L 551.543728 -91.986067 
L 551.220723 -93.210493 
L 550.899632 -94.43492 
L 550.564654 -95.659347 
L 550.201149 -96.883774 
L 549.796854 -98.108201 
L 549.342904 -99.332628 
L 548.834574 -100.557055 
L 548.271701 -101.781482 
L 547.658743 -103.005909 
L 547.004495 -104.230335 
L 546.321498 -105.454762 
L 545.625196 -106.679189 
L 544.932914 -107.903616 
L 544.262743 -109.128043 
L 543.632415 -110.35247 
L 543.058231 -111.576897 
L 542.554115 -112.801324 
L 542.13084 -114.025751 
L 541.795448 -115.250177 
L 541.550895 -116.474604 
L 541.395917 -117.699031 
L 541.32511 -118.923458 
L 541.329222 -120.147885 
L 541.395613 -121.372312 
L 541.50889 -122.596739 
L 541.651649 -123.821166 
L 541.805332 -125.045593 
L 541.951128 -126.270019 
L 542.070904 -127.494446 
L 542.148105 -128.718873 
L 542.1686 -129.9433 
L 542.121399 -131.167727 
L 541.999222 -132.392154 
L 541.798865 -133.616581 
L 541.521331 -134.841008 
L 541.171709 -136.065435 
L 540.758799 -137.289861 
L 540.294499 -138.514288 
L 539.792999 -139.738715 
L 539.269848 -140.963142 
L 538.740973 -142.187569 
L 538.221744 -143.411996 
L 537.72619 -144.636423 
L 537.266432 -145.86085 
L 536.85242 -147.085277 
L 536.491981 -148.309704 
L 536.191189 -149.53413 
L 535.955005 -150.758557 
L 535.788094 -151.982984 
L 535.695717 -153.207411 
L 535.684554 -154.431838 
L 535.763337 -155.656265 
L 535.943175 -156.880692 
L 536.237479 -158.105119 
L 536.661447 -159.329546 
L 537.231135 -160.553972 
L 537.962153 -161.778399 
L 538.86812 -163.002826 
L 539.959023 -164.227253 
L 541.239649 -165.45168 
L 542.708285 -166.676107 
L 544.355823 -167.900534 
L 546.165416 -169.124961 
L 548.112736 -170.349388 
L 550.166851 -171.573814 
L 552.291651 -172.798241 
L 595.603171 -172.798241 
L 595.603171 -172.798241 
L 597.72797 -171.573814 
L 599.782085 -170.349388 
L 601.729406 -169.124961 
L 603.538999 -167.900534 
L 605.186537 -166.676107 
L 606.655172 -165.45168 
L 607.935798 -164.227253 
L 609.026701 -163.002826 
L 609.932668 -161.778399 
L 610.663686 -160.553972 
L 611.233374 -159.329546 
L 611.657343 -158.105119 
L 611.951646 -156.880692 
L 612.131485 -155.656265 
L 612.210268 -154.431838 
L 612.199104 -153.207411 
L 612.106727 -151.982984 
L 611.939817 -150.758557 
L 611.703633 -149.53413 
L 611.402841 -148.309704 
L 611.042401 -147.085277 
L 610.628389 -145.86085 
L 610.168632 -144.636423 
L 609.673078 -143.411996 
L 609.153849 -142.187569 
L 608.624973 -140.963142 
L 608.101822 -139.738715 
L 607.600322 -138.514288 
L 607.136022 -137.289861 
L 606.723112 -136.065435 
L 606.37349 -134.841008 
L 606.095956 -133.616581 
L 605.895599 -132.392154 
L 605.773423 -131.167727 
L 605.726221 -129.9433 
L 605.746716 -128.718873 
L 605.823918 -127.494446 
L 605.943693 -126.270019 
L 606.089489 -125.045593 
L 606.243172 -123.821166 
L 606.385932 -122.596739 
L 606.499208 -121.372312 
L 606.5656 -120.147885 
L 606.569711 -118.923458 
L 606.498905 -117.699031 
L 606.343926 -116.474604 
L 606.099373 -115.250177 
L 605.763982 -114.025751 
L 605.340707 -112.801324 
L 604.836591 -111.576897 
L 604.262406 -110.35247 
L 603.632078 -109.128043 
L 602.961907 -107.903616 
L 602.269625 -106.679189 
L 601.573323 -105.454762 
L 600.890327 -104.230335 
L 600.236079 -103.005909 
L 599.62312 -101.781482 
L 599.060247 -100.557055 
L 598.551918 -99.332628 
L 598.097967 -98.108201 
L 597.693673 -96.883774 
L 597.330168 -95.659347 
L 596.99519 -94.43492 
L 596.674099 -93.210493 
L 596.351093 -91.986067 
L 596.010512 -90.76164 
L 595.638108 -89.537213 
L 595.222193 -88.312786 
L 594.75453 -87.088359 
L 594.230908 -85.863932 
L 593.651348 -84.639505 
L 593.019916 -83.415078 
L 592.344185 -82.190651 
L 591.634389 -80.966225 
L 590.902381 -79.741798 
L 590.160488 -78.517371 
L 589.420393 -77.292944 
L 588.692167 -76.068517 
L 587.983523 -74.84409 
L 587.299377 -73.619663 
L 586.641741 -72.395236 
L 586.009919 -71.170809 
L 585.400986 -69.946383 
L 584.810447 -68.721956 
L 584.233005 -67.497529 
L 583.663327 -66.273102 
L 583.096731 -65.048675 
L 582.52973 -63.824248 
L 581.960382 -62.599821 
L 581.38844 -61.375394 
L 580.815314 -60.150967 
L 580.243873 -58.92654 
L 579.678132 -57.702114 
L 579.12287 -56.477687 
L 578.583238 -55.25326 
L 578.064369 -54.028833 
L 577.571052 -52.804406 
L 577.107463 -51.579979 
z
" style="stroke: #303030; stroke-width: 1.25"/>
    </defs>
    <g clip-path="url(#pd2630a2127)">
     <use xlink:href="#m4a07778189" x="0" y="214.195029" style="fill: #c08089; stroke: #303030; stroke-width: 1.25"/>
    </g>
   </g>
   <g id="PolyCollection_6">
    <defs>
     <path id="mcf509ec69f" d="M 680.31827 -44.996642 
L 658.890837 -44.996642 
L 657.817952 -46.280873 
L 656.692538 -47.565103 
L 655.517934 -48.849333 
L 654.298202 -50.133564 
L 653.038156 -51.417794 
L 651.74338 -52.702024 
L 650.420242 -53.986255 
L 649.075882 -55.270485 
L 647.718185 -56.554715 
L 646.355725 -57.838946 
L 644.997685 -59.123176 
L 643.653749 -60.407406 
L 642.333968 -61.691637 
L 641.048599 -62.975867 
L 639.807928 -64.260097 
L 638.622078 -65.544328 
L 637.500808 -66.828558 
L 636.453311 -68.112788 
L 635.488028 -69.397019 
L 634.612467 -70.681249 
L 633.833058 -71.965479 
L 633.155024 -73.24971 
L 632.582294 -74.53394 
L 632.117453 -75.81817 
L 631.761722 -77.102401 
L 631.514986 -78.386631 
L 631.375843 -79.670861 
L 631.341696 -80.955092 
L 631.408865 -82.239322 
L 631.572713 -83.523552 
L 631.827798 -84.807783 
L 632.168016 -86.092013 
L 632.586762 -87.376243 
L 633.07707 -88.660473 
L 633.631753 -89.944704 
L 634.24353 -91.228934 
L 634.905132 -92.513164 
L 635.609395 -93.797395 
L 636.349337 -95.081625 
L 637.118215 -96.365855 
L 637.909566 -97.650086 
L 638.717236 -98.934316 
L 639.535395 -100.218546 
L 640.358542 -101.502777 
L 641.181496 -102.787007 
L 641.999388 -104.071237 
L 642.807637 -105.355468 
L 643.601925 -106.639698 
L 644.378167 -107.923928 
L 645.132478 -109.208159 
L 645.861131 -110.492389 
L 646.560522 -111.776619 
L 647.227129 -113.06085 
L 647.85748 -114.34508 
L 648.448116 -115.62931 
L 648.995579 -116.913541 
L 649.496398 -118.197771 
L 649.947106 -119.482001 
L 650.34427 -120.766232 
L 650.684546 -122.050462 
L 650.964772 -123.334692 
L 651.182072 -124.618923 
L 651.334005 -125.903153 
L 651.418722 -127.187383 
L 651.435152 -128.471614 
L 651.383189 -129.755844 
L 651.263888 -131.040074 
L 651.079634 -132.324305 
L 650.834301 -133.608535 
L 650.533356 -134.892765 
L 650.183923 -136.176995 
L 649.794777 -137.461226 
L 649.376267 -138.745456 
L 648.94017 -140.029686 
L 648.499462 -141.313917 
L 648.06802 -142.598147 
L 647.660266 -143.882377 
L 647.290757 -145.166608 
L 646.97375 -146.450838 
L 646.72275 -147.735068 
L 646.55007 -149.019299 
L 646.466428 -150.303529 
L 646.480588 -151.587759 
L 646.599075 -152.87199 
L 646.82597 -154.15622 
L 647.162799 -155.44045 
L 647.608513 -156.724681 
L 648.159572 -158.008911 
L 648.810099 -159.293141 
L 649.552132 -160.577372 
L 650.375918 -161.861602 
L 651.27027 -163.145832 
L 652.222942 -164.430063 
L 653.221017 -165.714293 
L 654.251292 -166.998523 
L 655.300644 -168.282754 
L 656.356353 -169.566984 
L 657.406397 -170.851214 
L 658.43969 -172.135445 
L 680.769417 -172.135445 
L 680.769417 -172.135445 
L 681.80271 -170.851214 
L 682.852755 -169.566984 
L 683.908464 -168.282754 
L 684.957815 -166.998523 
L 685.98809 -165.714293 
L 686.986165 -164.430063 
L 687.938837 -163.145832 
L 688.833189 -161.861602 
L 689.656975 -160.577372 
L 690.399008 -159.293141 
L 691.049535 -158.008911 
L 691.600594 -156.724681 
L 692.046308 -155.44045 
L 692.383137 -154.15622 
L 692.610032 -152.87199 
L 692.728519 -151.587759 
L 692.742679 -150.303529 
L 692.659037 -149.019299 
L 692.486357 -147.735068 
L 692.235357 -146.450838 
L 691.91835 -145.166608 
L 691.548841 -143.882377 
L 691.141087 -142.598147 
L 690.709645 -141.313917 
L 690.268937 -140.029686 
L 689.83284 -138.745456 
L 689.41433 -137.461226 
L 689.025184 -136.176995 
L 688.675751 -134.892765 
L 688.374806 -133.608535 
L 688.129473 -132.324305 
L 687.945219 -131.040074 
L 687.825918 -129.755844 
L 687.773955 -128.471614 
L 687.790385 -127.187383 
L 687.875102 -125.903153 
L 688.027035 -124.618923 
L 688.244335 -123.334692 
L 688.524561 -122.050462 
L 688.864838 -120.766232 
L 689.262001 -119.482001 
L 689.712709 -118.197771 
L 690.213528 -116.913541 
L 690.760991 -115.62931 
L 691.351627 -114.34508 
L 691.981978 -113.06085 
L 692.648586 -111.776619 
L 693.347977 -110.492389 
L 694.076629 -109.208159 
L 694.83094 -107.923928 
L 695.607182 -106.639698 
L 696.40147 -105.355468 
L 697.209719 -104.071237 
L 698.027611 -102.787007 
L 698.850565 -101.502777 
L 699.673712 -100.218546 
L 700.491871 -98.934316 
L 701.299541 -97.650086 
L 702.090892 -96.365855 
L 702.85977 -95.081625 
L 703.599712 -93.797395 
L 704.303975 -92.513164 
L 704.965577 -91.228934 
L 705.577354 -89.944704 
L 706.132037 -88.660473 
L 706.622345 -87.376243 
L 707.041091 -86.092013 
L 707.38131 -84.807783 
L 707.636394 -83.523552 
L 707.800242 -82.239322 
L 707.867411 -80.955092 
L 707.833264 -79.670861 
L 707.694121 -78.386631 
L 707.447385 -77.102401 
L 707.091654 -75.81817 
L 706.626813 -74.53394 
L 706.054083 -73.24971 
L 705.376049 -71.965479 
L 704.59664 -70.681249 
L 703.72108 -69.397019 
L 702.755796 -68.112788 
L 701.708299 -66.828558 
L 700.587029 -65.544328 
L 699.401179 -64.260097 
L 698.160509 -62.975867 
L 696.875139 -61.691637 
L 695.555358 -60.407406 
L 694.211422 -59.123176 
L 692.853382 -57.838946 
L 691.490922 -56.554715 
L 690.133225 -55.270485 
L 688.788865 -53.986255 
L 687.465727 -52.702024 
L 686.170952 -51.417794 
L 684.910905 -50.133564 
L 683.691173 -48.849333 
L 682.51657 -47.565103 
L 681.391155 -46.280873 
L 680.31827 -44.996642 
z
" style="stroke: #303030; stroke-width: 1.25"/>
    </defs>
    <g clip-path="url(#pd2630a2127)">
     <use xlink:href="#mcf509ec69f" x="0" y="214.195029" style="fill: #2f7499; stroke: #303030; stroke-width: 1.25"/>
    </g>
   </g>
   <g id="matplotlib.axis_5">
    <g id="xtick_5">
     <g id="line2d_30">
      <g>
       <use xlink:href="#me3750a079a" x="573.947411" y="175.588467" style="stroke: #000000; stroke-width: 0.8"/>
      </g>
     </g>
     <g id="text_21">
      <text style="font: 10px 'Arial'; text-anchor: middle" x="573.947411" y="189.746279" transform="rotate(-0 573.947411 189.746279)">PLP</text>
     </g>
    </g>
    <g id="xtick_6">
     <g id="line2d_31">
      <g>
       <use xlink:href="#me3750a079a" x="669.604554" y="175.588467" style="stroke: #000000; stroke-width: 0.8"/>
      </g>
     </g>
     <g id="text_22">
      <text style="font: 10px 'Arial'; text-anchor: middle" x="669.604554" y="189.746279" transform="rotate(-0 669.604554 189.746279)">BLB</text>
     </g>
    </g>
   </g>
   <g id="matplotlib.axis_6">
    <g id="ytick_12">
     <g id="line2d_32">
      <g>
       <use xlink:href="#m70714225d6" x="526.118839" y="169.438114" style="stroke: #000000; stroke-width: 0.8"/>
      </g>
     </g>
     <g id="text_23">
      <text style="font: 11px 'Arial'; text-anchor: end" x="519.118839" y="173.374911" transform="rotate(-0 519.118839 173.374911)">0.5</text>
     </g>
    </g>
    <g id="ytick_13">
     <g id="line2d_33">
      <g>
       <use xlink:href="#m70714225d6" x="526.118839" y="143.807697" style="stroke: #000000; stroke-width: 0.8"/>
      </g>
     </g>
     <g id="text_24">
      <text style="font: 11px 'Arial'; text-anchor: end" x="519.118839" y="147.744494" transform="rotate(-0 519.118839 147.744494)">0.6</text>
     </g>
    </g>
    <g id="ytick_14">
     <g id="line2d_34">
      <g>
       <use xlink:href="#m70714225d6" x="526.118839" y="118.17728" style="stroke: #000000; stroke-width: 0.8"/>
      </g>
     </g>
     <g id="text_25">
      <text style="font: 11px 'Arial'; text-anchor: end" x="519.118839" y="122.114077" transform="rotate(-0 519.118839 122.114077)">0.7</text>
     </g>
    </g>
    <g id="ytick_15">
     <g id="line2d_35">
      <g>
       <use xlink:href="#m70714225d6" x="526.118839" y="92.546863" style="stroke: #000000; stroke-width: 0.8"/>
      </g>
     </g>
     <g id="text_26">
      <text style="font: 11px 'Arial'; text-anchor: end" x="519.118839" y="96.48366" transform="rotate(-0 519.118839 96.48366)">0.8</text>
     </g>
    </g>
    <g id="ytick_16">
     <g id="line2d_36">
      <g>
       <use xlink:href="#m70714225d6" x="526.118839" y="66.916446" style="stroke: #000000; stroke-width: 0.8"/>
      </g>
     </g>
     <g id="text_27">
      <text style="font: 11px 'Arial'; text-anchor: end" x="519.118839" y="70.853242" transform="rotate(-0 519.118839 70.853242)">0.9</text>
     </g>
    </g>
    <g id="ytick_17">
     <g id="line2d_37">
      <g>
       <use xlink:href="#m70714225d6" x="526.118839" y="41.286028" style="stroke: #000000; stroke-width: 0.8"/>
      </g>
     </g>
     <g id="text_28">
      <text style="font: 11px 'Arial'; text-anchor: end" x="519.118839" y="45.222825" transform="rotate(-0 519.118839 45.222825)">1.0</text>
     </g>
    </g>
    <g id="ytick_18">
     <g id="line2d_38">
      <g>
       <use xlink:href="#m70714225d6" x="526.118839" y="15.655611" style="stroke: #000000; stroke-width: 0.8"/>
      </g>
     </g>
     <g id="text_29">
      <text style="font: 11px 'Arial'; text-anchor: end" x="519.118839" y="19.592408" transform="rotate(-0 519.118839 19.592408)">1.1</text>
     </g>
    </g>
    <g id="text_30">
     <text style="font: 12px 'Arial'; text-anchor: middle" x="497.303214" y="92.428467" transform="rotate(-90 497.303214 92.428467)">Imaging Phenotype Score</text>
    </g>
   </g>
   <g id="line2d_39">
    <path d="M 573.947411 162.61505 
L 573.947411 41.396788 
" clip-path="url(#pd2630a2127)" style="fill: none; stroke: #303030; stroke-width: 1.875; stroke-linecap: square"/>
   </g>
   <g id="line2d_40">
    <path d="M 573.947411 108.873975 
L 573.947411 61.464477 
" clip-path="url(#pd2630a2127)" style="fill: none; stroke: #303030; stroke-width: 5.625; stroke-linecap: square"/>
   </g>
   <g id="line2d_41">
    <path d="M 573.947411 84.165467 
" clip-path="url(#pd2630a2127)" style="fill: none; stroke: #303030; stroke-width: 1.5; stroke-linecap: square"/>
    <g clip-path="url(#pd2630a2127)">
     <use xlink:href="#mc5ac916204" x="573.947411" y="84.165467" style="fill: #ffffff; stroke: #ffffff; stroke-width: 1.125"/>
    </g>
   </g>
   <g id="line2d_42">
    <path d="M 669.604554 169.198387 
L 669.604554 42.059585 
" clip-path="url(#pd2630a2127)" style="fill: none; stroke: #303030; stroke-width: 1.875; stroke-linecap: square"/>
   </g>
   <g id="line2d_43">
    <path d="M 669.604554 137.188945 
L 669.604554 78.69427 
" clip-path="url(#pd2630a2127)" style="fill: none; stroke: #303030; stroke-width: 5.625; stroke-linecap: square"/>
   </g>
   <g id="line2d_44">
    <path d="M 669.604554 119.447604 
" clip-path="url(#pd2630a2127)" style="fill: none; stroke: #303030; stroke-width: 1.5; stroke-linecap: square"/>
    <g clip-path="url(#pd2630a2127)">
     <use xlink:href="#mc5ac916204" x="669.604554" y="119.447604" style="fill: #ffffff; stroke: #ffffff; stroke-width: 1.125"/>
    </g>
   </g>
   <g id="line2d_45">
    <path d="M 573.947411 34.3677 
L 573.947411 31.556065 
L 669.604554 31.556065 
L 669.604554 34.3677 
" style="fill: none; stroke: #333333; stroke-width: 1.5; stroke-linecap: square"/>
   </g>
   <g id="patch_9">
    <path d="M 526.118839 175.588467 
L 526.118839 9.268467 
" style="fill: none; stroke: #000000; stroke-width: 0.8; stroke-linejoin: miter; stroke-linecap: square"/>
   </g>
   <g id="patch_10">
    <path d="M 526.118839 175.588467 
L 717.433125 175.588467 
" style="fill: none; stroke: #000000; stroke-width: 0.8; stroke-linejoin: miter; stroke-linecap: square"/>
   </g>
   <g id="text_31">
    <text style="font: 12px 'Arial'; text-anchor: middle" x="621.775982" y="21.171065" transform="rotate(-0 621.775982 21.171065)">p = 1.754e-10</text>
   </g>
  </g>
 </g>
 <defs>
  <clipPath id="p1fd23b94da">
   <rect x="47.833125" y="9.268467" width="191.314286" height="166.32"/>
  </clipPath>
  <clipPath id="p77def3994a">
   <rect x="286.975982" y="9.268467" width="191.314286" height="166.32"/>
  </clipPath>
  <clipPath id="pd2630a2127">
   <rect x="526.118839" y="9.268467" width="191.314286" height="166.32"/>
  </clipPath>
 </defs>
</svg>
