<?xml version="1.0" encoding="utf-8" standalone="no"?>
<!DOCTYPE svg PUBLIC "-//W3C//DTD SVG 1.1//EN"
  "http://www.w3.org/Graphics/SVG/1.1/DTD/svg11.dtd">
<svg xmlns:xlink="http://www.w3.org/1999/xlink" width="223.74pt" height="1181.619617pt" viewBox="0 0 223.74 1181.619617" xmlns="http://www.w3.org/2000/svg" version="1.1">
 <metadata>
  <rdf:RDF xmlns:dc="http://purl.org/dc/elements/1.1/" xmlns:cc="http://creativecommons.org/ns#" xmlns:rdf="http://www.w3.org/1999/02/22-rdf-syntax-ns#">
   <cc:Work>
    <dc:type rdf:resource="http://purl.org/dc/dcmitype/StillImage"/>
    <dc:date>2026-01-29T11:48:10.219429</dc:date>
    <dc:format>image/svg+xml</dc:format>
    <dc:creator>
     <cc:Agent>
      <dc:title>Matplotlib v3.9.4, https://matplotlib.org/</dc:title>
     </cc:Agent>
    </dc:creator>
   </cc:Work>
  </rdf:RDF>
 </metadata>
 <defs>
  <style type="text/css">*{stroke-linejoin: round; stroke-linecap: butt}</style>
 </defs>
 <g id="figure_1">
  <g id="patch_1">
   <path d="M 0 1181.619617 
L 223.74 1181.619617 
L 223.74 0 
L 0 0 
L 0 1181.619617 
z
" style="fill: none"/>
  </g>
  <g id="axes_1">
   <g id="patch_2">
    <path d="M 104.94 1116 
L 216.54 1116 
L 216.54 7.2 
L 104.94 7.2 
L 104.94 1116 
z
" style="fill: none"/>
   </g>
   <g id="QuadMesh_1">
    <path d="M 104.94 7.2 
L 142.14 7.2 
L 142.14 25.68 
L 104.94 25.68 
L 104.94 7.2 
" clip-path="url(#p6467f1ef08)" style="fill: #e67300; stroke: #ffffff; stroke-width: 0.5"/>
    <path d="M 142.14 7.2 
L 179.34 7.2 
L 179.34 25.68 
L 142.14 25.68 
L 142.14 7.2 
" clip-path="url(#p6467f1ef08)" style="fill: #e67300; stroke: #ffffff; stroke-width: 0.5"/>
    <path d="M 179.34 7.2 
L 216.54 7.2 
L 216.54 25.68 
L 179.34 25.68 
L 179.34 7.2 
" clip-path="url(#p6467f1ef08)" style="fill: #e67300; stroke: #ffffff; stroke-width: 0.5"/>
    <path d="M 104.94 25.68 
L 142.14 25.68 
L 142.14 44.16 
L 104.94 44.16 
L 104.94 25.68 
" clip-path="url(#p6467f1ef08)" style="fill: #e67300; stroke: #ffffff; stroke-width: 0.5"/>
    <path d="M 142.14 25.68 
L 179.34 25.68 
L 179.34 44.16 
L 142.14 44.16 
L 142.14 25.68 
" clip-path="url(#p6467f1ef08)" style="fill: #e67300; stroke: #ffffff; stroke-width: 0.5"/>
    <path d="M 179.34 25.68 
L 216.54 25.68 
L 216.54 44.16 
L 179.34 44.16 
L 179.34 25.68 
" clip-path="url(#p6467f1ef08)" style="fill: #e67300; stroke: #ffffff; stroke-width: 0.5"/>
    <path d="M 104.94 44.16 
L 142.14 44.16 
L 142.14 62.64 
L 104.94 62.64 
L 104.94 44.16 
" clip-path="url(#p6467f1ef08)" style="fill: #e67300; stroke: #ffffff; stroke-width: 0.5"/>
    <path d="M 142.14 44.16 
L 179.34 44.16 
L 179.34 62.64 
L 142.14 62.64 
L 142.14 44.16 
" clip-path="url(#p6467f1ef08)" style="fill: #e67300; stroke: #ffffff; stroke-width: 0.5"/>
    <path d="M 179.34 44.16 
L 216.54 44.16 
L 216.54 62.64 
L 179.34 62.64 
L 179.34 44.16 
" clip-path="url(#p6467f1ef08)" style="fill: #e67300; stroke: #ffffff; stroke-width: 0.5"/>
    <path d="M 104.94 62.64 
L 142.14 62.64 
L 142.14 81.12 
L 104.94 81.12 
L 104.94 62.64 
" clip-path="url(#p6467f1ef08)" style="fill: #e67300; stroke: #ffffff; stroke-width: 0.5"/>
    <path d="M 142.14 62.64 
L 179.34 62.64 
L 179.34 81.12 
L 142.14 81.12 
L 142.14 62.64 
" clip-path="url(#p6467f1ef08)" style="fill: #e67300; stroke: #ffffff; stroke-width: 0.5"/>
    <path d="M 179.34 62.64 
L 216.54 62.64 
L 216.54 81.12 
L 179.34 81.12 
L 179.34 62.64 
" clip-path="url(#p6467f1ef08)" style="fill: #e67300; stroke: #ffffff; stroke-width: 0.5"/>
    <path d="M 104.94 81.12 
L 142.14 81.12 
L 142.14 99.6 
L 104.94 99.6 
L 104.94 81.12 
" clip-path="url(#p6467f1ef08)" style="fill: #e67300; stroke: #ffffff; stroke-width: 0.5"/>
    <path d="M 142.14 81.12 
L 179.34 81.12 
L 179.34 99.6 
L 142.14 99.6 
L 142.14 81.12 
" clip-path="url(#p6467f1ef08)" style="fill: #e67300; stroke: #ffffff; stroke-width: 0.5"/>
    <path d="M 179.34 81.12 
L 216.54 81.12 
L 216.54 99.6 
L 179.34 99.6 
L 179.34 81.12 
" clip-path="url(#p6467f1ef08)" style="fill: #00a3a3; stroke: #ffffff; stroke-width: 0.5"/>
    <path d="M 104.94 99.6 
L 142.14 99.6 
L 142.14 118.08 
L 104.94 118.08 
L 104.94 99.6 
" clip-path="url(#p6467f1ef08)" style="fill: #e67300; stroke: #ffffff; stroke-width: 0.5"/>
    <path d="M 142.14 99.6 
L 179.34 99.6 
L 179.34 118.08 
L 142.14 118.08 
L 142.14 99.6 
" clip-path="url(#p6467f1ef08)" style="fill: #e67300; stroke: #ffffff; stroke-width: 0.5"/>
    <path d="M 179.34 99.6 
L 216.54 99.6 
L 216.54 118.08 
L 179.34 118.08 
L 179.34 99.6 
" clip-path="url(#p6467f1ef08)" style="fill: #00a3a3; stroke: #ffffff; stroke-width: 0.5"/>
    <path d="M 104.94 118.08 
L 142.14 118.08 
L 142.14 136.56 
L 104.94 136.56 
L 104.94 118.08 
" clip-path="url(#p6467f1ef08)" style="fill: #e67300; stroke: #ffffff; stroke-width: 0.5"/>
    <path d="M 142.14 118.08 
L 179.34 118.08 
L 179.34 136.56 
L 142.14 136.56 
L 142.14 118.08 
" clip-path="url(#p6467f1ef08)" style="fill: #00a3a3; stroke: #ffffff; stroke-width: 0.5"/>
    <path d="M 179.34 118.08 
L 216.54 118.08 
L 216.54 136.56 
L 179.34 136.56 
L 179.34 118.08 
" clip-path="url(#p6467f1ef08)" style="fill: #e67300; stroke: #ffffff; stroke-width: 0.5"/>
    <path d="M 104.94 136.56 
L 142.14 136.56 
L 142.14 155.04 
L 104.94 155.04 
L 104.94 136.56 
" clip-path="url(#p6467f1ef08)" style="fill: #e67300; stroke: #ffffff; stroke-width: 0.5"/>
    <path d="M 142.14 136.56 
L 179.34 136.56 
L 179.34 155.04 
L 142.14 155.04 
L 142.14 136.56 
" clip-path="url(#p6467f1ef08)" style="fill: #00a3a3; stroke: #ffffff; stroke-width: 0.5"/>
    <path d="M 179.34 136.56 
L 216.54 136.56 
L 216.54 155.04 
L 179.34 155.04 
L 179.34 136.56 
" clip-path="url(#p6467f1ef08)" style="fill: #e67300; stroke: #ffffff; stroke-width: 0.5"/>
    <path d="M 104.94 155.04 
L 142.14 155.04 
L 142.14 173.52 
L 104.94 173.52 
L 104.94 155.04 
" clip-path="url(#p6467f1ef08)" style="fill: #e67300; stroke: #ffffff; stroke-width: 0.5"/>
    <path d="M 142.14 155.04 
L 179.34 155.04 
L 179.34 173.52 
L 142.14 173.52 
L 142.14 155.04 
" clip-path="url(#p6467f1ef08)" style="fill: #00a3a3; stroke: #ffffff; stroke-width: 0.5"/>
    <path d="M 179.34 155.04 
L 216.54 155.04 
L 216.54 173.52 
L 179.34 173.52 
L 179.34 155.04 
" clip-path="url(#p6467f1ef08)" style="fill: #00a3a3; stroke: #ffffff; stroke-width: 0.5"/>
    <path d="M 104.94 173.52 
L 142.14 173.52 
L 142.14 192 
L 104.94 192 
L 104.94 173.52 
" clip-path="url(#p6467f1ef08)" style="fill: #e67300; stroke: #ffffff; stroke-width: 0.5"/>
    <path d="M 142.14 173.52 
L 179.34 173.52 
L 179.34 192 
L 142.14 192 
L 142.14 173.52 
" clip-path="url(#p6467f1ef08)" style="fill: #00a3a3; stroke: #ffffff; stroke-width: 0.5"/>
    <path d="M 179.34 173.52 
L 216.54 173.52 
L 216.54 192 
L 179.34 192 
L 179.34 173.52 
" clip-path="url(#p6467f1ef08)" style="fill: #00a3a3; stroke: #ffffff; stroke-width: 0.5"/>
    <path d="M 104.94 192 
L 142.14 192 
L 142.14 210.48 
L 104.94 210.48 
L 104.94 192 
" clip-path="url(#p6467f1ef08)" style="fill: #e67300; stroke: #ffffff; stroke-width: 0.5"/>
    <path d="M 142.14 192 
L 179.34 192 
L 179.34 210.48 
L 142.14 210.48 
L 142.14 192 
" clip-path="url(#p6467f1ef08)" style="fill: #00a3a3; stroke: #ffffff; stroke-width: 0.5"/>
    <path d="M 179.34 192 
L 216.54 192 
L 216.54 210.48 
L 179.34 210.48 
L 179.34 192 
" clip-path="url(#p6467f1ef08)" style="fill: #00a3a3; stroke: #ffffff; stroke-width: 0.5"/>
    <path d="M 104.94 210.48 
L 142.14 210.48 
L 142.14 228.96 
L 104.94 228.96 
L 104.94 210.48 
" clip-path="url(#p6467f1ef08)" style="fill: #e67300; stroke: #ffffff; stroke-width: 0.5"/>
    <path d="M 142.14 210.48 
L 179.34 210.48 
L 179.34 228.96 
L 142.14 228.96 
L 142.14 210.48 
" clip-path="url(#p6467f1ef08)" style="fill: #00a3a3; stroke: #ffffff; stroke-width: 0.5"/>
    <path d="M 179.34 210.48 
L 216.54 210.48 
L 216.54 228.96 
L 179.34 228.96 
L 179.34 210.48 
" clip-path="url(#p6467f1ef08)" style="fill: #00a3a3; stroke: #ffffff; stroke-width: 0.5"/>
    <path d="M 104.94 228.96 
L 142.14 228.96 
L 142.14 247.44 
L 104.94 247.44 
L 104.94 228.96 
" clip-path="url(#p6467f1ef08)" style="fill: #e67300; stroke: #ffffff; stroke-width: 0.5"/>
    <path d="M 142.14 228.96 
L 179.34 228.96 
L 179.34 247.44 
L 142.14 247.44 
L 142.14 228.96 
" clip-path="url(#p6467f1ef08)" style="fill: #00a3a3; stroke: #ffffff; stroke-width: 0.5"/>
    <path d="M 179.34 228.96 
L 216.54 228.96 
L 216.54 247.44 
L 179.34 247.44 
L 179.34 228.96 
" clip-path="url(#p6467f1ef08)" style="fill: #00a3a3; stroke: #ffffff; stroke-width: 0.5"/>
    <path d="M 104.94 247.44 
L 142.14 247.44 
L 142.14 265.92 
L 104.94 265.92 
L 104.94 247.44 
" clip-path="url(#p6467f1ef08)" style="fill: #e67300; stroke: #ffffff; stroke-width: 0.5"/>
    <path d="M 142.14 247.44 
L 179.34 247.44 
L 179.34 265.92 
L 142.14 265.92 
L 142.14 247.44 
" clip-path="url(#p6467f1ef08)" style="fill: #00a3a3; stroke: #ffffff; stroke-width: 0.5"/>
    <path d="M 179.34 247.44 
L 216.54 247.44 
L 216.54 265.92 
L 179.34 265.92 
L 179.34 247.44 
" clip-path="url(#p6467f1ef08)" style="fill: #00a3a3; stroke: #ffffff; stroke-width: 0.5"/>
    <path d="M 104.94 265.92 
L 142.14 265.92 
L 142.14 284.4 
L 104.94 284.4 
L 104.94 265.92 
" clip-path="url(#p6467f1ef08)" style="fill: #e67300; stroke: #ffffff; stroke-width: 0.5"/>
    <path d="M 142.14 265.92 
L 179.34 265.92 
L 179.34 284.4 
L 142.14 284.4 
L 142.14 265.92 
" clip-path="url(#p6467f1ef08)" style="fill: #00a3a3; stroke: #ffffff; stroke-width: 0.5"/>
    <path d="M 179.34 265.92 
L 216.54 265.92 
L 216.54 284.4 
L 179.34 284.4 
L 179.34 265.92 
" clip-path="url(#p6467f1ef08)" style="fill: #00a3a3; stroke: #ffffff; stroke-width: 0.5"/>
    <path d="M 104.94 284.4 
L 142.14 284.4 
L 142.14 302.88 
L 104.94 302.88 
L 104.94 284.4 
" clip-path="url(#p6467f1ef08)" style="fill: #00a3a3; stroke: #ffffff; stroke-width: 0.5"/>
    <path d="M 142.14 284.4 
L 179.34 284.4 
L 179.34 302.88 
L 142.14 302.88 
L 142.14 284.4 
" clip-path="url(#p6467f1ef08)" style="fill: #e67300; stroke: #ffffff; stroke-width: 0.5"/>
    <path d="M 179.34 284.4 
L 216.54 284.4 
L 216.54 302.88 
L 179.34 302.88 
L 179.34 284.4 
" clip-path="url(#p6467f1ef08)" style="fill: #00a3a3; stroke: #ffffff; stroke-width: 0.5"/>
    <path d="M 104.94 302.88 
L 142.14 302.88 
L 142.14 321.36 
L 104.94 321.36 
L 104.94 302.88 
" clip-path="url(#p6467f1ef08)" style="fill: #00a3a3; stroke: #ffffff; stroke-width: 0.5"/>
    <path d="M 142.14 302.88 
L 179.34 302.88 
L 179.34 321.36 
L 142.14 321.36 
L 142.14 302.88 
" clip-path="url(#p6467f1ef08)" style="fill: #e67300; stroke: #ffffff; stroke-width: 0.5"/>
    <path d="M 179.34 302.88 
L 216.54 302.88 
L 216.54 321.36 
L 179.34 321.36 
L 179.34 302.88 
" clip-path="url(#p6467f1ef08)" style="fill: #00a3a3; stroke: #ffffff; stroke-width: 0.5"/>
    <path d="M 104.94 321.36 
L 142.14 321.36 
L 142.14 339.84 
L 104.94 339.84 
L 104.94 321.36 
" clip-path="url(#p6467f1ef08)" style="fill: #00a3a3; stroke: #ffffff; stroke-width: 0.5"/>
    <path d="M 142.14 321.36 
L 179.34 321.36 
L 179.34 339.84 
L 142.14 339.84 
L 142.14 321.36 
" clip-path="url(#p6467f1ef08)" style="fill: #00a3a3; stroke: #ffffff; stroke-width: 0.5"/>
    <path d="M 179.34 321.36 
L 216.54 321.36 
L 216.54 339.84 
L 179.34 339.84 
L 179.34 321.36 
" clip-path="url(#p6467f1ef08)" style="fill: #e67300; stroke: #ffffff; stroke-width: 0.5"/>
    <path d="M 104.94 339.84 
L 142.14 339.84 
L 142.14 358.32 
L 104.94 358.32 
L 104.94 339.84 
" clip-path="url(#p6467f1ef08)" style="fill: #00a3a3; stroke: #ffffff; stroke-width: 0.5"/>
    <path d="M 142.14 339.84 
L 179.34 339.84 
L 179.34 358.32 
L 142.14 358.32 
L 142.14 339.84 
" clip-path="url(#p6467f1ef08)" style="fill: #00a3a3; stroke: #ffffff; stroke-width: 0.5"/>
    <path d="M 179.34 339.84 
L 216.54 339.84 
L 216.54 358.32 
L 179.34 358.32 
L 179.34 339.84 
" clip-path="url(#p6467f1ef08)" style="fill: #e67300; stroke: #ffffff; stroke-width: 0.5"/>
    <path d="M 104.94 358.32 
L 142.14 358.32 
L 142.14 376.8 
L 104.94 376.8 
L 104.94 358.32 
" clip-path="url(#p6467f1ef08)" style="fill: #00a3a3; stroke: #ffffff; stroke-width: 0.5"/>
    <path d="M 142.14 358.32 
L 179.34 358.32 
L 179.34 376.8 
L 142.14 376.8 
L 142.14 358.32 
" clip-path="url(#p6467f1ef08)" style="fill: #00a3a3; stroke: #ffffff; stroke-width: 0.5"/>
    <path d="M 179.34 358.32 
L 216.54 358.32 
L 216.54 376.8 
L 179.34 376.8 
L 179.34 358.32 
" clip-path="url(#p6467f1ef08)" style="fill: #e67300; stroke: #ffffff; stroke-width: 0.5"/>
    <path d="M 104.94 376.8 
L 142.14 376.8 
L 142.14 395.28 
L 104.94 395.28 
L 104.94 376.8 
" clip-path="url(#p6467f1ef08)" style="fill: #e67300; stroke: #ffffff; stroke-width: 0.5"/>
    <path d="M 142.14 376.8 
L 179.34 376.8 
L 179.34 395.28 
L 142.14 395.28 
L 142.14 376.8 
" clip-path="url(#p6467f1ef08)" style="fill: #e67300; stroke: #ffffff; stroke-width: 0.5"/>
    <path d="M 179.34 376.8 
L 216.54 376.8 
L 216.54 395.28 
L 179.34 395.28 
L 179.34 376.8 
" clip-path="url(#p6467f1ef08)" style="fill: #d3d3d3; stroke: #ffffff; stroke-width: 0.5"/>
    <path d="M 104.94 395.28 
L 142.14 395.28 
L 142.14 413.76 
L 104.94 413.76 
L 104.94 395.28 
" clip-path="url(#p6467f1ef08)" style="fill: #e67300; stroke: #ffffff; stroke-width: 0.5"/>
    <path d="M 142.14 395.28 
L 179.34 395.28 
L 179.34 413.76 
L 142.14 413.76 
L 142.14 395.28 
" clip-path="url(#p6467f1ef08)" style="fill: #e67300; stroke: #ffffff; stroke-width: 0.5"/>
    <path d="M 179.34 395.28 
L 216.54 395.28 
L 216.54 413.76 
L 179.34 413.76 
L 179.34 395.28 
" clip-path="url(#p6467f1ef08)" style="fill: #d3d3d3; stroke: #ffffff; stroke-width: 0.5"/>
    <path d="M 104.94 413.76 
L 142.14 413.76 
L 142.14 432.24 
L 104.94 432.24 
L 104.94 413.76 
" clip-path="url(#p6467f1ef08)" style="fill: #e67300; stroke: #ffffff; stroke-width: 0.5"/>
    <path d="M 142.14 413.76 
L 179.34 413.76 
L 179.34 432.24 
L 142.14 432.24 
L 142.14 413.76 
" clip-path="url(#p6467f1ef08)" style="fill: #d3d3d3; stroke: #ffffff; stroke-width: 0.5"/>
    <path d="M 179.34 413.76 
L 216.54 413.76 
L 216.54 432.24 
L 179.34 432.24 
L 179.34 413.76 
" clip-path="url(#p6467f1ef08)" style="fill: #e67300; stroke: #ffffff; stroke-width: 0.5"/>
    <path d="M 104.94 432.24 
L 142.14 432.24 
L 142.14 450.72 
L 104.94 450.72 
L 104.94 432.24 
" clip-path="url(#p6467f1ef08)" style="fill: #d3d3d3; stroke: #ffffff; stroke-width: 0.5"/>
    <path d="M 142.14 432.24 
L 179.34 432.24 
L 179.34 450.72 
L 142.14 450.72 
L 142.14 432.24 
" clip-path="url(#p6467f1ef08)" style="fill: #e67300; stroke: #ffffff; stroke-width: 0.5"/>
    <path d="M 179.34 432.24 
L 216.54 432.24 
L 216.54 450.72 
L 179.34 450.72 
L 179.34 432.24 
" clip-path="url(#p6467f1ef08)" style="fill: #e67300; stroke: #ffffff; stroke-width: 0.5"/>
    <path d="M 104.94 450.72 
L 142.14 450.72 
L 142.14 469.2 
L 104.94 469.2 
L 104.94 450.72 
" clip-path="url(#p6467f1ef08)" style="fill: #e67300; stroke: #ffffff; stroke-width: 0.5"/>
    <path d="M 142.14 450.72 
L 179.34 450.72 
L 179.34 469.2 
L 142.14 469.2 
L 142.14 450.72 
" clip-path="url(#p6467f1ef08)" style="fill: #00a3a3; stroke: #ffffff; stroke-width: 0.5"/>
    <path d="M 179.34 450.72 
L 216.54 450.72 
L 216.54 469.2 
L 179.34 469.2 
L 179.34 450.72 
" clip-path="url(#p6467f1ef08)" style="fill: #d3d3d3; stroke: #ffffff; stroke-width: 0.5"/>
    <path d="M 104.94 469.2 
L 142.14 469.2 
L 142.14 487.68 
L 104.94 487.68 
L 104.94 469.2 
" clip-path="url(#p6467f1ef08)" style="fill: #e67300; stroke: #ffffff; stroke-width: 0.5"/>
    <path d="M 142.14 469.2 
L 179.34 469.2 
L 179.34 487.68 
L 142.14 487.68 
L 142.14 469.2 
" clip-path="url(#p6467f1ef08)" style="fill: #00a3a3; stroke: #ffffff; stroke-width: 0.5"/>
    <path d="M 179.34 469.2 
L 216.54 469.2 
L 216.54 487.68 
L 179.34 487.68 
L 179.34 469.2 
" clip-path="url(#p6467f1ef08)" style="fill: #d3d3d3; stroke: #ffffff; stroke-width: 0.5"/>
    <path d="M 104.94 487.68 
L 142.14 487.68 
L 142.14 506.16 
L 104.94 506.16 
L 104.94 487.68 
" clip-path="url(#p6467f1ef08)" style="fill: #e67300; stroke: #ffffff; stroke-width: 0.5"/>
    <path d="M 142.14 487.68 
L 179.34 487.68 
L 179.34 506.16 
L 142.14 506.16 
L 142.14 487.68 
" clip-path="url(#p6467f1ef08)" style="fill: #00a3a3; stroke: #ffffff; stroke-width: 0.5"/>
    <path d="M 179.34 487.68 
L 216.54 487.68 
L 216.54 506.16 
L 179.34 506.16 
L 179.34 487.68 
" clip-path="url(#p6467f1ef08)" style="fill: #d3d3d3; stroke: #ffffff; stroke-width: 0.5"/>
    <path d="M 104.94 506.16 
L 142.14 506.16 
L 142.14 524.64 
L 104.94 524.64 
L 104.94 506.16 
" clip-path="url(#p6467f1ef08)" style="fill: #e67300; stroke: #ffffff; stroke-width: 0.5"/>
    <path d="M 142.14 506.16 
L 179.34 506.16 
L 179.34 524.64 
L 142.14 524.64 
L 142.14 506.16 
" clip-path="url(#p6467f1ef08)" style="fill: #00a3a3; stroke: #ffffff; stroke-width: 0.5"/>
    <path d="M 179.34 506.16 
L 216.54 506.16 
L 216.54 524.64 
L 179.34 524.64 
L 179.34 506.16 
" clip-path="url(#p6467f1ef08)" style="fill: #d3d3d3; stroke: #ffffff; stroke-width: 0.5"/>
    <path d="M 104.94 524.64 
L 142.14 524.64 
L 142.14 543.12 
L 104.94 543.12 
L 104.94 524.64 
" clip-path="url(#p6467f1ef08)" style="fill: #e67300; stroke: #ffffff; stroke-width: 0.5"/>
    <path d="M 142.14 524.64 
L 179.34 524.64 
L 179.34 543.12 
L 142.14 543.12 
L 142.14 524.64 
" clip-path="url(#p6467f1ef08)" style="fill: #00a3a3; stroke: #ffffff; stroke-width: 0.5"/>
    <path d="M 179.34 524.64 
L 216.54 524.64 
L 216.54 543.12 
L 179.34 543.12 
L 179.34 524.64 
" clip-path="url(#p6467f1ef08)" style="fill: #d3d3d3; stroke: #ffffff; stroke-width: 0.5"/>
    <path d="M 104.94 543.12 
L 142.14 543.12 
L 142.14 561.6 
L 104.94 561.6 
L 104.94 543.12 
" clip-path="url(#p6467f1ef08)" style="fill: #e67300; stroke: #ffffff; stroke-width: 0.5"/>
    <path d="M 142.14 543.12 
L 179.34 543.12 
L 179.34 561.6 
L 142.14 561.6 
L 142.14 543.12 
" clip-path="url(#p6467f1ef08)" style="fill: #00a3a3; stroke: #ffffff; stroke-width: 0.5"/>
    <path d="M 179.34 543.12 
L 216.54 543.12 
L 216.54 561.6 
L 179.34 561.6 
L 179.34 543.12 
" clip-path="url(#p6467f1ef08)" style="fill: #d3d3d3; stroke: #ffffff; stroke-width: 0.5"/>
    <path d="M 104.94 561.6 
L 142.14 561.6 
L 142.14 580.08 
L 104.94 580.08 
L 104.94 561.6 
" clip-path="url(#p6467f1ef08)" style="fill: #e67300; stroke: #ffffff; stroke-width: 0.5"/>
    <path d="M 142.14 561.6 
L 179.34 561.6 
L 179.34 580.08 
L 142.14 580.08 
L 142.14 561.6 
" clip-path="url(#p6467f1ef08)" style="fill: #00a3a3; stroke: #ffffff; stroke-width: 0.5"/>
    <path d="M 179.34 561.6 
L 216.54 561.6 
L 216.54 580.08 
L 179.34 580.08 
L 179.34 561.6 
" clip-path="url(#p6467f1ef08)" style="fill: #d3d3d3; stroke: #ffffff; stroke-width: 0.5"/>
    <path d="M 104.94 580.08 
L 142.14 580.08 
L 142.14 598.56 
L 104.94 598.56 
L 104.94 580.08 
" clip-path="url(#p6467f1ef08)" style="fill: #e67300; stroke: #ffffff; stroke-width: 0.5"/>
    <path d="M 142.14 580.08 
L 179.34 580.08 
L 179.34 598.56 
L 142.14 598.56 
L 142.14 580.08 
" clip-path="url(#p6467f1ef08)" style="fill: #00a3a3; stroke: #ffffff; stroke-width: 0.5"/>
    <path d="M 179.34 580.08 
L 216.54 580.08 
L 216.54 598.56 
L 179.34 598.56 
L 179.34 580.08 
" clip-path="url(#p6467f1ef08)" style="fill: #d3d3d3; stroke: #ffffff; stroke-width: 0.5"/>
    <path d="M 104.94 598.56 
L 142.14 598.56 
L 142.14 617.04 
L 104.94 617.04 
L 104.94 598.56 
" clip-path="url(#p6467f1ef08)" style="fill: #e67300; stroke: #ffffff; stroke-width: 0.5"/>
    <path d="M 142.14 598.56 
L 179.34 598.56 
L 179.34 617.04 
L 142.14 617.04 
L 142.14 598.56 
" clip-path="url(#p6467f1ef08)" style="fill: #d3d3d3; stroke: #ffffff; stroke-width: 0.5"/>
    <path d="M 179.34 598.56 
L 216.54 598.56 
L 216.54 617.04 
L 179.34 617.04 
L 179.34 598.56 
" clip-path="url(#p6467f1ef08)" style="fill: #00a3a3; stroke: #ffffff; stroke-width: 0.5"/>
    <path d="M 104.94 617.04 
L 142.14 617.04 
L 142.14 635.52 
L 104.94 635.52 
L 104.94 617.04 
" clip-path="url(#p6467f1ef08)" style="fill: #e67300; stroke: #ffffff; stroke-width: 0.5"/>
    <path d="M 142.14 617.04 
L 179.34 617.04 
L 179.34 635.52 
L 142.14 635.52 
L 142.14 617.04 
" clip-path="url(#p6467f1ef08)" style="fill: #d3d3d3; stroke: #ffffff; stroke-width: 0.5"/>
    <path d="M 179.34 617.04 
L 216.54 617.04 
L 216.54 635.52 
L 179.34 635.52 
L 179.34 617.04 
" clip-path="url(#p6467f1ef08)" style="fill: #00a3a3; stroke: #ffffff; stroke-width: 0.5"/>
    <path d="M 104.94 635.52 
L 142.14 635.52 
L 142.14 654 
L 104.94 654 
L 104.94 635.52 
" clip-path="url(#p6467f1ef08)" style="fill: #e67300; stroke: #ffffff; stroke-width: 0.5"/>
    <path d="M 142.14 635.52 
L 179.34 635.52 
L 179.34 654 
L 142.14 654 
L 142.14 635.52 
" clip-path="url(#p6467f1ef08)" style="fill: #d3d3d3; stroke: #ffffff; stroke-width: 0.5"/>
    <path d="M 179.34 635.52 
L 216.54 635.52 
L 216.54 654 
L 179.34 654 
L 179.34 635.52 
" clip-path="url(#p6467f1ef08)" style="fill: #00a3a3; stroke: #ffffff; stroke-width: 0.5"/>
    <path d="M 104.94 654 
L 142.14 654 
L 142.14 672.48 
L 104.94 672.48 
L 104.94 654 
" clip-path="url(#p6467f1ef08)" style="fill: #e67300; stroke: #ffffff; stroke-width: 0.5"/>
    <path d="M 142.14 654 
L 179.34 654 
L 179.34 672.48 
L 142.14 672.48 
L 142.14 654 
" clip-path="url(#p6467f1ef08)" style="fill: #d3d3d3; stroke: #ffffff; stroke-width: 0.5"/>
    <path d="M 179.34 654 
L 216.54 654 
L 216.54 672.48 
L 179.34 672.48 
L 179.34 654 
" clip-path="url(#p6467f1ef08)" style="fill: #00a3a3; stroke: #ffffff; stroke-width: 0.5"/>
    <path d="M 104.94 672.48 
L 142.14 672.48 
L 142.14 690.96 
L 104.94 690.96 
L 104.94 672.48 
" clip-path="url(#p6467f1ef08)" style="fill: #e67300; stroke: #ffffff; stroke-width: 0.5"/>
    <path d="M 142.14 672.48 
L 179.34 672.48 
L 179.34 690.96 
L 142.14 690.96 
L 142.14 672.48 
" clip-path="url(#p6467f1ef08)" style="fill: #d3d3d3; stroke: #ffffff; stroke-width: 0.5"/>
    <path d="M 179.34 672.48 
L 216.54 672.48 
L 216.54 690.96 
L 179.34 690.96 
L 179.34 672.48 
" clip-path="url(#p6467f1ef08)" style="fill: #00a3a3; stroke: #ffffff; stroke-width: 0.5"/>
    <path d="M 104.94 690.96 
L 142.14 690.96 
L 142.14 709.44 
L 104.94 709.44 
L 104.94 690.96 
" clip-path="url(#p6467f1ef08)" style="fill: #e67300; stroke: #ffffff; stroke-width: 0.5"/>
    <path d="M 142.14 690.96 
L 179.34 690.96 
L 179.34 709.44 
L 142.14 709.44 
L 142.14 690.96 
" clip-path="url(#p6467f1ef08)" style="fill: #d3d3d3; stroke: #ffffff; stroke-width: 0.5"/>
    <path d="M 179.34 690.96 
L 216.54 690.96 
L 216.54 709.44 
L 179.34 709.44 
L 179.34 690.96 
" clip-path="url(#p6467f1ef08)" style="fill: #00a3a3; stroke: #ffffff; stroke-width: 0.5"/>
    <path d="M 104.94 709.44 
L 142.14 709.44 
L 142.14 727.92 
L 104.94 727.92 
L 104.94 709.44 
" clip-path="url(#p6467f1ef08)" style="fill: #e67300; stroke: #ffffff; stroke-width: 0.5"/>
    <path d="M 142.14 709.44 
L 179.34 709.44 
L 179.34 727.92 
L 142.14 727.92 
L 142.14 709.44 
" clip-path="url(#p6467f1ef08)" style="fill: #d3d3d3; stroke: #ffffff; stroke-width: 0.5"/>
    <path d="M 179.34 709.44 
L 216.54 709.44 
L 216.54 727.92 
L 179.34 727.92 
L 179.34 709.44 
" clip-path="url(#p6467f1ef08)" style="fill: #00a3a3; stroke: #ffffff; stroke-width: 0.5"/>
    <path d="M 104.94 727.92 
L 142.14 727.92 
L 142.14 746.4 
L 104.94 746.4 
L 104.94 727.92 
" clip-path="url(#p6467f1ef08)" style="fill: #e67300; stroke: #ffffff; stroke-width: 0.5"/>
    <path d="M 142.14 727.92 
L 179.34 727.92 
L 179.34 746.4 
L 142.14 746.4 
L 142.14 727.92 
" clip-path="url(#p6467f1ef08)" style="fill: #d3d3d3; stroke: #ffffff; stroke-width: 0.5"/>
    <path d="M 179.34 727.92 
L 216.54 727.92 
L 216.54 746.4 
L 179.34 746.4 
L 179.34 727.92 
" clip-path="url(#p6467f1ef08)" style="fill: #00a3a3; stroke: #ffffff; stroke-width: 0.5"/>
    <path d="M 104.94 746.4 
L 142.14 746.4 
L 142.14 764.88 
L 104.94 764.88 
L 104.94 746.4 
" clip-path="url(#p6467f1ef08)" style="fill: #d3d3d3; stroke: #ffffff; stroke-width: 0.5"/>
    <path d="M 142.14 746.4 
L 179.34 746.4 
L 179.34 764.88 
L 142.14 764.88 
L 142.14 746.4 
" clip-path="url(#p6467f1ef08)" style="fill: #e67300; stroke: #ffffff; stroke-width: 0.5"/>
    <path d="M 179.34 746.4 
L 216.54 746.4 
L 216.54 764.88 
L 179.34 764.88 
L 179.34 746.4 
" clip-path="url(#p6467f1ef08)" style="fill: #00a3a3; stroke: #ffffff; stroke-width: 0.5"/>
    <path d="M 104.94 764.88 
L 142.14 764.88 
L 142.14 783.36 
L 104.94 783.36 
L 104.94 764.88 
" clip-path="url(#p6467f1ef08)" style="fill: #00a3a3; stroke: #ffffff; stroke-width: 0.5"/>
    <path d="M 142.14 764.88 
L 179.34 764.88 
L 179.34 783.36 
L 142.14 783.36 
L 142.14 764.88 
" clip-path="url(#p6467f1ef08)" style="fill: #d3d3d3; stroke: #ffffff; stroke-width: 0.5"/>
    <path d="M 179.34 764.88 
L 216.54 764.88 
L 216.54 783.36 
L 179.34 783.36 
L 179.34 764.88 
" clip-path="url(#p6467f1ef08)" style="fill: #e67300; stroke: #ffffff; stroke-width: 0.5"/>
    <path d="M 104.94 783.36 
L 142.14 783.36 
L 142.14 801.84 
L 104.94 801.84 
L 104.94 783.36 
" clip-path="url(#p6467f1ef08)" style="fill: #d3d3d3; stroke: #ffffff; stroke-width: 0.5"/>
    <path d="M 142.14 783.36 
L 179.34 783.36 
L 179.34 801.84 
L 142.14 801.84 
L 142.14 783.36 
" clip-path="url(#p6467f1ef08)" style="fill: #00a3a3; stroke: #ffffff; stroke-width: 0.5"/>
    <path d="M 179.34 783.36 
L 216.54 783.36 
L 216.54 801.84 
L 179.34 801.84 
L 179.34 783.36 
" clip-path="url(#p6467f1ef08)" style="fill: #e67300; stroke: #ffffff; stroke-width: 0.5"/>
    <path d="M 104.94 801.84 
L 142.14 801.84 
L 142.14 820.32 
L 104.94 820.32 
L 104.94 801.84 
" clip-path="url(#p6467f1ef08)" style="fill: #e67300; stroke: #ffffff; stroke-width: 0.5"/>
    <path d="M 142.14 801.84 
L 179.34 801.84 
L 179.34 820.32 
L 142.14 820.32 
L 142.14 801.84 
" clip-path="url(#p6467f1ef08)" style="fill: #d3d3d3; stroke: #ffffff; stroke-width: 0.5"/>
    <path d="M 179.34 801.84 
L 216.54 801.84 
L 216.54 820.32 
L 179.34 820.32 
L 179.34 801.84 
" clip-path="url(#p6467f1ef08)" style="fill: #d3d3d3; stroke: #ffffff; stroke-width: 0.5"/>
    <path d="M 104.94 820.32 
L 142.14 820.32 
L 142.14 838.8 
L 104.94 838.8 
L 104.94 820.32 
" clip-path="url(#p6467f1ef08)" style="fill: #e67300; stroke: #ffffff; stroke-width: 0.5"/>
    <path d="M 142.14 820.32 
L 179.34 820.32 
L 179.34 838.8 
L 142.14 838.8 
L 142.14 820.32 
" clip-path="url(#p6467f1ef08)" style="fill: #d3d3d3; stroke: #ffffff; stroke-width: 0.5"/>
    <path d="M 179.34 820.32 
L 216.54 820.32 
L 216.54 838.8 
L 179.34 838.8 
L 179.34 820.32 
" clip-path="url(#p6467f1ef08)" style="fill: #d3d3d3; stroke: #ffffff; stroke-width: 0.5"/>
    <path d="M 104.94 838.8 
L 142.14 838.8 
L 142.14 857.28 
L 104.94 857.28 
L 104.94 838.8 
" clip-path="url(#p6467f1ef08)" style="fill: #e67300; stroke: #ffffff; stroke-width: 0.5"/>
    <path d="M 142.14 838.8 
L 179.34 838.8 
L 179.34 857.28 
L 142.14 857.28 
L 142.14 838.8 
" clip-path="url(#p6467f1ef08)" style="fill: #d3d3d3; stroke: #ffffff; stroke-width: 0.5"/>
    <path d="M 179.34 838.8 
L 216.54 838.8 
L 216.54 857.28 
L 179.34 857.28 
L 179.34 838.8 
" clip-path="url(#p6467f1ef08)" style="fill: #d3d3d3; stroke: #ffffff; stroke-width: 0.5"/>
    <path d="M 104.94 857.28 
L 142.14 857.28 
L 142.14 875.76 
L 104.94 875.76 
L 104.94 857.28 
" clip-path="url(#p6467f1ef08)" style="fill: #e67300; stroke: #ffffff; stroke-width: 0.5"/>
    <path d="M 142.14 857.28 
L 179.34 857.28 
L 179.34 875.76 
L 142.14 875.76 
L 142.14 857.28 
" clip-path="url(#p6467f1ef08)" style="fill: #d3d3d3; stroke: #ffffff; stroke-width: 0.5"/>
    <path d="M 179.34 857.28 
L 216.54 857.28 
L 216.54 875.76 
L 179.34 875.76 
L 179.34 857.28 
" clip-path="url(#p6467f1ef08)" style="fill: #d3d3d3; stroke: #ffffff; stroke-width: 0.5"/>
    <path d="M 104.94 875.76 
L 142.14 875.76 
L 142.14 894.24 
L 104.94 894.24 
L 104.94 875.76 
" clip-path="url(#p6467f1ef08)" style="fill: #e67300; stroke: #ffffff; stroke-width: 0.5"/>
    <path d="M 142.14 875.76 
L 179.34 875.76 
L 179.34 894.24 
L 142.14 894.24 
L 142.14 875.76 
" clip-path="url(#p6467f1ef08)" style="fill: #d3d3d3; stroke: #ffffff; stroke-width: 0.5"/>
    <path d="M 179.34 875.76 
L 216.54 875.76 
L 216.54 894.24 
L 179.34 894.24 
L 179.34 875.76 
" clip-path="url(#p6467f1ef08)" style="fill: #d3d3d3; stroke: #ffffff; stroke-width: 0.5"/>
    <path d="M 104.94 894.24 
L 142.14 894.24 
L 142.14 912.72 
L 104.94 912.72 
L 104.94 894.24 
" clip-path="url(#p6467f1ef08)" style="fill: #e67300; stroke: #ffffff; stroke-width: 0.5"/>
    <path d="M 142.14 894.24 
L 179.34 894.24 
L 179.34 912.72 
L 142.14 912.72 
L 142.14 894.24 
" clip-path="url(#p6467f1ef08)" style="fill: #d3d3d3; stroke: #ffffff; stroke-width: 0.5"/>
    <path d="M 179.34 894.24 
L 216.54 894.24 
L 216.54 912.72 
L 179.34 912.72 
L 179.34 894.24 
" clip-path="url(#p6467f1ef08)" style="fill: #d3d3d3; stroke: #ffffff; stroke-width: 0.5"/>
    <path d="M 104.94 912.72 
L 142.14 912.72 
L 142.14 931.2 
L 104.94 931.2 
L 104.94 912.72 
" clip-path="url(#p6467f1ef08)" style="fill: #d3d3d3; stroke: #ffffff; stroke-width: 0.5"/>
    <path d="M 142.14 912.72 
L 179.34 912.72 
L 179.34 931.2 
L 142.14 931.2 
L 142.14 912.72 
" clip-path="url(#p6467f1ef08)" style="fill: #e67300; stroke: #ffffff; stroke-width: 0.5"/>
    <path d="M 179.34 912.72 
L 216.54 912.72 
L 216.54 931.2 
L 179.34 931.2 
L 179.34 912.72 
" clip-path="url(#p6467f1ef08)" style="fill: #d3d3d3; stroke: #ffffff; stroke-width: 0.5"/>
    <path d="M 104.94 931.2 
L 142.14 931.2 
L 142.14 949.68 
L 104.94 949.68 
L 104.94 931.2 
" clip-path="url(#p6467f1ef08)" style="fill: #d3d3d3; stroke: #ffffff; stroke-width: 0.5"/>
    <path d="M 142.14 931.2 
L 179.34 931.2 
L 179.34 949.68 
L 142.14 949.68 
L 142.14 931.2 
" clip-path="url(#p6467f1ef08)" style="fill: #e67300; stroke: #ffffff; stroke-width: 0.5"/>
    <path d="M 179.34 931.2 
L 216.54 931.2 
L 216.54 949.68 
L 179.34 949.68 
L 179.34 931.2 
" clip-path="url(#p6467f1ef08)" style="fill: #d3d3d3; stroke: #ffffff; stroke-width: 0.5"/>
    <path d="M 104.94 949.68 
L 142.14 949.68 
L 142.14 968.16 
L 104.94 968.16 
L 104.94 949.68 
" clip-path="url(#p6467f1ef08)" style="fill: #d3d3d3; stroke: #ffffff; stroke-width: 0.5"/>
    <path d="M 142.14 949.68 
L 179.34 949.68 
L 179.34 968.16 
L 142.14 968.16 
L 142.14 949.68 
" clip-path="url(#p6467f1ef08)" style="fill: #e67300; stroke: #ffffff; stroke-width: 0.5"/>
    <path d="M 179.34 949.68 
L 216.54 949.68 
L 216.54 968.16 
L 179.34 968.16 
L 179.34 949.68 
" clip-path="url(#p6467f1ef08)" style="fill: #d3d3d3; stroke: #ffffff; stroke-width: 0.5"/>
    <path d="M 104.94 968.16 
L 142.14 968.16 
L 142.14 986.64 
L 104.94 986.64 
L 104.94 968.16 
" clip-path="url(#p6467f1ef08)" style="fill: #d3d3d3; stroke: #ffffff; stroke-width: 0.5"/>
    <path d="M 142.14 968.16 
L 179.34 968.16 
L 179.34 986.64 
L 142.14 986.64 
L 142.14 968.16 
" clip-path="url(#p6467f1ef08)" style="fill: #e67300; stroke: #ffffff; stroke-width: 0.5"/>
    <path d="M 179.34 968.16 
L 216.54 968.16 
L 216.54 986.64 
L 179.34 986.64 
L 179.34 968.16 
" clip-path="url(#p6467f1ef08)" style="fill: #d3d3d3; stroke: #ffffff; stroke-width: 0.5"/>
    <path d="M 104.94 986.64 
L 142.14 986.64 
L 142.14 1005.12 
L 104.94 1005.12 
L 104.94 986.64 
" clip-path="url(#p6467f1ef08)" style="fill: #d3d3d3; stroke: #ffffff; stroke-width: 0.5"/>
    <path d="M 142.14 986.64 
L 179.34 986.64 
L 179.34 1005.12 
L 142.14 1005.12 
L 142.14 986.64 
" clip-path="url(#p6467f1ef08)" style="fill: #d3d3d3; stroke: #ffffff; stroke-width: 0.5"/>
    <path d="M 179.34 986.64 
L 216.54 986.64 
L 216.54 1005.12 
L 179.34 1005.12 
L 179.34 986.64 
" clip-path="url(#p6467f1ef08)" style="fill: #e67300; stroke: #ffffff; stroke-width: 0.5"/>
    <path d="M 104.94 1005.12 
L 142.14 1005.12 
L 142.14 1023.6 
L 104.94 1023.6 
L 104.94 1005.12 
" clip-path="url(#p6467f1ef08)" style="fill: #d3d3d3; stroke: #ffffff; stroke-width: 0.5"/>
    <path d="M 142.14 1005.12 
L 179.34 1005.12 
L 179.34 1023.6 
L 142.14 1023.6 
L 142.14 1005.12 
" clip-path="url(#p6467f1ef08)" style="fill: #d3d3d3; stroke: #ffffff; stroke-width: 0.5"/>
    <path d="M 179.34 1005.12 
L 216.54 1005.12 
L 216.54 1023.6 
L 179.34 1023.6 
L 179.34 1005.12 
" clip-path="url(#p6467f1ef08)" style="fill: #e67300; stroke: #ffffff; stroke-width: 0.5"/>
    <path d="M 104.94 1023.6 
L 142.14 1023.6 
L 142.14 1042.08 
L 104.94 1042.08 
L 104.94 1023.6 
" clip-path="url(#p6467f1ef08)" style="fill: #d3d3d3; stroke: #ffffff; stroke-width: 0.5"/>
    <path d="M 142.14 1023.6 
L 179.34 1023.6 
L 179.34 1042.08 
L 142.14 1042.08 
L 142.14 1023.6 
" clip-path="url(#p6467f1ef08)" style="fill: #d3d3d3; stroke: #ffffff; stroke-width: 0.5"/>
    <path d="M 179.34 1023.6 
L 216.54 1023.6 
L 216.54 1042.08 
L 179.34 1042.08 
L 179.34 1023.6 
" clip-path="url(#p6467f1ef08)" style="fill: #e67300; stroke: #ffffff; stroke-width: 0.5"/>
    <path d="M 104.94 1042.08 
L 142.14 1042.08 
L 142.14 1060.56 
L 104.94 1060.56 
L 104.94 1042.08 
" clip-path="url(#p6467f1ef08)" style="fill: #d3d3d3; stroke: #ffffff; stroke-width: 0.5"/>
    <path d="M 142.14 1042.08 
L 179.34 1042.08 
L 179.34 1060.56 
L 142.14 1060.56 
L 142.14 1042.08 
" clip-path="url(#p6467f1ef08)" style="fill: #d3d3d3; stroke: #ffffff; stroke-width: 0.5"/>
    <path d="M 179.34 1042.08 
L 216.54 1042.08 
L 216.54 1060.56 
L 179.34 1060.56 
L 179.34 1042.08 
" clip-path="url(#p6467f1ef08)" style="fill: #e67300; stroke: #ffffff; stroke-width: 0.5"/>
    <path d="M 104.94 1060.56 
L 142.14 1060.56 
L 142.14 1079.04 
L 104.94 1079.04 
L 104.94 1060.56 
" clip-path="url(#p6467f1ef08)" style="fill: #d3d3d3; stroke: #ffffff; stroke-width: 0.5"/>
    <path d="M 142.14 1060.56 
L 179.34 1060.56 
L 179.34 1079.04 
L 142.14 1079.04 
L 142.14 1060.56 
" clip-path="url(#p6467f1ef08)" style="fill: #d3d3d3; stroke: #ffffff; stroke-width: 0.5"/>
    <path d="M 179.34 1060.56 
L 216.54 1060.56 
L 216.54 1079.04 
L 179.34 1079.04 
L 179.34 1060.56 
" clip-path="url(#p6467f1ef08)" style="fill: #e67300; stroke: #ffffff; stroke-width: 0.5"/>
    <path d="M 104.94 1079.04 
L 142.14 1079.04 
L 142.14 1097.52 
L 104.94 1097.52 
L 104.94 1079.04 
" clip-path="url(#p6467f1ef08)" style="fill: #d3d3d3; stroke: #ffffff; stroke-width: 0.5"/>
    <path d="M 142.14 1079.04 
L 179.34 1079.04 
L 179.34 1097.52 
L 142.14 1097.52 
L 142.14 1079.04 
" clip-path="url(#p6467f1ef08)" style="fill: #d3d3d3; stroke: #ffffff; stroke-width: 0.5"/>
    <path d="M 179.34 1079.04 
L 216.54 1079.04 
L 216.54 1097.52 
L 179.34 1097.52 
L 179.34 1079.04 
" clip-path="url(#p6467f1ef08)" style="fill: #e67300; stroke: #ffffff; stroke-width: 0.5"/>
    <path d="M 104.94 1097.52 
L 142.14 1097.52 
L 142.14 1116 
L 104.94 1116 
L 104.94 1097.52 
" clip-path="url(#p6467f1ef08)" style="fill: #d3d3d3; stroke: #ffffff; stroke-width: 0.5"/>
    <path d="M 142.14 1097.52 
L 179.34 1097.52 
L 179.34 1116 
L 142.14 1116 
L 142.14 1097.52 
" clip-path="url(#p6467f1ef08)" style="fill: #d3d3d3; stroke: #ffffff; stroke-width: 0.5"/>
    <path d="M 179.34 1097.52 
L 216.54 1097.52 
L 216.54 1116 
L 179.34 1116 
L 179.34 1097.52 
" clip-path="url(#p6467f1ef08)" style="fill: #e67300; stroke: #ffffff; stroke-width: 0.5"/>
   </g>
   <g id="matplotlib.axis_1">
    <g id="xtick_1">
     <g id="line2d_1"/>
     <g id="text_1">
      <text style="font: 16px 'Arial'" transform="translate(51.840913 1169.895656) rotate(-30)">Abundance</text>
     </g>
    </g>
    <g id="xtick_2">
     <g id="line2d_2"/>
     <g id="text_2">
      <text style="font: 16px 'Arial'" transform="translate(94.453572 1166.770656) rotate(-30)">Interaction</text>
     </g>
    </g>
    <g id="xtick_3">
     <g id="line2d_3"/>
     <g id="text_3">
      <text style="font: 16px 'Arial'" transform="translate(123.175184 1171.665656) rotate(-30)">Localization</text>
     </g>
    </g>
   </g>
   <g id="matplotlib.axis_2">
    <g id="ytick_1">
     <g id="line2d_4"/>
     <g id="text_4">
      <text style="font: 16px 'Arial'; text-anchor: end" x="101.44" y="20.57625" transform="rotate(-0 101.44 20.57625)">FBP1</text>
     </g>
    </g>
    <g id="ytick_2">
     <g id="line2d_5"/>
     <g id="text_5">
      <text style="font: 16px 'Arial'; text-anchor: end" x="101.44" y="39.05625" transform="rotate(-0 101.44 39.05625)">MVK</text>
     </g>
    </g>
    <g id="ytick_3">
     <g id="line2d_6"/>
     <g id="text_6">
      <text style="font: 16px 'Arial'; text-anchor: end" x="101.44" y="57.53625" transform="rotate(-0 101.44 57.53625)">NR0B1</text>
     </g>
    </g>
    <g id="ytick_4">
     <g id="line2d_7"/>
     <g id="text_7">
      <text style="font: 16px 'Arial'; text-anchor: end" x="101.44" y="76.01625" transform="rotate(-0 101.44 76.01625)">SMAD3</text>
     </g>
    </g>
    <g id="ytick_5">
     <g id="line2d_8"/>
     <g id="text_8">
      <text style="font: 16px 'Arial'; text-anchor: end" x="101.44" y="94.49625" transform="rotate(-0 101.44 94.49625)">HGD</text>
     </g>
    </g>
    <g id="ytick_6">
     <g id="line2d_9"/>
     <g id="text_9">
      <text style="font: 16px 'Arial'; text-anchor: end" x="101.44" y="112.97625" transform="rotate(-0 101.44 112.97625)">NMNAT1</text>
     </g>
    </g>
    <g id="ytick_7">
     <g id="line2d_10"/>
     <g id="text_10">
      <text style="font: 16px 'Arial'; text-anchor: end" x="101.44" y="131.45625" transform="rotate(-0 101.44 131.45625)">BAG3</text>
     </g>
    </g>
    <g id="ytick_8">
     <g id="line2d_11"/>
     <g id="text_11">
      <text style="font: 16px 'Arial'; text-anchor: end" x="101.44" y="149.93625" transform="rotate(-0 101.44 149.93625)">SFTPC</text>
     </g>
    </g>
    <g id="ytick_9">
     <g id="line2d_12"/>
     <g id="text_12">
      <text style="font: 16px 'Arial'; text-anchor: end" x="101.44" y="168.41625" transform="rotate(-0 101.44 168.41625)">GALE</text>
     </g>
    </g>
    <g id="ytick_10">
     <g id="line2d_13"/>
     <g id="text_13">
      <text style="font: 16px 'Arial'; text-anchor: end" x="101.44" y="186.89625" transform="rotate(-0 101.44 186.89625)">GCK</text>
     </g>
    </g>
    <g id="ytick_11">
     <g id="line2d_14"/>
     <g id="text_14">
      <text style="font: 16px 'Arial'; text-anchor: end" x="101.44" y="205.37625" transform="rotate(-0 101.44 205.37625)">KCTD7</text>
     </g>
    </g>
    <g id="ytick_12">
     <g id="line2d_15"/>
     <g id="text_15">
      <text style="font: 16px 'Arial'; text-anchor: end" x="101.44" y="223.85625" transform="rotate(-0 101.44 223.85625)">KLHL3</text>
     </g>
    </g>
    <g id="ytick_13">
     <g id="line2d_16"/>
     <g id="text_16">
      <text style="font: 16px 'Arial'; text-anchor: end" x="101.44" y="242.33625" transform="rotate(-0 101.44 242.33625)">PYGL</text>
     </g>
    </g>
    <g id="ytick_14">
     <g id="line2d_17"/>
     <g id="text_17">
      <text style="font: 16px 'Arial'; text-anchor: end" x="101.44" y="260.81625" transform="rotate(-0 101.44 260.81625)">SH3BP2</text>
     </g>
    </g>
    <g id="ytick_15">
     <g id="line2d_18"/>
     <g id="text_18">
      <text style="font: 16px 'Arial'; text-anchor: end" x="101.44" y="279.29625" transform="rotate(-0 101.44 279.29625)">STAR</text>
     </g>
    </g>
    <g id="ytick_16">
     <g id="line2d_19"/>
     <g id="text_19">
      <text style="font: 16px 'Arial'; text-anchor: end" x="101.44" y="297.77625" transform="rotate(-0 101.44 297.77625)">ALAS2</text>
     </g>
    </g>
    <g id="ytick_17">
     <g id="line2d_20"/>
     <g id="text_20">
      <text style="font: 16px 'Arial'; text-anchor: end" x="101.44" y="316.25625" transform="rotate(-0 101.44 316.25625)">GMPPB</text>
     </g>
    </g>
    <g id="ytick_18">
     <g id="line2d_21"/>
     <g id="text_21">
      <text style="font: 16px 'Arial'; text-anchor: end" x="101.44" y="334.73625" transform="rotate(-0 101.44 334.73625)">AGXT</text>
     </g>
    </g>
    <g id="ytick_19">
     <g id="line2d_22"/>
     <g id="text_22">
      <text style="font: 16px 'Arial'; text-anchor: end" x="101.44" y="353.21625" transform="rotate(-0 101.44 353.21625)">GFAP</text>
     </g>
    </g>
    <g id="ytick_20">
     <g id="line2d_23"/>
     <g id="text_23">
      <text style="font: 16px 'Arial'; text-anchor: end" x="101.44" y="371.69625" transform="rotate(-0 101.44 371.69625)">PMP22</text>
     </g>
    </g>
    <g id="ytick_21">
     <g id="line2d_24"/>
     <g id="text_24">
      <text style="font: 16px 'Arial'; text-anchor: end" x="101.44" y="390.17625" transform="rotate(-0 101.44 390.17625)">ASNS</text>
     </g>
    </g>
    <g id="ytick_22">
     <g id="line2d_25"/>
     <g id="text_25">
      <text style="font: 16px 'Arial'; text-anchor: end" x="101.44" y="408.65625" transform="rotate(-0 101.44 408.65625)">STXBP1</text>
     </g>
    </g>
    <g id="ytick_23">
     <g id="line2d_26"/>
     <g id="text_26">
      <text style="font: 16px 'Arial'; text-anchor: end" x="101.44" y="427.13625" transform="rotate(-0 101.44 427.13625)">DCX</text>
     </g>
    </g>
    <g id="ytick_24">
     <g id="line2d_27"/>
     <g id="text_27">
      <text style="font: 16px 'Arial'; text-anchor: end" x="101.44" y="445.61625" transform="rotate(-0 101.44 445.61625)">PLP1</text>
     </g>
    </g>
    <g id="ytick_25">
     <g id="line2d_28"/>
     <g id="text_28">
      <text style="font: 16px 'Arial'; text-anchor: end" x="101.44" y="464.09625" transform="rotate(-0 101.44 464.09625)">CHN1</text>
     </g>
    </g>
    <g id="ytick_26">
     <g id="line2d_29"/>
     <g id="text_29">
      <text style="font: 16px 'Arial'; text-anchor: end" x="101.44" y="482.57625" transform="rotate(-0 101.44 482.57625)">COQ8A</text>
     </g>
    </g>
    <g id="ytick_27">
     <g id="line2d_30"/>
     <g id="text_30">
      <text style="font: 16px 'Arial'; text-anchor: end" x="101.44" y="501.05625" transform="rotate(-0 101.44 501.05625)">KCNJ2</text>
     </g>
    </g>
    <g id="ytick_28">
     <g id="line2d_31"/>
     <g id="text_31">
      <text style="font: 16px 'Arial'; text-anchor: end" x="101.44" y="519.53625" transform="rotate(-0 101.44 519.53625)">NAA10</text>
     </g>
    </g>
    <g id="ytick_29">
     <g id="line2d_32"/>
     <g id="text_32">
      <text style="font: 16px 'Arial'; text-anchor: end" x="101.44" y="538.01625" transform="rotate(-0 101.44 538.01625)">NEUROG3</text>
     </g>
    </g>
    <g id="ytick_30">
     <g id="line2d_33"/>
     <g id="text_33">
      <text style="font: 16px 'Arial'; text-anchor: end" x="101.44" y="556.49625" transform="rotate(-0 101.44 556.49625)">PITX2</text>
     </g>
    </g>
    <g id="ytick_31">
     <g id="line2d_34"/>
     <g id="text_34">
      <text style="font: 16px 'Arial'; text-anchor: end" x="101.44" y="574.97625" transform="rotate(-0 101.44 574.97625)">PKP2</text>
     </g>
    </g>
    <g id="ytick_32">
     <g id="line2d_35"/>
     <g id="text_35">
      <text style="font: 16px 'Arial'; text-anchor: end" x="101.44" y="593.45625" transform="rotate(-0 101.44 593.45625)">SMARCB1</text>
     </g>
    </g>
    <g id="ytick_33">
     <g id="line2d_36"/>
     <g id="text_36">
      <text style="font: 16px 'Arial'; text-anchor: end" x="101.44" y="611.93625" transform="rotate(-0 101.44 611.93625)">AMPD2</text>
     </g>
    </g>
    <g id="ytick_34">
     <g id="line2d_37"/>
     <g id="text_37">
      <text style="font: 16px 'Arial'; text-anchor: end" x="101.44" y="630.41625" transform="rotate(-0 101.44 630.41625)">CLDN19</text>
     </g>
    </g>
    <g id="ytick_35">
     <g id="line2d_38"/>
     <g id="text_38">
      <text style="font: 16px 'Arial'; text-anchor: end" x="101.44" y="648.89625" transform="rotate(-0 101.44 648.89625)">COMP</text>
     </g>
    </g>
    <g id="ytick_36">
     <g id="line2d_39"/>
     <g id="text_39">
      <text style="font: 16px 'Arial'; text-anchor: end" x="101.44" y="667.37625" transform="rotate(-0 101.44 667.37625)">FXN</text>
     </g>
    </g>
    <g id="ytick_37">
     <g id="line2d_40"/>
     <g id="text_40">
      <text style="font: 16px 'Arial'; text-anchor: end" x="101.44" y="685.85625" transform="rotate(-0 101.44 685.85625)">GAMT</text>
     </g>
    </g>
    <g id="ytick_38">
     <g id="line2d_41"/>
     <g id="text_41">
      <text style="font: 16px 'Arial'; text-anchor: end" x="101.44" y="704.33625" transform="rotate(-0 101.44 704.33625)">KRT4</text>
     </g>
    </g>
    <g id="ytick_39">
     <g id="line2d_42"/>
     <g id="text_42">
      <text style="font: 16px 'Arial'; text-anchor: end" x="101.44" y="722.81625" transform="rotate(-0 101.44 722.81625)">PHYH</text>
     </g>
    </g>
    <g id="ytick_40">
     <g id="line2d_43"/>
     <g id="text_43">
      <text style="font: 16px 'Arial'; text-anchor: end" x="101.44" y="741.29625" transform="rotate(-0 101.44 741.29625)">TAT</text>
     </g>
    </g>
    <g id="ytick_41">
     <g id="line2d_44"/>
     <g id="text_44">
      <text style="font: 16px 'Arial'; text-anchor: end" x="101.44" y="759.77625" transform="rotate(-0 101.44 759.77625)">AP2S1</text>
     </g>
    </g>
    <g id="ytick_42">
     <g id="line2d_45"/>
     <g id="text_45">
      <text style="font: 16px 'Arial'; text-anchor: end" x="101.44" y="778.25625" transform="rotate(-0 101.44 778.25625)">APOA1</text>
     </g>
    </g>
    <g id="ytick_43">
     <g id="line2d_46"/>
     <g id="text_46">
      <text style="font: 16px 'Arial'; text-anchor: end" x="101.44" y="796.73625" transform="rotate(-0 101.44 796.73625)">LITAF</text>
     </g>
    </g>
    <g id="ytick_44">
     <g id="line2d_47"/>
     <g id="text_47">
      <text style="font: 16px 'Arial'; text-anchor: end" x="101.44" y="815.21625" transform="rotate(-0 101.44 815.21625)">CDC73</text>
     </g>
    </g>
    <g id="ytick_45">
     <g id="line2d_48"/>
     <g id="text_48">
      <text style="font: 16px 'Arial'; text-anchor: end" x="101.44" y="833.69625" transform="rotate(-0 101.44 833.69625)">CORO1A</text>
     </g>
    </g>
    <g id="ytick_46">
     <g id="line2d_49"/>
     <g id="text_49">
      <text style="font: 16px 'Arial'; text-anchor: end" x="101.44" y="852.17625" transform="rotate(-0 101.44 852.17625)">MID1</text>
     </g>
    </g>
    <g id="ytick_47">
     <g id="line2d_50"/>
     <g id="text_50">
      <text style="font: 16px 'Arial'; text-anchor: end" x="101.44" y="870.65625" transform="rotate(-0 101.44 870.65625)">ORC6</text>
     </g>
    </g>
    <g id="ytick_48">
     <g id="line2d_51"/>
     <g id="text_51">
      <text style="font: 16px 'Arial'; text-anchor: end" x="101.44" y="889.13625" transform="rotate(-0 101.44 889.13625)">PHYKPL</text>
     </g>
    </g>
    <g id="ytick_49">
     <g id="line2d_52"/>
     <g id="text_52">
      <text style="font: 16px 'Arial'; text-anchor: end" x="101.44" y="907.61625" transform="rotate(-0 101.44 907.61625)">PRPF31</text>
     </g>
    </g>
    <g id="ytick_50">
     <g id="line2d_53"/>
     <g id="text_53">
      <text style="font: 16px 'Arial'; text-anchor: end" x="101.44" y="926.09625" transform="rotate(-0 101.44 926.09625)">HMBS</text>
     </g>
    </g>
    <g id="ytick_51">
     <g id="line2d_54"/>
     <g id="text_54">
      <text style="font: 16px 'Arial'; text-anchor: end" x="101.44" y="944.57625" transform="rotate(-0 101.44 944.57625)">IL36RN</text>
     </g>
    </g>
    <g id="ytick_52">
     <g id="line2d_55"/>
     <g id="text_55">
      <text style="font: 16px 'Arial'; text-anchor: end" x="101.44" y="963.05625" transform="rotate(-0 101.44 963.05625)">PCCA</text>
     </g>
    </g>
    <g id="ytick_53">
     <g id="line2d_56"/>
     <g id="text_56">
      <text style="font: 16px 'Arial'; text-anchor: end" x="101.44" y="981.53625" transform="rotate(-0 101.44 981.53625)">UROD</text>
     </g>
    </g>
    <g id="ytick_54">
     <g id="line2d_57"/>
     <g id="text_57">
      <text style="font: 16px 'Arial'; text-anchor: end" x="101.44" y="1000.01625" transform="rotate(-0 101.44 1000.01625)">F9</text>
     </g>
    </g>
    <g id="ytick_55">
     <g id="line2d_58"/>
     <g id="text_58">
      <text style="font: 16px 'Arial'; text-anchor: end" x="101.44" y="1018.49625" transform="rotate(-0 101.44 1018.49625)">FH</text>
     </g>
    </g>
    <g id="ytick_56">
     <g id="line2d_59"/>
     <g id="text_59">
      <text style="font: 16px 'Arial'; text-anchor: end" x="101.44" y="1036.97625" transform="rotate(-0 101.44 1036.97625)">RHO</text>
     </g>
    </g>
    <g id="ytick_57">
     <g id="line2d_60"/>
     <g id="text_60">
      <text style="font: 16px 'Arial'; text-anchor: end" x="101.44" y="1055.45625" transform="rotate(-0 101.44 1055.45625)">SDHD</text>
     </g>
    </g>
    <g id="ytick_58">
     <g id="line2d_61"/>
     <g id="text_61">
      <text style="font: 16px 'Arial'; text-anchor: end" x="101.44" y="1073.93625" transform="rotate(-0 101.44 1073.93625)">SFTPA2</text>
     </g>
    </g>
    <g id="ytick_59">
     <g id="line2d_62"/>
     <g id="text_62">
      <text style="font: 16px 'Arial'; text-anchor: end" x="101.44" y="1092.41625" transform="rotate(-0 101.44 1092.41625)">SHOC2</text>
     </g>
    </g>
    <g id="ytick_60">
     <g id="line2d_63"/>
     <g id="text_63">
      <text style="font: 16px 'Arial'; text-anchor: end" x="101.44" y="1110.89625" transform="rotate(-0 101.44 1110.89625)">ZC4H2</text>
     </g>
    </g>
    <g id="text_64">
     <text style="font: 12px 'Arial'; text-anchor: middle" x="15.789375" y="561.6" transform="rotate(-90 15.789375 561.6)">symbol</text>
    </g>
   </g>
  </g>
 </g>
 <defs>
  <clipPath id="p6467f1ef08">
   <rect x="104.94" y="7.2" width="111.6" height="1108.8"/>
  </clipPath>
 </defs>
</svg>
