<?xml version="1.0" encoding="utf-8" standalone="no"?>
<!DOCTYPE svg PUBLIC "-//W3C//DTD SVG 1.1//EN"
  "http://www.w3.org/Graphics/SVG/1.1/DTD/svg11.dtd">
<svg xmlns:xlink="http://www.w3.org/1999/xlink" width="352.415794pt" height="328.864747pt" viewBox="0 0 352.415794 328.864747" xmlns="http://www.w3.org/2000/svg" version="1.1">
 <metadata>
  <rdf:RDF xmlns:dc="http://purl.org/dc/elements/1.1/" xmlns:cc="http://creativecommons.org/ns#" xmlns:rdf="http://www.w3.org/1999/02/22-rdf-syntax-ns#">
   <cc:Work>
    <dc:type rdf:resource="http://purl.org/dc/dcmitype/StillImage"/>
    <dc:date>2026-01-29T11:48:10.540479</dc:date>
    <dc:format>image/svg+xml</dc:format>
    <dc:creator>
     <cc:Agent>
      <dc:title>Matplotlib v3.9.4, https://matplotlib.org/</dc:title>
     </cc:Agent>
    </dc:creator>
   </cc:Work>
  </rdf:RDF>
 </metadata>
 <defs>
  <style type="text/css">*{stroke-linejoin: round; stroke-linecap: butt}</style>
 </defs>
 <g id="figure_1">
  <g id="patch_1">
   <path d="M 0 328.864747 
L 352.415794 328.864747 
L 352.415794 0 
L 0 0 
L 0 328.864747 
z
" style="fill: none"/>
  </g>
  <g id="axes_1">
   <g id="patch_2">
    <path d="M 170.694901 64.691966 
C 156.717769 64.691966 142.895461 67.629989 130.126715 73.315 
C 117.35797 79.000012 105.925664 87.306068 96.573137 97.693102 
L 170.694901 164.432638 
z
" style="fill: #f1f1f1"/>
   </g>
   <g id="patch_3">
    <path d="M 96.573145 97.693094 
C 87.220614 108.080128 80.155062 120.318029 75.835889 133.611071 
C 71.516717 146.904114 70.039614 160.957808 71.500618 174.858374 
L 170.694901 164.432638 
z
" style="fill: #c3c3c3"/>
   </g>
   <g id="patch_4">
    <path d="M 71.500618 174.858374 
C 73.701977 195.802898 82.481314 215.521617 96.573133 231.172169 
C 110.664952 246.822722 129.357946 257.615128 149.957628 261.993733 
C 170.557309 266.372332 192.023874 264.116118 211.263046 255.550296 
C 230.502216 246.984474 246.542898 232.541388 257.072849 214.302991 
L 170.694901 164.432638 
z
" style="fill: #969696"/>
   </g>
   <g id="patch_5">
    <path d="M 257.072849 214.302991 
C 265.826272 199.141623 270.435567 181.939509 270.435573 164.432668 
C 270.435573 146.925826 265.826296 129.723711 257.072879 114.562338 
C 248.319462 99.400964 235.726605 86.808107 220.565237 78.054684 
C 205.403869 69.301261 188.201756 64.691966 170.694915 64.691966 
L 170.694901 164.432638 
z
" style="fill: #696969"/>
   </g>
   <g id="matplotlib.axis_1"/>
   <g id="matplotlib.axis_2"/>
   <g id="text_1">
    <text style="font: 12px 'Arial'" transform="translate(77.094039 57.104034)">3 assays</text>
    <text style="font: 12px 'Arial'" transform="translate(69.091539 70.112409)">(4, 13.3%)</text>
   </g>
   <g id="text_2">
    <text style="font: 12px 'Arial'" transform="translate(15.2025 125.841552)">2 assays</text>
    <text style="font: 12px 'Arial'" transform="translate(7.2 138.849927)">(4, 13.3%)</text>
   </g>
   <g id="text_3">
    <text style="font: 12px 'Arial'" transform="translate(105.701284 272.197785)">1 assay</text>
    <text style="font: 12px 'Arial'" transform="translate(85.025659 285.20616)">(12, 40.0%)</text>
   </g>
   <g id="text_4">
    <text style="font: 12px 'Arial'" transform="translate(269.165794 104.108182)">No Phenotype</text>
    <text style="font: 12px 'Arial'" transform="translate(269.165794 117.116557)">(10, 33.3%)</text>
   </g>
  </g>
 </g>
</svg>
