<?xml version="1.0" encoding="utf-8" standalone="no"?>
<!DOCTYPE svg PUBLIC "-//W3C//DTD SVG 1.1//EN"
  "http://www.w3.org/Graphics/SVG/1.1/DTD/svg11.dtd">
<svg xmlns:xlink="http://www.w3.org/1999/xlink" width="635.23689pt" height="276.695391pt" viewBox="0 0 635.23689 276.695391" xmlns="http://www.w3.org/2000/svg" version="1.1">
 <metadata>
  <rdf:RDF xmlns:dc="http://purl.org/dc/elements/1.1/" xmlns:cc="http://creativecommons.org/ns#" xmlns:rdf="http://www.w3.org/1999/02/22-rdf-syntax-ns#">
   <cc:Work>
    <dc:type rdf:resource="http://purl.org/dc/dcmitype/StillImage"/>
    <dc:date>2025-12-16T02:54:50.088553</dc:date>
    <dc:format>image/svg+xml</dc:format>
    <dc:creator>
     <cc:Agent>
      <dc:title>Matplotlib v3.7.5, https://matplotlib.org/</dc:title>
     </cc:Agent>
    </dc:creator>
   </cc:Work>
  </rdf:RDF>
 </metadata>
 <defs>
  <style type="text/css">*{stroke-linejoin: round; stroke-linecap: butt}</style>
 </defs>
 <g id="figure_1">
  <g id="patch_1">
   <path d="M 0 276.695391 
L 635.23689 276.695391 
L 635.23689 0 
L 0 0 
L 0 276.695391 
z
" style="fill: none"/>
  </g>
  <g id="axes_1">
   <g id="patch_2">
    <path d="M 44.605 237.320547 
L 302.760001 237.320547 
L 302.760001 11.136797 
L 44.605 11.136797 
L 44.605 237.320547 
z
" style="fill: none"/>
   </g>
   <g id="PathCollection_1">
    <defs>
     <path id="C0_0_6a5201dbeb" d="M 0 3.535534 
C 0.937635 3.535534 1.836992 3.163008 2.5 2.5 
C 3.163008 1.836992 3.535534 0.937635 3.535534 -0 
C 3.535534 -0.937635 3.163008 -1.836992 2.5 -2.5 
C 1.836992 -3.163008 0.937635 -3.535534 0 -3.535534 
C -0.937635 -3.535534 -1.836992 -3.163008 -2.5 -2.5 
C -3.163008 -1.836992 -3.535534 -0.937635 -3.535534 0 
C -3.535534 0.937635 -3.163008 1.836992 -2.5 2.5 
C -1.836992 3.163008 -0.937635 3.535534 0 3.535534 
z
"/>
    </defs>
    <g clip-path="url(#p7821f22fbc)">
     <use xlink:href="#C0_0_6a5201dbeb" x="179.823628" y="87.97983" style="fill: #ca7682; stroke: #ffffff; stroke-width: 0.565685"/>
    </g>
    <g clip-path="url(#p7821f22fbc)">
     <use xlink:href="#C0_0_6a5201dbeb" x="240.028034" y="219.707435" style="fill: #ca7682; stroke: #ffffff; stroke-width: 0.565685"/>
    </g>
    <g clip-path="url(#p7821f22fbc)">
     <use xlink:href="#C0_0_6a5201dbeb" x="162.931492" y="70.092282" style="fill: #ca7682; stroke: #ffffff; stroke-width: 0.565685"/>
    </g>
    <g clip-path="url(#p7821f22fbc)">
     <use xlink:href="#C0_0_6a5201dbeb" x="170.769837" y="80.870702" style="fill: #ca7682; stroke: #ffffff; stroke-width: 0.565685"/>
    </g>
    <g clip-path="url(#p7821f22fbc)">
     <use xlink:href="#C0_0_6a5201dbeb" x="280.032762" y="216.012204" style="fill: #ca7682; stroke: #ffffff; stroke-width: 0.565685"/>
    </g>
    <g clip-path="url(#p7821f22fbc)">
     <use xlink:href="#C0_0_6a5201dbeb" x="167.361517" y="58.973769" style="fill: #ca7682; stroke: #ffffff; stroke-width: 0.565685"/>
    </g>
    <g clip-path="url(#p7821f22fbc)">
     <use xlink:href="#C0_0_6a5201dbeb" x="128.824901" y="95.764921" style="fill: #ca7682; stroke: #ffffff; stroke-width: 0.565685"/>
    </g>
    <g clip-path="url(#p7821f22fbc)">
     <use xlink:href="#C0_0_6a5201dbeb" x="116.821062" y="78.09326" style="fill: #ca7682; stroke: #ffffff; stroke-width: 0.565685"/>
    </g>
    <g clip-path="url(#p7821f22fbc)">
     <use xlink:href="#C0_0_6a5201dbeb" x="74.938342" y="99.708426" style="fill: #ca7682; stroke: #ffffff; stroke-width: 0.565685"/>
    </g>
    <g clip-path="url(#p7821f22fbc)">
     <use xlink:href="#C0_0_6a5201dbeb" x="268.139598" y="208.727685" style="fill: #ca7682; stroke: #ffffff; stroke-width: 0.565685"/>
    </g>
    <g clip-path="url(#p7821f22fbc)">
     <use xlink:href="#C0_0_6a5201dbeb" x="149.055073" y="50.672242" style="fill: #ca7682; stroke: #ffffff; stroke-width: 0.565685"/>
    </g>
    <g clip-path="url(#p7821f22fbc)">
     <use xlink:href="#C0_0_6a5201dbeb" x="223.539005" y="42.258031" style="fill: #ca7682; stroke: #ffffff; stroke-width: 0.565685"/>
    </g>
    <g clip-path="url(#p7821f22fbc)">
     <use xlink:href="#C0_0_6a5201dbeb" x="140.193206" y="57.348858" style="fill: #ca7682; stroke: #ffffff; stroke-width: 0.565685"/>
    </g>
    <g clip-path="url(#p7821f22fbc)">
     <use xlink:href="#C0_0_6a5201dbeb" x="204.12334" y="168.523288" style="fill: #ca7682; stroke: #ffffff; stroke-width: 0.565685"/>
    </g>
    <g clip-path="url(#p7821f22fbc)">
     <use xlink:href="#C0_0_6a5201dbeb" x="268.524003" y="225.496744" style="fill: #ca7682; stroke: #ffffff; stroke-width: 0.565685"/>
    </g>
    <g clip-path="url(#p7821f22fbc)">
     <use xlink:href="#C0_0_6a5201dbeb" x="288.937369" y="217.614077" style="fill: #ca7682; stroke: #ffffff; stroke-width: 0.565685"/>
    </g>
    <g clip-path="url(#p7821f22fbc)">
     <use xlink:href="#C0_0_6a5201dbeb" x="248.050163" y="219.220376" style="fill: #ca7682; stroke: #ffffff; stroke-width: 0.565685"/>
    </g>
    <g clip-path="url(#p7821f22fbc)">
     <use xlink:href="#C0_0_6a5201dbeb" x="151.300008" y="93.061045" style="fill: #ca7682; stroke: #ffffff; stroke-width: 0.565685"/>
    </g>
    <g clip-path="url(#p7821f22fbc)">
     <use xlink:href="#C0_0_6a5201dbeb" x="93.177863" y="51.328159" style="fill: #ca7682; stroke: #ffffff; stroke-width: 0.565685"/>
    </g>
    <g clip-path="url(#p7821f22fbc)">
     <use xlink:href="#C0_0_6a5201dbeb" x="85.649576" y="79.441569" style="fill: #ca7682; stroke: #ffffff; stroke-width: 0.565685"/>
    </g>
    <g clip-path="url(#p7821f22fbc)">
     <use xlink:href="#C0_0_6a5201dbeb" x="234.5102" y="216.836144" style="fill: #ca7682; stroke: #ffffff; stroke-width: 0.565685"/>
    </g>
    <g clip-path="url(#p7821f22fbc)">
     <use xlink:href="#C0_0_6a5201dbeb" x="287.855545" y="222.637594" style="fill: #ca7682; stroke: #ffffff; stroke-width: 0.565685"/>
    </g>
    <g clip-path="url(#p7821f22fbc)">
     <use xlink:href="#C0_0_6a5201dbeb" x="58.080166" y="74.486995" style="fill: #ca7682; stroke: #ffffff; stroke-width: 0.565685"/>
    </g>
    <g clip-path="url(#p7821f22fbc)">
     <use xlink:href="#C0_0_6a5201dbeb" x="240.747376" y="58.242537" style="fill: #ca7682; stroke: #ffffff; stroke-width: 0.565685"/>
    </g>
    <g clip-path="url(#p7821f22fbc)">
     <use xlink:href="#C0_0_6a5201dbeb" x="86.787227" y="75.652839" style="fill: #ca7682; stroke: #ffffff; stroke-width: 0.565685"/>
    </g>
    <g clip-path="url(#p7821f22fbc)">
     <use xlink:href="#C0_0_6a5201dbeb" x="278.504047" y="218.373951" style="fill: #ca7682; stroke: #ffffff; stroke-width: 0.565685"/>
    </g>
    <g clip-path="url(#p7821f22fbc)">
     <use xlink:href="#C0_0_6a5201dbeb" x="235.962182" y="210.332579" style="fill: #ca7682; stroke: #ffffff; stroke-width: 0.565685"/>
    </g>
    <g clip-path="url(#p7821f22fbc)">
     <use xlink:href="#C0_0_6a5201dbeb" x="241.532589" y="113.841115" style="fill: #a0a0a0; stroke: #ffffff; stroke-width: 0.565685"/>
    </g>
    <g clip-path="url(#p7821f22fbc)">
     <use xlink:href="#C0_0_6a5201dbeb" x="277.100396" y="222.496842" style="fill: #a0a0a0; stroke: #ffffff; stroke-width: 0.565685"/>
    </g>
    <g clip-path="url(#p7821f22fbc)">
     <use xlink:href="#C0_0_6a5201dbeb" x="279.531244" y="215.021466" style="fill: #a0a0a0; stroke: #ffffff; stroke-width: 0.565685"/>
    </g>
    <g clip-path="url(#p7821f22fbc)">
     <use xlink:href="#C0_0_6a5201dbeb" x="96.482181" y="66.175662" style="fill: #a0a0a0; stroke: #ffffff; stroke-width: 0.565685"/>
    </g>
    <g clip-path="url(#p7821f22fbc)">
     <use xlink:href="#C0_0_6a5201dbeb" x="134.909531" y="132.811552" style="fill: #a0a0a0; stroke: #ffffff; stroke-width: 0.565685"/>
    </g>
    <g clip-path="url(#p7821f22fbc)">
     <use xlink:href="#C0_0_6a5201dbeb" x="285.298928" y="217.583191" style="fill: #a0a0a0; stroke: #ffffff; stroke-width: 0.565685"/>
    </g>
    <g clip-path="url(#p7821f22fbc)">
     <use xlink:href="#C0_0_6a5201dbeb" x="169.799209" y="80.154686" style="fill: #a0a0a0; stroke: #ffffff; stroke-width: 0.565685"/>
    </g>
    <g clip-path="url(#p7821f22fbc)">
     <use xlink:href="#C0_0_6a5201dbeb" x="260.191862" y="225.866653" style="fill: #a0a0a0; stroke: #ffffff; stroke-width: 0.565685"/>
    </g>
    <g clip-path="url(#p7821f22fbc)">
     <use xlink:href="#C0_0_6a5201dbeb" x="84.422537" y="94.381715" style="fill: #1d7aab; stroke: #ffffff; stroke-width: 0.565685"/>
    </g>
    <g clip-path="url(#p7821f22fbc)">
     <use xlink:href="#C0_0_6a5201dbeb" x="123.034667" y="72.087313" style="fill: #1d7aab; stroke: #ffffff; stroke-width: 0.565685"/>
    </g>
    <g clip-path="url(#p7821f22fbc)">
     <use xlink:href="#C0_0_6a5201dbeb" x="163.042838" y="73.646516" style="fill: #1d7aab; stroke: #ffffff; stroke-width: 0.565685"/>
    </g>
    <g clip-path="url(#p7821f22fbc)">
     <use xlink:href="#C0_0_6a5201dbeb" x="144.013331" y="72.781405" style="fill: #1d7aab; stroke: #ffffff; stroke-width: 0.565685"/>
    </g>
    <g clip-path="url(#p7821f22fbc)">
     <use xlink:href="#C0_0_6a5201dbeb" x="95.254703" y="67.806537" style="fill: #1d7aab; stroke: #ffffff; stroke-width: 0.565685"/>
    </g>
    <g clip-path="url(#p7821f22fbc)">
     <use xlink:href="#C0_0_6a5201dbeb" x="140.632327" y="68.182728" style="fill: #a0a0a0; stroke: #ffffff; stroke-width: 0.565685"/>
    </g>
    <g clip-path="url(#p7821f22fbc)">
     <use xlink:href="#C0_0_6a5201dbeb" x="100.161529" y="61.734131" style="fill: #a0a0a0; stroke: #ffffff; stroke-width: 0.565685"/>
    </g>
    <g clip-path="url(#p7821f22fbc)">
     <use xlink:href="#C0_0_6a5201dbeb" x="58.922564" y="63.66203" style="fill: #a0a0a0; stroke: #ffffff; stroke-width: 0.565685"/>
    </g>
    <g clip-path="url(#p7821f22fbc)">
     <use xlink:href="#C0_0_6a5201dbeb" x="120.265043" y="65.782352" style="fill: #a0a0a0; stroke: #ffffff; stroke-width: 0.565685"/>
    </g>
    <g clip-path="url(#p7821f22fbc)">
     <use xlink:href="#C0_0_6a5201dbeb" x="131.612656" y="74.541034" style="fill: #a0a0a0; stroke: #ffffff; stroke-width: 0.565685"/>
    </g>
    <g clip-path="url(#p7821f22fbc)">
     <use xlink:href="#C0_0_6a5201dbeb" x="120.796233" y="65.277398" style="fill: #a0a0a0; stroke: #ffffff; stroke-width: 0.565685"/>
    </g>
    <g clip-path="url(#p7821f22fbc)">
     <use xlink:href="#C0_0_6a5201dbeb" x="199.788459" y="86.694718" style="fill: #a0a0a0; stroke: #ffffff; stroke-width: 0.565685"/>
    </g>
    <g clip-path="url(#p7821f22fbc)">
     <use xlink:href="#C0_0_6a5201dbeb" x="123.55225" y="122.722895" style="fill: #a0a0a0; stroke: #ffffff; stroke-width: 0.565685"/>
    </g>
    <g clip-path="url(#p7821f22fbc)">
     <use xlink:href="#C0_0_6a5201dbeb" x="216.581511" y="117.220241" style="fill: #a0a0a0; stroke: #ffffff; stroke-width: 0.565685"/>
    </g>
    <g clip-path="url(#p7821f22fbc)">
     <use xlink:href="#C0_0_6a5201dbeb" x="130.084094" y="101.785336" style="fill: #a0a0a0; stroke: #ffffff; stroke-width: 0.565685"/>
    </g>
   </g>
   <g id="PolyCollection_1">
    <path d="M 58.080166 14.711257 
L 58.080166 47.139657 
L 60.412057 48.835431 
L 62.743948 50.538062 
L 65.075839 52.041923 
L 67.40773 53.471332 
L 69.73962 54.931105 
L 72.071511 56.392871 
L 74.403402 57.761837 
L 76.735293 59.180365 
L 79.067184 60.652167 
L 81.399075 62.144916 
L 83.730966 63.674713 
L 86.062857 65.280213 
L 88.394748 66.88867 
L 90.726639 68.281105 
L 93.05853 69.812942 
L 95.390421 71.209252 
L 97.722312 72.776356 
L 100.054203 74.180203 
L 102.386094 75.726484 
L 104.717985 77.170735 
L 107.049875 78.816455 
L 109.381766 80.513872 
L 111.713657 82.150909 
L 114.045548 83.835821 
L 116.377439 85.51682 
L 118.70933 87.193661 
L 121.041221 88.887966 
L 123.373112 90.603242 
L 125.705003 92.275592 
L 128.036894 93.968801 
L 130.368785 95.652819 
L 132.700676 97.358128 
L 135.032567 99.138894 
L 137.364458 100.928271 
L 139.696349 102.600837 
L 142.02824 104.273805 
L 144.360131 105.837072 
L 146.692021 107.53286 
L 149.023912 109.277335 
L 151.355803 111.081001 
L 153.687694 112.882253 
L 156.019585 114.687284 
L 158.351476 116.466091 
L 160.683367 118.263049 
L 163.015258 120.104263 
L 165.347149 121.891264 
L 167.67904 123.607287 
L 170.010931 125.439968 
L 172.342822 127.272508 
L 174.674713 128.997946 
L 177.006604 130.868973 
L 179.338495 132.744227 
L 181.670386 134.547881 
L 184.002276 136.375199 
L 186.334167 138.274335 
L 188.666058 140.044335 
L 190.997949 141.873411 
L 193.32984 143.773736 
L 195.661731 145.737326 
L 197.993622 147.708324 
L 200.325513 149.677687 
L 202.657404 151.515342 
L 204.989295 153.241808 
L 207.321186 155.025854 
L 209.653077 156.777269 
L 211.984968 158.658979 
L 214.316859 160.597034 
L 216.64875 162.507582 
L 218.980641 164.44949 
L 221.312531 166.269389 
L 223.644422 168.160675 
L 225.976313 170.125182 
L 228.308204 171.944163 
L 230.640095 173.751884 
L 232.971986 175.628881 
L 235.303877 177.563161 
L 237.635768 179.499748 
L 239.967659 181.432992 
L 242.29955 183.384063 
L 244.631441 185.361226 
L 246.963332 187.463375 
L 249.295223 189.486475 
L 251.627114 191.403671 
L 253.959005 193.267526 
L 256.290896 195.194824 
L 258.622786 197.074781 
L 260.954677 198.954737 
L 263.286568 200.834693 
L 265.618459 202.785813 
L 267.95035 204.80435 
L 270.282241 206.796514 
L 272.614132 208.784507 
L 274.946023 210.660825 
L 277.277914 212.574869 
L 279.609805 214.467723 
L 281.941696 216.466118 
L 284.273587 218.656157 
L 286.605478 220.703582 
L 288.937369 222.536305 
L 288.937369 178.253833 
L 288.937369 178.253833 
L 286.605478 176.856478 
L 284.273587 175.459124 
L 281.941696 174.06177 
L 279.609805 172.664415 
L 277.277914 171.267061 
L 274.946023 169.869706 
L 272.614132 168.473504 
L 270.282241 167.078949 
L 267.95035 165.745981 
L 265.618459 164.455199 
L 263.286568 163.164417 
L 260.954677 161.873635 
L 258.622786 160.582853 
L 256.290896 159.292072 
L 253.959005 158.00129 
L 251.627114 156.654255 
L 249.295223 155.176006 
L 246.963332 153.697758 
L 244.631441 152.219509 
L 242.29955 150.656339 
L 239.967659 149.038707 
L 237.635768 147.515567 
L 235.303877 146.11468 
L 232.971986 144.717326 
L 230.640095 143.319971 
L 228.308204 141.865473 
L 225.976313 140.387156 
L 223.644422 138.908838 
L 221.312531 137.475937 
L 218.980641 136.073908 
L 216.64875 134.673955 
L 214.316859 133.330829 
L 211.984968 131.97269 
L 209.653077 130.698691 
L 207.321186 129.216471 
L 204.989295 127.694742 
L 202.657404 126.250631 
L 200.325513 124.87419 
L 197.993622 123.282712 
L 195.661731 121.998995 
L 193.32984 120.653044 
L 190.997949 119.086781 
L 188.666058 117.756226 
L 186.334167 116.124518 
L 184.002276 114.737815 
L 181.670386 113.341524 
L 179.338495 111.650745 
L 177.006604 109.923525 
L 174.674713 108.435678 
L 172.342822 106.944684 
L 170.010931 105.24908 
L 167.67904 103.391176 
L 165.347149 101.938782 
L 163.015258 100.257493 
L 160.683367 98.598097 
L 158.351476 96.9291 
L 156.019585 95.170722 
L 153.687694 93.376361 
L 151.355803 91.655365 
L 149.023912 89.896499 
L 146.692021 88.137207 
L 144.360131 86.368296 
L 142.02824 84.396392 
L 139.696349 82.553987 
L 137.364458 80.486661 
L 135.032567 78.576535 
L 132.700676 76.764913 
L 130.368785 74.838147 
L 128.036894 73.060245 
L 125.705003 71.099845 
L 123.373112 69.139445 
L 121.041221 67.179045 
L 118.70933 65.218645 
L 116.377439 63.260081 
L 114.045548 61.362937 
L 111.713657 59.609494 
L 109.381766 57.821143 
L 107.049875 55.868911 
L 104.717985 53.916678 
L 102.386094 51.902059 
L 100.054203 49.792689 
L 97.722312 47.74247 
L 95.390421 45.858339 
L 93.05853 43.978636 
L 90.726639 42.098934 
L 88.394748 40.219232 
L 86.062857 38.218969 
L 83.730966 36.323881 
L 81.399075 34.401985 
L 79.067184 32.448088 
L 76.735293 30.41636 
L 74.403402 28.268817 
L 72.071511 26.201032 
L 69.73962 24.303963 
L 67.40773 22.409992 
L 65.075839 20.390051 
L 62.743948 18.443743 
L 60.412057 16.63354 
L 58.080166 14.711257 
z
" clip-path="url(#p7821f22fbc)" style="fill-opacity: 0.15"/>
   </g>
   <g id="matplotlib.axis_1">
    <g id="xtick_1">
     <g id="line2d_1">
      <defs>
       <path id="mf1778438fc" d="M 0 0 
L 0 3.5 
" style="stroke: #000000; stroke-width: 0.8"/>
      </defs>
      <g>
       <use xlink:href="#mf1778438fc" x="44.605" y="237.320547" style="stroke: #000000; stroke-width: 0.8"/>
      </g>
     </g>
     <g id="text_1">
      <!-- 0.5 -->
      <g transform="translate(36.96 252.194141) scale(0.11 -0.11)">
       <defs>
        <path id="ArialMT-30" d="M 266 2259 
Q 266 3072 433 3567 
Q 600 4063 929 4331 
Q 1259 4600 1759 4600 
Q 2128 4600 2406 4451 
Q 2684 4303 2865 4023 
Q 3047 3744 3150 3342 
Q 3253 2941 3253 2259 
Q 3253 1453 3087 958 
Q 2922 463 2592 192 
Q 2263 -78 1759 -78 
Q 1097 -78 719 397 
Q 266 969 266 2259 
z
M 844 2259 
Q 844 1131 1108 757 
Q 1372 384 1759 384 
Q 2147 384 2411 759 
Q 2675 1134 2675 2259 
Q 2675 3391 2411 3762 
Q 2147 4134 1753 4134 
Q 1366 4134 1134 3806 
Q 844 3388 844 2259 
z
" transform="scale(0.015625)"/>
        <path id="ArialMT-2e" d="M 581 0 
L 581 641 
L 1222 641 
L 1222 0 
L 581 0 
z
" transform="scale(0.015625)"/>
        <path id="ArialMT-35" d="M 266 1200 
L 856 1250 
Q 922 819 1161 601 
Q 1400 384 1738 384 
Q 2144 384 2425 690 
Q 2706 997 2706 1503 
Q 2706 1984 2436 2262 
Q 2166 2541 1728 2541 
Q 1456 2541 1237 2417 
Q 1019 2294 894 2097 
L 366 2166 
L 809 4519 
L 3088 4519 
L 3088 3981 
L 1259 3981 
L 1013 2750 
Q 1425 3038 1878 3038 
Q 2478 3038 2890 2622 
Q 3303 2206 3303 1553 
Q 3303 931 2941 478 
Q 2500 -78 1738 -78 
Q 1113 -78 717 272 
Q 322 622 266 1200 
z
" transform="scale(0.015625)"/>
       </defs>
       <use xlink:href="#ArialMT-30"/>
       <use xlink:href="#ArialMT-2e" x="55.615234"/>
       <use xlink:href="#ArialMT-35" x="83.398438"/>
      </g>
     </g>
    </g>
    <g id="xtick_2">
     <g id="line2d_2">
      <g>
       <use xlink:href="#mf1778438fc" x="95.223628" y="237.320547" style="stroke: #000000; stroke-width: 0.8"/>
      </g>
     </g>
     <g id="text_2">
      <!-- 0.6 -->
      <g transform="translate(87.578628 252.194141) scale(0.11 -0.11)">
       <defs>
        <path id="ArialMT-36" d="M 3184 3459 
L 2625 3416 
Q 2550 3747 2413 3897 
Q 2184 4138 1850 4138 
Q 1581 4138 1378 3988 
Q 1113 3794 959 3422 
Q 806 3050 800 2363 
Q 1003 2672 1297 2822 
Q 1591 2972 1913 2972 
Q 2475 2972 2870 2558 
Q 3266 2144 3266 1488 
Q 3266 1056 3080 686 
Q 2894 316 2569 119 
Q 2244 -78 1831 -78 
Q 1128 -78 684 439 
Q 241 956 241 2144 
Q 241 3472 731 4075 
Q 1159 4600 1884 4600 
Q 2425 4600 2770 4297 
Q 3116 3994 3184 3459 
z
M 888 1484 
Q 888 1194 1011 928 
Q 1134 663 1356 523 
Q 1578 384 1822 384 
Q 2178 384 2434 671 
Q 2691 959 2691 1453 
Q 2691 1928 2437 2201 
Q 2184 2475 1800 2475 
Q 1419 2475 1153 2201 
Q 888 1928 888 1484 
z
" transform="scale(0.015625)"/>
       </defs>
       <use xlink:href="#ArialMT-30"/>
       <use xlink:href="#ArialMT-2e" x="55.615234"/>
       <use xlink:href="#ArialMT-36" x="83.398438"/>
      </g>
     </g>
    </g>
    <g id="xtick_3">
     <g id="line2d_3">
      <g>
       <use xlink:href="#mf1778438fc" x="145.842255" y="237.320547" style="stroke: #000000; stroke-width: 0.8"/>
      </g>
     </g>
     <g id="text_3">
      <!-- 0.7 -->
      <g transform="translate(138.197255 252.194141) scale(0.11 -0.11)">
       <defs>
        <path id="ArialMT-37" d="M 303 3981 
L 303 4522 
L 3269 4522 
L 3269 4084 
Q 2831 3619 2401 2847 
Q 1972 2075 1738 1259 
Q 1569 684 1522 0 
L 944 0 
Q 953 541 1156 1306 
Q 1359 2072 1739 2783 
Q 2119 3494 2547 3981 
L 303 3981 
z
" transform="scale(0.015625)"/>
       </defs>
       <use xlink:href="#ArialMT-30"/>
       <use xlink:href="#ArialMT-2e" x="55.615234"/>
       <use xlink:href="#ArialMT-37" x="83.398438"/>
      </g>
     </g>
    </g>
    <g id="xtick_4">
     <g id="line2d_4">
      <g>
       <use xlink:href="#mf1778438fc" x="196.460883" y="237.320547" style="stroke: #000000; stroke-width: 0.8"/>
      </g>
     </g>
     <g id="text_4">
      <!-- 0.8 -->
      <g transform="translate(188.815883 252.194141) scale(0.11 -0.11)">
       <defs>
        <path id="ArialMT-38" d="M 1131 2484 
Q 781 2613 612 2850 
Q 444 3088 444 3419 
Q 444 3919 803 4259 
Q 1163 4600 1759 4600 
Q 2359 4600 2725 4251 
Q 3091 3903 3091 3403 
Q 3091 3084 2923 2848 
Q 2756 2613 2416 2484 
Q 2838 2347 3058 2040 
Q 3278 1734 3278 1309 
Q 3278 722 2862 322 
Q 2447 -78 1769 -78 
Q 1091 -78 675 323 
Q 259 725 259 1325 
Q 259 1772 486 2073 
Q 713 2375 1131 2484 
z
M 1019 3438 
Q 1019 3113 1228 2906 
Q 1438 2700 1772 2700 
Q 2097 2700 2305 2904 
Q 2513 3109 2513 3406 
Q 2513 3716 2298 3927 
Q 2084 4138 1766 4138 
Q 1444 4138 1231 3931 
Q 1019 3725 1019 3438 
z
M 838 1322 
Q 838 1081 952 856 
Q 1066 631 1291 507 
Q 1516 384 1775 384 
Q 2178 384 2440 643 
Q 2703 903 2703 1303 
Q 2703 1709 2433 1975 
Q 2163 2241 1756 2241 
Q 1359 2241 1098 1978 
Q 838 1716 838 1322 
z
" transform="scale(0.015625)"/>
       </defs>
       <use xlink:href="#ArialMT-30"/>
       <use xlink:href="#ArialMT-2e" x="55.615234"/>
       <use xlink:href="#ArialMT-38" x="83.398438"/>
      </g>
     </g>
    </g>
    <g id="xtick_5">
     <g id="line2d_5">
      <g>
       <use xlink:href="#mf1778438fc" x="247.079511" y="237.320547" style="stroke: #000000; stroke-width: 0.8"/>
      </g>
     </g>
     <g id="text_5">
      <!-- 0.9 -->
      <g transform="translate(239.434511 252.194141) scale(0.11 -0.11)">
       <defs>
        <path id="ArialMT-39" d="M 350 1059 
L 891 1109 
Q 959 728 1153 556 
Q 1347 384 1650 384 
Q 1909 384 2104 503 
Q 2300 622 2425 820 
Q 2550 1019 2634 1356 
Q 2719 1694 2719 2044 
Q 2719 2081 2716 2156 
Q 2547 1888 2255 1720 
Q 1963 1553 1622 1553 
Q 1053 1553 659 1965 
Q 266 2378 266 3053 
Q 266 3750 677 4175 
Q 1088 4600 1706 4600 
Q 2153 4600 2523 4359 
Q 2894 4119 3086 3673 
Q 3278 3228 3278 2384 
Q 3278 1506 3087 986 
Q 2897 466 2520 194 
Q 2144 -78 1638 -78 
Q 1100 -78 759 220 
Q 419 519 350 1059 
z
M 2653 3081 
Q 2653 3566 2395 3850 
Q 2138 4134 1775 4134 
Q 1400 4134 1122 3828 
Q 844 3522 844 3034 
Q 844 2597 1108 2323 
Q 1372 2050 1759 2050 
Q 2150 2050 2401 2323 
Q 2653 2597 2653 3081 
z
" transform="scale(0.015625)"/>
       </defs>
       <use xlink:href="#ArialMT-30"/>
       <use xlink:href="#ArialMT-2e" x="55.615234"/>
       <use xlink:href="#ArialMT-39" x="83.398438"/>
      </g>
     </g>
    </g>
    <g id="xtick_6">
     <g id="line2d_6">
      <g>
       <use xlink:href="#mf1778438fc" x="297.698139" y="237.320547" style="stroke: #000000; stroke-width: 0.8"/>
      </g>
     </g>
     <g id="text_6">
      <!-- 1.0 -->
      <g transform="translate(290.053139 252.194141) scale(0.11 -0.11)">
       <defs>
        <path id="ArialMT-31" d="M 2384 0 
L 1822 0 
L 1822 3584 
Q 1619 3391 1289 3197 
Q 959 3003 697 2906 
L 697 3450 
Q 1169 3672 1522 3987 
Q 1875 4303 2022 4600 
L 2384 4600 
L 2384 0 
z
" transform="scale(0.015625)"/>
       </defs>
       <use xlink:href="#ArialMT-31"/>
       <use xlink:href="#ArialMT-2e" x="55.615234"/>
       <use xlink:href="#ArialMT-30" x="83.398438"/>
      </g>
     </g>
    </g>
    <g id="text_7">
     <!-- Imaging phenotype score -->
     <g transform="translate(106.310938 266.969766) scale(0.12 -0.12)">
      <defs>
       <path id="ArialMT-49" d="M 597 0 
L 597 4581 
L 1203 4581 
L 1203 0 
L 597 0 
z
" transform="scale(0.015625)"/>
       <path id="ArialMT-6d" d="M 422 0 
L 422 3319 
L 925 3319 
L 925 2853 
Q 1081 3097 1340 3245 
Q 1600 3394 1931 3394 
Q 2300 3394 2536 3241 
Q 2772 3088 2869 2813 
Q 3263 3394 3894 3394 
Q 4388 3394 4653 3120 
Q 4919 2847 4919 2278 
L 4919 0 
L 4359 0 
L 4359 2091 
Q 4359 2428 4304 2576 
Q 4250 2725 4106 2815 
Q 3963 2906 3769 2906 
Q 3419 2906 3187 2673 
Q 2956 2441 2956 1928 
L 2956 0 
L 2394 0 
L 2394 2156 
Q 2394 2531 2256 2718 
Q 2119 2906 1806 2906 
Q 1569 2906 1367 2781 
Q 1166 2656 1075 2415 
Q 984 2175 984 1722 
L 984 0 
L 422 0 
z
" transform="scale(0.015625)"/>
       <path id="ArialMT-61" d="M 2588 409 
Q 2275 144 1986 34 
Q 1697 -75 1366 -75 
Q 819 -75 525 192 
Q 231 459 231 875 
Q 231 1119 342 1320 
Q 453 1522 633 1644 
Q 813 1766 1038 1828 
Q 1203 1872 1538 1913 
Q 2219 1994 2541 2106 
Q 2544 2222 2544 2253 
Q 2544 2597 2384 2738 
Q 2169 2928 1744 2928 
Q 1347 2928 1158 2789 
Q 969 2650 878 2297 
L 328 2372 
Q 403 2725 575 2942 
Q 747 3159 1072 3276 
Q 1397 3394 1825 3394 
Q 2250 3394 2515 3294 
Q 2781 3194 2906 3042 
Q 3031 2891 3081 2659 
Q 3109 2516 3109 2141 
L 3109 1391 
Q 3109 606 3145 398 
Q 3181 191 3288 0 
L 2700 0 
Q 2613 175 2588 409 
z
M 2541 1666 
Q 2234 1541 1622 1453 
Q 1275 1403 1131 1340 
Q 988 1278 909 1158 
Q 831 1038 831 891 
Q 831 666 1001 516 
Q 1172 366 1500 366 
Q 1825 366 2078 508 
Q 2331 650 2450 897 
Q 2541 1088 2541 1459 
L 2541 1666 
z
" transform="scale(0.015625)"/>
       <path id="ArialMT-67" d="M 319 -275 
L 866 -356 
Q 900 -609 1056 -725 
Q 1266 -881 1628 -881 
Q 2019 -881 2231 -725 
Q 2444 -569 2519 -288 
Q 2563 -116 2559 434 
Q 2191 0 1641 0 
Q 956 0 581 494 
Q 206 988 206 1678 
Q 206 2153 378 2554 
Q 550 2956 876 3175 
Q 1203 3394 1644 3394 
Q 2231 3394 2613 2919 
L 2613 3319 
L 3131 3319 
L 3131 450 
Q 3131 -325 2973 -648 
Q 2816 -972 2473 -1159 
Q 2131 -1347 1631 -1347 
Q 1038 -1347 672 -1080 
Q 306 -813 319 -275 
z
M 784 1719 
Q 784 1066 1043 766 
Q 1303 466 1694 466 
Q 2081 466 2343 764 
Q 2606 1063 2606 1700 
Q 2606 2309 2336 2618 
Q 2066 2928 1684 2928 
Q 1309 2928 1046 2623 
Q 784 2319 784 1719 
z
" transform="scale(0.015625)"/>
       <path id="ArialMT-69" d="M 425 3934 
L 425 4581 
L 988 4581 
L 988 3934 
L 425 3934 
z
M 425 0 
L 425 3319 
L 988 3319 
L 988 0 
L 425 0 
z
" transform="scale(0.015625)"/>
       <path id="ArialMT-6e" d="M 422 0 
L 422 3319 
L 928 3319 
L 928 2847 
Q 1294 3394 1984 3394 
Q 2284 3394 2536 3286 
Q 2788 3178 2913 3003 
Q 3038 2828 3088 2588 
Q 3119 2431 3119 2041 
L 3119 0 
L 2556 0 
L 2556 2019 
Q 2556 2363 2490 2533 
Q 2425 2703 2258 2804 
Q 2091 2906 1866 2906 
Q 1506 2906 1245 2678 
Q 984 2450 984 1813 
L 984 0 
L 422 0 
z
" transform="scale(0.015625)"/>
       <path id="ArialMT-20" transform="scale(0.015625)"/>
       <path id="ArialMT-70" d="M 422 -1272 
L 422 3319 
L 934 3319 
L 934 2888 
Q 1116 3141 1344 3267 
Q 1572 3394 1897 3394 
Q 2322 3394 2647 3175 
Q 2972 2956 3137 2557 
Q 3303 2159 3303 1684 
Q 3303 1175 3120 767 
Q 2938 359 2589 142 
Q 2241 -75 1856 -75 
Q 1575 -75 1351 44 
Q 1128 163 984 344 
L 984 -1272 
L 422 -1272 
z
M 931 1641 
Q 931 1000 1190 694 
Q 1450 388 1819 388 
Q 2194 388 2461 705 
Q 2728 1022 2728 1688 
Q 2728 2322 2467 2637 
Q 2206 2953 1844 2953 
Q 1484 2953 1207 2617 
Q 931 2281 931 1641 
z
" transform="scale(0.015625)"/>
       <path id="ArialMT-68" d="M 422 0 
L 422 4581 
L 984 4581 
L 984 2938 
Q 1378 3394 1978 3394 
Q 2347 3394 2619 3248 
Q 2891 3103 3008 2847 
Q 3125 2591 3125 2103 
L 3125 0 
L 2563 0 
L 2563 2103 
Q 2563 2525 2380 2717 
Q 2197 2909 1863 2909 
Q 1613 2909 1392 2779 
Q 1172 2650 1078 2428 
Q 984 2206 984 1816 
L 984 0 
L 422 0 
z
" transform="scale(0.015625)"/>
       <path id="ArialMT-65" d="M 2694 1069 
L 3275 997 
Q 3138 488 2766 206 
Q 2394 -75 1816 -75 
Q 1088 -75 661 373 
Q 234 822 234 1631 
Q 234 2469 665 2931 
Q 1097 3394 1784 3394 
Q 2450 3394 2872 2941 
Q 3294 2488 3294 1666 
Q 3294 1616 3291 1516 
L 816 1516 
Q 847 969 1125 678 
Q 1403 388 1819 388 
Q 2128 388 2347 550 
Q 2566 713 2694 1069 
z
M 847 1978 
L 2700 1978 
Q 2663 2397 2488 2606 
Q 2219 2931 1791 2931 
Q 1403 2931 1139 2672 
Q 875 2413 847 1978 
z
" transform="scale(0.015625)"/>
       <path id="ArialMT-6f" d="M 213 1659 
Q 213 2581 725 3025 
Q 1153 3394 1769 3394 
Q 2453 3394 2887 2945 
Q 3322 2497 3322 1706 
Q 3322 1066 3130 698 
Q 2938 331 2570 128 
Q 2203 -75 1769 -75 
Q 1072 -75 642 372 
Q 213 819 213 1659 
z
M 791 1659 
Q 791 1022 1069 705 
Q 1347 388 1769 388 
Q 2188 388 2466 706 
Q 2744 1025 2744 1678 
Q 2744 2294 2464 2611 
Q 2184 2928 1769 2928 
Q 1347 2928 1069 2612 
Q 791 2297 791 1659 
z
" transform="scale(0.015625)"/>
       <path id="ArialMT-74" d="M 1650 503 
L 1731 6 
Q 1494 -44 1306 -44 
Q 1000 -44 831 53 
Q 663 150 594 308 
Q 525 466 525 972 
L 525 2881 
L 113 2881 
L 113 3319 
L 525 3319 
L 525 4141 
L 1084 4478 
L 1084 3319 
L 1650 3319 
L 1650 2881 
L 1084 2881 
L 1084 941 
Q 1084 700 1114 631 
Q 1144 563 1211 522 
Q 1278 481 1403 481 
Q 1497 481 1650 503 
z
" transform="scale(0.015625)"/>
       <path id="ArialMT-79" d="M 397 -1278 
L 334 -750 
Q 519 -800 656 -800 
Q 844 -800 956 -737 
Q 1069 -675 1141 -563 
Q 1194 -478 1313 -144 
Q 1328 -97 1363 -6 
L 103 3319 
L 709 3319 
L 1400 1397 
Q 1534 1031 1641 628 
Q 1738 1016 1872 1384 
L 2581 3319 
L 3144 3319 
L 1881 -56 
Q 1678 -603 1566 -809 
Q 1416 -1088 1222 -1217 
Q 1028 -1347 759 -1347 
Q 597 -1347 397 -1278 
z
" transform="scale(0.015625)"/>
       <path id="ArialMT-73" d="M 197 991 
L 753 1078 
Q 800 744 1014 566 
Q 1228 388 1613 388 
Q 2000 388 2187 545 
Q 2375 703 2375 916 
Q 2375 1106 2209 1216 
Q 2094 1291 1634 1406 
Q 1016 1563 777 1677 
Q 538 1791 414 1992 
Q 291 2194 291 2438 
Q 291 2659 392 2848 
Q 494 3038 669 3163 
Q 800 3259 1026 3326 
Q 1253 3394 1513 3394 
Q 1903 3394 2198 3281 
Q 2494 3169 2634 2976 
Q 2775 2784 2828 2463 
L 2278 2388 
Q 2241 2644 2061 2787 
Q 1881 2931 1553 2931 
Q 1166 2931 1000 2803 
Q 834 2675 834 2503 
Q 834 2394 903 2306 
Q 972 2216 1119 2156 
Q 1203 2125 1616 2013 
Q 2213 1853 2448 1751 
Q 2684 1650 2818 1456 
Q 2953 1263 2953 975 
Q 2953 694 2789 445 
Q 2625 197 2315 61 
Q 2006 -75 1616 -75 
Q 969 -75 630 194 
Q 291 463 197 991 
z
" transform="scale(0.015625)"/>
       <path id="ArialMT-63" d="M 2588 1216 
L 3141 1144 
Q 3050 572 2676 248 
Q 2303 -75 1759 -75 
Q 1078 -75 664 370 
Q 250 816 250 1647 
Q 250 2184 428 2587 
Q 606 2991 970 3192 
Q 1334 3394 1763 3394 
Q 2303 3394 2647 3120 
Q 2991 2847 3088 2344 
L 2541 2259 
Q 2463 2594 2264 2762 
Q 2066 2931 1784 2931 
Q 1359 2931 1093 2626 
Q 828 2322 828 1663 
Q 828 994 1084 691 
Q 1341 388 1753 388 
Q 2084 388 2306 591 
Q 2528 794 2588 1216 
z
" transform="scale(0.015625)"/>
       <path id="ArialMT-72" d="M 416 0 
L 416 3319 
L 922 3319 
L 922 2816 
Q 1116 3169 1280 3281 
Q 1444 3394 1641 3394 
Q 1925 3394 2219 3213 
L 2025 2691 
Q 1819 2813 1613 2813 
Q 1428 2813 1281 2702 
Q 1134 2591 1072 2394 
Q 978 2094 978 1738 
L 978 0 
L 416 0 
z
" transform="scale(0.015625)"/>
      </defs>
      <use xlink:href="#ArialMT-49"/>
      <use xlink:href="#ArialMT-6d" x="27.783203"/>
      <use xlink:href="#ArialMT-61" x="111.083984"/>
      <use xlink:href="#ArialMT-67" x="166.699219"/>
      <use xlink:href="#ArialMT-69" x="222.314453"/>
      <use xlink:href="#ArialMT-6e" x="244.53125"/>
      <use xlink:href="#ArialMT-67" x="300.146484"/>
      <use xlink:href="#ArialMT-20" x="355.761719"/>
      <use xlink:href="#ArialMT-70" x="383.544922"/>
      <use xlink:href="#ArialMT-68" x="439.160156"/>
      <use xlink:href="#ArialMT-65" x="494.775391"/>
      <use xlink:href="#ArialMT-6e" x="550.390625"/>
      <use xlink:href="#ArialMT-6f" x="606.005859"/>
      <use xlink:href="#ArialMT-74" x="661.621094"/>
      <use xlink:href="#ArialMT-79" x="689.404297"/>
      <use xlink:href="#ArialMT-70" x="739.404297"/>
      <use xlink:href="#ArialMT-65" x="795.019531"/>
      <use xlink:href="#ArialMT-20" x="850.634766"/>
      <use xlink:href="#ArialMT-73" x="878.417969"/>
      <use xlink:href="#ArialMT-63" x="928.417969"/>
      <use xlink:href="#ArialMT-6f" x="978.417969"/>
      <use xlink:href="#ArialMT-72" x="1034.033203"/>
      <use xlink:href="#ArialMT-65" x="1067.333984"/>
     </g>
    </g>
   </g>
   <g id="matplotlib.axis_2">
    <g id="ytick_1">
     <g id="line2d_7">
      <defs>
       <path id="m68bfa52a73" d="M 0 0 
L -3.5 0 
" style="stroke: #000000; stroke-width: 0.8"/>
      </defs>
      <g>
       <use xlink:href="#m68bfa52a73" x="44.605" y="225.094398" style="stroke: #000000; stroke-width: 0.8"/>
      </g>
     </g>
     <g id="text_8">
      <!-- 0.0 -->
      <g transform="translate(22.315 229.031195) scale(0.11 -0.11)">
       <use xlink:href="#ArialMT-30"/>
       <use xlink:href="#ArialMT-2e" x="55.615234"/>
       <use xlink:href="#ArialMT-30" x="83.398438"/>
      </g>
     </g>
    </g>
    <g id="ytick_2">
     <g id="line2d_8">
      <g>
       <use xlink:href="#m68bfa52a73" x="44.605" y="194.529027" style="stroke: #000000; stroke-width: 0.8"/>
      </g>
     </g>
     <g id="text_9">
      <!-- 0.2 -->
      <g transform="translate(22.315 198.465823) scale(0.11 -0.11)">
       <defs>
        <path id="ArialMT-32" d="M 3222 541 
L 3222 0 
L 194 0 
Q 188 203 259 391 
Q 375 700 629 1000 
Q 884 1300 1366 1694 
Q 2113 2306 2375 2664 
Q 2638 3022 2638 3341 
Q 2638 3675 2398 3904 
Q 2159 4134 1775 4134 
Q 1369 4134 1125 3890 
Q 881 3647 878 3216 
L 300 3275 
Q 359 3922 746 4261 
Q 1134 4600 1788 4600 
Q 2447 4600 2831 4234 
Q 3216 3869 3216 3328 
Q 3216 3053 3103 2787 
Q 2991 2522 2730 2228 
Q 2469 1934 1863 1422 
Q 1356 997 1212 845 
Q 1069 694 975 541 
L 3222 541 
z
" transform="scale(0.015625)"/>
       </defs>
       <use xlink:href="#ArialMT-30"/>
       <use xlink:href="#ArialMT-2e" x="55.615234"/>
       <use xlink:href="#ArialMT-32" x="83.398438"/>
      </g>
     </g>
    </g>
    <g id="ytick_3">
     <g id="line2d_9">
      <g>
       <use xlink:href="#m68bfa52a73" x="44.605" y="163.963655" style="stroke: #000000; stroke-width: 0.8"/>
      </g>
     </g>
     <g id="text_10">
      <!-- 0.4 -->
      <g transform="translate(22.315 167.900452) scale(0.11 -0.11)">
       <defs>
        <path id="ArialMT-34" d="M 2069 0 
L 2069 1097 
L 81 1097 
L 81 1613 
L 2172 4581 
L 2631 4581 
L 2631 1613 
L 3250 1613 
L 3250 1097 
L 2631 1097 
L 2631 0 
L 2069 0 
z
M 2069 1613 
L 2069 3678 
L 634 1613 
L 2069 1613 
z
" transform="scale(0.015625)"/>
       </defs>
       <use xlink:href="#ArialMT-30"/>
       <use xlink:href="#ArialMT-2e" x="55.615234"/>
       <use xlink:href="#ArialMT-34" x="83.398438"/>
      </g>
     </g>
    </g>
    <g id="ytick_4">
     <g id="line2d_10">
      <g>
       <use xlink:href="#m68bfa52a73" x="44.605" y="133.398283" style="stroke: #000000; stroke-width: 0.8"/>
      </g>
     </g>
     <g id="text_11">
      <!-- 0.6 -->
      <g transform="translate(22.315 137.33508) scale(0.11 -0.11)">
       <use xlink:href="#ArialMT-30"/>
       <use xlink:href="#ArialMT-2e" x="55.615234"/>
       <use xlink:href="#ArialMT-36" x="83.398438"/>
      </g>
     </g>
    </g>
    <g id="ytick_5">
     <g id="line2d_11">
      <g>
       <use xlink:href="#m68bfa52a73" x="44.605" y="102.832912" style="stroke: #000000; stroke-width: 0.8"/>
      </g>
     </g>
     <g id="text_12">
      <!-- 0.8 -->
      <g transform="translate(22.315 106.769709) scale(0.11 -0.11)">
       <use xlink:href="#ArialMT-30"/>
       <use xlink:href="#ArialMT-2e" x="55.615234"/>
       <use xlink:href="#ArialMT-38" x="83.398438"/>
      </g>
     </g>
    </g>
    <g id="ytick_6">
     <g id="line2d_12">
      <g>
       <use xlink:href="#m68bfa52a73" x="44.605" y="72.26754" style="stroke: #000000; stroke-width: 0.8"/>
      </g>
     </g>
     <g id="text_13">
      <!-- 1.0 -->
      <g transform="translate(22.315 76.204337) scale(0.11 -0.11)">
       <use xlink:href="#ArialMT-31"/>
       <use xlink:href="#ArialMT-2e" x="55.615234"/>
       <use xlink:href="#ArialMT-30" x="83.398438"/>
      </g>
     </g>
    </g>
    <g id="ytick_7">
     <g id="line2d_13">
      <g>
       <use xlink:href="#m68bfa52a73" x="44.605" y="41.702168" style="stroke: #000000; stroke-width: 0.8"/>
      </g>
     </g>
     <g id="text_14">
      <!-- 1.2 -->
      <g transform="translate(22.315 45.638965) scale(0.11 -0.11)">
       <use xlink:href="#ArialMT-31"/>
       <use xlink:href="#ArialMT-2e" x="55.615234"/>
       <use xlink:href="#ArialMT-32" x="83.398438"/>
      </g>
     </g>
    </g>
    <g id="ytick_8">
     <g id="line2d_14">
      <g>
       <use xlink:href="#m68bfa52a73" x="44.605" y="11.136797" style="stroke: #000000; stroke-width: 0.8"/>
      </g>
     </g>
     <g id="text_15">
      <!-- 1.4 -->
      <g transform="translate(22.315 15.073594) scale(0.11 -0.11)">
       <use xlink:href="#ArialMT-31"/>
       <use xlink:href="#ArialMT-2e" x="55.615234"/>
       <use xlink:href="#ArialMT-34" x="83.398438"/>
      </g>
     </g>
    </g>
    <g id="text_16">
     <!-- Heavy chain secretion score -->
     <g transform="translate(15.789375 199.593359) rotate(-90) scale(0.12 -0.12)">
      <defs>
       <path id="ArialMT-48" d="M 513 0 
L 513 4581 
L 1119 4581 
L 1119 2700 
L 3500 2700 
L 3500 4581 
L 4106 4581 
L 4106 0 
L 3500 0 
L 3500 2159 
L 1119 2159 
L 1119 0 
L 513 0 
z
" transform="scale(0.015625)"/>
       <path id="ArialMT-76" d="M 1344 0 
L 81 3319 
L 675 3319 
L 1388 1331 
Q 1503 1009 1600 663 
Q 1675 925 1809 1294 
L 2547 3319 
L 3125 3319 
L 1869 0 
L 1344 0 
z
" transform="scale(0.015625)"/>
      </defs>
      <use xlink:href="#ArialMT-48"/>
      <use xlink:href="#ArialMT-65" x="72.216797"/>
      <use xlink:href="#ArialMT-61" x="127.832031"/>
      <use xlink:href="#ArialMT-76" x="183.447266"/>
      <use xlink:href="#ArialMT-79" x="233.447266"/>
      <use xlink:href="#ArialMT-20" x="283.447266"/>
      <use xlink:href="#ArialMT-63" x="311.230469"/>
      <use xlink:href="#ArialMT-68" x="361.230469"/>
      <use xlink:href="#ArialMT-61" x="416.845703"/>
      <use xlink:href="#ArialMT-69" x="472.460938"/>
      <use xlink:href="#ArialMT-6e" x="494.677734"/>
      <use xlink:href="#ArialMT-20" x="550.292969"/>
      <use xlink:href="#ArialMT-73" x="578.076172"/>
      <use xlink:href="#ArialMT-65" x="628.076172"/>
      <use xlink:href="#ArialMT-63" x="683.691406"/>
      <use xlink:href="#ArialMT-72" x="733.691406"/>
      <use xlink:href="#ArialMT-65" x="766.992188"/>
      <use xlink:href="#ArialMT-74" x="822.607422"/>
      <use xlink:href="#ArialMT-69" x="850.390625"/>
      <use xlink:href="#ArialMT-6f" x="872.607422"/>
      <use xlink:href="#ArialMT-6e" x="928.222656"/>
      <use xlink:href="#ArialMT-20" x="983.837891"/>
      <use xlink:href="#ArialMT-73" x="1011.621094"/>
      <use xlink:href="#ArialMT-63" x="1061.621094"/>
      <use xlink:href="#ArialMT-6f" x="1111.621094"/>
      <use xlink:href="#ArialMT-72" x="1167.236328"/>
      <use xlink:href="#ArialMT-65" x="1200.537109"/>
     </g>
    </g>
   </g>
   <g id="line2d_15"/>
   <g id="line2d_16"/>
   <g id="line2d_17"/>
   <g id="line2d_18">
    <path d="M 58.080166 33.167978 
L 60.412057 34.888259 
L 62.743948 36.60854 
L 65.075839 38.328821 
L 67.40773 40.049102 
L 69.73962 41.769383 
L 72.071511 43.489664 
L 74.403402 45.209945 
L 76.735293 46.930226 
L 79.067184 48.650507 
L 81.399075 50.370788 
L 83.730966 52.091069 
L 86.062857 53.81135 
L 88.394748 55.531631 
L 90.726639 57.251912 
L 93.05853 58.972192 
L 95.390421 60.692473 
L 97.722312 62.412754 
L 100.054203 64.133035 
L 102.386094 65.853316 
L 104.717985 67.573597 
L 107.049875 69.293878 
L 109.381766 71.014159 
L 111.713657 72.73444 
L 114.045548 74.454721 
L 116.377439 76.175002 
L 118.70933 77.895283 
L 121.041221 79.615564 
L 123.373112 81.335845 
L 125.705003 83.056126 
L 128.036894 84.776407 
L 130.368785 86.496688 
L 132.700676 88.216969 
L 135.032567 89.93725 
L 137.364458 91.657531 
L 139.696349 93.377811 
L 142.02824 95.098092 
L 144.360131 96.818373 
L 146.692021 98.538654 
L 149.023912 100.258935 
L 151.355803 101.979216 
L 153.687694 103.699497 
L 156.019585 105.419778 
L 158.351476 107.140059 
L 160.683367 108.86034 
L 163.015258 110.580621 
L 165.347149 112.300902 
L 167.67904 114.021183 
L 170.010931 115.741464 
L 172.342822 117.461745 
L 174.674713 119.182026 
L 177.006604 120.902307 
L 179.338495 122.622588 
L 181.670386 124.342869 
L 184.002276 126.06315 
L 186.334167 127.78343 
L 188.666058 129.503711 
L 190.997949 131.223992 
L 193.32984 132.944273 
L 195.661731 134.664554 
L 197.993622 136.384835 
L 200.325513 138.105116 
L 202.657404 139.825397 
L 204.989295 141.545678 
L 207.321186 143.265959 
L 209.653077 144.98624 
L 211.984968 146.706521 
L 214.316859 148.426802 
L 216.64875 150.147083 
L 218.980641 151.867364 
L 221.312531 153.587645 
L 223.644422 155.307926 
L 225.976313 157.028207 
L 228.308204 158.748488 
L 230.640095 160.468769 
L 232.971986 162.189049 
L 235.303877 163.90933 
L 237.635768 165.629611 
L 239.967659 167.349892 
L 242.29955 169.070173 
L 244.631441 170.790454 
L 246.963332 172.510735 
L 249.295223 174.231016 
L 251.627114 175.951297 
L 253.959005 177.671578 
L 256.290896 179.391859 
L 258.622786 181.11214 
L 260.954677 182.832421 
L 263.286568 184.552702 
L 265.618459 186.272983 
L 267.95035 187.993264 
L 270.282241 189.713545 
L 272.614132 191.433826 
L 274.946023 193.154107 
L 277.277914 194.874387 
L 279.609805 196.594668 
L 281.941696 198.314949 
L 284.273587 200.03523 
L 286.605478 201.755511 
L 288.937369 203.475792 
" clip-path="url(#p7821f22fbc)" style="fill: none; stroke: #000000; stroke-width: 2.25; stroke-linecap: square"/>
   </g>
   <g id="patch_3">
    <path d="M 44.605 237.320547 
L 44.605 11.136797 
" style="fill: none; stroke: #000000; stroke-width: 0.8; stroke-linejoin: miter; stroke-linecap: square"/>
   </g>
   <g id="patch_4">
    <path d="M 302.760001 237.320547 
L 302.760001 11.136797 
" style="fill: none; stroke: #000000; stroke-width: 0.8; stroke-linejoin: miter; stroke-linecap: square"/>
   </g>
   <g id="patch_5">
    <path d="M 44.605 237.320547 
L 302.760001 237.320547 
" style="fill: none; stroke: #000000; stroke-width: 0.8; stroke-linejoin: miter; stroke-linecap: square"/>
   </g>
   <g id="patch_6">
    <path d="M 44.605 11.136797 
L 302.760001 11.136797 
" style="fill: none; stroke: #000000; stroke-width: 0.8; stroke-linejoin: miter; stroke-linecap: square"/>
   </g>
   <g id="text_17">
    <!-- Glu73Val -->
    <g transform="translate(160.786626 83.580179) scale(0.1 -0.1)">
     <defs>
      <path id="ArialMT-47" d="M 2638 1797 
L 2638 2334 
L 4578 2338 
L 4578 638 
Q 4131 281 3656 101 
Q 3181 -78 2681 -78 
Q 2006 -78 1454 211 
Q 903 500 622 1047 
Q 341 1594 341 2269 
Q 341 2938 620 3517 
Q 900 4097 1425 4378 
Q 1950 4659 2634 4659 
Q 3131 4659 3532 4498 
Q 3934 4338 4162 4050 
Q 4391 3763 4509 3300 
L 3963 3150 
Q 3859 3500 3706 3700 
Q 3553 3900 3268 4020 
Q 2984 4141 2638 4141 
Q 2222 4141 1919 4014 
Q 1616 3888 1430 3681 
Q 1244 3475 1141 3228 
Q 966 2803 966 2306 
Q 966 1694 1177 1281 
Q 1388 869 1791 669 
Q 2194 469 2647 469 
Q 3041 469 3416 620 
Q 3791 772 3984 944 
L 3984 1797 
L 2638 1797 
z
" transform="scale(0.015625)"/>
      <path id="ArialMT-6c" d="M 409 0 
L 409 4581 
L 972 4581 
L 972 0 
L 409 0 
z
" transform="scale(0.015625)"/>
      <path id="ArialMT-75" d="M 2597 0 
L 2597 488 
Q 2209 -75 1544 -75 
Q 1250 -75 995 37 
Q 741 150 617 320 
Q 494 491 444 738 
Q 409 903 409 1263 
L 409 3319 
L 972 3319 
L 972 1478 
Q 972 1038 1006 884 
Q 1059 663 1231 536 
Q 1403 409 1656 409 
Q 1909 409 2131 539 
Q 2353 669 2445 892 
Q 2538 1116 2538 1541 
L 2538 3319 
L 3100 3319 
L 3100 0 
L 2597 0 
z
" transform="scale(0.015625)"/>
      <path id="ArialMT-33" d="M 269 1209 
L 831 1284 
Q 928 806 1161 595 
Q 1394 384 1728 384 
Q 2125 384 2398 659 
Q 2672 934 2672 1341 
Q 2672 1728 2419 1979 
Q 2166 2231 1775 2231 
Q 1616 2231 1378 2169 
L 1441 2663 
Q 1497 2656 1531 2656 
Q 1891 2656 2178 2843 
Q 2466 3031 2466 3422 
Q 2466 3731 2256 3934 
Q 2047 4138 1716 4138 
Q 1388 4138 1169 3931 
Q 950 3725 888 3313 
L 325 3413 
Q 428 3978 793 4289 
Q 1159 4600 1703 4600 
Q 2078 4600 2393 4439 
Q 2709 4278 2876 4000 
Q 3044 3722 3044 3409 
Q 3044 3113 2884 2869 
Q 2725 2625 2413 2481 
Q 2819 2388 3044 2092 
Q 3269 1797 3269 1353 
Q 3269 753 2831 336 
Q 2394 -81 1725 -81 
Q 1122 -81 723 278 
Q 325 638 269 1209 
z
" transform="scale(0.015625)"/>
      <path id="ArialMT-56" d="M 1803 0 
L 28 4581 
L 684 4581 
L 1875 1253 
Q 2019 853 2116 503 
Q 2222 878 2363 1253 
L 3600 4581 
L 4219 4581 
L 2425 0 
L 1803 0 
z
" transform="scale(0.015625)"/>
     </defs>
     <use xlink:href="#ArialMT-47"/>
     <use xlink:href="#ArialMT-6c" x="77.783203"/>
     <use xlink:href="#ArialMT-75" x="100"/>
     <use xlink:href="#ArialMT-37" x="155.615234"/>
     <use xlink:href="#ArialMT-33" x="211.230469"/>
     <use xlink:href="#ArialMT-56" x="266.845703"/>
     <use xlink:href="#ArialMT-61" x="326.169922"/>
     <use xlink:href="#ArialMT-6c" x="381.785156"/>
    </g>
   </g>
   <g id="text_18">
    <!-- Glu73Lys -->
    <g transform="translate(129.173892 110.243235) scale(0.1 -0.1)">
     <defs>
      <path id="ArialMT-4c" d="M 469 0 
L 469 4581 
L 1075 4581 
L 1075 541 
L 3331 541 
L 3331 0 
L 469 0 
z
" transform="scale(0.015625)"/>
     </defs>
     <use xlink:href="#ArialMT-47"/>
     <use xlink:href="#ArialMT-6c" x="77.783203"/>
     <use xlink:href="#ArialMT-75" x="100"/>
     <use xlink:href="#ArialMT-37" x="155.615234"/>
     <use xlink:href="#ArialMT-33" x="211.230469"/>
     <use xlink:href="#ArialMT-4c" x="266.845703"/>
     <use xlink:href="#ArialMT-79" x="318.710938"/>
     <use xlink:href="#ArialMT-73" x="368.710938"/>
    </g>
   </g>
   <g id="patch_7">
    <path d="M 179.134104 81.747676 
Q 166.142934 87.028031 154.18751 91.887399 
" style="fill: none; opacity: 0.5; stroke: #808080; stroke-linecap: round"/>
    <path d="M 159.537928 92.303358 
L 154.18751 91.887399 
L 157.730528 87.856639 
" style="fill: none; opacity: 0.5; stroke: #808080; stroke-linecap: round"/>
   </g>
   <g id="text_19">
    <g id="patch_8">
     <path d="M 209.824201 41.811041 
L 295.124201 41.811041 
Q 298.124201 41.811041 298.124201 38.811041 
L 298.124201 19.053228 
Q 298.124201 16.053228 295.124201 16.053228 
L 209.824201 16.053228 
Q 206.824201 16.053228 206.824201 19.053228 
L 206.824201 38.811041 
Q 206.824201 41.811041 209.824201 41.811041 
z
" style="fill: #ffffff; opacity: 0.4; stroke: #000000; stroke-linejoin: miter"/>
    </g>
    <!-- Pearson's $r$ = -0.80 -->
    <g transform="translate(209.824201 26.211041) scale(0.1 -0.1)">
     <defs>
      <path id="ArialMT-50" d="M 494 0 
L 494 4581 
L 2222 4581 
Q 2678 4581 2919 4538 
Q 3256 4481 3484 4323 
Q 3713 4166 3852 3881 
Q 3991 3597 3991 3256 
Q 3991 2672 3619 2267 
Q 3247 1863 2275 1863 
L 1100 1863 
L 1100 0 
L 494 0 
z
M 1100 2403 
L 2284 2403 
Q 2872 2403 3119 2622 
Q 3366 2841 3366 3238 
Q 3366 3525 3220 3729 
Q 3075 3934 2838 4000 
Q 2684 4041 2272 4041 
L 1100 4041 
L 1100 2403 
z
" transform="scale(0.015625)"/>
      <path id="ArialMT-27" d="M 425 2959 
L 281 3816 
L 281 4581 
L 922 4581 
L 922 3816 
L 772 2959 
L 425 2959 
z
" transform="scale(0.015625)"/>
      <path id="DejaVuSans-Oblique-72" d="M 2853 2969 
Q 2766 3016 2653 3041 
Q 2541 3066 2413 3066 
Q 1953 3066 1609 2717 
Q 1266 2369 1153 1784 
L 800 0 
L 225 0 
L 909 3500 
L 1484 3500 
L 1375 2956 
Q 1603 3259 1920 3421 
Q 2238 3584 2597 3584 
Q 2691 3584 2781 3573 
Q 2872 3563 2963 3538 
L 2853 2969 
z
" transform="scale(0.015625)"/>
      <path id="ArialMT-3d" d="M 3381 2694 
L 356 2694 
L 356 3219 
L 3381 3219 
L 3381 2694 
z
M 3381 1303 
L 356 1303 
L 356 1828 
L 3381 1828 
L 3381 1303 
z
" transform="scale(0.015625)"/>
      <path id="ArialMT-2d" d="M 203 1375 
L 203 1941 
L 1931 1941 
L 1931 1375 
L 203 1375 
z
" transform="scale(0.015625)"/>
     </defs>
     <use xlink:href="#ArialMT-50" transform="translate(0 0.125)"/>
     <use xlink:href="#ArialMT-65" transform="translate(66.699219 0.125)"/>
     <use xlink:href="#ArialMT-61" transform="translate(122.314453 0.125)"/>
     <use xlink:href="#ArialMT-72" transform="translate(177.929688 0.125)"/>
     <use xlink:href="#ArialMT-73" transform="translate(211.230469 0.125)"/>
     <use xlink:href="#ArialMT-6f" transform="translate(261.230469 0.125)"/>
     <use xlink:href="#ArialMT-6e" transform="translate(316.845703 0.125)"/>
     <use xlink:href="#ArialMT-27" transform="translate(372.460938 0.125)"/>
     <use xlink:href="#ArialMT-73" transform="translate(391.552734 0.125)"/>
     <use xlink:href="#ArialMT-20" transform="translate(441.552734 0.125)"/>
     <use xlink:href="#DejaVuSans-Oblique-72" transform="translate(469.335938 0.125)"/>
     <use xlink:href="#ArialMT-20" transform="translate(510.449219 0.125)"/>
     <use xlink:href="#ArialMT-3d" transform="translate(538.232422 0.125)"/>
     <use xlink:href="#ArialMT-20" transform="translate(596.630859 0.125)"/>
     <use xlink:href="#ArialMT-2d" transform="translate(624.414062 0.125)"/>
     <use xlink:href="#ArialMT-30" transform="translate(657.714844 0.125)"/>
     <use xlink:href="#ArialMT-2e" transform="translate(713.330078 0.125)"/>
     <use xlink:href="#ArialMT-38" transform="translate(741.113281 0.125)"/>
     <use xlink:href="#ArialMT-30" transform="translate(796.728516 0.125)"/>
    </g>
    <!-- p = 3.162e-12 -->
    <g transform="translate(209.824201 36.823541) scale(0.1 -0.1)">
     <use xlink:href="#ArialMT-70"/>
     <use xlink:href="#ArialMT-20" x="55.615234"/>
     <use xlink:href="#ArialMT-3d" x="83.398438"/>
     <use xlink:href="#ArialMT-20" x="141.796875"/>
     <use xlink:href="#ArialMT-33" x="169.580078"/>
     <use xlink:href="#ArialMT-2e" x="225.195312"/>
     <use xlink:href="#ArialMT-31" x="252.978516"/>
     <use xlink:href="#ArialMT-36" x="308.59375"/>
     <use xlink:href="#ArialMT-32" x="364.208984"/>
     <use xlink:href="#ArialMT-65" x="419.824219"/>
     <use xlink:href="#ArialMT-2d" x="475.439453"/>
     <use xlink:href="#ArialMT-31" x="508.740234"/>
     <use xlink:href="#ArialMT-32" x="564.355469"/>
    </g>
   </g>
   <g id="legend_1">
    <g id="patch_9">
     <path d="M 51.605 232.320547 
L 104.1675 232.320547 
Q 106.1675 232.320547 106.1675 230.320547 
L 106.1675 172.910234 
Q 106.1675 170.910234 104.1675 170.910234 
L 51.605 170.910234 
Q 49.605 170.910234 49.605 172.910234 
L 49.605 230.320547 
Q 49.605 232.320547 51.605 232.320547 
z
" style="fill: #ffffff; opacity: 0.8; stroke: #cccccc; stroke-linejoin: miter"/>
    </g>
    <g id="text_20">
     <!-- ClinVar -->
     <g transform="translate(58.65625 183.499609) scale(0.12 -0.12)">
      <defs>
       <path id="ArialMT-43" d="M 3763 1606 
L 4369 1453 
Q 4178 706 3683 314 
Q 3188 -78 2472 -78 
Q 1731 -78 1267 223 
Q 803 525 561 1097 
Q 319 1669 319 2325 
Q 319 3041 592 3573 
Q 866 4106 1370 4382 
Q 1875 4659 2481 4659 
Q 3169 4659 3637 4309 
Q 4106 3959 4291 3325 
L 3694 3184 
Q 3534 3684 3231 3912 
Q 2928 4141 2469 4141 
Q 1941 4141 1586 3887 
Q 1231 3634 1087 3207 
Q 944 2781 944 2328 
Q 944 1744 1114 1308 
Q 1284 872 1643 656 
Q 2003 441 2422 441 
Q 2931 441 3284 734 
Q 3638 1028 3763 1606 
z
" transform="scale(0.015625)"/>
      </defs>
      <use xlink:href="#ArialMT-43"/>
      <use xlink:href="#ArialMT-6c" x="72.216797"/>
      <use xlink:href="#ArialMT-69" x="94.433594"/>
      <use xlink:href="#ArialMT-6e" x="116.650391"/>
      <use xlink:href="#ArialMT-56" x="172.265625"/>
      <use xlink:href="#ArialMT-61" x="231.589844"/>
      <use xlink:href="#ArialMT-72" x="287.205078"/>
     </g>
    </g>
    <g id="line2d_19">
     <defs>
      <path id="mdd8e205704" d="M 0 3.535534 
C 0.937635 3.535534 1.836992 3.163008 2.5 2.5 
C 3.163008 1.836992 3.535534 0.937635 3.535534 0 
C 3.535534 -0.937635 3.163008 -1.836992 2.5 -2.5 
C 1.836992 -3.163008 0.937635 -3.535534 0 -3.535534 
C -0.937635 -3.535534 -1.836992 -3.163008 -2.5 -2.5 
C -3.163008 -1.836992 -3.535534 -0.937635 -3.535534 0 
C -3.535534 0.937635 -3.163008 1.836992 -2.5 2.5 
C -1.836992 3.163008 -0.937635 3.535534 0 3.535534 
z
" style="stroke: #ffffff; stroke-width: 0.565685"/>
     </defs>
     <g>
      <use xlink:href="#mdd8e205704" x="63.605" y="194.542422" style="fill: #ca7682; stroke: #ffffff; stroke-width: 0.565685"/>
     </g>
    </g>
    <g id="text_21">
     <!-- PLP -->
     <g transform="translate(81.605 198.042422) scale(0.1 -0.1)">
      <use xlink:href="#ArialMT-50"/>
      <use xlink:href="#ArialMT-4c" x="66.699219"/>
      <use xlink:href="#ArialMT-50" x="122.314453"/>
     </g>
    </g>
    <g id="line2d_20">
     <defs>
      <path id="m0d55bcd52e" d="M 0 3.535534 
C 0.937635 3.535534 1.836992 3.163008 2.5 2.5 
C 3.163008 1.836992 3.535534 0.937635 3.535534 0 
C 3.535534 -0.937635 3.163008 -1.836992 2.5 -2.5 
C 1.836992 -3.163008 0.937635 -3.535534 0 -3.535534 
C -0.937635 -3.535534 -1.836992 -3.163008 -2.5 -2.5 
C -3.163008 -1.836992 -3.535534 -0.937635 -3.535534 0 
C -3.535534 0.937635 -3.163008 1.836992 -2.5 2.5 
C -1.836992 3.163008 -0.937635 3.535534 0 3.535534 
z
" style="stroke: #ffffff; stroke-width: 0.565685"/>
     </defs>
     <g>
      <use xlink:href="#m0d55bcd52e" x="63.605" y="208.687734" style="fill: #1d7aab; stroke: #ffffff; stroke-width: 0.565685"/>
     </g>
    </g>
    <g id="text_22">
     <!-- BLB -->
     <g transform="translate(81.605 212.187734) scale(0.1 -0.1)">
      <defs>
       <path id="ArialMT-42" d="M 469 0 
L 469 4581 
L 2188 4581 
Q 2713 4581 3030 4442 
Q 3347 4303 3526 4014 
Q 3706 3725 3706 3409 
Q 3706 3116 3547 2856 
Q 3388 2597 3066 2438 
Q 3481 2316 3704 2022 
Q 3928 1728 3928 1328 
Q 3928 1006 3792 729 
Q 3656 453 3456 303 
Q 3256 153 2954 76 
Q 2653 0 2216 0 
L 469 0 
z
M 1075 2656 
L 2066 2656 
Q 2469 2656 2644 2709 
Q 2875 2778 2992 2937 
Q 3109 3097 3109 3338 
Q 3109 3566 3000 3739 
Q 2891 3913 2687 3977 
Q 2484 4041 1991 4041 
L 1075 4041 
L 1075 2656 
z
M 1075 541 
L 2216 541 
Q 2509 541 2628 563 
Q 2838 600 2978 687 
Q 3119 775 3209 942 
Q 3300 1109 3300 1328 
Q 3300 1584 3169 1773 
Q 3038 1963 2805 2039 
Q 2572 2116 2134 2116 
L 1075 2116 
L 1075 541 
z
" transform="scale(0.015625)"/>
      </defs>
      <use xlink:href="#ArialMT-42"/>
      <use xlink:href="#ArialMT-4c" x="66.699219"/>
      <use xlink:href="#ArialMT-42" x="122.314453"/>
     </g>
    </g>
    <g id="line2d_21">
     <defs>
      <path id="m719c20ce2a" d="M 0 3.535534 
C 0.937635 3.535534 1.836992 3.163008 2.5 2.5 
C 3.163008 1.836992 3.535534 0.937635 3.535534 0 
C 3.535534 -0.937635 3.163008 -1.836992 2.5 -2.5 
C 1.836992 -3.163008 0.937635 -3.535534 0 -3.535534 
C -0.937635 -3.535534 -1.836992 -3.163008 -2.5 -2.5 
C -3.163008 -1.836992 -3.535534 -0.937635 -3.535534 0 
C -3.535534 0.937635 -3.163008 1.836992 -2.5 2.5 
C -1.836992 3.163008 -0.937635 3.535534 0 3.535534 
z
" style="stroke: #ffffff; stroke-width: 0.565685"/>
     </defs>
     <g>
      <use xlink:href="#m719c20ce2a" x="63.605" y="222.833047" style="fill: #a0a0a0; stroke: #ffffff; stroke-width: 0.565685"/>
     </g>
    </g>
    <g id="text_23">
     <!-- VUS -->
     <g transform="translate(81.605 226.333047) scale(0.1 -0.1)">
      <defs>
       <path id="ArialMT-55" d="M 3500 4581 
L 4106 4581 
L 4106 1934 
Q 4106 1244 3950 837 
Q 3794 431 3386 176 
Q 2978 -78 2316 -78 
Q 1672 -78 1262 144 
Q 853 366 678 786 
Q 503 1206 503 1934 
L 503 4581 
L 1109 4581 
L 1109 1938 
Q 1109 1341 1220 1058 
Q 1331 775 1601 622 
Q 1872 469 2263 469 
Q 2931 469 3215 772 
Q 3500 1075 3500 1938 
L 3500 4581 
z
" transform="scale(0.015625)"/>
       <path id="ArialMT-53" d="M 288 1472 
L 859 1522 
Q 900 1178 1048 958 
Q 1197 738 1509 602 
Q 1822 466 2213 466 
Q 2559 466 2825 569 
Q 3091 672 3220 851 
Q 3350 1031 3350 1244 
Q 3350 1459 3225 1620 
Q 3100 1781 2813 1891 
Q 2628 1963 1997 2114 
Q 1366 2266 1113 2400 
Q 784 2572 623 2826 
Q 463 3081 463 3397 
Q 463 3744 659 4045 
Q 856 4347 1234 4503 
Q 1613 4659 2075 4659 
Q 2584 4659 2973 4495 
Q 3363 4331 3572 4012 
Q 3781 3694 3797 3291 
L 3216 3247 
Q 3169 3681 2898 3903 
Q 2628 4125 2100 4125 
Q 1550 4125 1298 3923 
Q 1047 3722 1047 3438 
Q 1047 3191 1225 3031 
Q 1400 2872 2139 2705 
Q 2878 2538 3153 2413 
Q 3553 2228 3743 1945 
Q 3934 1663 3934 1294 
Q 3934 928 3725 604 
Q 3516 281 3123 101 
Q 2731 -78 2241 -78 
Q 1619 -78 1198 103 
Q 778 284 539 648 
Q 300 1013 288 1472 
z
" transform="scale(0.015625)"/>
      </defs>
      <use xlink:href="#ArialMT-56"/>
      <use xlink:href="#ArialMT-55" x="66.699219"/>
      <use xlink:href="#ArialMT-53" x="138.916016"/>
     </g>
    </g>
   </g>
  </g>
  <g id="axes_2">
   <g id="patch_10">
    <path d="M 367.298752 237.320547 
L 625.453753 237.320547 
L 625.453753 11.136797 
L 367.298752 11.136797 
L 367.298752 237.320547 
z
" style="fill: none"/>
   </g>
   <g id="PathCollection_2">
    <defs>
     <path id="C1_0_aa07c4c347" d="M 0 3.535534 
C 0.937635 3.535534 1.836992 3.163008 2.5 2.5 
C 3.163008 1.836992 3.535534 0.937635 3.535534 -0 
C 3.535534 -0.937635 3.163008 -1.836992 2.5 -2.5 
C 1.836992 -3.163008 0.937635 -3.535534 0 -3.535534 
C -0.937635 -3.535534 -1.836992 -3.163008 -2.5 -2.5 
C -3.163008 -1.836992 -3.535534 -0.937635 -3.535534 0 
C -3.535534 0.937635 -3.163008 1.836992 -2.5 2.5 
C -1.836992 3.163008 -0.937635 3.535534 0 3.535534 
z
"/>
    </defs>
    <g clip-path="url(#p22e5b83f61)">
     <use xlink:href="#C1_0_aa07c4c347" x="502.51738" y="85.288529" style="fill: #ca7682; stroke: #ffffff; stroke-width: 0.565685"/>
    </g>
    <g clip-path="url(#p22e5b83f61)">
     <use xlink:href="#C1_0_aa07c4c347" x="562.721785" y="224.08273" style="fill: #ca7682; stroke: #ffffff; stroke-width: 0.565685"/>
    </g>
    <g clip-path="url(#p22e5b83f61)">
     <use xlink:href="#C1_0_aa07c4c347" x="485.625244" y="104.64006" style="fill: #ca7682; stroke: #ffffff; stroke-width: 0.565685"/>
    </g>
    <g clip-path="url(#p22e5b83f61)">
     <use xlink:href="#C1_0_aa07c4c347" x="493.463588" y="60.220846" style="fill: #ca7682; stroke: #ffffff; stroke-width: 0.565685"/>
    </g>
    <g clip-path="url(#p22e5b83f61)">
     <use xlink:href="#C1_0_aa07c4c347" x="602.726514" y="216.381697" style="fill: #ca7682; stroke: #ffffff; stroke-width: 0.565685"/>
    </g>
    <g clip-path="url(#p22e5b83f61)">
     <use xlink:href="#C1_0_aa07c4c347" x="490.055269" y="64.120903" style="fill: #ca7682; stroke: #ffffff; stroke-width: 0.565685"/>
    </g>
    <g clip-path="url(#p22e5b83f61)">
     <use xlink:href="#C1_0_aa07c4c347" x="451.518653" y="85.171515" style="fill: #ca7682; stroke: #ffffff; stroke-width: 0.565685"/>
    </g>
    <g clip-path="url(#p22e5b83f61)">
     <use xlink:href="#C1_0_aa07c4c347" x="439.514814" y="94.761717" style="fill: #ca7682; stroke: #ffffff; stroke-width: 0.565685"/>
    </g>
    <g clip-path="url(#p22e5b83f61)">
     <use xlink:href="#C1_0_aa07c4c347" x="397.632094" y="98.779358" style="fill: #ca7682; stroke: #ffffff; stroke-width: 0.565685"/>
    </g>
    <g clip-path="url(#p22e5b83f61)">
     <use xlink:href="#C1_0_aa07c4c347" x="590.83335" y="209.435273" style="fill: #ca7682; stroke: #ffffff; stroke-width: 0.565685"/>
    </g>
    <g clip-path="url(#p22e5b83f61)">
     <use xlink:href="#C1_0_aa07c4c347" x="471.748825" y="64.414109" style="fill: #ca7682; stroke: #ffffff; stroke-width: 0.565685"/>
    </g>
    <g clip-path="url(#p22e5b83f61)">
     <use xlink:href="#C1_0_aa07c4c347" x="546.232756" y="70.160647" style="fill: #ca7682; stroke: #ffffff; stroke-width: 0.565685"/>
    </g>
    <g clip-path="url(#p22e5b83f61)">
     <use xlink:href="#C1_0_aa07c4c347" x="462.886958" y="59.24601" style="fill: #ca7682; stroke: #ffffff; stroke-width: 0.565685"/>
    </g>
    <g clip-path="url(#p22e5b83f61)">
     <use xlink:href="#C1_0_aa07c4c347" x="526.817092" y="181.214411" style="fill: #ca7682; stroke: #ffffff; stroke-width: 0.565685"/>
    </g>
    <g clip-path="url(#p22e5b83f61)">
     <use xlink:href="#C1_0_aa07c4c347" x="591.217755" y="222.184621" style="fill: #ca7682; stroke: #ffffff; stroke-width: 0.565685"/>
    </g>
    <g clip-path="url(#p22e5b83f61)">
     <use xlink:href="#C1_0_aa07c4c347" x="611.63112" y="187.870087" style="fill: #ca7682; stroke: #ffffff; stroke-width: 0.565685"/>
    </g>
    <g clip-path="url(#p22e5b83f61)">
     <use xlink:href="#C1_0_aa07c4c347" x="570.743915" y="219.185033" style="fill: #ca7682; stroke: #ffffff; stroke-width: 0.565685"/>
    </g>
    <g clip-path="url(#p22e5b83f61)">
     <use xlink:href="#C1_0_aa07c4c347" x="473.99376" y="223.988476" style="fill: #ca7682; stroke: #ffffff; stroke-width: 0.565685"/>
    </g>
    <g clip-path="url(#p22e5b83f61)">
     <use xlink:href="#C1_0_aa07c4c347" x="415.871615" y="61.357948" style="fill: #ca7682; stroke: #ffffff; stroke-width: 0.565685"/>
    </g>
    <g clip-path="url(#p22e5b83f61)">
     <use xlink:href="#C1_0_aa07c4c347" x="408.343328" y="80.082064" style="fill: #ca7682; stroke: #ffffff; stroke-width: 0.565685"/>
    </g>
    <g clip-path="url(#p22e5b83f61)">
     <use xlink:href="#C1_0_aa07c4c347" x="557.203952" y="220.626018" style="fill: #ca7682; stroke: #ffffff; stroke-width: 0.565685"/>
    </g>
    <g clip-path="url(#p22e5b83f61)">
     <use xlink:href="#C1_0_aa07c4c347" x="610.549297" y="224.674515" style="fill: #ca7682; stroke: #ffffff; stroke-width: 0.565685"/>
    </g>
    <g clip-path="url(#p22e5b83f61)">
     <use xlink:href="#C1_0_aa07c4c347" x="380.773918" y="70.237206" style="fill: #ca7682; stroke: #ffffff; stroke-width: 0.565685"/>
    </g>
    <g clip-path="url(#p22e5b83f61)">
     <use xlink:href="#C1_0_aa07c4c347" x="563.441127" y="62.642268" style="fill: #ca7682; stroke: #ffffff; stroke-width: 0.565685"/>
    </g>
    <g clip-path="url(#p22e5b83f61)">
     <use xlink:href="#C1_0_aa07c4c347" x="409.480979" y="55.517628" style="fill: #ca7682; stroke: #ffffff; stroke-width: 0.565685"/>
    </g>
    <g clip-path="url(#p22e5b83f61)">
     <use xlink:href="#C1_0_aa07c4c347" x="601.197799" y="223.460743" style="fill: #ca7682; stroke: #ffffff; stroke-width: 0.565685"/>
    </g>
    <g clip-path="url(#p22e5b83f61)">
     <use xlink:href="#C1_0_aa07c4c347" x="558.655934" y="211.788269" style="fill: #ca7682; stroke: #ffffff; stroke-width: 0.565685"/>
    </g>
    <g clip-path="url(#p22e5b83f61)">
     <use xlink:href="#C1_0_aa07c4c347" x="564.226341" y="117.001981" style="fill: #a0a0a0; stroke: #ffffff; stroke-width: 0.565685"/>
    </g>
    <g clip-path="url(#p22e5b83f61)">
     <use xlink:href="#C1_0_aa07c4c347" x="599.794148" y="224.328311" style="fill: #a0a0a0; stroke: #ffffff; stroke-width: 0.565685"/>
    </g>
    <g clip-path="url(#p22e5b83f61)">
     <use xlink:href="#C1_0_aa07c4c347" x="602.224995" y="224.666125" style="fill: #a0a0a0; stroke: #ffffff; stroke-width: 0.565685"/>
    </g>
    <g clip-path="url(#p22e5b83f61)">
     <use xlink:href="#C1_0_aa07c4c347" x="419.175933" y="58.186154" style="fill: #a0a0a0; stroke: #ffffff; stroke-width: 0.565685"/>
    </g>
    <g clip-path="url(#p22e5b83f61)">
     <use xlink:href="#C1_0_aa07c4c347" x="457.603282" y="133.551064" style="fill: #a0a0a0; stroke: #ffffff; stroke-width: 0.565685"/>
    </g>
    <g clip-path="url(#p22e5b83f61)">
     <use xlink:href="#C1_0_aa07c4c347" x="607.99268" y="223.745557" style="fill: #a0a0a0; stroke: #ffffff; stroke-width: 0.565685"/>
    </g>
    <g clip-path="url(#p22e5b83f61)">
     <use xlink:href="#C1_0_aa07c4c347" x="492.492961" y="107.967146" style="fill: #a0a0a0; stroke: #ffffff; stroke-width: 0.565685"/>
    </g>
    <g clip-path="url(#p22e5b83f61)">
     <use xlink:href="#C1_0_aa07c4c347" x="582.885614" y="223.649005" style="fill: #a0a0a0; stroke: #ffffff; stroke-width: 0.565685"/>
    </g>
    <g clip-path="url(#p22e5b83f61)">
     <use xlink:href="#C1_0_aa07c4c347" x="407.116288" y="72.50494" style="fill: #1d7aab; stroke: #ffffff; stroke-width: 0.565685"/>
    </g>
    <g clip-path="url(#p22e5b83f61)">
     <use xlink:href="#C1_0_aa07c4c347" x="445.728419" y="82.728666" style="fill: #1d7aab; stroke: #ffffff; stroke-width: 0.565685"/>
    </g>
    <g clip-path="url(#p22e5b83f61)">
     <use xlink:href="#C1_0_aa07c4c347" x="485.73659" y="76.302526" style="fill: #1d7aab; stroke: #ffffff; stroke-width: 0.565685"/>
    </g>
    <g clip-path="url(#p22e5b83f61)">
     <use xlink:href="#C1_0_aa07c4c347" x="466.707083" y="66.71221" style="fill: #1d7aab; stroke: #ffffff; stroke-width: 0.565685"/>
    </g>
    <g clip-path="url(#p22e5b83f61)">
     <use xlink:href="#C1_0_aa07c4c347" x="417.948455" y="68.499249" style="fill: #1d7aab; stroke: #ffffff; stroke-width: 0.565685"/>
    </g>
    <g clip-path="url(#p22e5b83f61)">
     <use xlink:href="#C1_0_aa07c4c347" x="463.326079" y="66.551097" style="fill: #a0a0a0; stroke: #ffffff; stroke-width: 0.565685"/>
    </g>
    <g clip-path="url(#p22e5b83f61)">
     <use xlink:href="#C1_0_aa07c4c347" x="422.855281" y="69.554562" style="fill: #a0a0a0; stroke: #ffffff; stroke-width: 0.565685"/>
    </g>
    <g clip-path="url(#p22e5b83f61)">
     <use xlink:href="#C1_0_aa07c4c347" x="381.616316" y="67.144413" style="fill: #a0a0a0; stroke: #ffffff; stroke-width: 0.565685"/>
    </g>
    <g clip-path="url(#p22e5b83f61)">
     <use xlink:href="#C1_0_aa07c4c347" x="442.958794" y="70.633923" style="fill: #a0a0a0; stroke: #ffffff; stroke-width: 0.565685"/>
    </g>
    <g clip-path="url(#p22e5b83f61)">
     <use xlink:href="#C1_0_aa07c4c347" x="454.306408" y="74.900548" style="fill: #a0a0a0; stroke: #ffffff; stroke-width: 0.565685"/>
    </g>
    <g clip-path="url(#p22e5b83f61)">
     <use xlink:href="#C1_0_aa07c4c347" x="443.489984" y="61.820722" style="fill: #a0a0a0; stroke: #ffffff; stroke-width: 0.565685"/>
    </g>
    <g clip-path="url(#p22e5b83f61)">
     <use xlink:href="#C1_0_aa07c4c347" x="522.482211" y="89.081163" style="fill: #a0a0a0; stroke: #ffffff; stroke-width: 0.565685"/>
    </g>
    <g clip-path="url(#p22e5b83f61)">
     <use xlink:href="#C1_0_aa07c4c347" x="446.246001" y="135.922019" style="fill: #a0a0a0; stroke: #ffffff; stroke-width: 0.565685"/>
    </g>
    <g clip-path="url(#p22e5b83f61)">
     <use xlink:href="#C1_0_aa07c4c347" x="539.275263" y="142.290919" style="fill: #a0a0a0; stroke: #ffffff; stroke-width: 0.565685"/>
    </g>
    <g clip-path="url(#p22e5b83f61)">
     <use xlink:href="#C1_0_aa07c4c347" x="452.777846" y="227.937924" style="fill: #a0a0a0; stroke: #ffffff; stroke-width: 0.565685"/>
    </g>
   </g>
   <g id="PolyCollection_2">
    <path d="M 380.773918 22.258331 
L 380.773918 62.686516 
L 383.105808 63.962141 
L 385.437699 65.302797 
L 387.76959 66.635847 
L 390.101481 68.125327 
L 392.433372 69.642984 
L 394.765263 71.056023 
L 397.097154 72.554842 
L 399.429045 74.090769 
L 401.760936 75.611576 
L 404.092827 77.131476 
L 406.424718 78.648372 
L 408.756609 80.083356 
L 411.0885 81.514784 
L 413.420391 83.007013 
L 415.752282 84.575849 
L 418.084173 86.129411 
L 420.416063 87.62557 
L 422.747954 89.022953 
L 425.079845 90.427435 
L 427.411736 91.984297 
L 429.743627 93.497536 
L 432.075518 95.04641 
L 434.407409 96.595284 
L 436.7393 98.143216 
L 439.071191 99.689733 
L 441.403082 101.23625 
L 443.734973 102.825506 
L 446.066864 104.426901 
L 448.398755 105.909063 
L 450.730646 107.422318 
L 453.062537 109.034179 
L 455.394428 110.643193 
L 457.726318 112.13668 
L 460.058209 113.610624 
L 462.3901 115.113068 
L 464.721991 116.735514 
L 467.053882 118.338948 
L 469.385773 119.967508 
L 471.717664 121.506386 
L 474.049555 123.09161 
L 476.381446 124.637029 
L 478.713337 126.356542 
L 481.045228 128.139814 
L 483.377119 129.898423 
L 485.70901 131.390658 
L 488.040901 133.047188 
L 490.372792 134.823155 
L 492.704683 136.596367 
L 495.036573 138.264607 
L 497.368464 139.809007 
L 499.700355 141.532123 
L 502.032246 143.185917 
L 504.364137 144.928783 
L 506.696028 146.438993 
L 509.027919 148.218957 
L 511.35981 150.033779 
L 513.691701 151.692755 
L 516.023592 153.298054 
L 518.355483 154.960544 
L 520.687374 156.656298 
L 523.019265 158.275308 
L 525.351156 160.198223 
L 527.683047 161.943589 
L 530.014938 163.674507 
L 532.346829 165.254413 
L 534.678719 166.911255 
L 537.01061 168.702595 
L 539.342501 170.594328 
L 541.674392 172.474119 
L 544.006283 174.141996 
L 546.338174 175.847373 
L 548.670065 177.591942 
L 551.001956 179.384365 
L 553.333847 181.126262 
L 555.665738 182.92211 
L 557.997629 184.822648 
L 560.32952 186.812433 
L 562.661411 188.589124 
L 564.993302 190.481077 
L 567.325193 192.400995 
L 569.657084 194.264982 
L 571.988974 196.156934 
L 574.320865 198.048887 
L 576.652756 199.940839 
L 578.984647 201.832792 
L 581.316538 203.724744 
L 583.648429 205.616697 
L 585.98032 207.507866 
L 588.312211 209.37108 
L 590.644102 211.14776 
L 592.975993 213.055031 
L 595.307884 214.896604 
L 597.639775 216.734225 
L 599.971666 218.519561 
L 602.303557 220.258462 
L 604.635448 221.997362 
L 606.967339 223.918351 
L 609.299229 225.932591 
L 611.63112 227.807698 
L 611.63112 185.799991 
L 611.63112 185.799991 
L 609.299229 184.285379 
L 606.967339 182.77217 
L 604.635448 181.309982 
L 602.303557 179.951694 
L 599.971666 178.594986 
L 597.639775 177.337971 
L 595.307884 175.987076 
L 592.975993 174.368543 
L 590.644102 172.750011 
L 588.312211 171.131478 
L 585.98032 169.512946 
L 583.648429 168.015579 
L 581.316538 166.735075 
L 578.984647 165.491117 
L 576.652756 164.222909 
L 574.320865 162.727946 
L 571.988974 161.232982 
L 569.657084 159.738018 
L 567.325193 158.243055 
L 564.993302 156.752697 
L 562.661411 155.262466 
L 560.32952 153.772235 
L 557.997629 152.352432 
L 555.665738 151.044721 
L 553.333847 149.73701 
L 551.001956 148.430288 
L 548.670065 146.967798 
L 546.338174 145.461522 
L 544.006283 143.948327 
L 541.674392 142.432453 
L 539.342501 140.917234 
L 537.01061 139.407442 
L 534.678719 137.921646 
L 532.346829 136.408829 
L 530.014938 134.934531 
L 527.683047 133.381791 
L 525.351156 131.931341 
L 523.019265 130.355222 
L 520.687374 128.841937 
L 518.355483 127.328652 
L 516.023592 125.815367 
L 513.691701 124.525249 
L 511.35981 122.788798 
L 509.027919 121.245934 
L 506.696028 119.7312 
L 504.364137 118.236859 
L 502.032246 116.842391 
L 499.700355 115.343073 
L 497.368464 113.76008 
L 495.036573 112.187657 
L 492.704683 110.682519 
L 490.372792 109.135908 
L 488.040901 107.621766 
L 485.70901 106.039212 
L 483.377119 104.496211 
L 481.045228 102.941642 
L 478.713337 101.197261 
L 476.381446 99.456619 
L 474.049555 97.826906 
L 471.717664 96.101327 
L 469.385773 94.283821 
L 467.053882 92.298981 
L 464.721991 90.652114 
L 462.3901 88.890472 
L 460.058209 87.090137 
L 457.726318 85.226136 
L 455.394428 83.338214 
L 453.062537 81.485857 
L 450.730646 79.601681 
L 448.398755 77.946392 
L 446.066864 76.158688 
L 443.734973 74.225838 
L 441.403082 72.292989 
L 439.071191 70.360139 
L 436.7393 68.482278 
L 434.407409 66.814958 
L 432.075518 64.937137 
L 429.743627 62.944061 
L 427.411736 60.96152 
L 425.079845 59.043309 
L 422.747954 57.140169 
L 420.416063 55.195846 
L 418.084173 53.340635 
L 415.752282 51.469877 
L 413.420391 49.499983 
L 411.0885 47.772088 
L 408.756609 45.919019 
L 406.424718 44.053848 
L 404.092827 41.947801 
L 401.760936 39.84764 
L 399.429045 37.722203 
L 397.097154 35.656707 
L 394.765263 33.702344 
L 392.433372 31.749668 
L 390.101481 29.796991 
L 387.76959 27.844315 
L 385.437699 25.925805 
L 383.105808 24.091877 
L 380.773918 22.258331 
z
" clip-path="url(#p22e5b83f61)" style="fill-opacity: 0.15"/>
   </g>
   <g id="matplotlib.axis_3">
    <g id="xtick_7">
     <g id="line2d_22">
      <g>
       <use xlink:href="#mf1778438fc" x="367.298752" y="237.320547" style="stroke: #000000; stroke-width: 0.8"/>
      </g>
     </g>
     <g id="text_24">
      <!-- 0.5 -->
      <g transform="translate(359.653752 252.194141) scale(0.11 -0.11)">
       <use xlink:href="#ArialMT-30"/>
       <use xlink:href="#ArialMT-2e" x="55.615234"/>
       <use xlink:href="#ArialMT-35" x="83.398438"/>
      </g>
     </g>
    </g>
    <g id="xtick_8">
     <g id="line2d_23">
      <g>
       <use xlink:href="#mf1778438fc" x="417.917379" y="237.320547" style="stroke: #000000; stroke-width: 0.8"/>
      </g>
     </g>
     <g id="text_25">
      <!-- 0.6 -->
      <g transform="translate(410.272379 252.194141) scale(0.11 -0.11)">
       <use xlink:href="#ArialMT-30"/>
       <use xlink:href="#ArialMT-2e" x="55.615234"/>
       <use xlink:href="#ArialMT-36" x="83.398438"/>
      </g>
     </g>
    </g>
    <g id="xtick_9">
     <g id="line2d_24">
      <g>
       <use xlink:href="#mf1778438fc" x="468.536007" y="237.320547" style="stroke: #000000; stroke-width: 0.8"/>
      </g>
     </g>
     <g id="text_26">
      <!-- 0.7 -->
      <g transform="translate(460.891007 252.194141) scale(0.11 -0.11)">
       <use xlink:href="#ArialMT-30"/>
       <use xlink:href="#ArialMT-2e" x="55.615234"/>
       <use xlink:href="#ArialMT-37" x="83.398438"/>
      </g>
     </g>
    </g>
    <g id="xtick_10">
     <g id="line2d_25">
      <g>
       <use xlink:href="#mf1778438fc" x="519.154635" y="237.320547" style="stroke: #000000; stroke-width: 0.8"/>
      </g>
     </g>
     <g id="text_27">
      <!-- 0.8 -->
      <g transform="translate(511.509635 252.194141) scale(0.11 -0.11)">
       <use xlink:href="#ArialMT-30"/>
       <use xlink:href="#ArialMT-2e" x="55.615234"/>
       <use xlink:href="#ArialMT-38" x="83.398438"/>
      </g>
     </g>
    </g>
    <g id="xtick_11">
     <g id="line2d_26">
      <g>
       <use xlink:href="#mf1778438fc" x="569.773263" y="237.320547" style="stroke: #000000; stroke-width: 0.8"/>
      </g>
     </g>
     <g id="text_28">
      <!-- 0.9 -->
      <g transform="translate(562.128263 252.194141) scale(0.11 -0.11)">
       <use xlink:href="#ArialMT-30"/>
       <use xlink:href="#ArialMT-2e" x="55.615234"/>
       <use xlink:href="#ArialMT-39" x="83.398438"/>
      </g>
     </g>
    </g>
    <g id="xtick_12">
     <g id="line2d_27">
      <g>
       <use xlink:href="#mf1778438fc" x="620.39189" y="237.320547" style="stroke: #000000; stroke-width: 0.8"/>
      </g>
     </g>
     <g id="text_29">
      <!-- 1.0 -->
      <g transform="translate(612.74689 252.194141) scale(0.11 -0.11)">
       <use xlink:href="#ArialMT-31"/>
       <use xlink:href="#ArialMT-2e" x="55.615234"/>
       <use xlink:href="#ArialMT-30" x="83.398438"/>
      </g>
     </g>
    </g>
    <g id="text_30">
     <!-- Imaging phenotype score -->
     <g transform="translate(429.00469 266.969766) scale(0.12 -0.12)">
      <use xlink:href="#ArialMT-49"/>
      <use xlink:href="#ArialMT-6d" x="27.783203"/>
      <use xlink:href="#ArialMT-61" x="111.083984"/>
      <use xlink:href="#ArialMT-67" x="166.699219"/>
      <use xlink:href="#ArialMT-69" x="222.314453"/>
      <use xlink:href="#ArialMT-6e" x="244.53125"/>
      <use xlink:href="#ArialMT-67" x="300.146484"/>
      <use xlink:href="#ArialMT-20" x="355.761719"/>
      <use xlink:href="#ArialMT-70" x="383.544922"/>
      <use xlink:href="#ArialMT-68" x="439.160156"/>
      <use xlink:href="#ArialMT-65" x="494.775391"/>
      <use xlink:href="#ArialMT-6e" x="550.390625"/>
      <use xlink:href="#ArialMT-6f" x="606.005859"/>
      <use xlink:href="#ArialMT-74" x="661.621094"/>
      <use xlink:href="#ArialMT-79" x="689.404297"/>
      <use xlink:href="#ArialMT-70" x="739.404297"/>
      <use xlink:href="#ArialMT-65" x="795.019531"/>
      <use xlink:href="#ArialMT-20" x="850.634766"/>
      <use xlink:href="#ArialMT-73" x="878.417969"/>
      <use xlink:href="#ArialMT-63" x="928.417969"/>
      <use xlink:href="#ArialMT-6f" x="978.417969"/>
      <use xlink:href="#ArialMT-72" x="1034.033203"/>
      <use xlink:href="#ArialMT-65" x="1067.333984"/>
     </g>
    </g>
   </g>
   <g id="matplotlib.axis_4">
    <g id="ytick_9">
     <g id="line2d_28">
      <g>
       <use xlink:href="#m68bfa52a73" x="367.298752" y="225.094398" style="stroke: #000000; stroke-width: 0.8"/>
      </g>
     </g>
     <g id="text_31">
      <!-- 0.0 -->
      <g transform="translate(345.008752 229.031195) scale(0.11 -0.11)">
       <use xlink:href="#ArialMT-30"/>
       <use xlink:href="#ArialMT-2e" x="55.615234"/>
       <use xlink:href="#ArialMT-30" x="83.398438"/>
      </g>
     </g>
    </g>
    <g id="ytick_10">
     <g id="line2d_29">
      <g>
       <use xlink:href="#m68bfa52a73" x="367.298752" y="194.529027" style="stroke: #000000; stroke-width: 0.8"/>
      </g>
     </g>
     <g id="text_32">
      <!-- 0.2 -->
      <g transform="translate(345.008752 198.465823) scale(0.11 -0.11)">
       <use xlink:href="#ArialMT-30"/>
       <use xlink:href="#ArialMT-2e" x="55.615234"/>
       <use xlink:href="#ArialMT-32" x="83.398438"/>
      </g>
     </g>
    </g>
    <g id="ytick_11">
     <g id="line2d_30">
      <g>
       <use xlink:href="#m68bfa52a73" x="367.298752" y="163.963655" style="stroke: #000000; stroke-width: 0.8"/>
      </g>
     </g>
     <g id="text_33">
      <!-- 0.4 -->
      <g transform="translate(345.008752 167.900452) scale(0.11 -0.11)">
       <use xlink:href="#ArialMT-30"/>
       <use xlink:href="#ArialMT-2e" x="55.615234"/>
       <use xlink:href="#ArialMT-34" x="83.398438"/>
      </g>
     </g>
    </g>
    <g id="ytick_12">
     <g id="line2d_31">
      <g>
       <use xlink:href="#m68bfa52a73" x="367.298752" y="133.398283" style="stroke: #000000; stroke-width: 0.8"/>
      </g>
     </g>
     <g id="text_34">
      <!-- 0.6 -->
      <g transform="translate(345.008752 137.33508) scale(0.11 -0.11)">
       <use xlink:href="#ArialMT-30"/>
       <use xlink:href="#ArialMT-2e" x="55.615234"/>
       <use xlink:href="#ArialMT-36" x="83.398438"/>
      </g>
     </g>
    </g>
    <g id="ytick_13">
     <g id="line2d_32">
      <g>
       <use xlink:href="#m68bfa52a73" x="367.298752" y="102.832912" style="stroke: #000000; stroke-width: 0.8"/>
      </g>
     </g>
     <g id="text_35">
      <!-- 0.8 -->
      <g transform="translate(345.008752 106.769709) scale(0.11 -0.11)">
       <use xlink:href="#ArialMT-30"/>
       <use xlink:href="#ArialMT-2e" x="55.615234"/>
       <use xlink:href="#ArialMT-38" x="83.398438"/>
      </g>
     </g>
    </g>
    <g id="ytick_14">
     <g id="line2d_33">
      <g>
       <use xlink:href="#m68bfa52a73" x="367.298752" y="72.26754" style="stroke: #000000; stroke-width: 0.8"/>
      </g>
     </g>
     <g id="text_36">
      <!-- 1.0 -->
      <g transform="translate(345.008752 76.204337) scale(0.11 -0.11)">
       <use xlink:href="#ArialMT-31"/>
       <use xlink:href="#ArialMT-2e" x="55.615234"/>
       <use xlink:href="#ArialMT-30" x="83.398438"/>
      </g>
     </g>
    </g>
    <g id="ytick_15">
     <g id="line2d_34">
      <g>
       <use xlink:href="#m68bfa52a73" x="367.298752" y="41.702168" style="stroke: #000000; stroke-width: 0.8"/>
      </g>
     </g>
     <g id="text_37">
      <!-- 1.2 -->
      <g transform="translate(345.008752 45.638965) scale(0.11 -0.11)">
       <use xlink:href="#ArialMT-31"/>
       <use xlink:href="#ArialMT-2e" x="55.615234"/>
       <use xlink:href="#ArialMT-32" x="83.398438"/>
      </g>
     </g>
    </g>
    <g id="ytick_16">
     <g id="line2d_35">
      <g>
       <use xlink:href="#m68bfa52a73" x="367.298752" y="11.136797" style="stroke: #000000; stroke-width: 0.8"/>
      </g>
     </g>
     <g id="text_38">
      <!-- 1.4 -->
      <g transform="translate(345.008752 15.073594) scale(0.11 -0.11)">
       <use xlink:href="#ArialMT-31"/>
       <use xlink:href="#ArialMT-2e" x="55.615234"/>
       <use xlink:href="#ArialMT-34" x="83.398438"/>
      </g>
     </g>
    </g>
    <g id="text_39">
     <!-- Carboxylation-sensitive -->
     <g transform="translate(325.474752 186.252734) rotate(-90) scale(0.12 -0.12)">
      <defs>
       <path id="ArialMT-62" d="M 941 0 
L 419 0 
L 419 4581 
L 981 4581 
L 981 2947 
Q 1338 3394 1891 3394 
Q 2197 3394 2470 3270 
Q 2744 3147 2920 2923 
Q 3097 2700 3197 2384 
Q 3297 2069 3297 1709 
Q 3297 856 2875 390 
Q 2453 -75 1863 -75 
Q 1275 -75 941 416 
L 941 0 
z
M 934 1684 
Q 934 1088 1097 822 
Q 1363 388 1816 388 
Q 2184 388 2453 708 
Q 2722 1028 2722 1663 
Q 2722 2313 2464 2622 
Q 2206 2931 1841 2931 
Q 1472 2931 1203 2611 
Q 934 2291 934 1684 
z
" transform="scale(0.015625)"/>
       <path id="ArialMT-78" d="M 47 0 
L 1259 1725 
L 138 3319 
L 841 3319 
L 1350 2541 
Q 1494 2319 1581 2169 
Q 1719 2375 1834 2534 
L 2394 3319 
L 3066 3319 
L 1919 1756 
L 3153 0 
L 2463 0 
L 1781 1031 
L 1600 1309 
L 728 0 
L 47 0 
z
" transform="scale(0.015625)"/>
      </defs>
      <use xlink:href="#ArialMT-43"/>
      <use xlink:href="#ArialMT-61" x="72.216797"/>
      <use xlink:href="#ArialMT-72" x="127.832031"/>
      <use xlink:href="#ArialMT-62" x="161.132812"/>
      <use xlink:href="#ArialMT-6f" x="216.748047"/>
      <use xlink:href="#ArialMT-78" x="272.363281"/>
      <use xlink:href="#ArialMT-79" x="322.363281"/>
      <use xlink:href="#ArialMT-6c" x="372.363281"/>
      <use xlink:href="#ArialMT-61" x="394.580078"/>
      <use xlink:href="#ArialMT-74" x="450.195312"/>
      <use xlink:href="#ArialMT-69" x="477.978516"/>
      <use xlink:href="#ArialMT-6f" x="500.195312"/>
      <use xlink:href="#ArialMT-6e" x="555.810547"/>
      <use xlink:href="#ArialMT-2d" x="611.425781"/>
      <use xlink:href="#ArialMT-73" x="644.726562"/>
      <use xlink:href="#ArialMT-65" x="694.726562"/>
      <use xlink:href="#ArialMT-6e" x="750.341797"/>
      <use xlink:href="#ArialMT-73" x="805.957031"/>
      <use xlink:href="#ArialMT-69" x="855.957031"/>
      <use xlink:href="#ArialMT-74" x="878.173828"/>
      <use xlink:href="#ArialMT-69" x="905.957031"/>
      <use xlink:href="#ArialMT-76" x="928.173828"/>
      <use xlink:href="#ArialMT-65" x="978.173828"/>
     </g>
     <!-- FIX-specific carboxylation score -->
     <g transform="translate(338.483127 208.921484) rotate(-90) scale(0.12 -0.12)">
      <defs>
       <path id="ArialMT-46" d="M 525 0 
L 525 4581 
L 3616 4581 
L 3616 4041 
L 1131 4041 
L 1131 2622 
L 3281 2622 
L 3281 2081 
L 1131 2081 
L 1131 0 
L 525 0 
z
" transform="scale(0.015625)"/>
       <path id="ArialMT-58" d="M 28 0 
L 1800 2388 
L 238 4581 
L 959 4581 
L 1791 3406 
Q 2050 3041 2159 2844 
Q 2313 3094 2522 3366 
L 3444 4581 
L 4103 4581 
L 2494 2422 
L 4228 0 
L 3478 0 
L 2325 1634 
Q 2228 1775 2125 1941 
Q 1972 1691 1906 1597 
L 756 0 
L 28 0 
z
" transform="scale(0.015625)"/>
       <path id="ArialMT-66" d="M 556 0 
L 556 2881 
L 59 2881 
L 59 3319 
L 556 3319 
L 556 3672 
Q 556 4006 616 4169 
Q 697 4388 901 4523 
Q 1106 4659 1475 4659 
Q 1713 4659 2000 4603 
L 1916 4113 
Q 1741 4144 1584 4144 
Q 1328 4144 1222 4034 
Q 1116 3925 1116 3625 
L 1116 3319 
L 1763 3319 
L 1763 2881 
L 1116 2881 
L 1116 0 
L 556 0 
z
" transform="scale(0.015625)"/>
      </defs>
      <use xlink:href="#ArialMT-46"/>
      <use xlink:href="#ArialMT-49" x="61.083984"/>
      <use xlink:href="#ArialMT-58" x="88.867188"/>
      <use xlink:href="#ArialMT-2d" x="155.566406"/>
      <use xlink:href="#ArialMT-73" x="188.867188"/>
      <use xlink:href="#ArialMT-70" x="238.867188"/>
      <use xlink:href="#ArialMT-65" x="294.482422"/>
      <use xlink:href="#ArialMT-63" x="350.097656"/>
      <use xlink:href="#ArialMT-69" x="400.097656"/>
      <use xlink:href="#ArialMT-66" x="422.314453"/>
      <use xlink:href="#ArialMT-69" x="450.097656"/>
      <use xlink:href="#ArialMT-63" x="472.314453"/>
      <use xlink:href="#ArialMT-20" x="522.314453"/>
      <use xlink:href="#ArialMT-63" x="550.097656"/>
      <use xlink:href="#ArialMT-61" x="600.097656"/>
      <use xlink:href="#ArialMT-72" x="655.712891"/>
      <use xlink:href="#ArialMT-62" x="689.013672"/>
      <use xlink:href="#ArialMT-6f" x="744.628906"/>
      <use xlink:href="#ArialMT-78" x="800.244141"/>
      <use xlink:href="#ArialMT-79" x="850.244141"/>
      <use xlink:href="#ArialMT-6c" x="900.244141"/>
      <use xlink:href="#ArialMT-61" x="922.460938"/>
      <use xlink:href="#ArialMT-74" x="978.076172"/>
      <use xlink:href="#ArialMT-69" x="1005.859375"/>
      <use xlink:href="#ArialMT-6f" x="1028.076172"/>
      <use xlink:href="#ArialMT-6e" x="1083.691406"/>
      <use xlink:href="#ArialMT-20" x="1139.306641"/>
      <use xlink:href="#ArialMT-73" x="1167.089844"/>
      <use xlink:href="#ArialMT-63" x="1217.089844"/>
      <use xlink:href="#ArialMT-6f" x="1267.089844"/>
      <use xlink:href="#ArialMT-72" x="1322.705078"/>
      <use xlink:href="#ArialMT-65" x="1356.005859"/>
     </g>
    </g>
   </g>
   <g id="line2d_36"/>
   <g id="line2d_37"/>
   <g id="line2d_38"/>
   <g id="line2d_39">
    <path d="M 380.773918 43.546798 
L 383.105808 45.214752 
L 385.437699 46.882707 
L 387.76959 48.550661 
L 390.101481 50.218616 
L 392.433372 51.88657 
L 394.765263 53.554525 
L 397.097154 55.222479 
L 399.429045 56.890434 
L 401.760936 58.558388 
L 404.092827 60.226343 
L 406.424718 61.894297 
L 408.756609 63.562252 
L 411.0885 65.230206 
L 413.420391 66.898161 
L 415.752282 68.566115 
L 418.084173 70.23407 
L 420.416063 71.902024 
L 422.747954 73.569979 
L 425.079845 75.237933 
L 427.411736 76.905888 
L 429.743627 78.573842 
L 432.075518 80.241797 
L 434.407409 81.909751 
L 436.7393 83.577706 
L 439.071191 85.24566 
L 441.403082 86.913615 
L 443.734973 88.581569 
L 446.066864 90.249524 
L 448.398755 91.917478 
L 450.730646 93.585433 
L 453.062537 95.253387 
L 455.394428 96.921342 
L 457.726318 98.589296 
L 460.058209 100.257251 
L 462.3901 101.925205 
L 464.721991 103.59316 
L 467.053882 105.261114 
L 469.385773 106.929069 
L 471.717664 108.597023 
L 474.049555 110.264978 
L 476.381446 111.932932 
L 478.713337 113.600887 
L 481.045228 115.268841 
L 483.377119 116.936796 
L 485.70901 118.60475 
L 488.040901 120.272705 
L 490.372792 121.940659 
L 492.704683 123.608614 
L 495.036573 125.276568 
L 497.368464 126.944523 
L 499.700355 128.612477 
L 502.032246 130.280432 
L 504.364137 131.948386 
L 506.696028 133.616341 
L 509.027919 135.284295 
L 511.35981 136.95225 
L 513.691701 138.620205 
L 516.023592 140.288159 
L 518.355483 141.956114 
L 520.687374 143.624068 
L 523.019265 145.292023 
L 525.351156 146.959977 
L 527.683047 148.627932 
L 530.014938 150.295886 
L 532.346829 151.963841 
L 534.678719 153.631795 
L 537.01061 155.29975 
L 539.342501 156.967704 
L 541.674392 158.635659 
L 544.006283 160.303613 
L 546.338174 161.971568 
L 548.670065 163.639522 
L 551.001956 165.307477 
L 553.333847 166.975431 
L 555.665738 168.643386 
L 557.997629 170.31134 
L 560.32952 171.979295 
L 562.661411 173.647249 
L 564.993302 175.315204 
L 567.325193 176.983158 
L 569.657084 178.651113 
L 571.988974 180.319067 
L 574.320865 181.987022 
L 576.652756 183.654976 
L 578.984647 185.322931 
L 581.316538 186.990885 
L 583.648429 188.65884 
L 585.98032 190.326794 
L 588.312211 191.994749 
L 590.644102 193.662703 
L 592.975993 195.330658 
L 595.307884 196.998612 
L 597.639775 198.666567 
L 599.971666 200.334521 
L 602.303557 202.002476 
L 604.635448 203.67043 
L 606.967339 205.338385 
L 609.299229 207.006339 
L 611.63112 208.674294 
" clip-path="url(#p22e5b83f61)" style="fill: none; stroke: #000000; stroke-width: 2.25; stroke-linecap: square"/>
   </g>
   <g id="patch_11">
    <path d="M 367.298752 237.320547 
L 367.298752 11.136797 
" style="fill: none; stroke: #000000; stroke-width: 0.8; stroke-linejoin: miter; stroke-linecap: square"/>
   </g>
   <g id="patch_12">
    <path d="M 625.453753 237.320547 
L 625.453753 11.136797 
" style="fill: none; stroke: #000000; stroke-width: 0.8; stroke-linejoin: miter; stroke-linecap: square"/>
   </g>
   <g id="patch_13">
    <path d="M 367.298752 237.320547 
L 625.453753 237.320547 
" style="fill: none; stroke: #000000; stroke-width: 0.8; stroke-linejoin: miter; stroke-linecap: square"/>
   </g>
   <g id="patch_14">
    <path d="M 367.298752 11.136797 
L 625.453753 11.136797 
" style="fill: none; stroke: #000000; stroke-width: 0.8; stroke-linejoin: miter; stroke-linecap: square"/>
   </g>
   <g id="text_40">
    <!-- Glu73Val -->
    <g transform="translate(483.480378 216.289653) scale(0.1 -0.1)">
     <use xlink:href="#ArialMT-47"/>
     <use xlink:href="#ArialMT-6c" x="77.783203"/>
     <use xlink:href="#ArialMT-75" x="100"/>
     <use xlink:href="#ArialMT-37" x="155.615234"/>
     <use xlink:href="#ArialMT-33" x="211.230469"/>
     <use xlink:href="#ArialMT-56" x="266.845703"/>
     <use xlink:href="#ArialMT-61" x="326.169922"/>
     <use xlink:href="#ArialMT-6c" x="381.785156"/>
    </g>
   </g>
   <g id="text_41">
    <!-- Glu73Lys -->
    <g transform="translate(456.673445 234.932843) scale(0.1 -0.1)">
     <use xlink:href="#ArialMT-47"/>
     <use xlink:href="#ArialMT-6c" x="77.783203"/>
     <use xlink:href="#ArialMT-75" x="100"/>
     <use xlink:href="#ArialMT-37" x="155.615234"/>
     <use xlink:href="#ArialMT-33" x="211.230469"/>
     <use xlink:href="#ArialMT-4c" x="266.845703"/>
     <use xlink:href="#ArialMT-79" x="318.710938"/>
     <use xlink:href="#ArialMT-73" x="368.710938"/>
    </g>
   </g>
   <g id="patch_15">
    <path d="M 501.791618 214.358544 
Q 488.837721 218.846125 476.940261 222.967728 
" style="fill: none; opacity: 0.5; stroke: #808080; stroke-linecap: round"/>
    <path d="M 482.26143 223.664265 
L 476.940261 222.967728 
L 480.690192 219.128715 
" style="fill: none; opacity: 0.5; stroke: #808080; stroke-linecap: round"/>
   </g>
   <g id="text_42">
    <g id="patch_16">
     <path d="M 532.517953 41.811041 
L 617.817953 41.811041 
Q 620.817953 41.811041 620.817953 38.811041 
L 620.817953 19.053228 
Q 620.817953 16.053228 617.817953 16.053228 
L 532.517953 16.053228 
Q 529.517953 16.053228 529.517953 19.053228 
L 529.517953 38.811041 
Q 529.517953 41.811041 532.517953 41.811041 
z
" style="fill: #ffffff; opacity: 0.4; stroke: #000000; stroke-linejoin: miter"/>
    </g>
    <!-- Pearson's $r$ = -0.75 -->
    <g transform="translate(532.517953 26.211041) scale(0.1 -0.1)">
     <use xlink:href="#ArialMT-50" transform="translate(0 0.125)"/>
     <use xlink:href="#ArialMT-65" transform="translate(66.699219 0.125)"/>
     <use xlink:href="#ArialMT-61" transform="translate(122.314453 0.125)"/>
     <use xlink:href="#ArialMT-72" transform="translate(177.929688 0.125)"/>
     <use xlink:href="#ArialMT-73" transform="translate(211.230469 0.125)"/>
     <use xlink:href="#ArialMT-6f" transform="translate(261.230469 0.125)"/>
     <use xlink:href="#ArialMT-6e" transform="translate(316.845703 0.125)"/>
     <use xlink:href="#ArialMT-27" transform="translate(372.460938 0.125)"/>
     <use xlink:href="#ArialMT-73" transform="translate(391.552734 0.125)"/>
     <use xlink:href="#ArialMT-20" transform="translate(441.552734 0.125)"/>
     <use xlink:href="#DejaVuSans-Oblique-72" transform="translate(469.335938 0.125)"/>
     <use xlink:href="#ArialMT-20" transform="translate(510.449219 0.125)"/>
     <use xlink:href="#ArialMT-3d" transform="translate(538.232422 0.125)"/>
     <use xlink:href="#ArialMT-20" transform="translate(596.630859 0.125)"/>
     <use xlink:href="#ArialMT-2d" transform="translate(624.414062 0.125)"/>
     <use xlink:href="#ArialMT-30" transform="translate(657.714844 0.125)"/>
     <use xlink:href="#ArialMT-2e" transform="translate(713.330078 0.125)"/>
     <use xlink:href="#ArialMT-37" transform="translate(741.113281 0.125)"/>
     <use xlink:href="#ArialMT-35" transform="translate(796.728516 0.125)"/>
    </g>
    <!-- p = 3.783e-10 -->
    <g transform="translate(532.517953 36.823541) scale(0.1 -0.1)">
     <use xlink:href="#ArialMT-70"/>
     <use xlink:href="#ArialMT-20" x="55.615234"/>
     <use xlink:href="#ArialMT-3d" x="83.398438"/>
     <use xlink:href="#ArialMT-20" x="141.796875"/>
     <use xlink:href="#ArialMT-33" x="169.580078"/>
     <use xlink:href="#ArialMT-2e" x="225.195312"/>
     <use xlink:href="#ArialMT-37" x="252.978516"/>
     <use xlink:href="#ArialMT-38" x="308.59375"/>
     <use xlink:href="#ArialMT-33" x="364.208984"/>
     <use xlink:href="#ArialMT-65" x="419.824219"/>
     <use xlink:href="#ArialMT-2d" x="475.439453"/>
     <use xlink:href="#ArialMT-31" x="508.740234"/>
     <use xlink:href="#ArialMT-30" x="564.355469"/>
    </g>
   </g>
  </g>
 </g>
 <defs>
  <clipPath id="p7821f22fbc">
   <rect x="44.605" y="11.136797" width="258.155001" height="226.18375"/>
  </clipPath>
  <clipPath id="p22e5b83f61">
   <rect x="367.298752" y="11.136797" width="258.155001" height="226.18375"/>
  </clipPath>
 </defs>
</svg>
